<svg xmlns="http://www.w3.org/2000/svg" xmlns:xlink="http://www.w3.org/1999/xlink" width="500" zoomAndPan="magnify" viewBox="0 0 375 374.999991" height="500" preserveAspectRatio="xMidYMid meet" version="1.0"><defs><clipPath id="0f38f6b707"><path d="M 0 0 L 375 0 L 375 375 L 0 375 Z M 0 0 " clip-rule="nonzero"/></clipPath><clipPath id="0a776f3065"><rect x="0" width="375" y="0" height="375"/></clipPath><clipPath id="ac2916e8d5"><path d="M 37.5 58.5 L 337.5 58.5 L 337.5 316.5 L 37.5 316.5 Z M 37.5 58.5 " clip-rule="nonzero"/></clipPath></defs><rect x="-37.5" width="450" fill="#ffffff" y="-37.499999" height="449.999989" fill-opacity="1"/><rect x="-37.5" width="450" fill="#ffffff" y="-37.499999" height="449.999989" fill-opacity="1"/><g transform="matrix(1, 0, 0, 1, 0, 0)"><g clip-path="url(#0a776f3065)"><g clip-path="url(#0f38f6b707)"><rect x="-82.5" width="540" fill="#ffffff" height="539.999987" y="-82.499998" fill-opacity="1"/></g></g></g><g clip-path="url(#ac2916e8d5)"><path fill="#005de0" d="M 337.238281 157.039062 C 336.660156 155.730469 335.167969 155.570312 333.882812 155.625 C 330.652344 155.519531 327.402344 155.125 324.175781 155.414062 C 323.125 155.386719 322.179688 155.675781 321.128906 155.832031 C 320.660156 155.9375 319.949219 156.070312 319.582031 156.488281 C 319.347656 156.753906 319.1875 157.039062 319.109375 157.382812 C 318.875 158.695312 318.953125 160.03125 318.980469 161.34375 C 318.980469 162.105469 319.214844 162.96875 318.613281 163.546875 C 317.980469 164.230469 317.117188 164.648438 316.25 164.964844 C 314.308594 165.621094 312.316406 166.171875 310.214844 166.011719 C 307.382812 165.515625 304.261719 163.964844 303.105469 161.160156 C 302.265625 158.980469 302.503906 156.175781 299.75 155.363281 C 299.222656 155.097656 298.488281 155.152344 298.253906 154.546875 C 297.832031 153.183594 298.199219 151.636719 298.175781 150.21875 C 298.464844 147.515625 299.667969 144.789062 301.796875 143.003906 C 302.898438 142.035156 304.390625 140.984375 305.046875 139.59375 C 305.546875 138.414062 306.125 137.179688 307.015625 136.261719 C 307.933594 135.554688 309.113281 135.1875 310.269531 134.925781 C 310.976562 134.925781 311.765625 135.003906 312.394531 135.34375 C 313.8125 136.289062 314.703125 137.914062 316.304688 138.597656 C 316.855469 138.832031 317.378906 139.199219 318.007812 139.148438 C 318.558594 139.015625 319.214844 138.359375 318.953125 137.808594 C 319.03125 137.363281 319.085938 136.890625 319.164062 136.5 C 319.320312 135.816406 319.320312 135.109375 319.503906 134.425781 C 319.921875 133.875 320.554688 133.480469 320.867188 132.824219 C 321.863281 129.546875 321.472656 126.003906 321.550781 122.621094 C 321.496094 119.839844 321.523438 117.082031 321.761719 114.304688 C 321.890625 112.808594 322.046875 111.074219 322.046875 109.527344 C 321.996094 107.691406 322.257812 105.800781 321.785156 103.992188 C 321.417969 102.890625 320.5 102.050781 320.1875 100.898438 C 319.738281 98.875 319.765625 96.75 319.058594 94.757812 C 317.929688 91.609375 316.171875 88.777344 315.121094 85.574219 C 314.179688 82.164062 314.097656 78.519531 313.445312 75.054688 C 312.972656 72.695312 312.472656 70.359375 312.132812 67.996094 C 311.871094 66.527344 311.894531 64.875 310.976562 63.617188 C 310.480469 62.984375 309.769531 62.933594 308.984375 62.777344 C 305.308594 61.832031 301.558594 61.882812 297.832031 61.9375 C 296.96875 61.9375 296.101562 61.964844 295.234375 61.964844 C 294.054688 61.910156 292.847656 61.9375 291.667969 61.726562 C 288.941406 61.148438 286.445312 59.757812 283.691406 59.285156 C 281.777344 59.023438 279.914062 58.527344 278 58.5 C 276.6875 58.5 275.375 58.734375 274.089844 58.917969 C 272.175781 59.128906 270.234375 59.367188 268.476562 60.230469 C 266.769531 61.019531 265.773438 62.699219 264.410156 63.90625 C 263.28125 64.875 261.8125 65.242188 260.367188 65.558594 C 258.324219 66.082031 256.222656 66.5 254.230469 67.261719 C 247.671875 69.753906 248.351562 77.3125 240.457031 80.695312 C 236.730469 82.6875 232.507812 84.238281 229.9375 87.753906 C 228.625 89.351562 228.78125 91.53125 228.703125 93.472656 C 228.675781 95.9375 226.15625 97.09375 224.609375 98.613281 C 222.824219 100.1875 221.199219 101.894531 219.808594 103.808594 C 218.105469 105.777344 215.636719 106.746094 213.199219 107.507812 C 211.648438 108.085938 209.996094 108.898438 209.132812 110.339844 C 208.398438 111.941406 207.714844 113.566406 207.292969 115.273438 C 206.875 116.980469 206.71875 118.816406 205.984375 120.441406 C 205.195312 121.9375 204.171875 123.222656 203.019531 124.535156 C 201.917969 125.714844 200.761719 127.210938 199.242188 127.996094 C 197.167969 129.046875 194.832031 128.445312 192.628906 128.863281 C 191.394531 129.152344 190.371094 129.859375 189.113281 130.121094 C 188.195312 130.226562 187.304688 130.019531 186.386719 129.964844 C 183.132812 129.808594 181.191406 128.128906 178.90625 126.054688 C 176.992188 124.902344 174.710938 125.296875 172.609375 124.980469 C 170.40625 124.585938 168.964844 122.777344 167.363281 121.386719 C 165.109375 119.679688 162.457031 118.132812 159.519531 118.34375 C 157.132812 118.316406 154.746094 119.207031 153.09375 120.941406 C 151.988281 122.042969 151.804688 123.644531 151.519531 125.113281 C 151.175781 126.449219 150.96875 127.894531 150.785156 129.285156 C 150.363281 131.460938 148.34375 132.851562 146.820312 134.292969 C 144.777344 136.15625 142.703125 138.074219 140.867188 140.171875 C 139.816406 141.351562 139.34375 142.820312 138.296875 144.027344 C 137.640625 145 136.589844 145.261719 135.515625 145.445312 C 134.597656 145.65625 133.78125 146.125 133.074219 146.757812 C 132.207031 147.492188 131.816406 148.671875 130.921875 149.378906 C 130.1875 149.589844 129.402344 149.617188 128.667969 149.640625 C 127.015625 149.589844 125.441406 148.617188 123.785156 148.566406 C 123.078125 148.566406 122.371094 148.59375 121.660156 148.644531 C 120.640625 148.722656 119.617188 148.777344 118.566406 148.671875 C 116.046875 148.800781 115.757812 150.402344 113.320312 148.226562 C 113.554688 147.464844 113.792969 146.652344 113.582031 145.839844 C 113.425781 145.128906 113.003906 144.5 112.847656 143.792969 C 112.953125 142.453125 114.261719 141.585938 115.023438 140.617188 C 115.574219 140.015625 115.941406 139.277344 116.203125 138.519531 C 117.125 136.15625 116.363281 133.636719 115.46875 131.382812 C 114.65625 129.152344 113.710938 127 112.769531 124.824219 C 112.558594 124.140625 112.585938 123.40625 112.558594 122.699219 C 112.480469 121.648438 112.113281 120.625 111.640625 119.707031 C 111.035156 118.421875 110.277344 117.214844 109.644531 115.929688 C 109.226562 114.984375 108.859375 114.015625 108.203125 113.226562 C 107.785156 112.730469 107.46875 112.179688 107.046875 111.652344 C 106.496094 110.917969 105.683594 110.445312 104.84375 110.078125 C 103.347656 109.476562 101.671875 108.480469 100.042969 108.925781 C 99.625 109.132812 99.492188 109.582031 99.414062 110 C 99.203125 110.972656 99.28125 111.996094 99.335938 112.992188 C 99.492188 115.167969 99.886719 117.292969 99.992188 119.472656 C 100.042969 121.886719 99.992188 124.273438 100.019531 126.6875 C 100.121094 131.488281 100.226562 136.339844 100.042969 141.140625 C 100.070312 143.976562 99.992188 146.625 99.546875 149.484375 C 99.125 156.566406 99.046875 163.679688 99.28125 170.789062 C 99.335938 172.914062 99.257812 175.0625 99.335938 177.1875 C 99.28125 179.339844 99.808594 181.570312 97.261719 182.410156 C 95.714844 182.882812 93.984375 183.015625 92.75 184.117188 C 90.679688 185.664062 89.734375 188.15625 87.792969 189.835938 C 87.425781 190.203125 87.082031 190.570312 86.742188 190.9375 C 85.507812 191.199219 84.382812 190.359375 83.304688 189.859375 C 81.625 188.890625 79.5 188.339844 77.558594 188.757812 C 76.902344 188.941406 76.273438 189.230469 75.617188 189.441406 C 73.179688 189.886719 70.554688 190.175781 68.089844 189.546875 C 66.042969 188.917969 64.285156 187.550781 62.132812 187.238281 C 61.476562 187.132812 60.796875 187.132812 60.140625 187.132812 C 58.722656 187.132812 57.332031 187.132812 56.125 186.214844 C 55.3125 185.664062 54.578125 185.007812 53.921875 184.273438 C 53.816406 184.167969 53.816406 184.011719 53.816406 183.851562 C 53.789062 183.015625 54.421875 182.332031 54.5 181.492188 C 55.023438 178.605469 52.085938 177.164062 50.40625 175.429688 C 48.804688 173.488281 46.917969 173.203125 44.714844 174.460938 C 42.0625 175.800781 42.746094 179.128906 41.484375 181.335938 C 40.359375 182.382812 38.523438 182.777344 37.96875 184.378906 C 37.628906 185.875 37.890625 187.710938 38.652344 189.046875 C 39.625 190.621094 40.832031 192.039062 41.878906 193.558594 C 43.507812 196.421875 44.738281 199.566406 45.65625 202.742188 C 46.234375 205.390625 46.707031 208.042969 47.023438 210.746094 C 47.335938 212.765625 47.441406 214.8125 48.097656 216.753906 C 48.882812 219.847656 50.40625 222.628906 51.847656 225.4375 C 53.136719 227.957031 54.578125 230.367188 56.046875 232.78125 C 57.9375 235.484375 59.773438 238.214844 61.714844 240.863281 C 62.894531 242.566406 64.179688 244.195312 65.308594 245.953125 C 66.359375 247.761719 67.277344 249.730469 68.011719 251.777344 C 69.636719 256.550781 70.082031 261.902344 68.378906 266.730469 C 67.984375 268.042969 67.851562 269.40625 67.117188 270.507812 C 66.828125 270.484375 66.542969 270.613281 66.410156 270.980469 C 66.410156 271.035156 66.359375 271.113281 66.304688 271.191406 C 65.753906 270.195312 65.019531 269.066406 63.707031 269.144531 C 63.496094 269.144531 63.261719 269.117188 63.027344 269.144531 C 63.027344 269.144531 63.027344 269.117188 63.027344 269.117188 C 63 269.117188 62.972656 269.144531 62.945312 269.144531 C 62.527344 269.171875 62.105469 269.300781 61.84375 269.695312 C 61.660156 269.957031 61.453125 270.378906 61.398438 270.769531 C 60.613281 272.476562 60.820312 274.941406 61.269531 276.515625 C 61.503906 277.433594 61.898438 278.300781 62.527344 279.035156 C 62.921875 279.480469 63.445312 279.824219 63.628906 280.425781 C 65.253906 284.308594 69.058594 287.40625 68.902344 291.945312 C 68.953125 292.652344 68.613281 293.230469 68.324219 293.859375 C 67.773438 295.746094 68.429688 297.742188 68.769531 299.605469 C 69.503906 301.46875 69.113281 305.085938 71.710938 305.375 C 72.652344 305.324219 73.335938 304.484375 73.78125 303.722656 C 74.253906 302.960938 74.253906 302.019531 74.621094 301.230469 C 75.355469 300.757812 76.589844 300.96875 77.273438 301.492188 C 79.109375 302.882812 76.667969 305.453125 78.949219 307.003906 C 79.632812 307.578125 80.472656 307.527344 81.285156 307.449219 C 82.046875 307.394531 82.832031 307.316406 83.4375 307.789062 C 84.222656 308.472656 84.984375 309.257812 85.535156 310.152344 C 85.875 310.808594 85.957031 311.566406 86.480469 312.09375 C 87.898438 313.402344 89.707031 314.324219 91.515625 315.082031 C 92.75 315.714844 94.0625 316.265625 95.453125 316.449219 C 95.765625 316.472656 96.082031 316.5 96.398438 316.5 C 98.496094 316.5 100.671875 315.84375 102.117188 314.296875 C 102.957031 313.324219 104.1875 312.828125 105.238281 312.117188 C 106.289062 311.4375 107.128906 310.464844 108.230469 309.863281 C 109.960938 308.890625 112.035156 309.023438 113.976562 308.707031 C 115.023438 308.5 115.96875 307.761719 117.070312 308.050781 C 119.195312 308.578125 121.136719 309.390625 123.417969 308.996094 C 124.179688 308.890625 124.914062 308.578125 125.675781 308.445312 C 127.75 308.394531 129.925781 308.210938 131.867188 307.34375 C 132.890625 306.820312 133.679688 306.003906 134.464844 305.191406 C 134.988281 304.773438 135.621094 304.640625 136.222656 304.378906 C 136.90625 304.089844 137.378906 303.511719 137.796875 302.9375 C 138.214844 302.386719 138.296875 301.546875 138.949219 301.203125 C 139.789062 300.917969 140.65625 300.917969 141.523438 300.941406 C 142.074219 300.941406 142.625 300.96875 143.175781 300.890625 C 144.066406 300.757812 144.90625 300.101562 145.851562 300.417969 C 147.476562 300.96875 149.105469 301.835938 150.730469 302.410156 C 152.488281 302.777344 154.324219 302.726562 156.109375 302.832031 C 156.371094 302.832031 156.660156 302.832031 156.949219 302.832031 C 157.789062 302.859375 158.652344 302.882812 159.441406 302.542969 C 160.125 302.253906 160.410156 301.570312 160.492188 300.890625 C 160.542969 300.523438 160.804688 300.363281 161.171875 300.417969 C 162.328125 300.445312 163.480469 300.679688 164.636719 300.652344 C 167.363281 300.285156 169.59375 301.992188 172.113281 302.675781 C 174.289062 303.066406 176.152344 304.039062 178.277344 304.667969 C 179.355469 304.902344 180.457031 305.035156 181.582031 305.085938 C 182.660156 305.113281 183.839844 305.402344 184.863281 304.929688 C 186.121094 304.273438 186.304688 302.726562 186.804688 301.519531 C 186.960938 301.203125 186.882812 300.652344 187.355469 300.707031 C 188.796875 300.757812 190.242188 301.019531 191.632812 301.46875 C 193.023438 301.964844 194.359375 302.699219 195.882812 302.804688 C 197.089844 302.882812 198.742188 303.015625 199.320312 301.652344 C 199.320312 301.597656 199.34375 301.546875 199.34375 301.46875 C 200.261719 300.835938 199.371094 299.238281 199.160156 298.398438 C 199.582031 297.847656 200.289062 297.769531 200.917969 297.714844 C 203.253906 297.242188 205.433594 298.320312 207.714844 298.605469 C 210.757812 298.976562 213.773438 298.265625 216.609375 297.242188 C 219.046875 296.195312 221.515625 295.222656 223.929688 294.171875 C 226.867188 292.78125 229.488281 291.050781 232.246094 289.320312 C 235.339844 287.40625 238.515625 285.515625 241.347656 283.207031 C 243.238281 281.738281 244.785156 279.902344 246.570312 278.328125 C 248.195312 276.964844 250.136719 275.992188 251.710938 274.574219 C 254.703125 271.820312 257.5625 268.910156 260.160156 265.761719 C 261.390625 264.34375 262.597656 262.902344 263.964844 261.589844 C 265.539062 259.859375 266.902344 257.996094 268.6875 256.445312 C 270.730469 254.820312 273.199219 253.746094 275.246094 252.117188 C 279.546875 248.890625 283.300781 244.824219 286.160156 240.257812 C 288.730469 236.691406 291.066406 233.019531 293.53125 229.398438 C 295.367188 226.828125 297.308594 224.335938 298.960938 221.660156 C 299.589844 220.660156 300.40625 219.769531 300.929688 218.71875 C 301.664062 216.832031 302.398438 214.917969 303.710938 213.34375 C 304.65625 212.054688 305.574219 210.746094 306.570312 209.484375 C 308.117188 207.726562 309.902344 206.179688 311.582031 204.554688 C 313.601562 202.347656 316.171875 200.933594 318.71875 199.410156 C 322.152344 196.945312 324.410156 193.21875 327.136719 190.042969 C 328.609375 188.050781 329.445312 185.664062 330.078125 183.300781 C 330.496094 181.726562 330.996094 180.257812 331.152344 178.605469 C 331.386719 175.851562 331.652344 173.070312 332.542969 170.421875 C 333.144531 168.585938 334.144531 166.695312 334.878906 164.886719 C 335.402344 163.679688 335.585938 162.339844 336.109375 161.132812 C 336.609375 159.875 337.371094 158.457031 337.238281 157.039062 Z M 318.296875 98.035156 C 318.535156 99.324219 318.453125 100.6875 319.003906 101.917969 C 319.53125 103.125 320.605469 104.097656 320.578125 105.515625 C 320.789062 109.683594 320.316406 113.804688 320.105469 117.976562 C 320.027344 121.597656 320.210938 125.21875 320.082031 128.835938 C 319.949219 129.859375 319.921875 131.09375 319.609375 132.144531 C 319.1875 132.929688 318.191406 133.351562 318.035156 134.292969 C 317.929688 134.742188 317.929688 135.210938 317.851562 135.660156 C 317.746094 136.316406 317.640625 136.96875 317.484375 137.625 C 316.015625 137.050781 315.019531 135.816406 313.914062 134.714844 C 313.128906 133.980469 312.054688 133.636719 311.003906 133.558594 C 309.378906 133.429688 307.804688 134.164062 306.386719 134.976562 C 304.367188 136.445312 304.207031 139.277344 302.265625 140.773438 C 301.242188 141.667969 300.140625 142.480469 299.328125 143.554688 C 297.886719 145.417969 296.992188 147.753906 296.757812 150.089844 C 296.785156 151.820312 296.257812 153.734375 297.046875 155.363281 C 297.648438 156.753906 299.484375 156.382812 300.378906 157.433594 C 301.242188 158.535156 301.140625 160.058594 301.609375 161.316406 C 302.082031 162.707031 302.949219 163.808594 304 164.726562 C 303.972656 164.753906 303.945312 164.78125 303.921875 164.804688 C 303.738281 164.964844 303.527344 165.199219 303.34375 165.382812 C 302.714844 165.933594 301.820312 166.355469 300.957031 166.300781 C 299.199219 166.195312 297.464844 165.410156 295.65625 165.75 C 294.683594 165.828125 293.6875 165.777344 292.742188 165.488281 C 291.929688 165.277344 291.144531 164.753906 290.328125 164.492188 C 288.386719 163.886719 287 165.488281 285.292969 166.066406 C 284.21875 166.378906 283.140625 165.75 282.066406 166.066406 C 281.382812 166.277344 280.804688 166.667969 280.097656 166.851562 C 278.96875 167.011719 277.789062 167.480469 276.6875 167.035156 C 274.746094 166.773438 273.539062 165.015625 272.777344 163.335938 C 272.070312 161.816406 270.390625 161.1875 269.078125 160.347656 C 267.347656 159.191406 266.167969 156.726562 263.753906 157.015625 C 263.046875 156.960938 262.363281 157.460938 261.679688 157.304688 C 260.394531 156.804688 258.296875 155.441406 257.246094 156.960938 C 256.617188 158.40625 254.519531 155.546875 253.730469 155.230469 C 253.574219 155.152344 253.417969 155.046875 253.257812 154.941406 C 253.390625 154.757812 253.496094 154.523438 253.523438 154.234375 C 253.652344 153.15625 253.890625 152.109375 254.335938 151.085938 C 255.304688 149.144531 257.507812 148.800781 259.398438 148.226562 C 260.210938 147.832031 261.023438 147.332031 261.65625 146.675781 C 262.285156 145.707031 261.757812 144.394531 260.789062 143.871094 C 260.105469 143.503906 259.320312 143.265625 258.742188 142.714844 C 258.242188 142.058594 257.667969 141.429688 257.351562 140.644531 C 256.851562 139.148438 257.535156 137.335938 259.347656 137.46875 C 260.789062 137.519531 262.285156 137.441406 263.699219 137.101562 C 264.515625 136.917969 264.722656 136.050781 264.988281 135.371094 C 265.328125 134.636719 265.589844 133.953125 265.484375 133.113281 C 265.378906 132.484375 265.171875 131.878906 265.25 131.226562 C 265.25 129.808594 266.167969 128.546875 267.269531 127.710938 C 268.476562 126.660156 269.945312 125.503906 270.496094 123.90625 C 271.074219 122.699219 269.789062 121.675781 268.632812 121.886719 C 267.113281 122.226562 265.746094 123.117188 264.148438 123.195312 C 264.066406 123.195312 263.832031 123.222656 263.78125 123.09375 C 263.910156 122.09375 264.722656 121.4375 264.804688 120.441406 C 264.988281 119.207031 264.332031 117.609375 262.886719 117.765625 C 261.863281 117.820312 261.261719 118.761719 260.367188 119.078125 C 260.265625 118.945312 260.132812 118.816406 259.976562 118.710938 C 258.585938 117.765625 256.828125 118.632812 255.304688 118.34375 C 255.933594 117.792969 256.617188 117.242188 257.351562 116.847656 C 257.875 116.664062 258.453125 116.613281 259.003906 116.480469 C 260.316406 116.140625 261.601562 115.851562 262.992188 115.957031 C 263.78125 115.980469 264.199219 116.691406 264.777344 117.109375 C 265.457031 117.660156 266.402344 117.84375 267.242188 117.636719 C 268.949219 117.292969 269.261719 115.40625 269.578125 113.960938 C 270.023438 112.859375 271.335938 112.464844 272.410156 112.832031 C 272.960938 112.9375 273.511719 113.175781 273.644531 113.804688 C 273.511719 114.355469 273.277344 114.878906 273.40625 115.484375 C 273.460938 116.246094 273.960938 116.847656 274.511719 117.320312 C 275.480469 118.449219 276.84375 119.417969 278.417969 119.289062 C 279.703125 119.3125 280.886719 118.632812 281.59375 117.582031 C 281.988281 116.820312 282.589844 116.296875 283.246094 115.71875 C 285.160156 114.039062 288.441406 112.703125 286.945312 109.632812 C 286.839844 109.238281 286.683594 108.6875 287.234375 108.664062 C 289.542969 107.902344 291.902344 109.109375 294.238281 109.1875 C 295.578125 109.132812 296.601562 107.980469 297.964844 108.191406 C 299.199219 108.214844 300.429688 108.480469 301.664062 108.664062 C 302.503906 108.820312 303.65625 108.925781 304.078125 109.816406 C 304.234375 110.339844 303.972656 110.867188 304.078125 111.390625 C 304.15625 111.890625 304.445312 112.492188 304.734375 112.964844 C 305.074219 113.59375 305.757812 114.171875 306.308594 114.671875 C 306.597656 115.011719 306.492188 115.484375 306.464844 115.902344 C 306.414062 116.613281 305.597656 116.980469 305.652344 117.714844 C 305.914062 120.597656 312.289062 118.945312 311.527344 116.453125 C 311.160156 115.613281 310.453125 114.90625 310.480469 113.9375 C 310.03125 112.78125 311.320312 112.230469 312.210938 111.96875 C 313.445312 111.546875 314.570312 109.867188 313.496094 108.765625 C 311.503906 106.851562 310.976562 105.226562 312.839844 102.917969 C 313.574219 101.972656 313.101562 100.476562 312.183594 99.820312 C 311.84375 99.324219 309.402344 99.898438 309.769531 99.21875 C 311.582031 98.089844 313.941406 98.429688 315.960938 97.984375 C 316.695312 97.800781 317.429688 97.589844 318.164062 97.382812 C 318.21875 97.539062 318.246094 97.800781 318.296875 98.035156 Z M 274.589844 182.933594 C 274.039062 183.667969 273.171875 184.140625 272.386719 184.640625 C 271.230469 185.453125 270.652344 186.921875 269.261719 187.421875 C 267.765625 187.945312 266.324219 188.601562 265.039062 189.546875 C 263.175781 190.203125 261.734375 191.699219 260.605469 193.296875 C 260.421875 193.089844 260.210938 192.851562 260.027344 192.667969 C 259.082031 191.777344 258.324219 190.597656 257.117188 189.992188 C 255.777344 189.335938 254.125 189.414062 252.761719 190.019531 C 251.316406 190.699219 249.558594 190.4375 248.089844 191.066406 C 246.753906 191.539062 245.914062 192.722656 244.734375 193.402344 C 244.101562 193.71875 243.34375 193.769531 242.6875 194.03125 C 241.425781 194.453125 240.378906 195.265625 239.378906 196.105469 C 237.019531 198.097656 234.34375 200.25 233.554688 203.371094 C 233.214844 204.160156 232.558594 204.761719 231.957031 205.367188 C 231.195312 206.128906 230.460938 206.941406 229.59375 207.597656 C 228.808594 208.226562 227.757812 208.4375 226.996094 209.144531 C 226.367188 209.746094 226.105469 210.664062 226.578125 211.425781 C 226.8125 211.871094 227.3125 212.136719 227.546875 212.582031 C 227.835938 213.105469 228.230469 213.8125 228.28125 214.46875 C 228.308594 215.675781 228.203125 216.910156 228.859375 218.011719 C 229.542969 219.558594 231.484375 220.425781 231.511719 222.261719 C 231.484375 223.101562 231.511719 223.96875 231.929688 224.703125 C 232.21875 225.148438 232.613281 225.488281 233.03125 225.777344 C 232.246094 226.539062 231.5625 227.429688 230.671875 228.035156 C 230.144531 228.191406 229.621094 228.375 229.070312 228.402344 C 228.230469 228.242188 227.363281 228.113281 226.523438 228.375 C 225.292969 228.664062 224.375 229.554688 223.769531 230.632812 C 223.457031 231.101562 223.296875 231.8125 222.640625 231.941406 C 221.855469 232.152344 221.148438 231.839844 220.332031 231.707031 C 219.519531 231.601562 218.707031 231.523438 217.921875 231.285156 C 217.316406 231.078125 216.582031 230.816406 216.058594 230.421875 C 215.558594 230.054688 215.21875 229.449219 214.929688 228.898438 C 213.671875 227.273438 211.203125 227.117188 209.339844 227.5625 C 207.058594 228.007812 205.71875 230.183594 203.515625 230.734375 C 202.441406 231.023438 201.339844 230.789062 200.261719 230.578125 C 199.398438 230.210938 198.585938 229.714844 197.71875 229.320312 C 194.703125 227.851562 192.761719 224.992188 190.582031 222.578125 C 188.511719 219.902344 186.464844 217.199219 184.261719 214.652344 C 182.710938 213.367188 181.425781 211.820312 179.878906 210.535156 C 179.300781 210.035156 178.644531 209.460938 178.304688 208.804688 C 178.199219 208.253906 178.621094 207.859375 178.882812 207.359375 C 180.847656 204.472656 182.503906 201.300781 184.339844 198.308594 C 185.835938 195.84375 187.171875 193.296875 188.0625 190.515625 C 188.796875 188.3125 189.007812 185.976562 189.246094 183.695312 C 189.429688 182.777344 189.71875 181.808594 190.136719 180.941406 C 190.84375 180.023438 191.5 179 191.476562 177.792969 C 192.496094 177.347656 193.390625 176.351562 194.097656 175.535156 C 195.382812 174.09375 196.644531 172.625 198.113281 171.363281 C 200.078125 169.527344 202.675781 168.636719 205.328125 168.375 C 206.824219 168.035156 208.265625 168.769531 209.761719 168.585938 C 211.335938 168.558594 212.699219 167.71875 213.75 166.589844 C 214.273438 166.039062 214.691406 165.382812 215.375 165.015625 C 216.6875 164.492188 218.128906 164.253906 218.941406 162.945312 C 219.808594 161.65625 218.472656 160.058594 219.363281 158.773438 C 220.253906 157.800781 221.355469 157.09375 222.589844 156.59375 C 223.953125 155.964844 225.421875 155.414062 226.945312 155.414062 C 228.414062 155.597656 229.910156 156.097656 231.40625 155.675781 C 231.929688 155.546875 232.453125 155.386719 232.875 155.019531 C 233.242188 154.785156 233.292969 154.3125 233.554688 153.996094 C 234.449219 153.683594 234.972656 154.914062 235.863281 154.863281 C 236.785156 154.785156 237.597656 154.101562 238.015625 153.316406 C 238.226562 152.972656 238.226562 152.421875 238.621094 152.238281 C 238.75 152.160156 238.933594 152.109375 239.09375 152.03125 C 239.695312 152.476562 240.457031 152.710938 241.164062 152.84375 C 242.320312 152.871094 243.261719 152.214844 244.285156 151.792969 C 245.808594 151.425781 246.070312 152.632812 246.859375 153.578125 C 247.644531 154.390625 248.851562 154.652344 249.925781 154.835938 C 250.53125 154.914062 251.054688 155.125 251.660156 155.257812 C 251.894531 155.308594 252.132812 155.335938 252.339844 155.308594 C 252.683594 155.648438 253.3125 155.859375 253.625 156.175781 C 254.808594 157.171875 256.933594 159.53125 258.113281 157.304688 C 258.269531 157.066406 258.558594 157.121094 258.796875 157.144531 C 259.765625 157.222656 260.554688 157.800781 261.472656 158.117188 C 262.625 158.40625 263.726562 157.511719 264.90625 157.984375 C 266.113281 158.484375 266.953125 159.691406 267.898438 160.554688 C 269.027344 161.472656 270.496094 161.945312 271.519531 163.023438 C 272.226562 163.863281 272.464844 165.042969 273.25 165.855469 C 273.722656 166.378906 274.246094 166.878906 274.824219 167.296875 C 275.613281 167.746094 276.554688 167.929688 277.449219 168.113281 C 277.476562 168.191406 277.5 168.296875 277.527344 168.375 C 277.738281 169.292969 277.632812 170.261719 277.554688 171.234375 C 277.449219 172.335938 276.84375 173.304688 276.453125 174.304688 C 276.214844 174.933594 276.242188 175.617188 275.980469 176.21875 C 275.585938 177.292969 274.71875 178.316406 274.773438 179.523438 C 274.851562 180.703125 275.402344 181.910156 274.589844 182.933594 Z M 267.214844 210.847656 C 266.769531 211.402344 265.957031 211.53125 265.484375 212.109375 C 264.410156 213.605469 263.753906 215.570312 263.910156 217.410156 C 263.621094 218.011719 263.148438 218.535156 262.574219 218.851562 C 260.554688 219.875 258.714844 221.316406 256.484375 221.867188 C 255.097656 222.261719 253.679688 221.683594 252.261719 221.84375 C 249.664062 222 247.75 224.359375 247.015625 226.667969 C 246.492188 227.875 245.703125 228.925781 244.8125 229.949219 C 244.285156 230.421875 243.917969 231.183594 243.183594 231.3125 C 242.292969 231.207031 241.820312 230.316406 240.980469 230.082031 C 240.273438 229.816406 239.539062 229.921875 238.804688 229.792969 C 238.226562 229.449219 237.726562 228.953125 237.359375 228.402344 C 236.914062 227.667969 236.546875 226.828125 235.917969 226.199219 C 234.945312 225.148438 232.875 224.78125 232.953125 223.074219 C 233.347656 219.847656 230.566406 219.191406 229.832031 216.59375 C 229.621094 215.46875 229.960938 214.234375 229.410156 213.132812 C 229.121094 212.476562 228.835938 211.820312 228.363281 211.296875 C 228.152344 211.085938 227.835938 210.902344 227.785156 210.585938 C 228.308594 209.722656 229.4375 209.617188 230.222656 208.988281 C 231.246094 208.304688 232.085938 207.359375 232.953125 206.496094 C 233.871094 205.601562 234.816406 204.632812 235.105469 203.347656 C 235.105469 203.371094 235.078125 203.398438 235.078125 203.425781 C 235.417969 202.007812 236.519531 200.878906 237.464844 199.832031 C 238.882812 198.464844 240.351562 197.128906 241.976562 196.027344 C 242.921875 195.398438 244.050781 195.238281 245.125 194.898438 C 245.78125 194.609375 246.359375 194.136719 246.910156 193.664062 C 247.539062 193.035156 248.25 192.5625 249.085938 192.300781 C 249.953125 192.066406 250.84375 192.089844 251.738281 191.90625 C 253.050781 191.644531 254.230469 190.832031 255.621094 191.066406 C 257.167969 191.25 257.957031 192.773438 259.03125 193.71875 C 259.214844 193.925781 259.398438 194.085938 259.632812 194.347656 C 260.265625 195.265625 261.15625 195.921875 261.996094 196.628906 C 262.808594 197.3125 263.4375 198.203125 264.226562 198.964844 C 265.066406 199.832031 266.089844 200.800781 267.191406 201.40625 C 267.765625 201.71875 268.582031 201.929688 268.710938 202.664062 C 268.816406 203.082031 268.816406 203.503906 268.972656 203.921875 C 269.105469 204.421875 269.550781 204.761719 269.734375 205.234375 C 269.054688 206.679688 267.664062 207.832031 267.425781 209.460938 C 267.296875 209.851562 267.503906 210.429688 267.214844 210.847656 Z M 268.238281 122.988281 C 268.449219 122.933594 268.765625 122.777344 269.054688 122.828125 C 269.261719 122.882812 269.445312 122.988281 269.605469 123.09375 C 269.761719 123.378906 269.523438 123.722656 269.421875 124.035156 C 268.109375 126.503906 264.722656 127.550781 264.332031 130.570312 C 264.171875 131.511719 264.304688 132.433594 264.515625 133.324219 C 264.59375 133.953125 264.332031 134.503906 264.066406 135.082031 C 263.859375 135.605469 263.78125 136.289062 263.070312 136.289062 C 262.285156 136.417969 261.523438 136.5 260.710938 136.550781 C 259.714844 136.550781 258.636719 136.417969 257.691406 136.839844 C 256.300781 137.679688 255.910156 139.566406 256.460938 141.035156 C 256.878906 141.980469 257.667969 143.136719 258.507812 143.765625 C 259.214844 144.421875 260.449219 144.421875 260.894531 145.367188 C 261.207031 146.441406 259.6875 146.914062 258.925781 147.386719 C 257.457031 147.78125 255.933594 148.09375 254.726562 149.066406 C 253.285156 150.273438 252.761719 152.214844 252.550781 153.996094 C 252.523438 154.074219 252.472656 154.339844 252.417969 154.417969 C 252.289062 154.496094 252.105469 154.441406 251.972656 154.46875 C 251.34375 154.390625 250.742188 154.101562 250.136719 154.023438 C 248.800781 153.867188 247.566406 153.472656 246.910156 152.1875 C 246.253906 150.980469 245.125 150.640625 243.816406 151.03125 C 242.949219 151.375 242.214844 151.949219 241.242188 151.976562 C 240.378906 151.820312 239.222656 151.425781 238.960938 150.480469 C 238.855469 149.195312 239.539062 147.9375 239.144531 146.652344 C 238.410156 144.054688 235.496094 143.976562 233.347656 144.761719 C 232.691406 144.945312 232.375 144.265625 232.164062 143.765625 C 232.347656 143.058594 232.664062 142.347656 233.164062 141.796875 C 234.105469 140.90625 234.421875 139.542969 235 138.386719 C 235.394531 137.46875 236.074219 136.734375 236.652344 135.921875 C 237.335938 134.949219 238.042969 134.058594 239.066406 133.402344 C 240.0625 132.640625 241.296875 132.746094 242.503906 132.71875 C 243.105469 132.695312 243.578125 132.328125 244.101562 132.0625 C 244.941406 131.671875 245.703125 131.042969 246.253906 130.28125 C 246.960938 129.386719 246.859375 128.15625 247.433594 127.238281 C 247.722656 126.792969 248.167969 126.449219 248.457031 126.003906 C 248.984375 125.269531 249.402344 124.296875 250.320312 123.984375 C 251.582031 123.773438 252.472656 123.589844 252.945312 122.226562 C 252.945312 122.226562 252.96875 122.226562 252.96875 122.199219 C 253.652344 122.410156 254.359375 122.539062 255.070312 122.644531 C 255.988281 122.882812 256.933594 122.59375 257.667969 122.042969 C 258.347656 121.648438 259.242188 121.648438 259.84375 121.070312 C 260.210938 120.808594 260.449219 120.441406 260.527344 120.046875 C 260.550781 120.046875 260.550781 120.046875 260.578125 120.023438 C 261.339844 119.839844 261.863281 119.15625 262.574219 118.816406 C 263.597656 118.34375 263.9375 119.417969 263.859375 120.230469 C 263.753906 121.203125 262.914062 121.964844 262.808594 122.933594 C 262.941406 125.453125 266.953125 123.355469 268.238281 122.988281 Z M 222.640625 102.550781 C 224.191406 100.949219 225.816406 99.453125 227.523438 98.035156 C 228.675781 97.039062 229.882812 95.886719 230.066406 94.285156 C 230.304688 92.710938 230.039062 91.058594 230.539062 89.535156 C 231.40625 87.753906 233.109375 86.492188 234.683594 85.363281 C 240.195312 82.058594 245.257812 81.140625 248.71875 75.027344 C 249.980469 72.957031 251.160156 70.753906 253.207031 69.335938 C 255.648438 67.945312 258.53125 67.523438 261.207031 66.816406 C 262.574219 66.554688 263.910156 66.082031 265.039062 65.242188 C 266.824219 63.824219 267.949219 61.597656 270.3125 61.070312 C 272.570312 60.414062 275.113281 60.257812 277.476562 59.96875 C 279.625 59.890625 281.726562 60.492188 283.851562 60.859375 C 285.609375 61.226562 287.285156 61.964844 289.019531 62.566406 C 292.140625 63.640625 295.417969 63.5625 298.671875 63.457031 C 301.347656 63.378906 304 63.300781 306.597656 63.878906 C 307.644531 64.0625 308.589844 64.191406 309.664062 64.507812 C 310.136719 64.847656 310.214844 65.53125 310.347656 66.054688 C 310.792969 69.152344 311.34375 72.246094 312 75.316406 C 312.605469 78.675781 312.761719 82.296875 313.601562 85.628906 C 314.625 89.378906 317.011719 92.632812 317.980469 96.382812 C 317.929688 96.410156 317.878906 96.4375 317.824219 96.4375 C 317.089844 96.699219 316.199219 96.910156 315.410156 97.09375 C 313.785156 97.433594 308.300781 97.171875 308.824219 99.691406 C 309.167969 100.609375 310.347656 100.476562 311.160156 100.503906 C 311.949219 100.320312 312.445312 101.527344 312.210938 102.128906 C 309.980469 105.066406 310.398438 106.957031 312.945312 109.476562 C 313.3125 110.734375 311.660156 111.050781 310.820312 111.441406 C 310.164062 111.808594 309.535156 112.414062 309.507812 113.199219 C 309.5625 113.9375 309.640625 114.695312 309.953125 115.378906 C 310.269531 116.164062 311.265625 116.796875 310.214844 117.476562 C 309.664062 117.898438 308.929688 118.054688 308.273438 118.1875 C 307.90625 118.238281 307.4375 118.289062 307.09375 118.082031 C 306.4375 117.6875 306.726562 117.425781 307.09375 116.953125 C 307.644531 116.0625 307.722656 114.695312 306.988281 113.882812 C 306.464844 113.410156 305.914062 112.992188 305.574219 112.363281 C 305.023438 111.625 305.023438 110.8125 305.125 109.921875 C 304.96875 108.136719 302.898438 107.769531 301.453125 107.558594 C 299.957031 107.375 298.464844 106.984375 296.941406 107.191406 C 296.152344 107.351562 295.472656 107.824219 294.710938 108.058594 C 293.976562 108.269531 293.191406 108.007812 292.457031 107.875 C 290.671875 107.585938 288.835938 107.035156 287.078125 107.640625 C 285.582031 107.875 285.816406 109.449219 286.316406 110.472656 C 286.472656 110.917969 286.394531 111.46875 286.183594 111.914062 C 285.871094 112.546875 285.214844 112.9375 284.664062 113.382812 C 283.300781 114.511719 281.699219 115.484375 280.804688 117.058594 C 279.757812 118.65625 277.289062 118.632812 276.003906 117.347656 C 275.480469 116.691406 274.5625 116.246094 274.429688 115.351562 C 274.273438 114.828125 274.613281 114.328125 274.667969 113.804688 C 274.667969 113.464844 274.535156 113.148438 274.351562 112.859375 C 273.855469 112.019531 272.777344 111.835938 271.914062 111.707031 C 270.96875 111.523438 270.101562 111.996094 269.394531 112.570312 C 268.371094 113.464844 268.6875 114.984375 267.949219 116.0625 C 267.503906 116.664062 266.664062 116.820312 265.984375 116.585938 C 265.40625 116.375 264.960938 115.824219 264.488281 115.457031 C 263.699219 114.800781 262.652344 114.878906 261.679688 114.957031 C 260.605469 115.0625 259.53125 115.324219 258.480469 115.589844 C 257.246094 115.695312 256.222656 116.324219 255.304688 117.109375 C 254.832031 117.476562 254.152344 117.976562 254.441406 118.65625 C 255.382812 120.3125 258.585938 118.289062 259.738281 119.679688 C 259.53125 120.597656 258.402344 120.679688 257.667969 120.992188 C 257.089844 121.28125 256.589844 121.753906 255.910156 121.753906 C 254.597656 121.621094 253.257812 121.308594 252.078125 120.703125 C 251.421875 120.441406 250.84375 120.230469 250.320312 119.734375 C 250.214844 119.628906 250.109375 119.496094 250.136719 119.339844 C 250.164062 118.839844 250.714844 118.789062 251.082031 118.683594 C 252.132812 118.5 252.261719 117.398438 251.789062 116.613281 C 250.925781 115.167969 249.402344 114.328125 247.828125 113.882812 C 246.859375 113.566406 245.730469 113.410156 244.917969 114.144531 C 244.679688 114.328125 244.445312 114.589844 244.128906 114.511719 C 242.894531 114.222656 241.558594 114.460938 240.585938 115.300781 C 240.035156 116.0625 239.117188 116.347656 238.199219 116.21875 C 237.125 115.957031 236.101562 115.484375 235.078125 115.117188 C 234.238281 114.722656 233.320312 114.277344 232.820312 113.4375 C 232.402344 112.964844 232.269531 112.492188 232.246094 111.863281 C 232.164062 111.074219 231.667969 110.472656 230.933594 110.183594 C 229.960938 109.765625 228.648438 109.765625 227.941406 110.628906 C 227.601562 111.101562 227.179688 111.496094 226.550781 111.339844 C 224.792969 111.023438 222.957031 111.050781 221.226562 110.605469 C 219.941406 109.738281 219.207031 108.214844 218.289062 106.957031 C 219.992188 105.882812 221.382812 104.28125 222.640625 102.550781 Z M 151.886719 130.570312 C 152.277344 129.492188 152.277344 128.339844 152.488281 127.238281 C 152.726562 126.1875 152.960938 125.136719 153.144531 124.089844 C 153.433594 121.804688 155.714844 120.414062 157.816406 119.96875 C 159.308594 119.734375 160.859375 119.707031 162.300781 120.152344 C 163.847656 120.78125 165.398438 121.648438 166.707031 122.777344 C 168.441406 124.507812 170.382812 126.320312 172.953125 126.527344 C 174.605469 126.660156 176.308594 126.449219 177.859375 127.160156 C 179.984375 128.917969 182.054688 130.910156 184.96875 131.25 C 186.832031 131.460938 188.796875 131.960938 190.609375 131.171875 C 191.816406 130.675781 193.023438 130.042969 194.359375 130.175781 C 196.144531 130.175781 198.058594 130.175781 199.710938 129.363281 C 200.945312 128.785156 201.890625 127.8125 202.808594 126.84375 C 204.066406 125.503906 205.300781 124.140625 206.324219 122.621094 C 208.238281 120.128906 208.082031 116.847656 209.132812 114.015625 C 209.550781 112.9375 209.945312 111.863281 210.46875 110.839844 C 212.226562 108.847656 215.007812 108.664062 217.289062 107.507812 C 217.578125 107.953125 217.921875 108.398438 218.207031 108.847656 C 219.074219 110.105469 220.046875 111.707031 221.75 111.808594 C 222.957031 111.890625 224.136719 112.097656 225.34375 112.203125 C 225.949219 112.28125 226.683594 112.464844 227.3125 112.308594 C 228.492188 111.863281 228.464844 110.5 230.09375 110.996094 C 231.011719 111.207031 231.195312 111.941406 231.222656 112.753906 C 232.0625 115.5625 235.210938 116.347656 237.675781 117.164062 C 238.566406 117.320312 239.589844 117.214844 240.351562 116.691406 C 240.980469 116.113281 241.585938 115.484375 242.503906 115.40625 C 243.183594 115.246094 243.839844 115.667969 244.550781 115.429688 C 244.917969 115.300781 245.203125 114.984375 245.519531 114.800781 C 246.332031 114.328125 247.328125 114.855469 248.144531 115.117188 C 249.113281 115.40625 250.007812 116.0625 250.636719 116.875 C 250.792969 117.058594 250.949219 117.425781 250.925781 117.6875 C 250.636719 117.84375 250.320312 117.871094 250.007812 117.949219 C 249.269531 118.265625 248.773438 119.105469 249.085938 119.863281 C 249.585938 120.886719 250.792969 121.28125 251.765625 121.675781 C 251.84375 121.726562 251.949219 121.753906 252.027344 121.804688 C 252 121.886719 251.972656 121.9375 251.949219 122.015625 C 251.816406 122.226562 251.710938 122.539062 251.449219 122.671875 C 250.925781 122.90625 250.320312 122.855469 249.796875 123.09375 C 248.800781 123.484375 248.25 124.480469 247.699219 125.347656 C 247.25 125.953125 246.621094 126.476562 246.308594 127.210938 C 246.019531 127.917969 245.992188 128.734375 245.597656 129.414062 C 244.96875 130.570312 243.734375 131.199219 242.582031 131.695312 C 241.503906 131.828125 240.351562 131.59375 239.355469 132.089844 C 237.675781 132.824219 236.496094 134.320312 235.472656 135.84375 C 234.394531 137.074219 233.820312 138.570312 233.164062 140.09375 C 232.585938 141.089844 231.640625 141.851562 231.328125 143.003906 C 231.089844 143.449219 231.089844 143.976562 231.378906 144.394531 C 231.851562 145.574219 232.925781 145.96875 234.082031 145.445312 C 235.105469 145.183594 236.363281 145.023438 237.308594 145.628906 C 239.25 147.070312 237.414062 149.167969 238.070312 150.980469 C 238.121094 151.113281 238.199219 151.242188 238.277344 151.347656 C 238.175781 151.398438 238.070312 151.453125 237.964844 151.503906 C 237.175781 151.925781 237.28125 152.972656 236.601562 153.5 C 236.335938 153.734375 235.839844 154.128906 235.472656 153.839844 C 234.738281 153.289062 233.765625 152.660156 232.875 153.261719 C 232.535156 153.472656 232.453125 153.890625 232.246094 154.207031 C 230.933594 155.308594 229.042969 154.863281 227.496094 154.523438 C 225.949219 154.285156 224.398438 154.8125 222.957031 155.335938 C 221.722656 155.886719 220.4375 156.382812 219.441406 157.328125 C 218.839844 157.800781 218.261719 158.324219 218.105469 159.113281 C 217.789062 160.058594 218.207031 160.976562 218.207031 161.921875 C 218.183594 162.445312 217.789062 162.8125 217.394531 163.128906 C 216.53125 163.835938 215.269531 163.757812 214.40625 164.492188 C 213.460938 165.199219 212.910156 166.222656 211.914062 166.90625 C 210.339844 168.085938 208.476562 167.585938 206.71875 167.378906 C 199.003906 167.378906 196.5625 171.546875 191.789062 176.480469 C 191.371094 176.742188 190.292969 177.425781 189.875 176.925781 C 189.347656 176.140625 188.824219 175.378906 188.535156 174.460938 C 188.429688 173.9375 188.457031 173.359375 188.40625 172.808594 C 188.902344 171.890625 190.003906 171.445312 190.660156 170.628906 C 191.1875 169.871094 191.972656 168.769531 191.476562 167.824219 C 191.027344 167.378906 190.347656 167.324219 189.769531 167.113281 C 188.957031 167.0625 188.273438 166.800781 187.460938 166.617188 C 186.203125 166.328125 185.125 167.296875 184.546875 168.320312 C 184.050781 169.136719 184.128906 170.078125 184.15625 170.996094 C 184.15625 172.335938 182.449219 176.847656 180.796875 174.671875 C 180.378906 174.144531 179.640625 173.726562 179.695312 172.964844 C 179.824219 171.917969 180.664062 170.605469 179.746094 169.710938 C 178.828125 169.03125 177.464844 169.109375 176.363281 169.054688 C 175.601562 168.871094 175.078125 168.21875 174.605469 167.640625 C 173.792969 166.667969 173.898438 165.410156 173.921875 164.203125 C 173.921875 162.996094 173.003906 161.65625 171.691406 161.839844 C 167.390625 162.234375 170.117188 166.539062 161.304688 161.972656 C 159.730469 161.132812 158.128906 160.476562 156.921875 159.085938 C 155.976562 158.117188 154.796875 157.144531 154.667969 155.703125 C 154.429688 154.339844 154.796875 152.871094 155.242188 151.582031 C 155.503906 150.902344 155.898438 150.191406 155.820312 149.457031 C 155.53125 147.308594 153.589844 145.917969 151.648438 145.285156 C 150.285156 144.527344 149.339844 143.03125 149.210938 141.484375 C 148.84375 139.644531 149.027344 137.703125 148.710938 135.84375 C 148.710938 135.421875 148.710938 134.898438 148.660156 134.453125 C 150.046875 133.324219 151.28125 132.117188 151.886719 130.570312 Z M 56.886719 231.550781 C 54.289062 226.984375 51.429688 222.472656 49.75 217.460938 C 48.414062 213.578125 48.464844 209.40625 47.597656 205.417969 C 47.125 202.402344 46.183594 199.488281 44.949219 196.683594 C 44.082031 194.398438 42.824219 192.328125 41.300781 190.464844 C 40.699219 189.625 40.121094 188.917969 39.625 187.972656 C 39.335938 187 39.074219 185.875 39.308594 184.851562 C 39.859375 183.773438 41.171875 183.460938 42.0625 182.777344 C 44.292969 181.046875 42.957031 177.269531 45.367188 175.746094 C 46.15625 175.273438 47.363281 174.878906 48.203125 175.378906 C 49.253906 176.140625 50.011719 177.242188 51.089844 177.976562 C 52.113281 178.683594 53.214844 179.761719 53.109375 181.097656 C 53.054688 181.832031 52.582031 182.4375 52.453125 183.171875 C 52.007812 184.875 53.527344 185.875 54.628906 186.84375 C 56.597656 188.65625 58.933594 188.550781 61.398438 188.550781 C 63 188.601562 64.3125 189.519531 65.753906 190.125 C 67.828125 191.171875 70.109375 191.433594 72.417969 191.25 C 73.363281 191.171875 74.308594 191.09375 75.25 190.964844 C 76.40625 190.804688 77.402344 190.097656 78.558594 189.992188 C 80.683594 189.914062 82.464844 190.964844 84.300781 191.90625 C 85.5625 192.484375 87.347656 192.773438 88.210938 191.433594 C 88.894531 190.699219 89.707031 190.019531 90.335938 189.207031 C 91.046875 188.261719 91.570312 187.316406 92.382812 186.371094 C 93.195312 185.53125 94.0625 184.640625 95.242188 184.351562 C 96.136719 184.0625 97.289062 183.90625 98.207031 183.511719 C 99.386719 182.960938 100.464844 181.832031 100.671875 180.496094 C 100.882812 174.277344 100.515625 168.035156 100.515625 161.816406 C 100.59375 158.089844 100.753906 154.339844 100.832031 150.613281 C 100.988281 148.671875 101.355469 146.652344 101.40625 144.632812 C 101.488281 139.382812 101.539062 134.136719 101.511719 128.890625 C 101.25 125.425781 101.59375 121.964844 101.328125 118.527344 C 101.199219 115.71875 100.410156 112.992188 100.804688 110.183594 C 101.75 110.261719 102.457031 110.550781 103.347656 110.945312 C 104.214844 111.339844 105.1875 111.652344 105.816406 112.386719 C 106.945312 113.804688 107.835938 115.246094 108.542969 116.925781 C 109.199219 118.160156 109.910156 119.339844 110.511719 120.597656 C 111.117188 121.703125 111.140625 122.988281 111.21875 124.246094 C 111.378906 125.742188 112.296875 127 112.820312 128.390625 C 113.921875 131.800781 116.546875 135.605469 114.34375 139.148438 C 113.609375 140.222656 112.503906 141.011719 111.902344 142.164062 C 111.5625 142.792969 111.324219 143.527344 111.535156 144.238281 C 111.71875 145.128906 112.425781 145.917969 112.242188 146.859375 C 112.113281 147.542969 111.640625 148.304688 112.113281 148.933594 C 112.820312 149.640625 113.660156 150.296875 114.632812 150.585938 C 115.941406 151.109375 117.097656 150.246094 118.355469 150.035156 C 119.511719 150.140625 120.585938 150.0625 121.6875 150.007812 C 122.398438 149.957031 123.132812 149.929688 123.890625 149.929688 C 125.675781 150.140625 127.355469 151.136719 129.21875 150.980469 C 130.371094 150.847656 131.789062 150.902344 132.496094 149.800781 C 133.152344 148.90625 133.703125 147.859375 134.675781 147.28125 C 135.539062 146.675781 136.617188 146.675781 137.585938 146.335938 C 140.105469 145.261719 140.683594 142.269531 142.519531 140.433594 C 144.09375 138.78125 145.878906 137.050781 147.609375 135.476562 C 147.714844 135.371094 147.84375 135.265625 147.976562 135.160156 C 148.054688 136.394531 148.210938 137.601562 148.238281 138.859375 C 148.292969 141.351562 148.660156 144.105469 150.835938 145.65625 C 151.753906 146.335938 153.011719 146.492188 153.878906 147.308594 C 154.5625 147.910156 155.136719 148.828125 155.113281 149.746094 C 155.007812 150.296875 154.71875 150.824219 154.535156 151.347656 C 153.644531 153.8125 153.433594 156.882812 155.585938 158.773438 C 156.792969 160.003906 158 161.289062 159.597656 161.945312 C 162.273438 163.230469 166.867188 166.460938 169.566406 164.019531 C 170.066406 163.652344 170.460938 163.128906 171.011719 162.863281 C 171.746094 162.707031 172.613281 162.472656 172.980469 163.335938 C 173.347656 164.125 173.082031 164.988281 173.164062 165.828125 C 173.1875 166.695312 173.582031 167.507812 174.105469 168.21875 C 174.683594 168.953125 175.390625 169.6875 176.3125 169.921875 C 177.125 169.976562 177.9375 170 178.722656 170.132812 C 179.011719 170.183594 179.484375 170.316406 179.40625 170.710938 C 179.300781 171.574219 178.855469 172.414062 178.960938 173.304688 C 179.066406 174.199219 179.878906 174.75 180.429688 175.40625 C 182.972656 178.109375 185.257812 173.175781 185.308594 170.972656 C 185.152344 169.582031 185.464844 168.164062 186.832031 167.507812 C 187.460938 167.378906 188.0625 167.691406 188.667969 167.796875 C 189.007812 167.929688 189.347656 167.953125 189.71875 167.980469 C 190.109375 168.085938 190.476562 168.242188 190.871094 168.347656 C 190.765625 169.503906 189.769531 170.367188 188.902344 171.023438 C 188.222656 171.574219 187.40625 172.257812 187.671875 173.226562 C 187.644531 174.488281 188.089844 175.640625 188.796875 176.691406 C 189.113281 177.109375 189.324219 177.636719 189.796875 177.898438 C 190.085938 177.976562 190.347656 178.003906 190.636719 178.003906 C 190.609375 178.265625 190.554688 178.476562 190.476562 178.761719 C 190.242188 179.5 189.613281 180.023438 189.296875 180.703125 C 188.511719 182.410156 188.300781 184.246094 188.167969 186.082031 C 187.933594 188.496094 187.171875 190.859375 186.226562 193.089844 C 184.261719 197.207031 181.664062 201.039062 179.457031 205.023438 C 178.804688 206.152344 177.753906 207.203125 177.492188 208.515625 C 177.464844 209.800781 178.804688 210.71875 179.695312 211.503906 C 180.507812 212.214844 181.242188 212.976562 181.976562 213.761719 C 182.894531 214.652344 183.972656 215.386719 184.707031 216.464844 C 185.914062 218.144531 187.328125 219.691406 188.589844 221.34375 C 189.347656 222.445312 190.136719 223.496094 191.082031 224.441406 C 192.96875 226.722656 194.9375 229.082031 197.667969 230.34375 C 197.824219 230.421875 197.980469 230.5 198.136719 230.605469 C 197.769531 231.234375 197.640625 232.074219 197.507812 232.757812 C 197.273438 234.121094 197.980469 235.40625 197.929688 236.742188 C 197.953125 237.558594 197.429688 238.1875 197.089844 238.921875 C 196.539062 239.996094 195.855469 241.019531 195.070312 241.964844 C 192.078125 241.414062 189.585938 241.386719 187.382812 243.773438 C 186.777344 244.351562 186.070312 244.929688 185.203125 244.902344 C 184.179688 245.0625 183.105469 244.5625 182.109375 244.878906 C 181.269531 245.21875 180.507812 245.898438 180.21875 246.765625 C 179.722656 248.105469 180.402344 249.625 179.617188 250.859375 C 178.855469 252.089844 177.308594 251.933594 176.023438 251.828125 C 174.945312 251.90625 173.816406 252.433594 173.214844 253.351562 C 173.109375 253.324219 173.003906 253.324219 172.898438 253.324219 C 172.035156 252.828125 171.589844 251.671875 170.460938 251.566406 C 168.464844 251.277344 169.175781 253.5625 167.496094 252.195312 C 166.183594 251.042969 164.582031 249.808594 162.746094 250.203125 C 161.328125 250.414062 159.757812 250.28125 158.390625 250.804688 C 157.945312 251.042969 157.527344 251.355469 157.238281 251.75 C 156.949219 252.171875 156.921875 252.667969 156.765625 253.140625 C 156.476562 254.085938 155.714844 254.792969 155.007812 255.421875 C 154.507812 255.816406 153.746094 255.6875 153.277344 255.320312 C 153.144531 255.136719 153.066406 254.898438 152.988281 254.664062 C 152.828125 254.242188 152.410156 254.007812 152.015625 253.875 C 150.496094 253.507812 148.84375 253.796875 147.320312 253.324219 C 146.769531 253.195312 146.375 252.800781 146.0625 252.328125 C 145.429688 251.4375 145.117188 250.148438 144.199219 249.441406 C 143.070312 248.761719 141.179688 248.128906 139.972656 248.863281 C 139.1875 249.46875 138.925781 250.4375 138.214844 251.171875 C 137.5625 251.988281 136.746094 252.695312 136.222656 253.585938 C 135.304688 254.769531 136.273438 256.367188 135.59375 257.601562 C 134.148438 259.699219 133.046875 261.902344 130.058594 260.933594 C 129.324219 260.59375 128.5625 260.566406 127.773438 260.59375 C 127.171875 260.566406 126.542969 260.75 126.121094 261.222656 C 125.414062 262.507812 124.207031 263.164062 122.789062 263.398438 C 121.476562 263.765625 120.21875 264.632812 119.617188 265.867188 C 118.960938 266.96875 119.273438 268.75 117.726562 269.171875 C 116.808594 269.511719 115.863281 269.484375 114.945312 269.957031 C 113.710938 270.613281 113.609375 272.109375 113.109375 273.265625 C 112.875 273.816406 112.402344 274.234375 112.007812 274.679688 C 110.617188 275.835938 108.519531 275.992188 106.863281 275.390625 C 105.972656 274.917969 105.082031 274.367188 104.347656 273.65625 C 103.558594 272.660156 102.878906 271.664062 102.300781 270.535156 C 101.695312 269.382812 101.199219 267.78125 102.117188 266.652344 C 102.640625 265.839844 103.296875 265.105469 103.453125 264.082031 C 103.742188 263.1875 103.691406 261.984375 103.246094 261.144531 C 102.328125 260.121094 100.226562 260.800781 99.335938 261.5625 C 98.417969 262.324219 97.367188 262.875 96.160156 262.925781 C 95.320312 262.980469 94.351562 262.925781 93.539062 263.371094 C 92.75 263.792969 92.015625 264.554688 91.882812 265.472656 C 91.832031 266.179688 92.015625 266.941406 91.570312 267.570312 C 90.914062 268.75 90.363281 268.042969 89.707031 267.28125 C 88.945312 266.101562 88.839844 264.5 89.339844 263.1875 C 90.835938 260.984375 90.757812 258.675781 89.023438 256.578125 C 88.160156 255.503906 86.691406 255.1875 85.535156 254.53125 C 84.40625 253.953125 83.566406 252.929688 82.859375 251.90625 C 82.441406 250.988281 82.414062 250.019531 82.386719 249.023438 C 82.230469 246.738281 81.914062 244.457031 81.285156 242.253906 C 80.523438 240.363281 79.5 238.265625 80.050781 236.191406 C 80.683594 234.800781 81.179688 233.464844 81.234375 231.917969 C 81.234375 231.101562 81.441406 230.160156 80.945312 229.449219 C 80.472656 228.847656 79.867188 228.375 79.660156 227.613281 C 78.058594 223.941406 73.492188 223.101562 70.632812 225.910156 C 69.558594 226.90625 69.585938 228.558594 68.824219 229.765625 C 68.167969 230.734375 66.960938 230.816406 65.886719 230.867188 C 65.308594 230.632812 64.679688 230.472656 64.046875 230.605469 C 62.683594 230.972656 61.425781 232.390625 61.636719 233.859375 C 62.054688 235.355469 62.082031 236.246094 61.003906 237.191406 C 59.484375 235.355469 58.144531 233.464844 56.886719 231.550781 Z M 159.179688 300.078125 C 158.917969 300.445312 159.101562 301.046875 158.707031 301.285156 C 156.921875 301.652344 155.035156 301.335938 153.171875 301.285156 C 151.464844 301.363281 149.996094 300.707031 148.527344 299.996094 C 147.425781 299.628906 146.402344 298.949219 145.195312 298.921875 C 144.488281 298.894531 143.832031 299.210938 143.175781 299.421875 C 142.703125 299.550781 142.203125 299.550781 141.707031 299.527344 C 141.496094 299.527344 141.261719 299.5 141.050781 299.527344 C 139.421875 299.472656 137.351562 299.789062 136.824219 301.652344 C 136.539062 302.253906 136.117188 302.882812 135.488281 303.171875 C 134.621094 303.488281 133.730469 303.828125 133.101562 304.535156 C 132.601562 305.140625 132 305.636719 131.34375 306.058594 C 129.480469 306.976562 127.382812 307.027344 125.359375 307.132812 C 124.285156 307.371094 123.261719 307.816406 122.160156 307.761719 C 121.109375 307.84375 120.085938 307.527344 119.066406 307.210938 C 118.042969 306.898438 116.992188 306.582031 115.917969 306.660156 C 115.078125 306.765625 114.34375 307.292969 113.476562 307.421875 C 111.457031 307.683594 109.277344 307.660156 107.46875 308.734375 C 106.578125 309.234375 105.789062 309.914062 105.003906 310.597656 C 104.003906 311.410156 102.824219 311.828125 101.828125 312.644531 C 101.199219 313.167969 100.726562 313.796875 100.019531 314.242188 C 97.945312 315.398438 95.425781 315.425781 93.273438 314.453125 C 91.464844 313.613281 89.65625 312.800781 87.976562 311.621094 C 87.214844 311.148438 87.164062 310.257812 86.769531 309.519531 C 86.113281 308.445312 85.195312 307.421875 84.171875 306.609375 C 83.226562 305.847656 82.046875 306.03125 80.917969 306.109375 C 80.234375 306.164062 79.449219 305.953125 79.292969 305.191406 C 79.292969 303.015625 79.949219 301.386719 77.613281 300.050781 C 76.457031 299.445312 74.777344 299.289062 73.703125 300.101562 C 72.941406 300.757812 73.019531 301.859375 72.652344 302.753906 C 71.578125 305.113281 70.976562 303.328125 70.738281 301.78125 C 70.398438 299.945312 69.820312 298.160156 69.636719 296.296875 C 69.558594 295.695312 69.480469 295.039062 69.664062 294.4375 C 69.925781 293.78125 70.320312 293.148438 70.320312 292.414062 C 70.449219 290.027344 69.6875 287.640625 68.457031 285.59375 C 67.539062 283.996094 66.277344 282.578125 65.464844 280.925781 C 64.96875 279.980469 64.679688 278.90625 63.785156 278.25 C 62.554688 277.148438 61.820312 273.238281 62.738281 271.324219 C 62.738281 271.269531 62.761719 271.242188 62.761719 271.191406 C 62.867188 270.980469 62.921875 270.746094 63.027344 270.5625 C 63.417969 270.5625 63.839844 270.507812 64.207031 270.667969 C 64.96875 271.324219 65.125 272.503906 66.09375 272.921875 C 66.75 273.183594 67.144531 272.816406 67.40625 272.320312 C 68.035156 271.742188 68.585938 271.058594 68.902344 270.246094 C 69.320312 269.222656 69.402344 268.09375 69.792969 267.046875 C 70.058594 266.3125 70.34375 265.578125 70.476562 264.816406 C 71.683594 257.96875 70.242188 251.988281 66.988281 245.925781 C 65.230469 243.222656 63.339844 240.601562 61.453125 238.003906 C 62.578125 237.164062 63.027344 235.695312 62.605469 234.355469 C 62.1875 233.386719 62.710938 232.492188 63.496094 231.890625 C 64.128906 231.367188 64.914062 231.574219 65.597656 231.863281 C 66.644531 231.839844 67.828125 231.8125 68.691406 231.183594 C 70.265625 230.160156 70.03125 227.980469 71.160156 226.667969 C 73.546875 224.308594 77.246094 224.910156 78.660156 228.007812 C 78.871094 228.507812 79.082031 229.03125 79.476562 229.398438 C 79.738281 229.660156 80.105469 229.921875 80.183594 230.316406 C 80.261719 231.523438 80.132812 232.730469 79.867188 233.910156 C 79.421875 235.066406 78.714844 236.191406 78.84375 237.480469 C 78.84375 239.789062 80.183594 241.78125 80.65625 243.957031 C 81.101562 246.1875 81.339844 248.523438 81.441406 250.804688 C 81.941406 253.71875 84.589844 255.371094 87.136719 256.421875 C 88.054688 256.789062 88.65625 257.652344 89.023438 258.546875 C 89.574219 259.699219 89.496094 261.0625 88.738281 262.167969 C 87.765625 263.714844 87.738281 265.8125 88.578125 267.441406 C 89.390625 268.933594 91.125 270.089844 92.226562 268.148438 C 92.75 267.414062 92.75 266.496094 92.699219 265.65625 C 92.777344 265.050781 93.273438 264.554688 93.773438 264.265625 C 94.113281 264.082031 94.457031 263.976562 94.847656 263.925781 C 96.160156 263.898438 97.550781 263.792969 98.707031 263.085938 C 99.308594 262.691406 99.78125 262.269531 100.410156 261.878906 C 100.988281 261.667969 101.777344 261.429688 102.351562 261.695312 C 102.71875 262.742188 102.484375 263.925781 102.039062 264.921875 C 100.960938 266.234375 100.226562 267.464844 100.671875 269.222656 C 101.199219 271.085938 102.328125 272.710938 103.507812 274.234375 C 104.84375 275.492188 106.523438 276.675781 108.4375 276.648438 C 110.617188 276.753906 112.820312 275.757812 113.816406 273.761719 C 114.210938 273 114.261719 272.109375 114.710938 271.347656 C 115 270.851562 115.574219 270.613281 116.101562 270.484375 C 118.09375 270.21875 119.746094 269.511719 119.984375 267.257812 C 120.085938 266.574219 120.480469 265.867188 120.980469 265.394531 C 122.316406 263.949219 124.652344 264.316406 125.964844 262.820312 C 126.382812 262.480469 126.488281 261.878906 126.988281 261.617188 C 128.324219 261.144531 129.664062 261.929688 130.976562 262.0625 C 132.65625 262.191406 134.175781 261.273438 135.015625 259.859375 C 135.621094 258.964844 136.484375 258.125 136.667969 257.023438 C 136.722656 256.210938 136.589844 255.398438 136.667969 254.609375 C 137.089844 253.402344 138.242188 252.589844 138.976562 251.566406 C 139.605469 250.9375 139.816406 249.835938 140.683594 249.46875 C 141.652344 249.414062 142.753906 249.652344 143.570312 250.203125 C 144.222656 250.804688 144.488281 251.699219 144.933594 252.460938 C 146.007812 254.6875 148.761719 254.453125 150.863281 254.585938 C 152.542969 254.585938 151.753906 255.660156 152.882812 256.238281 C 153.878906 256.789062 155.136719 256.605469 155.898438 255.738281 C 156.449219 255.136719 157.078125 254.585938 157.394531 253.796875 C 157.710938 253.140625 157.605469 252.222656 158.339844 251.855469 C 158.835938 251.4375 159.519531 251.410156 160.148438 251.355469 C 161.015625 251.304688 161.933594 251.171875 162.824219 251.121094 C 164.425781 250.832031 165.683594 252.011719 166.839844 252.984375 C 168.019531 253.902344 168.859375 253.824219 169.726562 252.5625 C 170.695312 252.25 171.246094 253.378906 171.902344 253.875 C 172.113281 254.113281 172.402344 254.21875 172.691406 254.269531 C 172.558594 254.925781 172.691406 255.605469 172.691406 256.289062 C 172.585938 258.675781 171.378906 261.457031 168.78125 261.957031 C 167.96875 262.0625 167.101562 261.71875 166.261719 261.773438 C 165.582031 261.902344 164.976562 262.296875 164.375 262.636719 C 163.664062 263.136719 163.0625 263.714844 162.222656 264.082031 C 160.203125 265.261719 156.609375 264.972656 156.214844 267.910156 C 156.109375 268.777344 156.738281 269.539062 157.027344 270.324219 C 157.421875 271.425781 157.683594 272.84375 157.027344 273.894531 C 156.527344 274.417969 155.6875 274.285156 155.035156 274.445312 C 153.277344 274.496094 152.121094 276.042969 151.203125 277.382812 C 150.390625 278.695312 149.839844 280.164062 148.945312 281.421875 C 148.054688 282.839844 146.269531 285.832031 148.371094 286.90625 C 150.652344 287.507812 152.699219 288.558594 155.058594 289.003906 C 156.398438 289.320312 157.761719 288.875 159.152344 288.953125 C 159.964844 289.164062 160.726562 289.503906 161.382812 290.027344 C 164.742188 293.332031 155.847656 293.070312 160.9375 297.375 C 161.488281 297.792969 162.011719 298.292969 162.167969 299 C 160.9375 298.921875 159.757812 298.949219 159.179688 300.078125 Z M 277.316406 248.550781 C 274.878906 250.753906 272.175781 252.5625 269.339844 254.191406 C 267.214844 255.449219 265.589844 257.390625 264.015625 259.28125 C 262.625 261.011719 260.945312 262.480469 259.554688 264.238281 C 256.90625 267.414062 254.046875 270.402344 251.054688 273.238281 C 249.457031 274.679688 247.566406 275.730469 245.859375 277.042969 C 244.863281 277.90625 243.917969 278.800781 242.976562 279.769531 C 239.539062 283.3125 235.234375 285.777344 231.0625 288.347656 C 228.335938 290.082031 225.632812 291.8125 222.695312 293.175781 C 219.808594 294.226562 217.082031 295.667969 214.140625 296.5625 C 211.359375 297.375 208.265625 297.6875 205.457031 296.746094 C 203.308594 296.113281 198.820312 295.617188 197.640625 298.003906 C 197.429688 298.738281 197.875 299.421875 198.085938 300.128906 C 197.929688 300.261719 197.824219 300.417969 197.824219 300.652344 C 197.824219 300.835938 197.851562 301.046875 197.824219 301.230469 C 197.585938 301.519531 197.195312 301.46875 196.851562 301.492188 C 195.304688 301.570312 193.863281 300.96875 192.472656 300.363281 C 190.871094 299.761719 189.164062 299.445312 187.460938 299.367188 C 186.753906 299.289062 185.964844 299.550781 185.648438 300.234375 C 185.386719 300.917969 185.179688 301.597656 184.914062 302.28125 C 184.730469 303.042969 184.3125 303.984375 183.394531 303.828125 C 181.609375 303.75 179.929688 303.722656 178.171875 303.277344 C 176.179688 302.542969 174.34375 301.78125 172.242188 301.363281 C 169.75 300.601562 167.363281 298.976562 164.636719 299.34375 C 164.191406 299.394531 163.664062 299.34375 163.140625 299.261719 C 163.085938 298.894531 162.957031 298.503906 162.851562 298.292969 C 162.328125 297.164062 161.09375 296.640625 160.4375 295.589844 C 160.332031 295.460938 160.203125 295.25 160.28125 295.039062 C 160.621094 294.253906 161.566406 294.042969 162.117188 293.4375 C 163.375 292.414062 163.402344 290.632812 162.167969 289.582031 C 161.25 288.796875 160.070312 288.191406 158.863281 288.113281 C 157.160156 288.246094 155.480469 288.480469 153.800781 287.878906 C 152.542969 287.457031 151.28125 286.933594 150.023438 286.539062 C 149.496094 286.433594 149.078125 286.304688 148.554688 286.09375 C 148.421875 285.804688 148.316406 285.464844 148.34375 285.175781 C 148.605469 283.625 149.628906 282.316406 150.417969 281.003906 C 151.519531 279.113281 152.277344 276.804688 154.324219 275.675781 C 154.929688 275.46875 155.609375 275.492188 156.242188 275.390625 C 157.945312 275.308594 158.496094 273.472656 158.339844 272.03125 C 158.285156 270.71875 157.578125 269.566406 157.132812 268.359375 C 157.238281 266.363281 159.574219 266.3125 161.015625 265.761719 C 162.039062 265.417969 163.007812 264.972656 163.902344 264.34375 C 164.582031 263.820312 165.265625 263.269531 166.105469 262.980469 C 166.5 262.796875 166.890625 262.953125 167.285156 263.03125 C 167.941406 263.109375 168.625 263.191406 169.28125 263.03125 C 170.222656 262.691406 171.195312 262.167969 171.875 261.378906 C 173.1875 259.777344 173.738281 257.523438 173.554688 255.476562 C 173.398438 254.375 174.132812 253.457031 175.183594 253.140625 C 175.917969 252.828125 176.78125 253.167969 177.570312 253.035156 C 179.039062 253.035156 180.402344 251.960938 180.691406 250.519531 C 181.007812 249.230469 180.402344 247.710938 181.320312 246.609375 C 181.636719 246.320312 182.003906 246.03125 182.421875 245.925781 C 183.132812 245.925781 183.839844 246.109375 184.546875 246.082031 C 186.960938 246.371094 188.144531 243.878906 190.136719 243.066406 C 191.292969 242.753906 192.601562 242.777344 193.835938 242.988281 C 194.414062 243.066406 195.148438 243.355469 195.59375 242.855469 C 196.800781 241.414062 197.769531 239.761719 198.558594 238.054688 C 198.875 237.136719 198.6875 236.140625 198.53125 235.222656 C 198.21875 234.226562 198.164062 233.125 198.53125 232.101562 C 198.558594 231.863281 198.742188 231.574219 198.847656 231.285156 C 199.792969 231.734375 200.734375 232.074219 201.8125 232.101562 C 204.015625 232.414062 205.929688 231.078125 207.503906 229.714844 C 209.394531 228.453125 212.382812 227.957031 214.117188 229.6875 C 215.347656 232.597656 218.757812 232.675781 221.4375 233.203125 C 223.796875 233.597656 223.980469 232.363281 225.054688 230.734375 C 225.660156 230 226.5 229.554688 227.46875 229.476562 C 228.046875 229.398438 228.597656 229.660156 229.175781 229.660156 C 229.832031 229.632812 230.488281 229.425781 231.117188 229.214844 C 231.929688 228.792969 232.453125 228.058594 233.085938 227.402344 C 233.347656 227.140625 233.636719 226.90625 233.921875 226.644531 C 234.421875 226.957031 234.921875 227.300781 235.289062 227.773438 C 236.046875 229.058594 236.757812 230.5 238.175781 231.261719 C 238.933594 231.628906 239.828125 231.367188 240.613281 231.65625 C 241.375 232.125 242.03125 232.835938 242.976562 232.941406 C 244.8125 233.230469 246.832031 230 247.777344 228.609375 C 248.351562 227.746094 248.589844 226.695312 249.113281 225.777344 C 249.769531 224.808594 250.792969 223.757812 252 223.519531 C 253.128906 223.335938 254.257812 223.652344 255.410156 223.652344 C 257.378906 223.574219 259.214844 222.761719 260.839844 221.683594 C 261.757812 221.082031 262.863281 220.6875 263.753906 220.03125 C 264.90625 222.550781 262.414062 224.125 260.449219 225.226562 C 258.480469 226.039062 256.984375 226.589844 257.0625 229.058594 C 257.089844 230.550781 258.296875 232.023438 259.871094 231.941406 C 260.578125 231.96875 261.207031 231.550781 261.917969 231.65625 C 262.496094 231.757812 262.835938 232.257812 263.230469 232.652344 C 263.648438 233.175781 264.226562 233.492188 264.804688 233.832031 C 265.957031 234.515625 267.347656 234.722656 268.660156 234.984375 C 269.5 235.195312 270.363281 235.355469 271.257812 235.355469 C 273.171875 235.171875 275.035156 235.773438 276.6875 236.769531 C 278.078125 237.636719 279.390625 238.582031 280.203125 240.050781 C 280.9375 241.179688 281.359375 242.515625 282.328125 243.433594 C 280.753906 245.113281 279.074219 246.871094 277.316406 248.550781 Z M 334.589844 160.949219 C 334.25 161.867188 334.066406 162.863281 333.722656 163.78125 C 332.542969 166.667969 330.996094 169.527344 330.417969 172.652344 C 329.917969 175.0625 329.894531 177.53125 329.472656 179.945312 C 328.84375 182.359375 328.214844 184.957031 327.136719 187.265625 C 325.589844 190.125 323.175781 192.457031 321.234375 195.054688 C 320.210938 196.238281 319.03125 197.496094 317.667969 198.363281 C 316.59375 199.042969 315.4375 199.59375 314.414062 200.328125 C 312.367188 201.5625 310.765625 203.347656 309.007812 204.945312 C 307.121094 206.703125 305.230469 208.515625 303.816406 210.691406 C 302.921875 211.898438 301.980469 213.105469 301.191406 214.390625 C 300.40625 215.703125 300.039062 217.226562 299.300781 218.5625 C 297.992188 220.453125 296.652344 222.417969 295.367188 224.335938 C 294.214844 226.015625 292.902344 227.585938 291.800781 229.292969 C 289.570312 232.652344 287.390625 236.035156 285.03125 239.289062 C 284.375 240.390625 283.640625 241.414062 282.878906 242.4375 C 281.828125 241.28125 281.410156 239.683594 280.386719 238.476562 C 279.730469 237.425781 278.707031 236.71875 277.683594 236.089844 C 276.792969 235.433594 275.796875 234.933594 274.746094 234.59375 C 273.460938 234.066406 272.070312 234.171875 270.707031 234.148438 C 269 233.910156 267.191406 233.597656 265.589844 232.941406 C 264.488281 232.46875 263.78125 231.496094 262.863281 230.761719 C 261.996094 230.160156 260.972656 230.527344 260.027344 230.710938 C 258.925781 230.867188 258.058594 229.84375 258.007812 228.792969 C 258.007812 228.035156 258.164062 227.167969 258.847656 226.722656 C 260.160156 226.09375 261.496094 225.515625 262.703125 224.648438 C 264.355469 223.574219 265.5625 221.738281 264.777344 219.742188 C 264.722656 219.535156 264.621094 219.296875 264.515625 219.0625 C 264.539062 219.035156 264.566406 219.007812 264.59375 218.984375 C 265.066406 218.378906 265.746094 217.566406 265.355469 216.777344 C 265.433594 215.441406 265.824219 213.972656 266.71875 212.894531 C 267.398438 212.449219 268.238281 212.109375 268.632812 211.320312 C 269.027344 210.613281 268.710938 209.746094 269.027344 209.011719 C 269.605469 207.621094 271.097656 206.519531 271.203125 205 C 271.179688 204.289062 270.574219 203.820312 270.339844 203.1875 C 270.234375 201.507812 269.472656 200.617188 267.953125 200.015625 C 266.824219 199.410156 265.929688 198.519531 265.066406 197.601562 C 264.226562 196.707031 263.332031 195.582031 262.285156 194.847656 C 261.917969 194.609375 261.628906 194.296875 261.3125 193.953125 C 261.339844 193.925781 261.339844 193.902344 261.367188 193.847656 C 261.574219 193.480469 261.917969 193.167969 262.125 192.800781 C 262.914062 191.933594 263.726562 191.09375 264.804688 190.570312 C 265.957031 190.203125 266.847656 189.285156 268.003906 188.839844 C 269.367188 188.367188 270.785156 187.839844 271.703125 186.660156 C 272.726562 184.929688 275.21875 184.535156 275.847656 182.488281 C 276.058594 181.753906 276.058594 180.96875 275.820312 180.234375 C 275.691406 179.8125 275.613281 179.339844 275.742188 178.894531 C 276.003906 178.109375 276.476562 177.398438 276.792969 176.613281 C 277.105469 175.984375 277.082031 175.222656 277.316406 174.566406 C 278.367188 172.570312 278.890625 170.261719 278.367188 168.035156 C 279.3125 167.929688 280.253906 167.71875 281.121094 167.402344 C 281.59375 167.21875 282.039062 166.929688 282.539062 166.828125 C 283.613281 166.773438 284.636719 167.246094 285.765625 166.800781 C 287.050781 166.40625 288.046875 165.171875 289.464844 165.226562 C 290.75 165.332031 291.824219 166.300781 293.109375 166.460938 C 294.582031 166.800781 296.050781 166.433594 297.542969 166.5625 C 300.195312 167.195312 302.53125 167.769531 304.523438 165.382812 C 304.523438 165.382812 304.65625 165.253906 304.679688 165.226562 C 304.679688 165.226562 304.679688 165.226562 304.707031 165.199219 C 305.703125 165.882812 306.804688 166.433594 307.933594 166.851562 C 310.953125 168.164062 317.773438 166.773438 319.820312 164.175781 C 320.578125 163.285156 320.34375 162.078125 320.34375 161.003906 C 320.292969 160.03125 320.34375 159.0625 320.371094 158.089844 C 320.421875 157.855469 320.394531 157.539062 320.578125 157.382812 C 324.148438 156.332031 327.953125 156.648438 331.597656 156.855469 C 332.492188 156.960938 333.382812 156.960938 334.25 156.988281 C 334.800781 156.960938 335.375 156.988281 335.769531 157.40625 C 335.640625 158.746094 335.113281 159.796875 334.589844 160.949219 Z M 334.589844 160.949219 " fill-opacity="1" fill-rule="nonzero"/></g></svg>