<svg xmlns="http://www.w3.org/2000/svg" xmlns:xlink="http://www.w3.org/1999/xlink" width="500" zoomAndPan="magnify" viewBox="0 0 375 374.999991" height="500" preserveAspectRatio="xMidYMid meet" version="1.0"><defs><clipPath id="c4b238d54e"><path d="M 0 0 L 375 0 L 375 375 L 0 375 Z M 0 0 " clip-rule="nonzero"/></clipPath><clipPath id="a2b73145ff"><rect x="0" width="375" y="0" height="375"/></clipPath><clipPath id="8cdd48419f"><path d="M 98 46.457031 L 216 46.457031 L 216 164 L 98 164 Z M 98 46.457031 " clip-rule="nonzero"/></clipPath><clipPath id="08666f357d"><path d="M 112 298 L 139 298 L 139 359.207031 L 112 359.207031 Z M 112 298 " clip-rule="nonzero"/></clipPath><clipPath id="3638a598c6"><path d="M 37.5 254 L 88 254 L 88 302 L 37.5 302 Z M 37.5 254 " clip-rule="nonzero"/></clipPath><clipPath id="3016302b64"><path d="M 49 298 L 77 298 L 77 359.207031 L 49 359.207031 Z M 49 298 " clip-rule="nonzero"/></clipPath><clipPath id="8be44231b7"><path d="M 286 254 L 337.5 254 L 337.5 302 L 286 302 Z M 286 254 " clip-rule="nonzero"/></clipPath><clipPath id="b2fecd0777"><path d="M 298 298 L 326 298 L 326 359.207031 L 298 359.207031 Z M 298 298 " clip-rule="nonzero"/></clipPath><clipPath id="685785e419"><path d="M 236 298 L 264 298 L 264 359.207031 L 236 359.207031 Z M 236 298 " clip-rule="nonzero"/></clipPath><clipPath id="596cbf3f34"><path d="M 111 298 L 139 298 L 139 359.207031 L 111 359.207031 Z M 111 298 " clip-rule="nonzero"/></clipPath></defs><rect x="-37.5" width="450" fill="#ffffff" y="-37.499999" height="449.999989" fill-opacity="1"/><rect x="-37.5" width="450" fill="#ffffff" y="-37.499999" height="449.999989" fill-opacity="1"/><g transform="matrix(1, 0, 0, 1, 0, 0)"><g clip-path="url(#a2b73145ff)"><g clip-path="url(#c4b238d54e)"><rect x="-82.5" width="540" fill="#ffffff" height="539.999987" y="-82.499998" fill-opacity="1"/></g></g></g><g clip-path="url(#8cdd48419f)"><path fill="#005de0" d="M 120.320312 46.457031 C 127.382812 53.703125 135.894531 57.324219 144.945312 61.308594 C 154.90625 65.652344 164.867188 69.636719 174.824219 73.621094 C 181.707031 76.335938 188.585938 78.691406 195.285156 81.585938 C 196.917969 82.3125 198.726562 82.855469 199.8125 84.304688 C 201.441406 86.296875 202.167969 89.011719 203.617188 91.367188 C 205.609375 94.445312 206.511719 97.339844 207.417969 101.144531 C 210.496094 113.636719 216.835938 125.410156 215.023438 138.445312 C 214.117188 145.328125 213.03125 155.285156 209.410156 161.441406 C 206.875 165.789062 201.804688 162.710938 200.539062 158.726562 C 199.632812 156.011719 200.175781 152.75 200.898438 150.035156 C 201.441406 148.042969 203.253906 145.6875 203.433594 143.515625 C 203.617188 140.4375 201.261719 137.359375 201.082031 134.101562 C 200.898438 130.480469 201.804688 129.210938 199.996094 126.132812 C 198.546875 123.777344 196.011719 122.148438 194.5625 119.613281 C 190.757812 113.457031 188.042969 108.023438 179.894531 111.101562 C 176.636719 112.371094 173.558594 114 171.746094 116.898438 C 167.039062 124.503906 174.101562 133.375 175.367188 141.34375 C 176.636719 149.855469 176.273438 159.632812 166.855469 163.253906 C 161.96875 164.703125 161.0625 160.71875 161.96875 157.277344 C 163.054688 153.292969 163.054688 150.035156 161.785156 145.871094 C 159.796875 140.257812 155.269531 136.636719 152.007812 131.925781 C 149.65625 128.488281 148.023438 124.503906 145.128906 121.605469 C 142.050781 118.527344 138.066406 115.992188 134.625 113.277344 C 130.097656 109.472656 127.746094 106.394531 125.570312 100.78125 C 120.863281 89.191406 109.273438 83.578125 98.953125 77.421875 C 106.378906 67.101562 113.4375 56.78125 120.320312 46.457031 Z M 120.320312 46.457031 " fill-opacity="1" fill-rule="nonzero"/></g><path fill="#005de0" d="M 198.726562 160.539062 C 198.726562 154.199219 193.835938 149.3125 187.5 149.3125 C 181.34375 149.3125 176.273438 154.199219 176.273438 160.539062 C 176.273438 166.695312 181.34375 171.765625 187.679688 171.765625 C 193.65625 171.765625 198.726562 166.695312 198.726562 160.539062 Z M 198.726562 160.539062 " fill-opacity="1" fill-rule="nonzero"/><path fill="#005de0" d="M 163.054688 185.34375 C 162.875 179.550781 167.945312 176.292969 172.109375 176.472656 C 177.539062 176.472656 182.066406 176.472656 187.5 176.472656 C 192.933594 176.472656 197.460938 176.472656 202.890625 176.472656 C 207.054688 176.472656 211.945312 179.550781 211.945312 185.34375 C 211.945312 188.785156 212.667969 194.941406 212.667969 209.609375 C 212.667969 212.324219 212.667969 215.222656 212.667969 217.9375 C 212.667969 219.570312 212.488281 221.378906 210.859375 222.105469 C 209.046875 223.007812 207.054688 223.007812 205.609375 221.378906 C 204.882812 220.65625 204.339844 219.207031 204.339844 218.121094 C 203.796875 179.914062 200.898438 178.101562 200.898438 217.035156 L 173.917969 217.035156 C 173.917969 203.089844 173.558594 194.21875 173.015625 190.597656 C 172.652344 188.0625 172.289062 187.878906 171.925781 190.414062 C 171.382812 194.21875 170.839844 203.453125 170.480469 217.9375 C 170.480469 219.027344 169.933594 220.292969 169.210938 221.199219 C 167.761719 222.828125 165.769531 222.648438 163.960938 221.921875 C 162.332031 221.199219 162.148438 219.386719 162.148438 217.757812 C 162.148438 215.042969 162.148438 212.144531 162.148438 209.429688 C 162.332031 194.941406 163.234375 188.785156 163.054688 185.34375 Z M 163.054688 185.34375 " fill-opacity="1" fill-rule="nonzero"/><path fill="#005de0" d="M 200.898438 219.75 C 200.898438 229.164062 200.898438 238.582031 200.898438 248.179688 C 200.898438 257.234375 200.898438 266.285156 200.898438 275.339844 C 200.898438 278.960938 198.90625 280.953125 195.285156 280.953125 C 191.484375 280.953125 189.128906 278.78125 189.128906 275.339844 C 189.128906 259.949219 189.128906 244.375 189.128906 228.984375 C 189.128906 226.992188 188.765625 226.628906 187.5 226.628906 C 186.234375 226.628906 185.871094 227.175781 185.871094 228.984375 C 185.871094 244.375 185.871094 259.949219 185.871094 275.339844 C 185.871094 278.78125 183.515625 280.953125 179.714844 280.953125 C 175.910156 280.953125 174.101562 278.960938 174.101562 275.339844 C 174.101562 266.285156 174.101562 257.234375 174.101562 248.179688 C 174.101562 238.761719 174.101562 229.347656 174.101562 219.75 Z M 200.898438 219.75 " fill-opacity="1" fill-rule="nonzero"/><g clip-path="url(#08666f357d)"><path fill="#005de0" d="M 138.972656 298.15625 C 138.972656 307.574219 138.972656 316.988281 138.972656 326.585938 C 138.972656 335.640625 138.972656 344.695312 138.972656 353.746094 C 138.972656 357.367188 136.980469 359.359375 133.359375 359.359375 C 129.554688 359.359375 127.199219 357.1875 127.199219 353.746094 C 127.199219 338.355469 127.199219 322.78125 127.199219 307.390625 C 127.199219 305.398438 126.839844 305.039062 125.570312 305.039062 C 124.304688 305.039062 123.941406 305.582031 123.941406 307.390625 C 123.941406 322.78125 123.941406 338.355469 123.941406 353.746094 C 123.941406 357.1875 121.585938 359.359375 117.785156 359.359375 C 113.980469 359.359375 112.171875 357.367188 112.171875 353.746094 C 112.171875 344.695312 112.171875 335.640625 112.171875 326.585938 C 112.171875 317.167969 112.171875 307.753906 112.171875 298.15625 Z M 138.972656 298.15625 " fill-opacity="1" fill-rule="nonzero"/></g><path fill="#005de0" d="M 73.964844 238.761719 C 73.964844 232.425781 69.074219 227.535156 62.738281 227.535156 C 56.582031 227.535156 51.511719 232.425781 51.511719 238.761719 C 51.511719 244.917969 56.582031 249.988281 62.917969 249.988281 C 68.894531 249.988281 73.964844 244.917969 73.964844 238.761719 Z M 73.964844 238.761719 " fill-opacity="1" fill-rule="nonzero"/><g clip-path="url(#3638a598c6)"><path fill="#005de0" d="M 38.292969 263.75 C 38.109375 257.957031 43.179688 254.699219 47.347656 254.878906 C 52.777344 254.878906 57.304688 254.878906 62.738281 254.878906 C 68.167969 254.878906 72.695312 254.878906 78.128906 254.878906 C 82.292969 254.878906 87.183594 257.957031 87.183594 263.75 C 87.183594 267.191406 87.90625 273.347656 87.90625 288.015625 C 87.90625 290.730469 87.90625 293.628906 87.90625 296.347656 C 87.90625 297.976562 87.726562 299.785156 86.097656 300.511719 C 84.285156 301.414062 82.292969 301.414062 80.84375 299.785156 C 80.121094 299.0625 79.578125 297.613281 79.578125 296.527344 C 79.035156 258.320312 76.136719 256.507812 76.136719 295.441406 L 49.335938 295.441406 C 49.335938 281.496094 48.976562 272.625 48.433594 269.003906 C 48.070312 266.46875 47.707031 266.285156 47.347656 268.820312 C 46.621094 272.445312 46.078125 281.859375 45.898438 296.347656 C 45.898438 297.433594 45.355469 298.699219 44.628906 299.605469 C 43.179688 301.234375 41.1875 301.054688 39.378906 300.328125 C 37.75 299.605469 37.566406 297.792969 37.566406 296.164062 C 37.566406 293.449219 37.566406 290.550781 37.566406 287.835938 C 37.566406 273.167969 38.472656 267.011719 38.292969 263.75 Z M 38.292969 263.75 " fill-opacity="1" fill-rule="nonzero"/></g><g clip-path="url(#3016302b64)"><path fill="#005de0" d="M 76.316406 298.15625 C 76.316406 307.574219 76.316406 316.988281 76.316406 326.585938 C 76.316406 335.640625 76.316406 344.695312 76.316406 353.746094 C 76.316406 357.367188 74.328125 359.359375 70.703125 359.359375 C 66.902344 359.359375 64.546875 357.1875 64.546875 353.746094 C 64.546875 338.355469 64.546875 322.78125 64.546875 307.390625 C 64.546875 305.398438 64.1875 305.039062 62.917969 305.039062 C 61.652344 305.039062 61.289062 305.582031 61.289062 307.390625 C 61.289062 322.78125 61.289062 338.355469 61.289062 353.746094 C 61.289062 357.1875 58.933594 359.359375 55.132812 359.359375 C 51.328125 359.359375 49.519531 357.367188 49.519531 353.746094 C 49.519531 344.695312 49.519531 335.640625 49.519531 326.585938 C 49.519531 317.167969 49.519531 307.753906 49.519531 298.15625 Z M 76.316406 298.15625 " fill-opacity="1" fill-rule="nonzero"/></g><path fill="#005de0" d="M 323.488281 238.761719 C 323.488281 232.425781 318.601562 227.535156 312.261719 227.535156 C 306.105469 227.535156 301.035156 232.425781 301.035156 238.761719 C 301.035156 244.917969 306.105469 249.988281 312.445312 249.988281 C 318.417969 249.988281 323.488281 244.917969 323.488281 238.761719 Z M 323.488281 238.761719 " fill-opacity="1" fill-rule="nonzero"/><g clip-path="url(#8be44231b7)"><path fill="#005de0" d="M 287.816406 263.75 C 287.636719 257.957031 292.707031 254.699219 296.871094 254.878906 C 302.304688 254.878906 306.832031 254.878906 312.261719 254.878906 C 317.695312 254.878906 322.222656 254.878906 327.652344 254.878906 C 331.820312 254.878906 336.707031 257.957031 336.707031 263.75 C 336.707031 267.191406 337.433594 273.347656 337.433594 288.015625 C 337.433594 290.730469 337.433594 293.628906 337.433594 296.347656 C 337.433594 297.976562 337.25 299.785156 335.621094 300.511719 C 333.8125 301.414062 331.820312 301.414062 330.371094 299.785156 C 329.644531 299.0625 329.101562 297.613281 329.101562 296.527344 C 328.558594 258.320312 325.664062 256.507812 325.664062 295.441406 L 298.683594 295.441406 C 298.683594 281.496094 298.320312 272.625 297.777344 269.003906 C 297.414062 266.46875 297.050781 266.285156 296.691406 268.820312 C 296.148438 272.625 295.601562 281.859375 295.242188 296.347656 C 295.242188 297.433594 294.699219 298.699219 293.972656 299.605469 C 292.523438 301.234375 290.535156 301.054688 288.722656 300.328125 C 287.09375 299.605469 286.910156 297.792969 286.910156 296.164062 C 286.910156 293.449219 286.910156 290.550781 286.910156 287.835938 C 287.09375 273.167969 288 267.011719 287.816406 263.75 Z M 287.816406 263.75 " fill-opacity="1" fill-rule="nonzero"/></g><g clip-path="url(#b2fecd0777)"><path fill="#005de0" d="M 325.664062 298.15625 C 325.664062 307.574219 325.664062 316.988281 325.664062 326.585938 C 325.664062 335.640625 325.664062 344.695312 325.664062 353.746094 C 325.664062 357.367188 323.671875 359.359375 320.050781 359.359375 C 316.246094 359.359375 313.890625 357.1875 313.890625 353.746094 C 313.890625 338.355469 313.890625 322.78125 313.890625 307.390625 C 313.890625 305.398438 313.53125 305.039062 312.261719 305.039062 C 310.996094 305.039062 310.632812 305.582031 310.632812 307.390625 C 310.632812 322.78125 310.632812 338.355469 310.632812 353.746094 C 310.632812 357.1875 308.277344 359.359375 304.476562 359.359375 C 300.671875 359.359375 298.863281 357.367188 298.863281 353.746094 C 298.863281 344.695312 298.863281 335.640625 298.863281 326.585938 C 298.863281 317.167969 298.863281 307.753906 298.863281 298.15625 Z M 325.664062 298.15625 " fill-opacity="1" fill-rule="nonzero"/></g><path fill="#005de0" d="M 261.015625 238.761719 C 261.015625 232.425781 256.128906 227.535156 249.789062 227.535156 C 243.632812 227.535156 238.5625 232.425781 238.5625 238.761719 C 238.5625 244.917969 243.632812 249.988281 249.972656 249.988281 C 256.128906 249.988281 261.015625 244.917969 261.015625 238.761719 Z M 261.015625 238.761719 " fill-opacity="1" fill-rule="nonzero"/><g clip-path="url(#685785e419)"><path fill="#005de0" d="M 263.371094 298.15625 C 263.371094 307.574219 263.371094 316.988281 263.371094 326.585938 C 263.371094 335.640625 263.371094 344.695312 263.371094 353.746094 C 263.371094 357.367188 261.378906 359.359375 257.757812 359.359375 C 253.957031 359.359375 251.601562 357.1875 251.601562 353.746094 C 251.601562 338.355469 251.601562 322.78125 251.601562 307.390625 C 251.601562 305.398438 251.238281 305.039062 249.972656 305.039062 C 248.703125 305.039062 248.34375 305.582031 248.34375 307.390625 C 248.34375 322.78125 248.34375 338.355469 248.34375 353.746094 C 248.34375 357.1875 245.988281 359.359375 242.183594 359.359375 C 238.382812 359.359375 236.570312 357.367188 236.570312 353.746094 C 236.570312 344.695312 236.570312 335.640625 236.570312 326.585938 C 236.570312 317.167969 236.570312 307.753906 236.570312 298.15625 Z M 263.371094 298.15625 " fill-opacity="1" fill-rule="nonzero"/></g><path fill="#005de0" d="M 274.234375 234.960938 C 274.234375 232.246094 274.234375 229.347656 274.234375 226.628906 C 274.234375 225 274.054688 223.191406 272.425781 222.464844 C 270.613281 221.5625 268.621094 221.5625 267.175781 223.191406 C 266.449219 223.914062 265.90625 225.363281 265.90625 226.449219 C 265.726562 242.023438 265 251.4375 264.457031 254.699219 C 264.457031 254.699219 264.457031 254.699219 264.457031 254.878906 C 259.386719 254.878906 255.042969 254.878906 249.972656 254.878906 C 244.902344 254.878906 240.554688 254.878906 235.484375 254.878906 C 235.484375 254.878906 235.484375 254.878906 235.484375 254.699219 C 234.941406 251.4375 234.21875 242.023438 234.035156 226.449219 C 234.035156 225.363281 233.492188 224.09375 232.769531 223.191406 C 231.320312 221.5625 229.328125 221.742188 227.519531 222.464844 C 225.886719 223.191406 225.707031 225 225.707031 226.628906 C 225.707031 229.347656 225.707031 232.246094 225.707031 234.960938 C 225.707031 253.066406 224.257812 268.277344 235.484375 268.097656 C 235.484375 268.097656 235.484375 268.097656 235.667969 268.097656 C 236.210938 270.996094 236.570312 280.046875 236.570312 295.441406 L 263.371094 295.441406 C 263.371094 280.046875 263.734375 271.175781 264.277344 268.097656 C 264.277344 268.097656 264.457031 268.097656 264.457031 268.097656 C 275.683594 268.097656 274.234375 253.066406 274.234375 234.960938 Z M 274.234375 234.960938 " fill-opacity="1" fill-rule="nonzero"/><path fill="#005de0" d="M 113.984375 238.761719 C 113.984375 232.425781 118.871094 227.535156 125.210938 227.535156 C 131.367188 227.535156 136.4375 232.425781 136.4375 238.761719 C 136.4375 244.917969 131.367188 249.988281 125.027344 249.988281 C 118.871094 249.988281 113.984375 244.917969 113.984375 238.761719 Z M 113.984375 238.761719 " fill-opacity="1" fill-rule="nonzero"/><g clip-path="url(#596cbf3f34)"><path fill="#005de0" d="M 111.628906 298.15625 C 111.628906 307.574219 111.628906 316.988281 111.628906 326.585938 C 111.628906 335.640625 111.628906 344.695312 111.628906 353.746094 C 111.628906 357.367188 113.621094 359.359375 117.242188 359.359375 C 121.042969 359.359375 123.398438 357.1875 123.398438 353.746094 C 123.398438 338.355469 123.398438 322.78125 123.398438 307.390625 C 123.398438 305.398438 123.761719 305.039062 125.027344 305.039062 C 126.296875 305.039062 126.65625 305.582031 126.65625 307.390625 C 126.65625 322.78125 126.65625 338.355469 126.65625 353.746094 C 126.65625 357.1875 129.011719 359.359375 132.816406 359.359375 C 136.617188 359.359375 138.429688 357.367188 138.429688 353.746094 C 138.429688 344.695312 138.429688 335.640625 138.429688 326.585938 C 138.429688 317.167969 138.429688 307.753906 138.429688 298.15625 Z M 111.628906 298.15625 " fill-opacity="1" fill-rule="nonzero"/></g><path fill="#005de0" d="M 100.765625 234.960938 C 100.765625 232.246094 100.765625 229.347656 100.765625 226.628906 C 100.765625 225 100.945312 223.191406 102.574219 222.464844 C 104.386719 221.5625 106.378906 221.5625 107.824219 223.191406 C 108.550781 223.914062 109.09375 225.363281 109.09375 226.449219 C 109.273438 242.023438 110 251.4375 110.542969 254.699219 C 110.542969 254.699219 110.542969 254.699219 110.542969 254.878906 C 115.613281 254.878906 119.957031 254.878906 125.027344 254.878906 C 130.097656 254.878906 134.445312 254.878906 139.515625 254.878906 C 139.515625 254.878906 139.515625 254.878906 139.515625 254.699219 C 140.058594 251.4375 140.78125 242.023438 140.964844 226.449219 C 140.964844 225.363281 141.507812 224.09375 142.230469 223.191406 C 143.679688 221.5625 145.671875 221.742188 147.480469 222.464844 C 149.113281 223.191406 149.292969 225 149.292969 226.628906 C 149.292969 229.347656 149.292969 232.246094 149.292969 234.960938 C 149.292969 253.066406 150.742188 268.277344 139.515625 268.097656 C 139.515625 268.097656 139.515625 268.097656 139.332031 268.097656 C 138.789062 270.996094 138.429688 280.046875 138.429688 295.441406 L 111.628906 295.441406 C 111.628906 280.046875 111.265625 271.175781 110.722656 268.097656 C 110.722656 268.097656 110.542969 268.097656 110.542969 268.097656 C 99.316406 268.097656 100.765625 253.066406 100.765625 234.960938 Z M 100.765625 234.960938 " fill-opacity="1" fill-rule="nonzero"/></svg>