<svg xmlns="http://www.w3.org/2000/svg" xmlns:xlink="http://www.w3.org/1999/xlink" width="500" zoomAndPan="magnify" viewBox="0 0 375 374.999991" height="500" preserveAspectRatio="xMidYMid meet" version="1.0"><defs><clipPath id="a8ef36805d"><path d="M 0 0 L 375 0 L 375 375 L 0 375 Z M 0 0 " clip-rule="nonzero"/></clipPath><clipPath id="2fd3ad3c22"><rect x="0" width="375" y="0" height="375"/></clipPath><clipPath id="7f20f9a723"><path d="M 226 72 L 324.1875 72 L 324.1875 173 L 226 173 Z M 226 72 " clip-rule="nonzero"/></clipPath><clipPath id="593308928d"><path d="M 51.1875 326 L 317 326 L 317 336 L 51.1875 336 Z M 51.1875 326 " clip-rule="nonzero"/></clipPath></defs><rect x="-37.5" width="450" fill="#ffffff" y="-37.499999" height="449.999989" fill-opacity="1"/><rect x="-37.5" width="450" fill="#ffffff" y="-37.499999" height="449.999989" fill-opacity="1"/><g transform="matrix(1, 0, 0, 1, 0, 0)"><g clip-path="url(#2fd3ad3c22)"><g clip-path="url(#a8ef36805d)"><rect x="-82.5" width="540" fill="#ffffff" height="539.999987" y="-82.499998" fill-opacity="1"/></g></g></g><path fill="#005de0" d="M 112.996094 132.445312 L 112.996094 186.074219 L 124.277344 186.074219 L 124.277344 132.445312 C 124.277344 130.949219 125.488281 129.734375 126.984375 129.734375 L 132.84375 129.734375 L 118.617188 105.128906 L 104.421875 129.734375 L 110.285156 129.734375 C 111.78125 129.734375 112.996094 130.949219 112.996094 132.445312 Z M 112.996094 132.445312 " fill-opacity="1" fill-rule="nonzero"/><path fill="#005de0" d="M 178.222656 66.167969 L 178.222656 119.800781 L 189.503906 119.800781 L 189.503906 66.167969 C 189.503906 64.671875 190.71875 63.457031 192.214844 63.457031 L 198.074219 63.457031 L 183.847656 38.851562 L 169.652344 63.457031 L 175.511719 63.457031 C 177.007812 63.457031 178.222656 64.671875 178.222656 66.167969 Z M 178.222656 66.167969 " fill-opacity="1" fill-rule="nonzero"/><path fill="#005de0" d="M 275.507812 212.140625 C 280.160156 212.140625 284.089844 208.988281 285.28125 204.714844 L 265.742188 204.714844 C 266.933594 208.988281 270.859375 212.140625 275.515625 212.140625 Z M 275.507812 212.140625 " fill-opacity="1" fill-rule="nonzero"/><path fill="#005de0" d="M 292.179688 199.292969 C 292.917969 199.292969 293.585938 198.621094 293.585938 197.890625 L 293.585938 178.226562 L 257.433594 178.226562 L 257.433594 197.890625 C 257.433594 198.648438 258.039062 199.292969 258.765625 199.292969 Z M 292.179688 199.292969 " fill-opacity="1" fill-rule="nonzero"/><g clip-path="url(#7f20f9a723)"><path fill="#005de0" d="M 250.355469 162.878906 C 253.945312 165.027344 256.414062 168.691406 257.183594 172.804688 L 272.808594 172.804688 L 272.808594 131.773438 L 254.402344 113.347656 C 253.347656 112.292969 253.347656 110.574219 254.402344 109.515625 C 255.460938 108.460938 257.179688 108.460938 258.234375 109.515625 L 275.515625 126.800781 L 292.792969 109.515625 L 296.625 113.347656 L 278.230469 131.746094 L 278.230469 172.8125 L 293.816406 172.8125 C 294.554688 168.628906 296.988281 165.046875 300.636719 162.929688 C 315.367188 154.035156 324.1875 138.449219 324.1875 121.25 C 324.1875 107.417969 318.285156 94.199219 307.996094 84.976562 C 297.550781 75.617188 284.050781 71.304688 269.964844 72.851562 C 247.394531 75.386719 229.375 93.613281 227.113281 116.183594 C 225.207031 135.171875 234.117188 153.066406 250.359375 162.886719 Z M 250.355469 162.878906 " fill-opacity="1" fill-rule="nonzero"/></g><path fill="#005de0" d="M 183.894531 212.140625 C 188.0625 212.140625 192.054688 211.378906 195.753906 209.890625 C 208.335938 204.953125 216.453125 193.0625 216.453125 179.582031 C 216.453125 166.101562 208.335938 154.140625 195.777344 149.214844 C 192.046875 147.710938 188.058594 146.953125 183.894531 146.953125 C 165.90625 146.953125 151.265625 161.585938 151.265625 179.582031 C 151.265625 197.574219 165.902344 212.140625 183.894531 212.140625 Z M 183.894531 212.140625 " fill-opacity="1" fill-rule="nonzero"/><path fill="#005de0" d="M 242.730469 288.226562 C 239.898438 288.511719 236.882812 288.996094 233.699219 289.660156 C 231.554688 290.109375 229.421875 290.632812 227.304688 291.210938 C 226.617188 291.402344 225.9375 291.632812 225.253906 291.835938 C 223.832031 292.25 222.40625 292.664062 220.996094 293.140625 C 220.1875 293.410156 219.398438 293.730469 218.601562 294.023438 C 217.324219 294.484375 216.046875 294.933594 214.789062 295.445312 C 213.945312 295.785156 213.113281 296.175781 212.273438 296.539062 C 211.082031 297.054688 209.890625 297.550781 208.714844 298.109375 C 207.847656 298.523438 207 298.972656 206.144531 299.40625 C 205.023438 299.96875 203.890625 300.523438 202.785156 301.125 C 201.910156 301.597656 201.066406 302.117188 200.203125 302.609375 C 199.140625 303.226562 198.070312 303.828125 197.023438 304.480469 C 196.15625 305.015625 195.308594 305.597656 194.453125 306.160156 C 193.445312 306.820312 192.433594 307.472656 191.445312 308.164062 C 190.59375 308.765625 189.765625 309.402344 188.925781 310.023438 C 188.140625 310.609375 187.347656 311.1875 186.578125 311.796875 L 186.578125 320.960938 L 304.828125 320.960938 L 304.828125 297.894531 C 292.871094 292.480469 270.175781 284.804688 242.730469 288.21875 Z M 242.730469 288.226562 " fill-opacity="1" fill-rule="nonzero"/><path fill="#005de0" d="M 181.152344 311.796875 C 180.398438 311.199219 179.625 310.632812 178.855469 310.054688 C 178.007812 309.421875 177.175781 308.777344 176.308594 308.171875 C 175.335938 307.488281 174.339844 306.84375 173.347656 306.1875 C 172.488281 305.617188 171.636719 305.03125 170.761719 304.492188 C 169.738281 303.851562 168.683594 303.261719 167.640625 302.652344 C 166.761719 302.144531 165.902344 301.617188 165.011719 301.136719 C 163.9375 300.550781 162.839844 300.011719 161.75 299.464844 C 160.859375 299.015625 159.988281 298.550781 159.089844 298.128906 C 157.949219 297.589844 156.789062 297.109375 155.636719 296.605469 C 154.757812 296.226562 153.890625 295.816406 153.007812 295.460938 C 151.78125 294.96875 150.535156 294.527344 149.292969 294.078125 C 148.460938 293.773438 147.636719 293.445312 146.796875 293.15625 C 145.417969 292.691406 144.019531 292.289062 142.628906 291.882812 C 141.902344 291.671875 141.1875 291.421875 140.460938 291.226562 C 138.335938 290.648438 136.1875 290.128906 134.039062 289.671875 C 130.855469 289.003906 127.835938 288.523438 125.066406 288.242188 C 97.527344 284.808594 74.867188 292.484375 62.960938 297.898438 L 62.960938 320.972656 L 181.164062 320.972656 L 181.164062 311.800781 Z M 181.152344 311.796875 " fill-opacity="1" fill-rule="nonzero"/><path fill="#005de0" d="M 128.042969 283.125 C 128.292969 283.15625 128.570312 283.222656 128.816406 283.261719 C 130.84375 283.546875 132.9375 283.894531 135.136719 284.355469 C 137.382812 284.828125 139.613281 285.367188 141.832031 285.976562 C 142.523438 286.164062 143.214844 286.398438 143.902344 286.605469 C 145.414062 287.046875 146.925781 287.488281 148.421875 287.988281 C 149.257812 288.269531 150.070312 288.59375 150.894531 288.890625 C 152.230469 289.375 153.570312 289.84375 154.894531 290.375 C 155.777344 290.734375 156.644531 291.128906 157.515625 291.507812 C 158.753906 292.039062 160 292.566406 161.21875 293.140625 C 162.125 293.570312 163.011719 294.035156 163.90625 294.480469 C 165.070312 295.066406 166.242188 295.640625 167.390625 296.261719 C 168.296875 296.75 169.175781 297.28125 170.070312 297.792969 C 171.179688 298.429688 172.292969 299.066406 173.375 299.738281 C 174.265625 300.289062 175.132812 300.871094 176.007812 301.445312 C 177.066406 302.136719 178.128906 302.828125 179.164062 303.558594 C 180.027344 304.164062 180.867188 304.800781 181.710938 305.421875 C 182.425781 305.953125 183.160156 306.453125 183.863281 306.996094 C 184.558594 306.457031 185.277344 305.96875 185.980469 305.449219 C 186.855469 304.804688 187.714844 304.160156 188.605469 303.542969 C 189.636719 302.820312 190.679688 302.144531 191.734375 301.457031 C 192.621094 300.875 193.503906 300.277344 194.410156 299.71875 C 195.488281 299.054688 196.589844 298.429688 197.691406 297.796875 C 198.59375 297.277344 199.496094 296.738281 200.410156 296.242188 C 201.546875 295.625 202.703125 295.054688 203.859375 294.472656 C 204.761719 294.019531 205.65625 293.546875 206.574219 293.121094 C 207.785156 292.550781 209.023438 292.03125 210.253906 291.5 C 211.132812 291.121094 212.003906 290.71875 212.886719 290.359375 C 214.210938 289.828125 215.546875 289.359375 216.882812 288.871094 C 217.699219 288.570312 218.511719 288.246094 219.335938 287.96875 C 220.828125 287.464844 222.339844 287.027344 223.847656 286.589844 C 224.535156 286.386719 225.21875 286.15625 225.90625 285.964844 C 228.113281 285.363281 230.335938 284.820312 232.5625 284.351562 C 234.757812 283.890625 236.855469 283.542969 238.890625 283.253906 C 239.140625 283.21875 239.417969 283.152344 239.660156 283.121094 L 239.660156 238.84375 C 239.660156 227.105469 230.132812 217.554688 218.421875 217.554688 L 149.316406 217.554688 C 137.578125 217.554688 128.019531 227.105469 128.019531 238.84375 L 128.019531 283.121094 Z M 128.042969 283.125 " fill-opacity="1" fill-rule="nonzero"/><g clip-path="url(#593308928d)"><path fill="#005de0" d="M 55.972656 335.605469 L 311.757812 335.605469 C 314.257812 335.605469 316.371094 333.492188 316.371094 330.992188 C 316.371094 328.496094 314.257812 326.382812 311.757812 326.382812 L 55.972656 326.382812 C 53.476562 326.382812 51.359375 328.496094 51.359375 330.992188 C 51.359375 333.492188 53.476562 335.605469 55.972656 335.605469 Z M 55.972656 335.605469 " fill-opacity="1" fill-rule="nonzero"/></g></svg>