<svg xmlns="http://www.w3.org/2000/svg" xmlns:xlink="http://www.w3.org/1999/xlink" width="500" zoomAndPan="magnify" viewBox="0 0 375 374.999991" height="500" preserveAspectRatio="xMidYMid meet" version="1.0"><defs><clipPath id="e3c5f8aefc"><path d="M 0 0 L 375 0 L 375 375 L 0 375 Z M 0 0 " clip-rule="nonzero"/></clipPath><clipPath id="87748d968a"><rect x="0" width="375" y="0" height="375"/></clipPath><clipPath id="74791eeb41"><path d="M 55 207 L 173 207 L 173 337.484375 L 55 337.484375 Z M 55 207 " clip-rule="nonzero"/></clipPath></defs><rect x="-37.5" width="450" fill="#ffffff" y="-37.499999" height="449.999989" fill-opacity="1"/><rect x="-37.5" width="450" fill="#ffffff" y="-37.499999" height="449.999989" fill-opacity="1"/><g transform="matrix(1, 0, 0, 1, 0, 0)"><g clip-path="url(#87748d968a)"><g clip-path="url(#e3c5f8aefc)"><rect x="-82.5" width="540" fill="#ffffff" height="539.999987" y="-82.499998" fill-opacity="1"/></g></g></g><path fill="#ffffff" d="M 219.046875 206.183594 L 176.59375 199.839844 C 176.320312 199.839844 176.230469 200.097656 176.230469 200.339844 L 176.230469 236.460938 C 176.230469 239.917969 152.109375 248.90625 151.871094 248.449219 L 151.84375 252.269531 C 151.84375 252.980469 152.464844 253.613281 153.265625 253.613281 L 153.804688 253.613281 L 189.402344 260.222656 C 191.054688 260.222656 192.6875 259.851562 194.179688 259.226562 L 213.753906 250.984375 C 217.277344 249.5 219.496094 246.316406 219.496094 242.839844 L 219.496094 206.683594 C 219.496094 206.4375 219.324219 206.183594 219.050781 206.183594 Z M 219.046875 206.183594 " fill-opacity="1" fill-rule="nonzero"/><path fill="#ffffff" d="M 171.929688 197.738281 L 171.929688 233.867188 C 171.929688 237.429688 169.636719 240.671875 166.039062 242.210938 L 152.835938 247.84375 C 151.976562 248.210938 152.265625 249.371094 153.222656 249.371094 L 189.496094 255.980469 C 191.128906 255.980469 192.738281 255.65625 194.214844 255.035156 L 208.84375 248.875 C 212.472656 247.347656 214.789062 244.089844 214.789062 240.511719 L 214.789062 204.347656 C 214.789062 204.199219 214.65625 204.078125 214.488281 204.078125 L 172.230469 197.472656 C 172.066406 197.472656 171.929688 197.589844 171.929688 197.738281 Z M 171.929688 197.738281 " fill-opacity="1" fill-rule="nonzero"/><path fill="#005de0" d="M 285.046875 235.136719 L 280.3125 239.558594 L 104.699219 209.167969 L 106.578125 95.484375 L 112.261719 92.433594 C 113.304688 91.875 114.507812 91.6875 115.667969 91.898438 L 282.355469 121.96875 C 284.855469 122.421875 286.671875 124.597656 286.671875 127.140625 L 286.710938 231.300781 C 286.710938 232.753906 286.109375 234.140625 285.050781 235.132812 Z M 285.046875 235.136719 " fill-opacity="1" fill-rule="nonzero"/><path fill="#ffffff" d="M 276.242188 240.183594 L 108.136719 209.832031 C 106.046875 209.453125 104.53125 207.636719 104.53125 205.511719 L 104.53125 99.824219 C 104.53125 97.089844 107.007812 95.019531 109.699219 95.503906 L 277.804688 125.859375 C 279.894531 126.238281 281.414062 128.054688 281.414062 130.179688 L 281.414062 235.863281 C 281.414062 238.597656 278.933594 240.667969 276.242188 240.183594 Z M 276.242188 240.183594 " fill-opacity="1" fill-rule="nonzero"/><path fill="#000000" d="M 256.136719 237.09375 C 256.105469 237.09375 256.074219 237.09375 256.042969 237.082031 L 123.832031 213.210938 C 123.539062 213.15625 123.34375 212.878906 123.394531 212.585938 C 123.449219 212.292969 123.730469 212.097656 124.023438 212.152344 L 256.234375 236.023438 C 256.527344 236.078125 256.722656 236.355469 256.667969 236.648438 C 256.621094 236.910156 256.394531 237.09375 256.136719 237.09375 Z M 256.136719 237.09375 " fill-opacity="1" fill-rule="nonzero"/><path fill="#000000" d="M 281.414062 177.277344 C 281.113281 177.277344 280.871094 177.035156 280.871094 176.734375 L 280.871094 158.546875 C 280.871094 158.246094 281.113281 158.003906 281.414062 158.003906 C 281.710938 158.003906 281.953125 158.246094 281.953125 158.546875 L 281.953125 176.734375 C 281.953125 177.035156 281.710938 177.277344 281.414062 177.277344 Z M 281.414062 177.277344 " fill-opacity="1" fill-rule="nonzero"/><path fill="#000000" d="M 104.53125 143.183594 C 104.234375 143.183594 103.992188 142.941406 103.992188 142.644531 L 103.992188 99.824219 C 103.992188 98.359375 104.636719 96.980469 105.761719 96.042969 C 106.882812 95.105469 108.359375 94.714844 109.796875 94.972656 L 273.464844 124.523438 C 273.757812 124.578125 273.953125 124.855469 273.898438 125.148438 C 273.84375 125.441406 273.5625 125.640625 273.269531 125.585938 L 109.605469 96.035156 C 108.480469 95.832031 107.332031 96.132812 106.453125 96.867188 C 105.574219 97.601562 105.070312 98.679688 105.070312 99.820312 L 105.070312 142.640625 C 105.070312 142.9375 104.828125 143.179688 104.53125 143.179688 Z M 104.53125 143.183594 " fill-opacity="1" fill-rule="nonzero"/><path fill="#ffffff" d="M 178.921875 206.453125 L 116.988281 195.273438 C 116.617188 195.203125 116.347656 194.882812 116.347656 194.503906 L 116.347656 125.683594 C 116.347656 125.199219 116.789062 124.832031 117.265625 124.917969 L 179.199219 136.097656 C 179.570312 136.167969 179.839844 136.488281 179.839844 136.867188 L 179.839844 205.6875 C 179.839844 206.171875 179.398438 206.539062 178.921875 206.453125 Z M 178.921875 206.453125 " fill-opacity="1" fill-rule="nonzero"/><path fill="#ffffff" d="M 253.640625 146.929688 C 254.464844 147.753906 255.242188 148.613281 255.980469 149.515625 C 256.71875 150.414062 257.414062 151.347656 258.058594 152.316406 C 258.707031 153.285156 259.304688 154.28125 259.851562 155.308594 C 260.402344 156.332031 260.898438 157.382812 261.34375 158.460938 C 261.789062 159.535156 262.179688 160.628906 262.519531 161.742188 C 262.855469 162.855469 263.140625 163.984375 263.367188 165.125 C 263.59375 166.269531 263.761719 167.417969 263.878906 168.574219 C 263.992188 169.734375 264.046875 170.894531 264.046875 172.058594 C 264.046875 173.222656 263.992188 174.382812 263.878906 175.542969 C 263.761719 176.699219 263.59375 177.851562 263.367188 178.992188 C 263.140625 180.132812 262.855469 181.261719 262.519531 182.375 C 262.179688 183.488281 261.789062 184.582031 261.34375 185.660156 C 260.898438 186.734375 260.402344 187.785156 259.851562 188.8125 C 259.304688 189.839844 258.707031 190.835938 258.058594 191.804688 C 257.414062 192.769531 256.71875 193.703125 255.980469 194.605469 C 255.242188 195.503906 254.464844 196.363281 253.640625 197.1875 C 252.816406 198.011719 251.957031 198.792969 251.054688 199.53125 C 250.15625 200.269531 249.222656 200.960938 248.253906 201.609375 C 247.285156 202.253906 246.289062 202.851562 245.261719 203.402344 C 244.238281 203.949219 243.1875 204.445312 242.109375 204.890625 C 241.035156 205.335938 239.941406 205.730469 238.828125 206.066406 C 237.714844 206.40625 236.585938 206.6875 235.445312 206.914062 C 234.300781 207.140625 233.152344 207.3125 231.996094 207.425781 C 230.835938 207.539062 229.675781 207.597656 228.511719 207.597656 C 227.347656 207.597656 226.1875 207.539062 225.027344 207.425781 C 223.871094 207.3125 222.71875 207.140625 221.578125 206.914062 C 220.4375 206.6875 219.308594 206.402344 218.195312 206.066406 C 217.082031 205.730469 215.988281 205.335938 214.910156 204.890625 C 213.835938 204.445312 212.785156 203.949219 211.757812 203.402344 C 210.730469 202.851562 209.734375 202.253906 208.765625 201.609375 C 207.800781 200.960938 206.867188 200.269531 205.964844 199.53125 C 205.066406 198.792969 204.207031 198.011719 203.382812 197.1875 C 202.558594 196.363281 201.777344 195.503906 201.039062 194.605469 C 200.300781 193.703125 199.609375 192.769531 198.960938 191.804688 C 198.316406 190.835938 197.71875 189.835938 197.167969 188.8125 C 196.621094 187.785156 196.125 186.734375 195.679688 185.660156 C 195.234375 184.582031 194.839844 183.488281 194.503906 182.375 C 194.164062 181.261719 193.882812 180.132812 193.65625 178.992188 C 193.429688 177.851562 193.257812 176.699219 193.144531 175.542969 C 193.03125 174.382812 192.972656 173.222656 192.972656 172.058594 C 192.972656 170.894531 193.03125 169.734375 193.144531 168.574219 C 193.257812 167.417969 193.429688 166.269531 193.65625 165.125 C 193.882812 163.984375 194.164062 162.855469 194.503906 161.742188 C 194.839844 160.628906 195.234375 159.535156 195.679688 158.460938 C 196.125 157.382812 196.621094 156.332031 197.167969 155.308594 C 197.71875 154.28125 198.316406 153.285156 198.960938 152.316406 C 199.609375 151.347656 200.300781 150.414062 201.039062 149.515625 C 201.777344 148.613281 202.558594 147.753906 203.382812 146.929688 C 204.207031 146.105469 205.066406 145.328125 205.964844 144.589844 C 206.867188 143.851562 207.800781 143.15625 208.765625 142.511719 C 209.734375 141.863281 210.734375 141.265625 211.757812 140.71875 C 212.785156 140.167969 213.835938 139.671875 214.910156 139.226562 C 215.988281 138.78125 217.082031 138.390625 218.195312 138.050781 C 219.308594 137.714844 220.4375 137.429688 221.578125 137.203125 C 222.71875 136.976562 223.871094 136.808594 225.027344 136.691406 C 226.1875 136.578125 227.347656 136.523438 228.511719 136.523438 C 229.675781 136.523438 230.835938 136.578125 231.996094 136.691406 C 233.152344 136.808594 234.300781 136.976562 235.445312 137.203125 C 236.585938 137.429688 237.714844 137.714844 238.828125 138.050781 C 239.941406 138.390625 241.035156 138.78125 242.109375 139.226562 C 243.1875 139.671875 244.238281 140.167969 245.261719 140.71875 C 246.289062 141.265625 247.285156 141.863281 248.253906 142.511719 C 249.222656 143.15625 250.15625 143.851562 251.054688 144.589844 C 251.957031 145.328125 252.816406 146.105469 253.640625 146.929688 Z M 253.640625 146.929688 " fill-opacity="1" fill-rule="nonzero"/><path fill="#005de0" d="M 242.699219 170.539062 L 244.027344 185.84375 C 244.429688 190.449219 237.484375 192.707031 228.519531 190.882812 C 219.550781 189.0625 211.957031 183.847656 211.558594 179.242188 L 210.226562 163.9375 Z M 242.699219 170.539062 " fill-opacity="1" fill-rule="nonzero"/><path fill="#ffffff" d="M 209.023438 160.335938 L 225.03125 156.273438 C 225.335938 156.21875 225.675781 156.289062 226 156.46875 L 243.308594 167.304688 L 249.9375 168.652344 L 250.082031 170.355469 C 250.101562 170.566406 250.007812 170.753906 249.789062 170.792969 L 227.589844 174.769531 C 227.289062 174.824219 226.945312 174.757812 226.621094 174.574219 L 202.921875 161.269531 C 202.691406 161.136719 202.558594 160.902344 202.539062 160.691406 L 202.390625 158.988281 L 209.019531 160.335938 Z M 209.023438 160.335938 " fill-opacity="1" fill-rule="nonzero"/><path fill="#005de0" d="M 202.6875 158.550781 L 224.882812 154.574219 C 225.1875 154.519531 225.53125 154.585938 225.855469 154.769531 L 249.550781 168.074219 C 250.019531 168.335938 250.078125 169.015625 249.640625 169.089844 L 227.445312 173.070312 C 227.140625 173.125 226.796875 173.054688 226.472656 172.875 L 202.777344 159.566406 C 202.308594 159.304688 202.25 158.628906 202.6875 158.550781 Z M 202.6875 158.550781 " fill-opacity="1" fill-rule="nonzero"/><path fill="#000000" d="M 214.203125 173.96875 C 213.925781 173.96875 213.691406 173.757812 213.664062 173.476562 L 213.042969 166.339844 C 213.023438 166.0625 213.207031 165.816406 213.476562 165.761719 L 226.058594 163.292969 C 226.351562 163.234375 226.636719 163.425781 226.691406 163.71875 C 226.75 164.011719 226.558594 164.296875 226.265625 164.351562 L 214.160156 166.726562 L 214.738281 173.382812 C 214.761719 173.679688 214.542969 173.941406 214.246094 173.964844 C 214.226562 173.964844 214.214844 173.964844 214.195312 173.964844 Z M 214.203125 173.96875 " fill-opacity="1" fill-rule="nonzero"/><path fill="#ffffff" d="M 214.21875 173.597656 C 214.675781 173.691406 215.082031 174.140625 215.15625 174.625 L 217.207031 188.308594 L 213.722656 187.597656 L 213.429688 174.277344 C 213.417969 173.804688 213.761719 173.507812 214.214844 173.597656 Z M 214.21875 173.597656 " fill-opacity="1" fill-rule="nonzero"/><path fill="#ffffff" d="M 176.386719 128.824219 L 118.757812 118.417969 C 117.363281 118.164062 116.347656 116.949219 116.347656 115.535156 C 116.347656 113.710938 118 112.328125 119.800781 112.652344 L 177.429688 123.058594 C 178.828125 123.308594 179.839844 124.523438 179.839844 125.941406 C 179.839844 127.765625 178.1875 129.148438 176.386719 128.824219 Z M 176.386719 128.824219 " fill-opacity="1" fill-rule="nonzero"/><path fill="#005de0" d="M 170.546875 144.640625 L 124.8125 136.378906 C 123.707031 136.179688 122.898438 135.21875 122.898438 134.089844 C 122.898438 132.640625 124.210938 131.546875 125.636719 131.800781 L 171.371094 140.0625 C 172.476562 140.261719 173.285156 141.222656 173.285156 142.351562 C 173.285156 143.800781 171.972656 144.894531 170.546875 144.640625 Z M 170.546875 144.640625 " fill-opacity="1" fill-rule="nonzero"/><path fill="#005de0" d="M 170.546875 152.378906 L 124.8125 144.121094 C 123.707031 143.921875 122.898438 142.957031 122.898438 141.832031 C 122.898438 140.382812 124.210938 139.289062 125.636719 139.542969 L 171.371094 147.800781 C 172.476562 148 173.285156 148.964844 173.285156 150.089844 C 173.285156 151.542969 171.972656 152.636719 170.546875 152.378906 Z M 170.546875 152.378906 " fill-opacity="1" fill-rule="nonzero"/><path fill="#005de0" d="M 170.546875 160.546875 L 124.8125 152.289062 C 123.707031 152.089844 122.898438 151.125 122.898438 150 C 122.898438 148.550781 124.210938 147.453125 125.636719 147.710938 L 171.371094 155.96875 C 172.476562 156.167969 173.285156 157.132812 173.285156 158.257812 C 173.285156 159.710938 171.972656 160.804688 170.546875 160.546875 Z M 170.546875 160.546875 " fill-opacity="1" fill-rule="nonzero"/><path fill="#005de0" d="M 170.546875 168.289062 L 124.8125 160.03125 C 123.707031 159.832031 122.898438 158.867188 122.898438 157.742188 C 122.898438 156.289062 124.210938 155.195312 125.636719 155.453125 L 171.371094 163.710938 C 172.476562 163.910156 173.285156 164.875 173.285156 166 C 173.285156 167.449219 171.972656 168.546875 170.546875 168.289062 Z M 170.546875 168.289062 " fill-opacity="1" fill-rule="nonzero"/><path fill="#005de0" d="M 170.546875 175.804688 L 124.8125 167.542969 C 123.707031 167.34375 122.898438 166.382812 122.898438 165.253906 C 122.898438 163.804688 124.210938 162.710938 125.636719 162.964844 L 171.371094 171.222656 C 172.476562 171.421875 173.285156 172.386719 173.285156 173.511719 C 173.285156 174.964844 171.972656 176.058594 170.546875 175.804688 Z M 170.546875 175.804688 " fill-opacity="1" fill-rule="nonzero"/><path fill="#005de0" d="M 170.546875 183.542969 L 124.8125 175.285156 C 123.707031 175.085938 122.898438 174.121094 122.898438 172.996094 C 122.898438 171.546875 124.210938 170.449219 125.636719 170.707031 L 171.371094 178.964844 C 172.476562 179.164062 173.285156 180.128906 173.285156 181.253906 C 173.285156 182.707031 171.972656 183.800781 170.546875 183.542969 Z M 170.546875 183.542969 " fill-opacity="1" fill-rule="nonzero"/><path fill="#005de0" d="M 170.546875 191.5 L 124.8125 183.242188 C 123.707031 183.042969 122.898438 182.078125 122.898438 180.953125 C 122.898438 179.503906 124.210938 178.40625 125.636719 178.664062 L 171.371094 186.921875 C 172.476562 187.121094 173.285156 188.085938 173.285156 189.210938 C 173.285156 190.664062 171.972656 191.757812 170.546875 191.5 Z M 170.546875 191.5 " fill-opacity="1" fill-rule="nonzero"/><path fill="#005de0" d="M 170.546875 199.242188 L 124.8125 190.984375 C 123.707031 190.785156 122.898438 189.820312 122.898438 188.695312 C 122.898438 187.242188 124.210938 186.148438 125.636719 186.40625 L 171.371094 194.664062 C 172.476562 194.863281 173.285156 195.828125 173.285156 196.953125 C 173.285156 198.402344 171.972656 199.5 170.546875 199.242188 Z M 170.546875 199.242188 " fill-opacity="1" fill-rule="nonzero"/><path fill="#ffffff" d="M 256.160156 264.878906 C 256.308594 265.4375 256.363281 266.015625 256.320312 266.613281 C 256.28125 267.210938 256.148438 267.816406 255.917969 268.429688 C 255.691406 269.042969 255.375 269.652344 254.964844 270.261719 C 254.558594 270.867188 254.070312 271.457031 253.5 272.03125 C 252.929688 272.609375 252.289062 273.15625 251.574219 273.679688 C 250.863281 274.203125 250.09375 274.6875 249.269531 275.136719 C 248.441406 275.585938 247.574219 275.992188 246.664062 276.351562 C 245.757812 276.710938 244.824219 277.015625 243.867188 277.273438 C 242.914062 277.527344 241.953125 277.726562 240.984375 277.867188 C 240.019531 278.007812 239.066406 278.089844 238.125 278.113281 C 237.183594 278.136719 236.273438 278.097656 235.398438 278 C 234.519531 277.902344 233.691406 277.746094 232.910156 277.53125 C 232.128906 277.316406 231.410156 277.046875 230.753906 276.726562 C 230.097656 276.402344 229.519531 276.03125 229.015625 275.613281 C 228.511719 275.195312 228.09375 274.738281 227.761719 274.242188 C 227.429688 273.742188 227.1875 273.214844 227.039062 272.65625 C 226.890625 272.097656 226.835938 271.519531 226.875 270.921875 C 226.914062 270.324219 227.050781 269.71875 227.277344 269.105469 C 227.507812 268.492188 227.824219 267.882812 228.230469 267.277344 C 228.636719 266.671875 229.125 266.078125 229.699219 265.503906 C 230.269531 264.929688 230.910156 264.378906 231.621094 263.855469 C 232.332031 263.335938 233.101562 262.847656 233.929688 262.398438 C 234.753906 261.949219 235.621094 261.546875 236.53125 261.1875 C 237.4375 260.828125 238.371094 260.519531 239.328125 260.265625 C 240.285156 260.007812 241.246094 259.8125 242.210938 259.667969 C 243.179688 259.527344 244.132812 259.445312 245.074219 259.421875 C 246.011719 259.402344 246.921875 259.441406 247.800781 259.539062 C 248.675781 259.636719 249.507812 259.792969 250.289062 260.007812 C 251.070312 260.21875 251.789062 260.488281 252.441406 260.8125 C 253.097656 261.132812 253.675781 261.503906 254.179688 261.921875 C 254.683594 262.339844 255.101562 262.796875 255.433594 263.296875 C 255.769531 263.792969 256.007812 264.320312 256.160156 264.878906 Z M 256.160156 264.878906 " fill-opacity="1" fill-rule="nonzero"/><path fill="#000000" d="M 237.605469 278.667969 C 235.882812 278.667969 234.246094 278.460938 232.757812 278.054688 C 229.382812 277.132812 227.164062 275.265625 226.507812 272.800781 C 225.851562 270.335938 226.84375 267.613281 229.304688 265.128906 C 231.695312 262.722656 235.203125 260.8125 239.179688 259.75 C 243.160156 258.6875 247.152344 258.59375 250.421875 259.492188 C 253.796875 260.417969 256.011719 262.285156 256.671875 264.75 C 257.328125 267.210938 256.335938 269.9375 253.871094 272.417969 C 251.484375 274.824219 247.976562 276.738281 243.996094 277.800781 C 241.832031 278.378906 239.660156 278.671875 237.605469 278.671875 Z M 245.574219 259.960938 C 243.613281 259.960938 241.539062 260.238281 239.460938 260.792969 C 235.660156 261.808594 232.328125 263.617188 230.070312 265.890625 C 227.890625 268.089844 226.996094 270.445312 227.550781 272.523438 C 228.105469 274.601562 230.058594 276.199219 233.042969 277.019531 C 236.132812 277.867188 239.921875 277.773438 243.722656 276.757812 C 247.523438 275.742188 250.855469 273.933594 253.109375 271.660156 C 255.292969 269.460938 256.1875 267.105469 255.628906 265.027344 C 255.074219 262.949219 253.125 261.355469 250.136719 260.535156 C 248.738281 260.152344 247.199219 259.960938 245.574219 259.960938 Z M 245.574219 259.960938 " fill-opacity="1" fill-rule="nonzero"/><path fill="#ffffff" d="M 230.367188 274.011719 C 231.285156 273.292969 232.382812 272.832031 233.542969 272.679688 C 237.117188 272.21875 237.683594 271.839844 244.847656 268.28125 C 250.210938 265.621094 256.410156 268.839844 259.570312 264.316406 C 261.40625 261.6875 253.03125 251.464844 239.960938 254.421875 C 232.523438 256.105469 233.574219 259.875 223.808594 265.65625 C 223.808594 265.65625 183.550781 290.800781 175.128906 282.5625 C 165.785156 273.421875 157.546875 259.101562 157.546875 259.101562 L 133.21875 288.542969 C 133.21875 288.542969 163.976562 309.597656 182.378906 308.816406 C 193.148438 308.359375 230.371094 274.011719 230.371094 274.011719 Z M 230.367188 274.011719 " fill-opacity="1" fill-rule="nonzero"/><path fill="#000000" d="M 181.347656 309.375 C 162.914062 309.375 134.152344 289.832031 132.910156 288.984375 C 132.785156 288.898438 132.703125 288.765625 132.679688 288.617188 C 132.660156 288.464844 132.703125 288.3125 132.800781 288.199219 L 157.128906 258.757812 C 157.246094 258.621094 157.414062 258.550781 157.589844 258.5625 C 157.769531 258.578125 157.925781 258.679688 158.011719 258.832031 C 158.09375 258.972656 166.320312 273.195312 175.503906 282.175781 C 178.769531 285.375 188.070312 283.480469 202.390625 276.710938 C 213.355469 271.527344 223.417969 265.261719 223.519531 265.199219 C 227.914062 262.597656 230.097656 260.402344 231.851562 258.644531 C 234.046875 256.4375 235.632812 254.847656 239.839844 253.898438 C 250.148438 251.566406 257.023438 257.125 259.21875 260.390625 C 260.386719 262.128906 260.675781 263.675781 260.007812 264.628906 C 258.050781 267.429688 255.078125 267.496094 251.933594 267.566406 C 249.644531 267.617188 247.28125 267.671875 245.085938 268.765625 L 243.703125 269.449219 C 237.785156 272.394531 237.027344 272.773438 233.609375 273.214844 C 232.558594 273.351562 231.554688 273.769531 230.714844 274.421875 C 228.964844 276.035156 193.207031 308.890625 182.394531 309.351562 C 182.050781 309.367188 181.699219 309.375 181.34375 309.375 Z M 134.011719 288.425781 C 137.945312 291.042969 164.535156 308.296875 181.363281 308.296875 C 181.699219 308.296875 182.027344 308.289062 182.351562 308.273438 C 192.804688 307.832031 229.628906 273.953125 230 273.613281 C 230.011719 273.605469 230.023438 273.59375 230.035156 273.585938 C 231.03125 272.804688 232.222656 272.308594 233.472656 272.144531 C 236.710938 271.722656 237.324219 271.417969 243.226562 268.484375 L 244.605469 267.796875 C 247.019531 266.601562 249.617188 266.539062 251.910156 266.488281 C 254.898438 266.417969 257.480469 266.359375 259.125 264.007812 C 259.503906 263.464844 259.191406 262.28125 258.324219 260.992188 C 256.273438 257.9375 249.820312 252.746094 240.082031 254.949219 C 236.175781 255.832031 234.761719 257.253906 232.621094 259.40625 C 230.820312 261.210938 228.582031 263.457031 224.082031 266.121094 C 222.675781 266.996094 194.105469 284.726562 180.347656 284.726562 C 177.960938 284.726562 176.027344 284.195312 174.75 282.949219 C 166.605469 274.984375 159.226562 262.976562 157.46875 260.035156 L 134.007812 288.421875 Z M 134.011719 288.425781 " fill-opacity="1" fill-rule="nonzero"/><g clip-path="url(#74791eeb41)"><path fill="#005de0" d="M 117.285156 214.234375 C 103.414062 209.746094 80.707031 206.386719 71.609375 207.507812 C 61.511719 208.753906 50.097656 220.019531 57.597656 265.167969 C 59.066406 274.015625 60.160156 282 61.710938 289.078125 C 71.09375 302.703125 83.539062 314.351562 100.042969 322.816406 C 107.34375 326.558594 137.214844 335.203125 172.734375 337.46875 C 156.90625 320.875 151.964844 307.425781 150.710938 303.175781 C 150.53125 302.574219 151.101562 302.023438 151.695312 302.222656 L 153.449219 302.804688 C 154.914062 303.289062 156.523438 302.726562 157.359375 301.433594 C 161.679688 294.75 173.703125 274.160156 167.976562 260.089844 C 166.191406 255.699219 141.246094 221.992188 117.28125 214.234375 Z M 117.285156 214.234375 " fill-opacity="1" fill-rule="nonzero"/></g><path fill="#000000" d="M 120.195312 159.972656 L 122.023438 158.757812 C 123.492188 157.777344 124.109375 155.925781 123.5 154.269531 C 121.664062 149.308594 114.96875 140.664062 90.617188 147.230469 C 65.785156 153.925781 70.179688 193.765625 91.332031 202.277344 C 112.484375 210.792969 119.664062 167.023438 119.664062 167.023438 Z M 120.195312 159.972656 " fill-opacity="1" fill-rule="nonzero"/><path fill="#ffffff" d="M 117.144531 160.886719 C 117.429688 159.367188 119.453125 159.03125 120.214844 160.375 C 122.074219 163.636719 122.960938 165.902344 123.257812 167.292969 C 123.65625 169.152344 121.925781 171.015625 122.859375 173.011719 C 123.792969 175.003906 125.253906 177.269531 125.386719 180.859375 C 125.519531 184.367188 129.074219 200.453125 116.578125 199.945312 C 116.089844 199.925781 115.679688 200.3125 115.683594 200.800781 C 115.714844 203.25 115.84375 209.984375 116.390625 213.628906 C 116.683594 215.617188 115.449219 217.507812 113.511719 218.050781 C 108.511719 219.464844 99.199219 221.453125 92.226562 219.1875 C 90.414062 218.597656 89.460938 216.609375 90.109375 214.820312 C 90.9375 212.53125 92.085938 206.101562 91.332031 202.273438 C 91.332031 202.273438 95.507812 201.863281 100.15625 199.730469 C 107.300781 196.453125 110.816406 188.472656 108.839844 180.863281 C 108.417969 179.230469 107.5 176.902344 108.453125 174.4375 C 110.921875 168.082031 114.613281 174.472656 114.613281 174.472656 L 117.148438 160.882812 Z M 117.144531 160.886719 " fill-opacity="1" fill-rule="nonzero"/><path fill="#000000" d="M 99.578125 220.753906 C 96.980469 220.753906 94.394531 220.460938 92.058594 219.703125 C 91.050781 219.375 90.234375 218.667969 89.769531 217.710938 C 89.292969 216.742188 89.234375 215.652344 89.601562 214.640625 C 90.394531 212.4375 91.535156 206.117188 90.800781 202.382812 L 90.6875 201.800781 L 91.28125 201.738281 C 91.320312 201.738281 95.425781 201.308594 99.929688 199.242188 C 106.722656 196.125 110.25 188.457031 108.316406 181 C 108.257812 180.785156 108.191406 180.554688 108.125 180.316406 C 107.671875 178.722656 107.050781 176.546875 107.945312 174.246094 C 108.722656 172.246094 109.734375 171.183594 110.957031 171.089844 C 112.34375 170.984375 113.566406 172.15625 114.3125 173.097656 L 116.609375 160.785156 C 116.78125 159.867188 117.484375 159.175781 118.402344 159.023438 C 119.324219 158.867188 120.214844 159.292969 120.679688 160.109375 C 122.777344 163.792969 123.523438 165.984375 123.78125 167.175781 C 123.984375 168.128906 123.71875 169.039062 123.46875 169.917969 C 123.179688 170.910156 122.90625 171.851562 123.34375 172.78125 C 123.496094 173.109375 123.664062 173.449219 123.835938 173.796875 C 124.710938 175.546875 125.804688 177.730469 125.917969 180.839844 C 125.933594 181.261719 126.007812 181.910156 126.089844 182.660156 C 126.527344 186.644531 127.347656 194.0625 123.6875 197.984375 C 122.023438 199.769531 119.625 200.609375 116.550781 200.484375 C 116.460938 200.484375 116.375 200.515625 116.308594 200.578125 C 116.273438 200.609375 116.214844 200.683594 116.21875 200.796875 C 116.25 203.441406 116.382812 209.976562 116.917969 213.554688 C 117.253906 215.796875 115.851562 217.957031 113.65625 218.574219 C 110.285156 219.523438 104.902344 220.75 99.574219 220.753906 Z M 91.957031 202.742188 C 92.535156 206.746094 91.425781 212.753906 90.617188 215.007812 C 90.351562 215.742188 90.394531 216.535156 90.738281 217.238281 C 91.078125 217.929688 91.667969 218.441406 92.394531 218.679688 C 99.242188 220.90625 108.472656 218.917969 113.367188 217.539062 C 115.039062 217.066406 116.109375 215.421875 115.855469 213.714844 C 115.3125 210.074219 115.179688 203.480469 115.144531 200.816406 C 115.140625 200.429688 115.289062 200.074219 115.5625 199.808594 C 115.839844 199.542969 116.214844 199.394531 116.601562 199.414062 C 119.34375 199.523438 121.460938 198.800781 122.902344 197.253906 C 126.226562 193.695312 125.445312 186.597656 125.027344 182.785156 C 124.9375 181.980469 124.867188 181.347656 124.847656 180.886719 C 124.746094 178.011719 123.753906 176.03125 122.878906 174.28125 C 122.699219 173.921875 122.527344 173.578125 122.371094 173.242188 C 121.765625 171.945312 122.121094 170.710938 122.4375 169.621094 C 122.664062 168.839844 122.878906 168.097656 122.730469 167.40625 C 122.535156 166.496094 121.886719 164.398438 119.75 160.648438 C 119.464844 160.144531 118.960938 160.035156 118.589844 160.097656 C 118.21875 160.160156 117.785156 160.425781 117.679688 160.992188 L 114.878906 176.011719 L 114.148438 174.75 C 113.710938 174 112.300781 172.074219 111.046875 172.175781 C 110.082031 172.25 109.382812 173.558594 108.960938 174.644531 C 108.199219 176.605469 108.734375 178.503906 109.171875 180.027344 C 109.242188 180.277344 109.308594 180.511719 109.367188 180.738281 C 111.433594 188.699219 107.65625 196.894531 100.386719 200.230469 C 96.664062 201.9375 93.277344 202.554688 91.964844 202.746094 Z M 91.957031 202.742188 " fill-opacity="1" fill-rule="nonzero"/><path fill="#000000" d="M 80.621094 155.285156 C 80.621094 155.285156 68.402344 149.453125 59.515625 157.785156 C 50.632812 166.113281 42.023438 184.441406 55.351562 204.433594 C 63.726562 216.996094 66.949219 226.929688 68.183594 232.574219 C 68.601562 234.46875 71.078125 234.9375 72.148438 233.328125 C 77.511719 225.277344 87.296875 207.519531 82.558594 190.828125 C 76.171875 168.335938 80.617188 155.285156 80.617188 155.285156 Z M 80.621094 155.285156 " fill-opacity="1" fill-rule="nonzero"/><path fill="#000000" d="M 125.695312 179.347656 L 125.140625 178.425781 C 128.957031 176.136719 126.613281 169.695312 125.835938 167.84375 L 114.621094 173.566406 L 114.128906 172.605469 L 126.34375 166.371094 L 126.582031 166.867188 C 126.761719 167.246094 130.992188 176.171875 125.695312 179.347656 Z M 125.695312 179.347656 " fill-opacity="1" fill-rule="nonzero"/><path fill="#000000" d="M 125.746094 184.074219 C 125.605469 184.074219 125.464844 184.023438 125.359375 183.917969 C 125.152344 183.707031 125.152344 183.363281 125.363281 183.15625 L 126.960938 181.570312 C 127.402344 181.136719 127.460938 180.453125 127.097656 179.949219 L 126 178.414062 C 125.824219 178.171875 125.878906 177.832031 126.125 177.660156 C 126.363281 177.488281 126.703125 177.542969 126.878906 177.785156 L 127.976562 179.320312 C 128.648438 180.257812 128.539062 181.523438 127.722656 182.335938 L 126.125 183.917969 C 126.019531 184.023438 125.882812 184.074219 125.746094 184.074219 Z M 125.746094 184.074219 " fill-opacity="1" fill-rule="nonzero"/><path fill="#000000" d="M 112.875 185.464844 C 112.605469 185.464844 112.320312 185.433594 112.019531 185.363281 C 110.59375 185.007812 109.375 183.800781 108.398438 181.773438 C 108.265625 181.503906 108.378906 181.179688 108.648438 181.054688 C 108.914062 180.921875 109.238281 181.035156 109.367188 181.304688 C 110.195312 183.019531 111.171875 184.035156 112.261719 184.3125 C 113.417969 184.609375 114.328125 183.96875 114.363281 183.941406 C 114.605469 183.769531 114.941406 183.824219 115.117188 184.0625 C 115.289062 184.300781 115.238281 184.636719 115 184.8125 C 114.957031 184.84375 114.089844 185.46875 112.875 185.46875 Z M 112.875 185.464844 " fill-opacity="1" fill-rule="nonzero"/><path fill="#ffffff" d="M 77.550781 154.179688 C 77.550781 154.179688 88.90625 157.597656 84.257812 168.488281 C 84.257812 168.488281 89.503906 164.703125 89.367188 158.796875 C 89.234375 152.886719 84.855469 150.960938 81.933594 151.03125 C 79.011719 151.09375 77.550781 154.183594 77.550781 154.183594 Z M 77.550781 154.179688 " fill-opacity="1" fill-rule="nonzero"/><path fill="#000000" d="M 83 170.0625 L 83.761719 168.273438 C 85.066406 165.21875 85.179688 162.492188 84.101562 160.179688 C 82.246094 156.207031 77.445312 154.710938 77.394531 154.699219 L 76.796875 154.515625 L 77.0625 153.949219 C 77.128906 153.8125 78.703125 150.558594 81.921875 150.488281 C 83.753906 150.445312 85.621094 151.09375 87.039062 152.253906 C 88.304688 153.292969 89.828125 155.269531 89.910156 158.785156 C 90.046875 164.90625 84.796875 168.765625 84.574219 168.925781 Z M 78.34375 153.890625 C 79.8125 154.460938 83.417969 156.175781 85.074219 159.71875 C 86.039062 161.78125 86.171875 164.101562 85.476562 166.644531 C 86.9375 165.085938 88.90625 162.324219 88.828125 158.808594 C 88.773438 156.347656 87.917969 154.371094 86.355469 153.089844 C 85.152344 152.101562 83.507812 151.535156 81.945312 151.566406 C 80.085938 151.609375 78.871094 153.082031 78.34375 153.890625 Z M 78.34375 153.890625 " fill-opacity="1" fill-rule="nonzero"/><path fill="#000000" d="M 125.746094 273.765625 C 125.726562 273.765625 125.707031 273.761719 125.6875 273.757812 L 108.359375 272.394531 C 92.480469 271.140625 77.164062 265.941406 63.816406 257.246094 C 63.714844 257.179688 63.609375 257.113281 63.507812 257.046875 C 61.414062 255.695312 58.855469 255.273438 56.441406 255.878906 L 54.089844 256.46875 C 52.605469 256.84375 51.234375 257.578125 50.121094 258.625 C 49.859375 258.867188 49.695312 259.054688 49.695312 259.117188 L 51.929688 272 C 61.855469 292.960938 76.992188 310.992188 100.050781 322.820312 C 104.8125 325.261719 119.1875 329.789062 138.46875 333.273438 C 138.4375 328.617188 138.390625 322.195312 138.390625 322.1875 L 138.390625 289.203125 C 138.390625 281.703125 133.101562 275.25 125.75 273.765625 Z M 125.746094 273.765625 " fill-opacity="1" fill-rule="nonzero"/><path fill="#ffffff" d="M 101.910156 332.835938 C 75.59375 327.589844 64.398438 321.285156 56.339844 316.554688 C 51.195312 313.535156 48.039062 308.019531 48.039062 302.058594 L 48.039062 262.835938 C 48.039062 258.699219 52.507812 256.097656 56.109375 258.144531 C 57.4375 258.894531 58.707031 259.679688 59.929688 260.484375 C 73.207031 269.15625 88.46875 274.316406 104.277344 275.5625 L 121.742188 276.9375 C 129.105469 278.410156 134.410156 284.871094 134.410156 292.378906 C 134.410156 292.378906 134.273438 335.539062 133.746094 335.890625 C 131.339844 337.492188 101.90625 332.835938 101.90625 332.835938 Z M 101.910156 332.835938 " fill-opacity="1" fill-rule="nonzero"/><path fill="#000000" d="M 122.066406 330.359375 C 122.023438 330.359375 121.980469 330.351562 121.9375 330.34375 C 116.859375 329.109375 112.058594 327.773438 108.054688 326.480469 C 104.410156 325.300781 101.554688 324.199219 99.800781 323.300781 C 96.949219 321.839844 94.15625 320.25 91.5 318.570312 C 74.40625 307.792969 60.957031 292.257812 51.519531 272.402344 C 51.390625 272.132812 51.503906 271.8125 51.773438 271.683594 C 52.046875 271.554688 52.367188 271.667969 52.496094 271.9375 C 61.84375 291.609375 75.15625 306.988281 92.074219 317.65625 C 94.710938 319.316406 97.472656 320.894531 100.296875 322.339844 C 101.972656 323.199219 104.847656 324.304688 108.390625 325.453125 C 112.367188 326.742188 117.140625 328.070312 122.195312 329.296875 C 122.484375 329.367188 122.664062 329.660156 122.59375 329.949219 C 122.535156 330.195312 122.3125 330.359375 122.070312 330.359375 Z M 122.066406 330.359375 " fill-opacity="1" fill-rule="nonzero"/><path fill="#005de0" d="M 225.207031 97.523438 L 195.371094 92.734375 L 210.566406 52.488281 L 240.402344 57.277344 Z M 225.207031 97.523438 " fill-opacity="1" fill-rule="nonzero"/><path fill="#005de0" d="M 191.335938 91.464844 L 167.394531 81.886719 L 181.535156 44.367188 L 205.335938 54.359375 Z M 191.335938 91.464844 " fill-opacity="1" fill-rule="nonzero"/><path fill="#005de0" d="M 195.429688 92.746094 C 194.035156 93.378906 192.070312 92.808594 191.339844 91.464844 L 205.429688 53.839844 C 206.113281 55.214844 208.066406 55.847656 209.484375 55.253906 L 195.433594 92.746094 Z M 195.429688 92.746094 " fill-opacity="1" fill-rule="nonzero"/><path fill="#000000" d="M 196.15625 90.738281 C 194.761719 91.371094 192.796875 90.800781 192.066406 89.457031 L 206.007812 52.25 C 206.691406 53.625 208.640625 54.257812 210.0625 53.664062 L 196.15625 90.742188 Z M 196.15625 90.738281 " fill-opacity="1" fill-rule="nonzero"/><path fill="#000000" d="M 194.890625 91.542969 C 193.554688 91.542969 192.214844 90.859375 191.589844 89.714844 C 191.515625 89.578125 191.503906 89.414062 191.558594 89.269531 L 205.5 52.058594 C 205.574219 51.855469 205.761719 51.71875 205.976562 51.707031 C 206.191406 51.699219 206.394531 51.8125 206.488281 52.007812 C 207.03125 53.097656 208.664062 53.664062 209.855469 53.164062 C 210.054688 53.082031 210.28125 53.125 210.4375 53.273438 C 210.589844 53.421875 210.644531 53.648438 210.566406 53.851562 L 196.660156 90.925781 C 196.609375 91.058594 196.511719 91.167969 196.378906 91.226562 C 195.914062 91.441406 195.402344 91.539062 194.890625 91.539062 Z M 196.15625 90.738281 Z M 192.664062 89.398438 C 193.289062 90.273438 194.667969 90.691406 195.734375 90.328125 L 209.203125 54.417969 C 208.09375 54.507812 206.945312 54.105469 206.167969 53.355469 L 192.664062 89.394531 Z M 192.664062 89.398438 " fill-opacity="1" fill-rule="nonzero"/><path fill="#ffffff" d="M 169.433594 80.601562 L 192.042969 89.679688 L 193.621094 88.339844 L 206.367188 54.332031 L 203.6875 53.277344 L 182.832031 41.960938 L 168.746094 75.445312 Z M 169.433594 80.601562 " fill-opacity="1" fill-rule="nonzero"/><path fill="#000000" d="M 192.140625 90.300781 L 168.9375 80.984375 L 168.191406 75.371094 L 168.246094 75.234375 L 182.566406 41.199219 L 203.917969 52.785156 L 207.0625 54.019531 L 194.078125 88.660156 L 192.144531 90.296875 Z M 169.925781 80.214844 L 191.941406 89.054688 L 193.164062 88.015625 L 205.675781 54.636719 L 203.433594 53.746094 L 183.097656 42.71875 L 169.300781 75.519531 Z M 169.925781 80.214844 " fill-opacity="1" fill-rule="nonzero"/><path fill="#ffffff" d="M 168.777344 75.304688 C 168.726562 75.429688 168.789062 75.570312 168.917969 75.613281 C 170.890625 76.3125 185.09375 81.417969 190.113281 85.496094 L 193.625 88.339844 L 206.933594 52.828125 L 204.125 50.464844 C 199.675781 46.710938 187.242188 41.949219 183.253906 40.476562 C 182.5625 40.222656 181.796875 40.574219 181.539062 41.265625 L 168.78125 75.308594 Z M 168.777344 75.304688 " fill-opacity="1" fill-rule="nonzero"/><path fill="#000000" d="M 193.867188 89.230469 L 189.777344 85.914062 C 184.796875 81.867188 170.367188 76.699219 168.742188 76.125 C 168.542969 76.054688 168.386719 75.910156 168.296875 75.71875 C 168.210938 75.53125 168.203125 75.3125 168.277344 75.117188 L 181.03125 41.074219 C 181.390625 40.109375 182.472656 39.613281 183.4375 39.96875 C 187.226562 41.367188 199.933594 46.21875 204.472656 50.046875 L 207.570312 52.660156 L 207.4375 53.015625 Z M 169.390625 75.207031 C 172.648438 76.371094 185.601562 81.136719 190.457031 85.074219 L 193.382812 87.449219 L 206.292969 52.996094 L 203.78125 50.871094 C 199.375 47.160156 186.808594 42.359375 183.0625 40.980469 C 182.65625 40.832031 182.195312 41.042969 182.039062 41.449219 L 169.386719 75.207031 Z M 169.390625 75.207031 " fill-opacity="1" fill-rule="nonzero"/><path fill="#ffffff" d="M 193.621094 88.339844 L 196.359375 90.691406 L 223.742188 95.1875 L 237.273438 58.464844 L 235.300781 55.066406 C 235.246094 54.972656 235.148438 54.921875 235.046875 54.933594 C 233.925781 55.066406 227.589844 55.777344 224.960938 55.085938 C 220.925781 54.03125 216.683594 54.0625 212.605469 54.921875 L 207.367188 56.027344 Z M 193.621094 88.339844 " fill-opacity="1" fill-rule="nonzero"/><path fill="#000000" d="M 224.097656 95.789062 L 196.125 91.195312 L 192.972656 88.492188 L 193.125 88.128906 L 206.980469 55.554688 L 212.492188 54.394531 C 216.820312 53.480469 221.179688 53.539062 225.097656 54.566406 C 227.671875 55.242188 234.242188 54.488281 234.984375 54.398438 C 235.300781 54.363281 235.609375 54.515625 235.769531 54.792969 L 237.871094 58.414062 L 237.78125 58.652344 L 224.097656 95.792969 Z M 196.597656 90.179688 L 223.394531 94.582031 L 236.679688 58.515625 L 234.925781 55.492188 C 233.34375 55.671875 227.417969 56.289062 224.824219 55.609375 C 221.066406 54.628906 216.878906 54.574219 212.714844 55.453125 L 207.753906 56.496094 L 194.269531 88.191406 L 196.59375 90.183594 Z M 196.597656 90.179688 " fill-opacity="1" fill-rule="nonzero"/><path fill="#ffffff" d="M 206.03125 86.699219 C 207.8125 86.777344 209.585938 87.023438 211.332031 87.441406 C 217.078125 88.800781 221.980469 90.289062 221.980469 90.289062 L 235.160156 55.125 C 235.230469 54.933594 235.128906 54.726562 234.933594 54.667969 C 233.703125 54.300781 229.441406 53.058594 224.578125 51.90625 C 220.449219 50.925781 216.160156 50.882812 212.007812 51.753906 L 206.925781 52.828125 L 193.613281 88.339844 L 198.949219 87.253906 C 201.28125 86.777344 203.664062 86.589844 206.027344 86.699219 Z M 206.03125 86.699219 " fill-opacity="1" fill-rule="nonzero"/><path fill="#000000" d="M 221.984375 90.828125 C 221.933594 90.828125 221.878906 90.816406 221.828125 90.804688 C 221.828125 90.804688 221.011719 90.558594 219.664062 90.171875 C 214.542969 88.714844 209.230469 87.972656 203.875 87.972656 L 199.617188 87.972656 C 199.316406 87.96875 199.074219 87.726562 199.074219 87.429688 C 199.074219 87.128906 199.316406 86.886719 199.617188 86.886719 L 203.875 86.886719 C 209.332031 86.898438 214.738281 87.648438 219.957031 89.132812 C 220.699219 89.34375 221.277344 89.515625 221.652344 89.625 L 234.582031 55.125 C 233.164062 54.707031 229.070312 53.519531 224.457031 52.429688 C 220.445312 51.476562 216.175781 51.425781 212.121094 52.28125 L 207.324219 53.289062 L 194.121094 88.527344 C 194.015625 88.804688 193.707031 88.945312 193.425781 88.84375 C 193.148438 88.738281 193.007812 88.425781 193.113281 88.148438 L 206.421875 52.632812 C 206.488281 52.460938 206.632812 52.332031 206.8125 52.292969 L 211.898438 51.222656 C 216.109375 50.335938 220.542969 50.390625 224.707031 51.375 C 229.585938 52.535156 233.886719 53.789062 235.089844 54.144531 C 235.324219 54.21875 235.519531 54.382812 235.628906 54.601562 C 235.738281 54.820312 235.75 55.078125 235.664062 55.308594 L 222.488281 90.472656 C 222.40625 90.691406 222.203125 90.824219 221.980469 90.824219 Z M 221.984375 90.828125 " fill-opacity="1" fill-rule="nonzero"/><path fill="#ffffff" d="M 228.605469 59.214844 C 228.558594 59.214844 228.507812 59.210938 228.457031 59.195312 L 227.644531 58.964844 C 226.148438 58.53125 225.0625 58.21875 222.121094 57.523438 C 218.113281 56.574219 213.851562 56.523438 209.792969 57.375 C 209.5 57.4375 209.214844 57.25 209.152344 56.957031 C 209.089844 56.664062 209.277344 56.382812 209.570312 56.320312 C 213.78125 55.429688 218.210938 55.484375 222.371094 56.472656 C 225.335938 57.175781 226.429688 57.492188 227.945312 57.925781 L 228.753906 58.160156 C 229.042969 58.242188 229.207031 58.539062 229.125 58.828125 C 229.054688 59.0625 228.839844 59.21875 228.605469 59.21875 Z M 228.605469 59.214844 " fill-opacity="1" fill-rule="nonzero"/><path fill="#ffffff" d="M 227.496094 63.675781 C 227.445312 63.675781 227.394531 63.671875 227.347656 63.65625 C 225.429688 63.109375 224.0625 62.746094 220.570312 61.917969 C 216.558594 60.96875 212.296875 60.917969 208.238281 61.769531 C 207.945312 61.832031 207.660156 61.644531 207.597656 61.351562 C 207.535156 61.058594 207.722656 60.773438 208.015625 60.710938 C 212.230469 59.824219 216.65625 59.878906 220.820312 60.867188 C 224.335938 61.699219 225.710938 62.0625 227.644531 62.617188 C 227.933594 62.699219 228.097656 62.996094 228.015625 63.285156 C 227.945312 63.519531 227.730469 63.675781 227.496094 63.675781 Z M 227.496094 63.675781 " fill-opacity="1" fill-rule="nonzero"/><path fill="#ffffff" d="M 225.265625 67.792969 C 225.214844 67.792969 225.164062 67.785156 225.117188 67.769531 C 223.601562 67.339844 222.734375 67.136719 220.835938 66.691406 C 220.269531 66.558594 219.617188 66.40625 218.828125 66.21875 C 216.710938 65.714844 214.53125 65.460938 212.34375 65.460938 L 212.339844 65.460938 C 212.039062 65.460938 211.800781 65.21875 211.800781 64.921875 C 211.800781 64.625 212.039062 64.382812 212.339844 64.382812 L 212.34375 64.382812 C 214.613281 64.382812 216.878906 64.644531 219.078125 65.167969 C 219.863281 65.355469 220.519531 65.507812 221.082031 65.636719 C 223 66.085938 223.875 66.292969 225.414062 66.734375 C 225.699219 66.816406 225.863281 67.113281 225.78125 67.402344 C 225.714844 67.636719 225.5 67.792969 225.265625 67.792969 Z M 225.265625 67.792969 " fill-opacity="1" fill-rule="nonzero"/><path fill="#ffffff" d="M 224.171875 72.417969 C 224.125 72.417969 224.074219 72.414062 224.023438 72.398438 C 223.582031 72.269531 223.160156 72.148438 222.738281 72.027344 C 221.292969 71.601562 219.800781 71.164062 217.128906 70.53125 C 213.117188 69.578125 208.855469 69.527344 204.796875 70.382812 C 204.507812 70.445312 204.21875 70.257812 204.15625 69.964844 C 204.09375 69.671875 204.28125 69.386719 204.574219 69.324219 C 208.789062 68.4375 213.214844 68.492188 217.378906 69.476562 C 220.074219 70.117188 221.585938 70.558594 223.042969 70.988281 C 223.460938 71.109375 223.878906 71.230469 224.320312 71.359375 C 224.609375 71.441406 224.773438 71.742188 224.691406 72.027344 C 224.621094 72.265625 224.40625 72.421875 224.171875 72.421875 Z M 224.171875 72.417969 " fill-opacity="1" fill-rule="nonzero"/><path fill="#ffffff" d="M 220.417969 75.519531 C 220.375 75.519531 220.328125 75.515625 220.28125 75.503906 C 218.628906 75.066406 217.011719 74.660156 215.480469 74.296875 C 211.46875 73.34375 207.203125 73.292969 203.148438 74.148438 C 202.859375 74.210938 202.570312 74.023438 202.507812 73.730469 C 202.445312 73.4375 202.632812 73.152344 202.925781 73.089844 C 207.136719 72.203125 211.566406 72.253906 215.730469 73.242188 C 217.269531 73.609375 218.898438 74.015625 220.558594 74.457031 C 220.84375 74.535156 221.019531 74.828125 220.941406 75.117188 C 220.878906 75.359375 220.660156 75.519531 220.421875 75.519531 Z M 220.417969 75.519531 " fill-opacity="1" fill-rule="nonzero"/><path fill="#ffffff" d="M 213.683594 78.234375 C 213.644531 78.234375 213.609375 78.230469 213.566406 78.222656 C 209.695312 77.394531 205.753906 77.394531 201.855469 78.214844 C 201.5625 78.277344 201.277344 78.089844 201.214844 77.796875 C 201.152344 77.503906 201.339844 77.21875 201.632812 77.15625 C 205.679688 76.304688 209.769531 76.304688 213.792969 77.164062 C 214.085938 77.226562 214.269531 77.515625 214.207031 77.804688 C 214.152344 78.058594 213.929688 78.230469 213.683594 78.230469 Z M 213.683594 78.234375 " fill-opacity="1" fill-rule="nonzero"/><path fill="#ffffff" d="M 218.449219 84.296875 C 218.398438 84.296875 218.347656 84.292969 218.300781 84.277344 C 216.476562 83.757812 215.613281 83.550781 212.753906 82.875 L 212.050781 82.707031 C 208.042969 81.757812 203.78125 81.707031 199.722656 82.558594 C 199.429688 82.621094 199.144531 82.433594 199.082031 82.140625 C 199.019531 81.847656 199.207031 81.5625 199.5 81.5 C 203.710938 80.613281 208.140625 80.667969 212.300781 81.65625 L 213.003906 81.824219 C 215.882812 82.503906 216.75 82.710938 218.597656 83.238281 C 218.886719 83.320312 219.050781 83.617188 218.96875 83.90625 C 218.902344 84.140625 218.683594 84.296875 218.449219 84.296875 Z M 218.449219 84.296875 " fill-opacity="1" fill-rule="nonzero"/><path fill="#ffffff" d="M 193.640625 51.558594 C 193.550781 51.558594 193.457031 51.535156 193.371094 51.484375 C 189.820312 49.429688 186.160156 47.796875 184.105469 47.023438 C 183.828125 46.917969 183.683594 46.609375 183.789062 46.332031 C 183.894531 46.050781 184.207031 45.910156 184.484375 46.015625 C 186.578125 46.800781 190.304688 48.457031 193.910156 50.550781 C 194.167969 50.703125 194.257812 51.03125 194.105469 51.289062 C 194.007812 51.460938 193.824219 51.558594 193.640625 51.558594 Z M 193.640625 51.558594 " fill-opacity="1" fill-rule="nonzero"/><path fill="#ffffff" d="M 198.664062 62.910156 C 198.503906 62.910156 198.347656 62.839844 198.238281 62.707031 C 195.691406 59.503906 191.429688 57.242188 187.636719 55.367188 C 187.371094 55.238281 187.257812 54.914062 187.394531 54.648438 C 187.523438 54.378906 187.847656 54.269531 188.113281 54.402344 C 192.015625 56.324219 196.398438 58.660156 199.085938 62.035156 C 199.269531 62.269531 199.230469 62.605469 199 62.792969 C 198.898438 62.875 198.78125 62.910156 198.664062 62.910156 Z M 198.664062 62.910156 " fill-opacity="1" fill-rule="nonzero"/><path fill="#ffffff" d="M 196.550781 68.960938 C 196.417969 68.960938 196.28125 68.910156 196.175781 68.8125 C 192.859375 65.613281 189.800781 63.980469 186.148438 62.175781 C 183.6875 60.964844 182.257812 60.347656 180.875 59.757812 C 180.46875 59.582031 180.066406 59.410156 179.644531 59.226562 C 179.371094 59.105469 179.246094 58.789062 179.363281 58.515625 C 179.484375 58.242188 179.800781 58.117188 180.074219 58.234375 C 180.496094 58.421875 180.898438 58.589844 181.296875 58.765625 C 182.695312 59.363281 184.140625 59.984375 186.625 61.210938 C 190.363281 63.054688 193.496094 64.726562 196.925781 68.035156 C 197.140625 68.242188 197.144531 68.585938 196.941406 68.796875 C 196.835938 68.910156 196.691406 68.960938 196.550781 68.960938 Z M 196.550781 68.960938 " fill-opacity="1" fill-rule="nonzero"/><path fill="#ffffff" d="M 195.261719 73.300781 C 195.125 73.300781 194.988281 73.25 194.882812 73.144531 C 192.035156 70.347656 189.535156 69.140625 186.367188 67.605469 C 185.90625 67.382812 185.433594 67.152344 184.945312 66.914062 C 183.53125 66.214844 182.027344 65.5 180.476562 64.785156 C 180.207031 64.660156 180.085938 64.339844 180.210938 64.070312 C 180.335938 63.796875 180.65625 63.679688 180.929688 63.804688 C 182.488281 64.523438 184 65.242188 185.421875 65.945312 C 185.90625 66.183594 186.378906 66.410156 186.839844 66.636719 C 189.964844 68.148438 192.664062 69.453125 195.636719 72.378906 C 195.851562 72.585938 195.851562 72.929688 195.644531 73.140625 C 195.539062 73.25 195.398438 73.300781 195.257812 73.300781 Z M 195.261719 73.300781 " fill-opacity="1" fill-rule="nonzero"/><path fill="#ffffff" d="M 193.679688 77.402344 C 193.539062 77.402344 193.402344 77.347656 193.296875 77.242188 C 190.816406 74.761719 188.074219 73.390625 185.171875 71.941406 C 184.527344 71.617188 183.875 71.292969 183.222656 70.953125 C 182.960938 70.816406 182.855469 70.488281 182.996094 70.226562 C 183.132812 69.960938 183.460938 69.859375 183.722656 70 C 184.371094 70.332031 185.015625 70.65625 185.65625 70.980469 C 188.507812 72.40625 191.457031 73.878906 194.058594 76.484375 C 194.269531 76.695312 194.269531 77.035156 194.058594 77.246094 C 193.953125 77.351562 193.8125 77.40625 193.679688 77.40625 Z M 193.679688 77.402344 " fill-opacity="1" fill-rule="nonzero"/><path fill="#ffffff" d="M 192.3125 81.992188 C 192.152344 81.992188 191.996094 81.921875 191.890625 81.789062 C 189.355469 78.605469 180.023438 74.515625 175.515625 73.121094 C 175.230469 73.03125 175.070312 72.730469 175.160156 72.445312 C 175.246094 72.164062 175.546875 72.003906 175.832031 72.089844 C 180.1875 73.4375 189.933594 77.601562 192.734375 81.117188 C 192.917969 81.351562 192.882812 81.6875 192.648438 81.878906 C 192.546875 81.957031 192.429688 81.992188 192.3125 81.992188 Z M 192.3125 81.992188 " fill-opacity="1" fill-rule="nonzero"/><path fill="#000000" d="M 223.746094 95.722656 C 223.527344 95.722656 223.324219 95.589844 223.242188 95.375 L 221.449219 90.597656 C 221.34375 90.316406 221.484375 90.007812 221.765625 89.902344 C 222.042969 89.796875 222.355469 89.941406 222.457031 90.21875 L 224.25 94.996094 C 224.355469 95.273438 224.210938 95.585938 223.933594 95.691406 C 223.871094 95.710938 223.808594 95.722656 223.742188 95.722656 Z M 223.746094 95.722656 " fill-opacity="1" fill-rule="nonzero"/><path fill="#ffffff" d="M 275.75 135.285156 C 276.195312 138.34375 279.808594 157.84375 300.582031 166.9375 C 300.65625 166.972656 300.738281 166.976562 300.816406 166.957031 C 302.566406 166.488281 322.769531 160.496094 335.242188 133.058594 C 335.339844 132.84375 335.214844 132.59375 334.984375 132.550781 C 332.121094 131.992188 316.238281 128.605469 309.683594 120.671875 C 309.53125 120.484375 309.242188 120.496094 309.105469 120.695312 C 307.546875 123.035156 298.773438 134.441406 276.101562 134.875 C 275.882812 134.878906 275.714844 135.074219 275.746094 135.289062 Z M 275.75 135.285156 " fill-opacity="1" fill-rule="nonzero"/><path fill="#000000" d="M 300.726562 167.511719 C 300.605469 167.511719 300.480469 167.484375 300.367188 167.433594 C 279.546875 158.320312 275.765625 139.121094 275.21875 135.367188 C 275.179688 135.109375 275.253906 134.851562 275.421875 134.65625 C 275.589844 134.457031 275.835938 134.339844 276.09375 134.335938 C 298.511719 133.90625 307.160156 122.648438 308.664062 120.398438 C 308.820312 120.160156 309.074219 120.015625 309.359375 120 C 309.640625 119.984375 309.917969 120.109375 310.101562 120.328125 C 316.507812 128.085938 332.042969 131.433594 335.089844 132.023438 C 335.363281 132.074219 335.589844 132.246094 335.71875 132.492188 C 335.84375 132.742188 335.851562 133.03125 335.738281 133.285156 C 323.246094 160.761719 303.207031 166.878906 300.960938 167.484375 C 300.882812 167.503906 300.808594 167.515625 300.726562 167.515625 Z M 276.316406 135.410156 C 276.59375 137.195312 277.65625 142.542969 281.015625 148.589844 C 285.492188 156.636719 292.128906 162.636719 300.742188 166.421875 C 303.214844 165.742188 322.480469 159.652344 334.660156 133.039062 C 331.105469 132.332031 316.003906 128.933594 309.421875 121.199219 C 307.535156 123.921875 298.527344 134.921875 276.316406 135.414062 Z M 276.316406 135.410156 " fill-opacity="1" fill-rule="nonzero"/><path fill="#000000" d="M 327.695312 136.035156 C 327.660156 136.035156 327.621094 136.035156 327.582031 136.023438 C 317.679688 133.835938 308.5625 126.980469 308.472656 126.910156 C 308.234375 126.730469 308.1875 126.394531 308.367188 126.152344 C 308.546875 125.914062 308.886719 125.871094 309.125 126.046875 C 309.210938 126.117188 318.148438 132.832031 327.8125 134.96875 C 328.101562 135.03125 328.285156 135.320312 328.21875 135.609375 C 328.164062 135.863281 327.941406 136.035156 327.695312 136.035156 Z M 327.695312 136.035156 " fill-opacity="1" fill-rule="nonzero"/><path fill="#000000" d="M 325.214844 141.449219 C 325.167969 141.449219 325.125 141.441406 325.078125 141.429688 C 320.480469 140.234375 315.910156 137.992188 311.503906 134.757812 C 311.265625 134.582031 311.210938 134.246094 311.386719 134.007812 C 311.5625 133.765625 311.902344 133.714844 312.140625 133.890625 C 316.4375 137.039062 320.882812 139.222656 325.351562 140.386719 C 325.636719 140.460938 325.8125 140.757812 325.738281 141.042969 C 325.675781 141.285156 325.457031 141.449219 325.214844 141.449219 Z M 325.214844 141.449219 " fill-opacity="1" fill-rule="nonzero"/><path fill="#000000" d="M 308.871094 132.519531 C 308.746094 132.519531 308.621094 132.476562 308.519531 132.386719 C 306.511719 130.660156 305.390625 129.414062 305.34375 129.359375 C 305.144531 129.136719 305.164062 128.796875 305.386719 128.597656 C 305.609375 128.398438 305.949219 128.417969 306.148438 128.640625 C 306.160156 128.652344 307.273438 129.890625 309.21875 131.570312 C 309.445312 131.761719 309.46875 132.101562 309.277344 132.332031 C 309.171875 132.457031 309.019531 132.519531 308.867188 132.519531 Z M 308.871094 132.519531 " fill-opacity="1" fill-rule="nonzero"/><path fill="#000000" d="M 320.871094 146.503906 C 320.800781 146.503906 320.726562 146.488281 320.660156 146.457031 C 308.210938 141.085938 301.972656 132.019531 301.910156 131.925781 C 301.742188 131.679688 301.808594 131.34375 302.054688 131.179688 C 302.304688 131.011719 302.640625 131.078125 302.804688 131.324219 C 302.863281 131.414062 308.941406 140.226562 321.089844 145.46875 C 321.359375 145.585938 321.484375 145.902344 321.371094 146.175781 C 321.28125 146.378906 321.082031 146.503906 320.875 146.503906 Z M 320.871094 146.503906 " fill-opacity="1" fill-rule="nonzero"/><path fill="#000000" d="M 316.894531 151.042969 C 316.8125 151.042969 316.722656 151.019531 316.644531 150.976562 C 303.726562 144.105469 298.105469 133.847656 298.050781 133.746094 C 297.90625 133.484375 298.007812 133.15625 298.269531 133.011719 C 298.53125 132.871094 298.855469 132.972656 299 133.234375 C 299.054688 133.332031 304.535156 143.3125 317.148438 150.023438 C 317.410156 150.164062 317.511719 150.488281 317.371094 150.753906 C 317.273438 150.9375 317.085938 151.042969 316.894531 151.042969 Z M 316.894531 151.042969 " fill-opacity="1" fill-rule="nonzero"/><path fill="#000000" d="M 311.78125 155.230469 C 311.699219 155.230469 311.613281 155.210938 311.53125 155.167969 C 309.21875 153.957031 306.976562 152.417969 304.871094 150.585938 C 304.648438 150.390625 304.625 150.046875 304.816406 149.824219 C 305.015625 149.597656 305.355469 149.578125 305.578125 149.769531 C 307.621094 151.542969 309.792969 153.039062 312.03125 154.210938 C 312.292969 154.347656 312.398438 154.671875 312.257812 154.9375 C 312.160156 155.121094 311.972656 155.226562 311.78125 155.226562 Z M 311.78125 155.230469 " fill-opacity="1" fill-rule="nonzero"/><path fill="#000000" d="M 302.015625 147.585938 C 301.871094 147.585938 301.726562 147.527344 301.617188 147.414062 C 296.328125 141.652344 293.859375 135.878906 293.761719 135.636719 C 293.644531 135.363281 293.773438 135.046875 294.046875 134.929688 C 294.320312 134.8125 294.640625 134.945312 294.757812 135.21875 C 294.78125 135.273438 297.257812 141.066406 302.414062 146.679688 C 302.617188 146.898438 302.601562 147.242188 302.382812 147.445312 C 302.28125 147.539062 302.148438 147.585938 302.019531 147.585938 Z M 302.015625 147.585938 " fill-opacity="1" fill-rule="nonzero"/><path fill="#005de0" d="M 300.066406 158.886719 C 300.066406 158.886719 300.058594 158.886719 300.058594 158.886719 C 299.757812 158.882812 299.519531 158.636719 299.523438 158.339844 L 299.566406 155.742188 C 299.566406 155.695312 299.542969 155.664062 299.523438 155.644531 C 299.507812 155.628906 299.472656 155.609375 299.433594 155.613281 L 295.800781 155.914062 C 295.386719 155.949219 295 155.777344 294.75 155.453125 C 294.5 155.125 294.433594 154.695312 294.570312 154.304688 L 294.746094 153.8125 C 294.769531 153.75 294.746094 153.707031 294.722656 153.679688 C 294.691406 153.644531 294.652344 153.632812 294.605469 153.644531 C 294.050781 153.78125 293.503906 153.53125 293.246094 153.015625 C 292.984375 152.5 293.109375 151.90625 293.554688 151.535156 L 294.265625 150.949219 C 294.3125 150.910156 294.328125 150.859375 294.304688 150.800781 C 294.277344 150.71875 294.214844 150.71875 294.191406 150.71875 L 290.394531 150.769531 C 290.394531 150.769531 290.386719 150.769531 290.386719 150.769531 C 290.09375 150.769531 289.851562 150.535156 289.847656 150.238281 C 289.84375 149.941406 290.082031 149.695312 290.378906 149.691406 L 294.175781 149.640625 C 294.175781 149.640625 294.1875 149.640625 294.191406 149.640625 C 294.703125 149.640625 295.144531 149.949219 295.320312 150.429688 C 295.5 150.917969 295.355469 151.449219 294.953125 151.785156 L 294.246094 152.371094 C 294.222656 152.386719 294.160156 152.4375 294.210938 152.535156 C 294.253906 152.621094 294.316406 152.605469 294.347656 152.597656 C 294.777344 152.492188 295.226562 152.628906 295.523438 152.953125 C 295.824219 153.285156 295.917969 153.753906 295.765625 154.175781 L 295.589844 154.667969 C 295.570312 154.722656 295.589844 154.765625 295.609375 154.792969 C 295.625 154.816406 295.664062 154.84375 295.714844 154.835938 L 299.347656 154.535156 C 299.6875 154.507812 300.019531 154.625 300.269531 154.855469 C 300.515625 155.085938 300.65625 155.414062 300.648438 155.757812 L 300.609375 158.351562 C 300.601562 158.648438 300.363281 158.882812 300.070312 158.882812 Z M 300.066406 158.886719 " fill-opacity="1" fill-rule="nonzero"/><path fill="#ffffff" d="M 294.140625 79.832031 C 295.289062 80.722656 296.460938 81.574219 297.664062 82.382812 L 298.414062 82.886719 C 299.265625 83.605469 299.367188 84.878906 298.648438 85.726562 L 294.324219 90.828125 L 297.105469 92.921875 C 298.355469 94.070312 298.15625 96.09375 296.707031 96.976562 L 295.644531 97.414062 C 290.710938 99.4375 286.15625 102.292969 282.1875 105.855469 C 281.1875 106.46875 279.914062 106.378906 279.007812 105.640625 L 273.195312 101.882812 C 268.0625 98.566406 263.308594 94.691406 259.023438 90.332031 L 255.101562 86.34375 C 254.285156 85.6875 254.160156 84.503906 254.800781 83.6875 L 257.820312 79.273438 C 261.796875 73.332031 266.480469 67.894531 271.769531 63.085938 C 272.480469 62.21875 273.757812 62.101562 274.617188 62.824219 L 279.417969 67.691406 C 281.359375 69.65625 283.421875 71.492188 285.601562 73.1875 L 294.136719 79.828125 Z M 294.140625 79.832031 " fill-opacity="1" fill-rule="nonzero"/><path fill="#000000" d="M 280.753906 106.800781 C 280.019531 106.800781 279.289062 106.554688 278.695312 106.078125 L 272.910156 102.339844 C 267.75 99.003906 262.949219 95.09375 258.644531 90.710938 L 254.742188 86.742188 C 253.730469 85.902344 253.566406 84.390625 254.382812 83.355469 L 257.382812 78.96875 C 261.371094 73.011719 266.082031 67.542969 271.386719 62.710938 C 271.820312 62.199219 272.425781 61.882812 273.09375 61.820312 C 273.78125 61.757812 274.445312 61.96875 274.972656 62.410156 L 275.007812 62.445312 L 279.808594 67.3125 C 281.722656 69.253906 283.789062 71.089844 285.941406 72.765625 L 294.472656 79.40625 C 295.605469 80.285156 296.78125 81.136719 297.96875 81.9375 L 298.765625 82.476562 C 299.289062 82.917969 299.609375 83.535156 299.664062 84.21875 C 299.722656 84.898438 299.507812 85.558594 299.066406 86.082031 L 295.113281 90.742188 L 297.476562 92.523438 C 298.195312 93.1875 298.554688 94.128906 298.457031 95.101562 C 298.359375 96.078125 297.828125 96.925781 296.992188 97.4375 L 296.914062 97.480469 L 295.855469 97.914062 C 290.960938 99.917969 286.484375 102.730469 282.550781 106.261719 L 282.46875 106.320312 C 281.941406 106.644531 281.347656 106.804688 280.753906 106.804688 Z M 273.328125 62.890625 C 273.28125 62.890625 273.234375 62.890625 273.191406 62.898438 C 272.796875 62.933594 272.441406 63.121094 272.191406 63.429688 L 272.136719 63.484375 C 266.886719 68.261719 262.222656 73.679688 258.273438 79.578125 L 255.25 83.996094 C 254.769531 84.605469 254.867188 85.460938 255.445312 85.925781 L 255.488281 85.96875 L 259.410156 89.957031 C 263.664062 94.28125 268.402344 98.140625 273.496094 101.433594 L 279.351562 105.226562 C 280.066406 105.8125 281.074219 105.886719 281.871094 105.425781 C 285.890625 101.828125 290.457031 98.964844 295.445312 96.917969 L 296.464844 96.5 C 296.988281 96.164062 297.324219 95.621094 297.382812 95 C 297.445312 94.375 297.21875 93.765625 296.765625 93.339844 L 293.550781 90.917969 L 298.242188 85.382812 C 298.5 85.082031 298.625 84.699219 298.589844 84.308594 C 298.558594 83.925781 298.382812 83.574219 298.09375 83.324219 L 297.371094 82.839844 C 296.160156 82.023438 294.964844 81.15625 293.816406 80.265625 L 285.28125 73.625 C 283.089844 71.921875 280.992188 70.054688 279.042969 68.078125 L 274.261719 63.226562 C 273.996094 63.011719 273.671875 62.894531 273.332031 62.894531 Z M 273.328125 62.890625 " fill-opacity="1" fill-rule="nonzero"/><path fill="#000000" d="M 294.328125 91.367188 C 294.214844 91.367188 294.097656 91.332031 294.003906 91.257812 L 290.90625 88.925781 C 286.5625 85.65625 282.597656 81.878906 279.121094 77.699219 L 276.90625 75.039062 C 276.339844 74.53125 275.714844 74.464844 274.546875 74.789062 L 271.929688 75.644531 C 267.839844 76.972656 263.957031 78.867188 260.390625 81.273438 L 254.828125 85.328125 C 254.585938 85.507812 254.246094 85.453125 254.074219 85.210938 C 253.898438 84.96875 253.953125 84.632812 254.195312 84.457031 L 259.773438 80.390625 C 263.4375 77.914062 267.410156 75.976562 271.597656 74.613281 L 274.238281 73.753906 C 275.398438 73.429688 276.59375 73.273438 277.667969 74.265625 L 277.71875 74.316406 L 279.953125 77.003906 C 283.378906 81.121094 287.28125 84.839844 291.558594 88.0625 L 294.65625 90.394531 C 294.894531 90.574219 294.941406 90.914062 294.761719 91.152344 C 294.65625 91.292969 294.496094 91.367188 294.328125 91.367188 Z M 294.328125 91.367188 " fill-opacity="1" fill-rule="nonzero"/><path fill="#ffffff" d="M 300.058594 61.082031 L 296.105469 57.6875 C 295.144531 56.863281 293.714844 56.894531 292.796875 57.765625 L 290.804688 59.648438 C 287.84375 62.449219 285.335938 65.691406 283.378906 69.265625 L 280.933594 73.730469 C 280.679688 74.191406 280.765625 74.765625 281.152344 75.132812 C 282.9375 76.816406 287.703125 82.324219 291.984375 84.839844 C 292.710938 85.269531 293.648438 85.007812 294.070312 84.277344 L 296.902344 79.359375 C 298.5625 76.476562 300.589844 73.816406 302.925781 71.449219 L 305.550781 68.78125 C 306.617188 67.703125 306.460938 65.929688 305.230469 65.050781 L 303.933594 64.125 C 302.597656 63.167969 301.304688 62.15625 300.054688 61.085938 Z M 300.058594 61.082031 " fill-opacity="1" fill-rule="nonzero"/><path fill="#000000" d="M 292.738281 85.585938 C 292.378906 85.585938 292.027344 85.488281 291.710938 85.304688 C 288.34375 83.324219 284.773438 79.621094 282.410156 77.171875 C 281.75 76.488281 281.183594 75.898438 280.785156 75.523438 C 280.222656 74.996094 280.089844 74.148438 280.460938 73.46875 L 282.90625 69.003906 C 284.894531 65.375 287.425781 62.097656 290.433594 59.257812 L 292.425781 57.375 C 293.550781 56.308594 295.285156 56.269531 296.457031 57.277344 L 300.410156 60.671875 C 301.636719 61.726562 302.933594 62.742188 304.25 63.683594 L 305.546875 64.613281 C 306.261719 65.125 306.714844 65.917969 306.792969 66.796875 C 306.867188 67.671875 306.554688 68.535156 305.9375 69.160156 L 303.3125 71.828125 C 301.007812 74.160156 299.011719 76.789062 297.371094 79.628906 L 294.539062 84.546875 C 294.261719 85.03125 293.808594 85.378906 293.269531 85.519531 C 293.09375 85.566406 292.917969 85.589844 292.738281 85.589844 Z M 294.496094 57.628906 C 294.015625 57.628906 293.539062 57.804688 293.167969 58.15625 L 291.171875 60.039062 C 288.246094 62.804688 285.785156 65.992188 283.851562 69.523438 L 281.402344 73.988281 C 281.265625 74.234375 281.316406 74.546875 281.519531 74.738281 C 281.9375 75.132812 282.515625 75.730469 283.183594 76.425781 C 285.503906 78.832031 289.015625 82.472656 292.257812 84.375 C 292.476562 84.507812 292.738281 84.542969 292.992188 84.476562 C 293.25 84.40625 293.46875 84.242188 293.605469 84.007812 L 296.4375 79.089844 C 298.121094 76.167969 300.171875 73.46875 302.542969 71.066406 L 305.171875 68.398438 C 305.566406 68 305.765625 67.445312 305.714844 66.886719 C 305.667969 66.328125 305.378906 65.816406 304.921875 65.488281 L 303.625 64.558594 C 302.277344 63.597656 300.960938 62.566406 299.707031 61.488281 L 295.753906 58.09375 C 295.390625 57.78125 294.945312 57.625 294.496094 57.625 Z M 294.496094 57.628906 " fill-opacity="1" fill-rule="nonzero"/><path fill="#000000" d="M 302.601562 71.878906 L 299.535156 69.578125 C 298.902344 69.105469 298.5 68.410156 298.398438 67.621094 C 298.300781 66.832031 298.519531 66.058594 299.019531 65.441406 L 301.277344 62.648438 L 302.117188 63.324219 L 299.859375 66.117188 C 299.546875 66.503906 299.40625 66.992188 299.46875 67.484375 C 299.53125 67.980469 299.785156 68.414062 300.183594 68.710938 L 303.25 71.011719 L 302.601562 71.875 Z M 302.601562 71.878906 " fill-opacity="1" fill-rule="nonzero"/><path fill="#000000" d="M 298.441406 72.160156 C 298.339844 72.160156 298.234375 72.132812 298.144531 72.070312 C 294.964844 69.941406 290.503906 64.601562 290.316406 64.375 C 290.125 64.144531 290.15625 63.808594 290.386719 63.617188 C 290.617188 63.425781 290.953125 63.457031 291.144531 63.683594 C 291.191406 63.738281 295.695312 69.128906 298.742188 71.171875 C 298.992188 71.335938 299.054688 71.671875 298.890625 71.921875 C 298.785156 72.078125 298.617188 72.160156 298.441406 72.160156 Z M 298.441406 72.160156 " fill-opacity="1" fill-rule="nonzero"/><path fill="#000000" d="M 295.613281 75.207031 C 295.5 75.207031 295.382812 75.171875 295.285156 75.097656 C 290.148438 71.152344 287.890625 68.023438 287.796875 67.894531 C 287.625 67.652344 287.679688 67.3125 287.921875 67.140625 C 288.164062 66.964844 288.503906 67.023438 288.675781 67.265625 C 288.699219 67.296875 290.945312 70.402344 295.941406 74.238281 C 296.179688 74.421875 296.222656 74.757812 296.042969 74.996094 C 295.9375 75.132812 295.773438 75.207031 295.613281 75.207031 Z M 295.613281 75.207031 " fill-opacity="1" fill-rule="nonzero"/><path fill="#ffffff" d="M 85.164062 101.714844 C 93.59375 108.21875 93.882812 122.304688 86.289062 134.386719 C 86.285156 134.394531 86.28125 134.398438 86.277344 134.40625 C 85.707031 135.5 90.832031 143.152344 90.832031 143.152344 C 90.832031 143.152344 82.351562 139.679688 81.371094 140.710938 C 71.738281 150.8125 58.398438 153.964844 50.101562 147.566406 C 40.957031 140.515625 41.390625 124.535156 51.074219 111.875 C 60.757812 99.214844 76.023438 94.667969 85.164062 101.71875 Z M 85.164062 101.714844 " fill-opacity="1" fill-rule="nonzero"/><path fill="#000000" d="M 56.792969 152.296875 C 52.785156 152.296875 49.128906 151.128906 46.191406 148.867188 C 39.644531 143.816406 37.636719 134.285156 40.949219 123.988281 C 41.039062 123.703125 41.34375 123.546875 41.628906 123.636719 C 41.914062 123.726562 42.070312 124.03125 41.976562 124.316406 C 38.808594 134.167969 40.671875 143.25 46.847656 148.007812 C 50.707031 150.984375 55.925781 151.929688 61.539062 150.667969 C 67.148438 149.410156 72.785156 146.046875 77.402344 141.207031 C 77.84375 140.746094 78.832031 140.511719 83.058594 141.902344 C 84.078125 142.238281 85.078125 142.605469 85.863281 142.90625 C 83.730469 139.609375 81.699219 136.023438 82.21875 135.03125 L 82.25 134.980469 C 89.78125 123.003906 89.355469 109.265625 81.257812 103.023438 C 77.210938 99.902344 71.730469 99.019531 65.824219 100.542969 C 59.890625 102.070312 54.070312 105.863281 49.429688 111.226562 C 49.234375 111.449219 48.898438 111.476562 48.667969 111.28125 C 48.445312 111.085938 48.417969 110.746094 48.617188 110.519531 C 53.394531 104.988281 59.414062 101.074219 65.554688 99.496094 C 71.789062 97.890625 77.601562 98.839844 81.914062 102.164062 C 90.445312 108.742188 90.988281 123.070312 83.1875 135.511719 C 83.125 136.328125 85.460938 140.386719 87.695312 143.726562 L 88.679688 145.195312 L 87.042969 144.527344 C 83.296875 142.992188 78.832031 141.601562 78.152344 141.976562 C 73.414062 146.953125 67.585938 150.421875 61.769531 151.726562 C 60.066406 152.109375 58.394531 152.296875 56.78125 152.296875 Z M 56.792969 152.296875 " fill-opacity="1" fill-rule="nonzero"/><path fill="#005de0" d="M 57.5 132.074219 L 54.945312 133.976562 C 54.589844 134.242188 54.085938 134.175781 53.800781 133.828125 L 40.074219 116.785156 C 39.777344 116.417969 39.84375 115.875 40.21875 115.597656 L 44.089844 112.710938 C 44.464844 112.433594 45.003906 112.523438 45.269531 112.914062 L 57.683594 130.941406 C 57.933594 131.308594 57.855469 131.808594 57.5 132.074219 Z M 57.5 132.074219 " fill-opacity="1" fill-rule="nonzero"/><path fill="#005de0" d="M 61.898438 137.449219 C 62.089844 137.761719 62.21875 138.09375 62.289062 138.449219 C 62.355469 138.808594 62.355469 139.15625 62.289062 139.503906 C 62.21875 139.847656 62.089844 140.164062 61.898438 140.445312 C 61.707031 140.730469 61.464844 140.960938 61.179688 141.136719 C 60.890625 141.3125 60.578125 141.421875 60.238281 141.464844 C 59.898438 141.511719 59.558594 141.484375 59.21875 141.390625 C 58.882812 141.292969 58.566406 141.132812 58.28125 140.914062 C 57.992188 140.691406 57.753906 140.425781 57.5625 140.113281 C 57.371094 139.800781 57.242188 139.46875 57.171875 139.109375 C 57.105469 138.753906 57.105469 138.402344 57.171875 138.058594 C 57.242188 137.710938 57.371094 137.398438 57.5625 137.117188 C 57.753906 136.832031 57.996094 136.601562 58.28125 136.425781 C 58.570312 136.25 58.882812 136.140625 59.222656 136.09375 C 59.5625 136.050781 59.902344 136.078125 60.238281 136.171875 C 60.578125 136.269531 60.890625 136.425781 61.179688 136.648438 C 61.46875 136.871094 61.707031 137.136719 61.898438 137.449219 Z M 61.898438 137.449219 " fill-opacity="1" fill-rule="nonzero"/><path fill="#005de0" d="M 68.070312 127.378906 L 67.605469 126.277344 C 66.558594 124.011719 66.484375 121.191406 67.773438 117.871094 C 68.953125 114.929688 69.46875 112.878906 68.8125 110.921875 C 68.070312 108.703125 66.167969 108.050781 63.425781 108.898438 C 61.867188 109.410156 60.472656 110.847656 59.667969 112.03125 L 57.570312 108.910156 C 58.652344 107.394531 60.886719 105.894531 63.183594 105.144531 C 68.160156 103.511719 71.445312 105.867188 72.550781 109.171875 C 73.542969 112.128906 72.609375 114.796875 71.359375 117.957031 C 70.210938 120.84375 70.160156 122.984375 71.03125 125.160156 L 71.453125 126.277344 L 68.074219 127.386719 Z M 69.152344 133.78125 C 68.617188 132.171875 69.320312 130.6875 70.835938 130.191406 C 72.351562 129.695312 73.765625 130.484375 74.308594 132.09375 C 74.816406 133.617188 74.214844 135.117188 72.613281 135.640625 C 71.097656 136.136719 69.667969 135.304688 69.15625 133.78125 Z M 69.152344 133.78125 " fill-opacity="1" fill-rule="nonzero"/><path fill="#005de0" d="M 141.058594 56.613281 C 141.238281 57.289062 141.386719 57.972656 141.5 58.660156 C 141.613281 59.351562 141.695312 60.046875 141.742188 60.742188 C 141.789062 61.441406 141.800781 62.140625 141.777344 62.839844 C 141.753906 63.539062 141.699219 64.234375 141.609375 64.925781 C 141.519531 65.621094 141.394531 66.304688 141.238281 66.988281 C 141.082031 67.667969 140.890625 68.339844 140.667969 69 C 140.445312 69.664062 140.191406 70.3125 139.90625 70.949219 C 139.621094 71.585938 139.300781 72.203125 138.957031 72.808594 C 138.609375 73.414062 138.234375 74 137.828125 74.570312 C 137.421875 75.136719 136.992188 75.683594 136.535156 76.207031 C 136.074219 76.734375 135.59375 77.234375 135.085938 77.710938 C 134.578125 78.1875 134.050781 78.640625 133.5 79.0625 C 132.945312 79.488281 132.375 79.886719 131.785156 80.253906 C 131.195312 80.621094 130.589844 80.960938 129.964844 81.269531 C 129.339844 81.578125 128.703125 81.855469 128.050781 82.097656 C 127.402344 82.34375 126.742188 82.558594 126.070312 82.738281 C 125.398438 82.917969 124.71875 83.0625 124.03125 83.175781 C 123.34375 83.289062 122.65625 83.367188 121.960938 83.410156 C 121.265625 83.457031 120.570312 83.464844 119.875 83.441406 C 119.179688 83.417969 118.488281 83.359375 117.796875 83.269531 C 117.109375 83.175781 116.425781 83.050781 115.746094 82.890625 C 115.070312 82.730469 114.402344 82.535156 113.742188 82.3125 C 113.082031 82.085938 112.4375 81.828125 111.800781 81.539062 C 111.167969 81.25 110.550781 80.929688 109.945312 80.578125 C 109.34375 80.226562 108.757812 79.847656 108.191406 79.441406 C 107.625 79.03125 107.082031 78.597656 106.558594 78.132812 C 106.035156 77.671875 105.535156 77.1875 105.058594 76.675781 C 104.582031 76.164062 104.132812 75.628906 103.707031 75.074219 C 103.28125 74.519531 102.886719 73.945312 102.519531 73.351562 C 102.148438 72.757812 101.8125 72.144531 101.503906 71.515625 C 101.195312 70.890625 100.917969 70.25 100.671875 69.59375 C 100.425781 68.9375 100.210938 68.273438 100.03125 67.597656 C 99.851562 66.921875 99.703125 66.238281 99.589844 65.550781 C 99.476562 64.859375 99.394531 64.164062 99.347656 63.46875 C 99.300781 62.769531 99.289062 62.070312 99.3125 61.371094 C 99.332031 60.675781 99.390625 59.976562 99.480469 59.285156 C 99.570312 58.589844 99.691406 57.90625 99.851562 57.222656 C 100.007812 56.542969 100.195312 55.871094 100.417969 55.210938 C 100.640625 54.546875 100.898438 53.898438 101.183594 53.261719 C 101.46875 52.625 101.785156 52.007812 102.132812 51.402344 C 102.480469 50.796875 102.855469 50.210938 103.261719 49.640625 C 103.664062 49.074219 104.097656 48.527344 104.554688 48.003906 C 105.011719 47.476562 105.496094 46.976562 106.003906 46.5 C 106.511719 46.023438 107.039062 45.570312 107.589844 45.148438 C 108.140625 44.722656 108.714844 44.324219 109.304688 43.957031 C 109.894531 43.589844 110.5 43.25 111.125 42.941406 C 111.75 42.632812 112.386719 42.359375 113.035156 42.113281 C 113.6875 41.867188 114.347656 41.65625 115.019531 41.472656 C 115.691406 41.292969 116.371094 41.148438 117.058594 41.035156 C 117.742188 40.921875 118.433594 40.84375 119.128906 40.800781 C 119.824219 40.753906 120.515625 40.746094 121.210938 40.769531 C 121.90625 40.792969 122.601562 40.851562 123.289062 40.941406 C 123.980469 41.035156 124.664062 41.160156 125.34375 41.320312 C 126.019531 41.480469 126.6875 41.675781 127.347656 41.898438 C 128.007812 42.125 128.652344 42.382812 129.289062 42.671875 C 129.921875 42.960938 130.539062 43.28125 131.144531 43.632812 C 131.746094 43.984375 132.332031 44.363281 132.898438 44.773438 C 133.460938 45.179688 134.007812 45.613281 134.53125 46.078125 C 135.054688 46.539062 135.554688 47.023438 136.03125 47.535156 C 136.507812 48.046875 136.957031 48.582031 137.382812 49.136719 C 137.804688 49.691406 138.203125 50.265625 138.570312 50.859375 C 138.9375 51.453125 139.277344 52.066406 139.585938 52.695312 C 139.894531 53.320312 140.171875 53.960938 140.417969 54.617188 C 140.664062 55.273438 140.875 55.9375 141.058594 56.613281 Z M 141.058594 56.613281 " fill-opacity="1" fill-rule="nonzero"/><path fill="#ffffff" d="M 138.296875 57.132812 C 138.476562 57.808594 138.625 58.492188 138.738281 59.183594 C 138.851562 59.871094 138.933594 60.566406 138.980469 61.265625 C 139.027344 61.960938 139.039062 62.660156 139.015625 63.359375 C 138.996094 64.058594 138.9375 64.753906 138.847656 65.445312 C 138.757812 66.140625 138.636719 66.828125 138.476562 67.507812 C 138.320312 68.1875 138.132812 68.859375 137.910156 69.519531 C 137.683594 70.183594 137.429688 70.832031 137.144531 71.46875 C 136.859375 72.105469 136.542969 72.726562 136.195312 73.332031 C 135.847656 73.933594 135.472656 74.523438 135.066406 75.089844 C 134.664062 75.65625 134.230469 76.203125 133.773438 76.726562 C 133.316406 77.253906 132.832031 77.753906 132.324219 78.230469 C 131.816406 78.707031 131.289062 79.160156 130.738281 79.585938 C 130.183594 80.007812 129.613281 80.40625 129.023438 80.773438 C 128.433594 81.140625 127.828125 81.480469 127.203125 81.789062 C 126.578125 82.097656 125.941406 82.375 125.292969 82.621094 C 124.640625 82.863281 123.980469 83.078125 123.308594 83.257812 C 122.636719 83.4375 121.957031 83.582031 121.269531 83.695312 C 120.585938 83.808594 119.894531 83.886719 119.199219 83.933594 C 118.503906 83.976562 117.808594 83.988281 117.113281 83.964844 C 116.417969 83.9375 115.726562 83.878906 115.035156 83.789062 C 114.347656 83.695312 113.664062 83.570312 112.984375 83.410156 C 112.308594 83.25 111.640625 83.058594 110.980469 82.832031 C 110.320312 82.605469 109.675781 82.347656 109.039062 82.058594 C 108.40625 81.769531 107.789062 81.449219 107.183594 81.097656 C 106.582031 80.746094 105.996094 80.367188 105.429688 79.960938 C 104.863281 79.550781 104.320312 79.117188 103.796875 78.65625 C 103.273438 78.191406 102.773438 77.707031 102.296875 77.195312 C 101.820312 76.683594 101.371094 76.152344 100.945312 75.59375 C 100.523438 75.039062 100.125 74.464844 99.757812 73.871094 C 99.390625 73.277344 99.050781 72.664062 98.742188 72.039062 C 98.433594 71.410156 98.15625 70.769531 97.910156 70.113281 C 97.664062 69.460938 97.453125 68.792969 97.269531 68.117188 C 97.089844 67.441406 96.941406 66.761719 96.828125 66.070312 C 96.714844 65.378906 96.632812 64.6875 96.585938 63.988281 C 96.539062 63.289062 96.527344 62.59375 96.550781 61.894531 C 96.570312 61.195312 96.628906 60.5 96.71875 59.804688 C 96.808594 59.113281 96.929688 58.425781 97.089844 57.746094 C 97.246094 57.0625 97.4375 56.390625 97.660156 55.730469 C 97.882812 55.070312 98.136719 54.421875 98.421875 53.785156 C 98.707031 53.148438 99.023438 52.527344 99.371094 51.921875 C 99.71875 51.316406 100.09375 50.730469 100.5 50.164062 C 100.90625 49.59375 101.335938 49.046875 101.792969 48.523438 C 102.25 48 102.734375 47.496094 103.242188 47.019531 C 103.75 46.542969 104.277344 46.09375 104.828125 45.667969 C 105.382812 45.242188 105.953125 44.847656 106.542969 44.476562 C 107.132812 44.109375 107.738281 43.769531 108.363281 43.460938 C 108.988281 43.15625 109.625 42.878906 110.273438 42.632812 C 110.925781 42.386719 111.585938 42.175781 112.257812 41.996094 C 112.929688 41.816406 113.609375 41.667969 114.296875 41.554688 C 114.984375 41.441406 115.671875 41.363281 116.367188 41.320312 C 117.0625 41.273438 117.757812 41.265625 118.453125 41.289062 C 119.148438 41.3125 119.839844 41.371094 120.53125 41.464844 C 121.21875 41.554688 121.902344 41.683594 122.582031 41.839844 C 123.257812 42 123.925781 42.195312 124.585938 42.421875 C 125.246094 42.644531 125.890625 42.902344 126.527344 43.195312 C 127.160156 43.484375 127.777344 43.804688 128.382812 44.152344 C 128.984375 44.503906 129.570312 44.882812 130.136719 45.292969 C 130.703125 45.699219 131.246094 46.136719 131.769531 46.597656 C 132.292969 47.058594 132.792969 47.546875 133.269531 48.054688 C 133.746094 48.566406 134.195312 49.101562 134.621094 49.65625 C 135.046875 50.210938 135.441406 50.785156 135.808594 51.382812 C 136.175781 51.976562 136.515625 52.585938 136.824219 53.214844 C 137.132812 53.839844 137.410156 54.484375 137.65625 55.136719 C 137.902344 55.792969 138.117188 56.457031 138.296875 57.132812 Z M 138.296875 57.132812 " fill-opacity="1" fill-rule="nonzero"/><path fill="#000000" d="M 117.859375 84.53125 C 115.4375 84.53125 113.007812 84.121094 110.648438 83.292969 C 105.132812 81.355469 100.695312 77.375 98.160156 72.082031 C 92.945312 61.195312 97.503906 48.101562 108.320312 42.890625 C 113.542969 40.371094 119.433594 40.046875 124.910156 41.972656 C 130.429688 43.90625 134.867188 47.890625 137.402344 53.183594 C 142.617188 64.070312 138.058594 77.164062 127.242188 82.375 C 124.261719 83.808594 121.070312 84.53125 117.855469 84.53125 Z M 117.707031 41.808594 C 114.65625 41.808594 111.621094 42.496094 108.792969 43.859375 C 98.507812 48.8125 94.179688 61.265625 99.136719 71.613281 C 101.550781 76.648438 105.765625 80.433594 111.015625 82.273438 C 116.21875 84.097656 121.816406 83.789062 126.78125 81.398438 C 137.0625 76.445312 141.394531 63.996094 136.433594 53.644531 C 134.023438 48.613281 129.804688 44.828125 124.558594 42.988281 C 122.320312 42.203125 120.011719 41.8125 117.707031 41.8125 Z M 117.707031 41.808594 " fill-opacity="1" fill-rule="nonzero"/><path fill="#000000" d="M 128.753906 70.457031 C 128.652344 70.457031 128.546875 70.425781 128.457031 70.363281 L 117.488281 63.074219 C 117.371094 63 117.289062 62.882812 117.257812 62.75 L 114.949219 52.941406 C 114.882812 52.648438 115.0625 52.359375 115.351562 52.292969 C 115.640625 52.222656 115.929688 52.402344 116 52.691406 L 118.261719 62.292969 L 129.050781 69.464844 C 129.300781 69.628906 129.367188 69.964844 129.203125 70.210938 C 129.097656 70.367188 128.925781 70.453125 128.753906 70.453125 Z M 128.753906 70.457031 " fill-opacity="1" fill-rule="nonzero"/><path fill="#ffffff" d="M 111.566406 46.78125 C 111.890625 47.460938 111.609375 48.277344 110.9375 48.601562 C 110.261719 48.925781 109.453125 48.636719 109.125 47.960938 C 108.800781 47.28125 109.082031 46.46875 109.757812 46.144531 C 110.429688 45.820312 111.242188 46.105469 111.566406 46.78125 Z M 111.566406 46.78125 " fill-opacity="1" fill-rule="nonzero"/><path fill="#ffffff" d="M 104.527344 52.007812 C 105.148438 52.433594 105.304688 53.28125 104.886719 53.902344 C 104.464844 54.519531 103.621094 54.679688 103 54.253906 C 102.378906 53.828125 102.21875 52.980469 102.640625 52.359375 C 103.0625 51.738281 103.90625 51.582031 104.527344 52.007812 Z M 104.527344 52.007812 " fill-opacity="1" fill-rule="nonzero"/><path fill="#ffffff" d="M 101.183594 59.929688 C 101.929688 59.988281 102.492188 60.644531 102.433594 61.394531 C 102.375 62.144531 101.726562 62.707031 100.980469 62.648438 C 100.234375 62.59375 99.671875 61.9375 99.730469 61.183594 C 99.785156 60.433594 100.433594 59.875 101.183594 59.929688 Z M 101.183594 59.929688 " fill-opacity="1" fill-rule="nonzero"/><path fill="#ffffff" d="M 103.933594 69.714844 C 103.980469 69.886719 103.992188 70.066406 103.96875 70.246094 C 103.945312 70.425781 103.890625 70.59375 103.800781 70.75 C 103.710938 70.90625 103.59375 71.039062 103.449219 71.148438 C 103.308594 71.257812 103.148438 71.335938 102.976562 71.382812 C 102.800781 71.429688 102.625 71.441406 102.449219 71.417969 C 102.269531 71.394531 102.101562 71.335938 101.945312 71.246094 C 101.789062 71.15625 101.65625 71.039062 101.546875 70.894531 C 101.4375 70.75 101.359375 70.589844 101.3125 70.414062 C 101.265625 70.242188 101.253906 70.0625 101.277344 69.882812 C 101.300781 69.703125 101.355469 69.535156 101.445312 69.378906 C 101.535156 69.222656 101.652344 69.089844 101.796875 68.980469 C 101.9375 68.871094 102.097656 68.792969 102.269531 68.746094 C 102.445312 68.699219 102.621094 68.6875 102.796875 68.710938 C 102.976562 68.734375 103.144531 68.792969 103.300781 68.882812 C 103.457031 68.976562 103.589844 69.09375 103.699219 69.234375 C 103.808594 69.378906 103.886719 69.539062 103.933594 69.714844 Z M 103.933594 69.714844 " fill-opacity="1" fill-rule="nonzero"/><path fill="#ffffff" d="M 107.398438 75.777344 C 107.820312 75.15625 108.664062 74.996094 109.285156 75.425781 C 109.90625 75.851562 110.0625 76.699219 109.644531 77.316406 C 109.222656 77.9375 108.378906 78.097656 107.757812 77.671875 C 107.136719 77.246094 106.976562 76.398438 107.398438 75.777344 Z M 107.398438 75.777344 " fill-opacity="1" fill-rule="nonzero"/><path fill="#ffffff" d="M 115.4375 79.304688 C 115.496094 78.554688 116.144531 77.996094 116.890625 78.050781 C 117.640625 78.109375 118.199219 78.765625 118.144531 79.515625 C 118.085938 80.265625 117.4375 80.828125 116.691406 80.769531 C 115.941406 80.714844 115.382812 80.058594 115.4375 79.304688 Z M 115.4375 79.304688 " fill-opacity="1" fill-rule="nonzero"/><path fill="#ffffff" d="M 124.148438 78.328125 C 123.824219 77.648438 124.105469 76.835938 124.777344 76.511719 C 125.453125 76.1875 126.261719 76.472656 126.589844 77.152344 C 126.914062 77.832031 126.632812 78.644531 125.957031 78.96875 C 125.285156 79.292969 124.472656 79.003906 124.148438 78.328125 Z M 124.148438 78.328125 " fill-opacity="1" fill-rule="nonzero"/><path fill="#ffffff" d="M 131.1875 73.105469 C 130.570312 72.675781 130.410156 71.828125 130.832031 71.210938 C 131.25 70.589844 132.09375 70.429688 132.714844 70.855469 C 133.335938 71.285156 133.496094 72.132812 133.074219 72.75 C 132.652344 73.371094 131.808594 73.53125 131.1875 73.105469 Z M 131.1875 73.105469 " fill-opacity="1" fill-rule="nonzero"/><path fill="#ffffff" d="M 134.53125 65.179688 C 133.78125 65.125 133.222656 64.464844 133.277344 63.714844 C 133.335938 62.964844 133.984375 62.40625 134.730469 62.460938 C 135.480469 62.519531 136.039062 63.175781 135.984375 63.925781 C 135.925781 64.675781 135.277344 65.238281 134.53125 65.179688 Z M 134.53125 65.179688 " fill-opacity="1" fill-rule="nonzero"/><path fill="#ffffff" d="M 134.253906 54.84375 C 134.300781 55.019531 134.3125 55.195312 134.289062 55.375 C 134.265625 55.554688 134.207031 55.722656 134.117188 55.878906 C 134.027344 56.035156 133.914062 56.167969 133.769531 56.277344 C 133.628906 56.390625 133.46875 56.46875 133.296875 56.515625 C 133.121094 56.5625 132.945312 56.570312 132.765625 56.546875 C 132.589844 56.523438 132.421875 56.46875 132.265625 56.375 C 132.109375 56.285156 131.976562 56.167969 131.867188 56.023438 C 131.757812 55.878906 131.679688 55.722656 131.632812 55.546875 C 131.585938 55.371094 131.574219 55.195312 131.597656 55.015625 C 131.621094 54.835938 131.675781 54.667969 131.765625 54.511719 C 131.855469 54.355469 131.972656 54.222656 132.113281 54.113281 C 132.257812 54 132.414062 53.921875 132.589844 53.875 C 132.761719 53.832031 132.9375 53.820312 133.117188 53.84375 C 133.296875 53.867188 133.460938 53.925781 133.617188 54.015625 C 133.773438 54.105469 133.90625 54.222656 134.015625 54.367188 C 134.128906 54.511719 134.207031 54.667969 134.253906 54.84375 Z M 134.253906 54.84375 " fill-opacity="1" fill-rule="nonzero"/><path fill="#ffffff" d="M 128.316406 49.335938 C 127.894531 49.957031 127.050781 50.117188 126.429688 49.691406 C 125.8125 49.261719 125.652344 48.414062 126.070312 47.796875 C 126.492188 47.175781 127.335938 47.015625 127.957031 47.441406 C 128.578125 47.871094 128.738281 48.71875 128.316406 49.335938 Z M 128.316406 49.335938 " fill-opacity="1" fill-rule="nonzero"/><path fill="#ffffff" d="M 120.277344 45.804688 C 120.21875 46.554688 119.570312 47.117188 118.824219 47.058594 C 118.074219 47.003906 117.515625 46.34375 117.570312 45.59375 C 117.628906 44.84375 118.277344 44.285156 119.023438 44.339844 C 119.773438 44.398438 120.332031 45.054688 120.277344 45.804688 Z M 120.277344 45.804688 " fill-opacity="1" fill-rule="nonzero"/><path fill="#000000" d="M 239.734375 315.914062 C 239.601562 315.914062 239.46875 315.867188 239.363281 315.761719 C 239.144531 315.558594 239.140625 315.214844 239.34375 315 L 241.042969 313.226562 C 241.25 313.011719 241.589844 313.003906 241.804688 313.210938 C 242.019531 313.414062 242.027344 313.757812 241.824219 313.972656 L 240.125 315.746094 C 240.019531 315.855469 239.878906 315.914062 239.734375 315.914062 Z M 239.734375 315.914062 " fill-opacity="1" fill-rule="nonzero"/><path fill="#000000" d="M 233.792969 322.125 C 233.65625 322.125 233.523438 322.078125 233.417969 321.972656 C 233.203125 321.769531 233.195312 321.425781 233.402344 321.210938 L 235.097656 319.4375 C 235.308594 319.222656 235.644531 319.214844 235.863281 319.421875 C 236.078125 319.625 236.082031 319.96875 235.878906 320.183594 L 234.179688 321.957031 C 234.074219 322.066406 233.933594 322.125 233.792969 322.125 Z M 233.792969 322.125 " fill-opacity="1" fill-rule="nonzero"/><path fill="#000000" d="M 235.457031 316.007812 C 235.320312 316.007812 235.183594 315.957031 235.078125 315.851562 L 233.355469 314.152344 C 233.144531 313.941406 233.144531 313.601562 233.351562 313.390625 C 233.5625 313.179688 233.902344 313.175781 234.113281 313.386719 L 235.835938 315.082031 C 236.050781 315.292969 236.050781 315.636719 235.839844 315.847656 C 235.738281 315.953125 235.597656 316.007812 235.457031 316.007812 Z M 235.457031 316.007812 " fill-opacity="1" fill-rule="nonzero"/><path fill="#000000" d="M 241.492188 321.953125 C 241.355469 321.953125 241.21875 321.902344 241.113281 321.796875 L 239.390625 320.101562 C 239.175781 319.890625 239.175781 319.546875 239.386719 319.339844 C 239.59375 319.125 239.9375 319.121094 240.148438 319.332031 L 241.871094 321.03125 C 242.085938 321.242188 242.085938 321.582031 241.875 321.792969 C 241.769531 321.902344 241.632812 321.953125 241.492188 321.953125 Z M 241.492188 321.953125 " fill-opacity="1" fill-rule="nonzero"/><path fill="#000000" d="M 65.664062 60.121094 C 65.371094 60.121094 65.132812 59.886719 65.125 59.59375 L 65.070312 57.136719 C 65.066406 56.835938 65.300781 56.589844 65.597656 56.582031 C 65.902344 56.582031 66.140625 56.8125 66.148438 57.113281 L 66.203125 59.570312 C 66.207031 59.867188 65.972656 60.117188 65.675781 60.121094 C 65.671875 60.121094 65.667969 60.121094 65.664062 60.121094 Z M 65.664062 60.121094 " fill-opacity="1" fill-rule="nonzero"/><path fill="#000000" d="M 65.855469 68.714844 C 65.5625 68.714844 65.324219 68.480469 65.316406 68.1875 L 65.261719 65.730469 C 65.253906 65.429688 65.492188 65.183594 65.785156 65.175781 C 66.09375 65.171875 66.332031 65.40625 66.339844 65.707031 L 66.394531 68.164062 C 66.398438 68.460938 66.164062 68.710938 65.867188 68.714844 C 65.863281 68.714844 65.859375 68.714844 65.855469 68.714844 Z M 65.855469 68.714844 " fill-opacity="1" fill-rule="nonzero"/><path fill="#000000" d="M 60.285156 63.230469 C 59.992188 63.230469 59.75 62.992188 59.746094 62.695312 C 59.746094 62.394531 59.984375 62.15625 60.28125 62.152344 L 62.703125 62.132812 C 62.996094 62.128906 63.242188 62.375 63.246094 62.667969 C 63.246094 62.96875 63.003906 63.210938 62.710938 63.210938 L 60.289062 63.230469 Z M 60.285156 63.230469 " fill-opacity="1" fill-rule="nonzero"/><path fill="#000000" d="M 68.757812 63.167969 C 68.464844 63.167969 68.222656 62.929688 68.21875 62.636719 C 68.21875 62.335938 68.457031 62.09375 68.753906 62.09375 L 71.171875 62.074219 C 71.453125 62.070312 71.714844 62.3125 71.714844 62.609375 C 71.714844 62.90625 71.476562 63.148438 71.183594 63.152344 L 68.761719 63.167969 Z M 68.757812 63.167969 " fill-opacity="1" fill-rule="nonzero"/><path fill="#000000" d="M 265.027344 310.503906 C 263.175781 310.503906 261.671875 309 261.671875 307.152344 C 261.671875 305.304688 263.175781 303.800781 265.027344 303.800781 C 266.875 303.800781 268.378906 305.304688 268.378906 307.152344 C 268.378906 309 266.875 310.503906 265.027344 310.503906 Z M 265.027344 304.878906 C 263.773438 304.878906 262.753906 305.902344 262.753906 307.152344 C 262.753906 308.402344 263.773438 309.425781 265.027344 309.425781 C 266.277344 309.425781 267.296875 308.402344 267.296875 307.152344 C 267.296875 305.902344 266.28125 304.878906 265.027344 304.878906 Z M 265.027344 304.878906 " fill-opacity="1" fill-rule="nonzero"/><path fill="#000000" d="M 320.816406 106.804688 C 318.964844 106.804688 317.460938 105.300781 317.460938 103.449219 C 317.460938 101.601562 318.964844 100.097656 320.816406 100.097656 C 322.664062 100.097656 324.167969 101.601562 324.167969 103.449219 C 324.167969 105.300781 322.664062 106.804688 320.816406 106.804688 Z M 320.816406 101.179688 C 319.5625 101.179688 318.542969 102.199219 318.542969 103.449219 C 318.542969 104.703125 319.5625 105.722656 320.816406 105.722656 C 322.070312 105.722656 323.085938 104.703125 323.085938 103.449219 C 323.085938 102.199219 322.066406 101.179688 320.816406 101.179688 Z M 320.816406 101.179688 " fill-opacity="1" fill-rule="nonzero"/><path fill="#ffffff" d="M 322.726562 83.527344 C 322.726562 83.84375 322.664062 84.144531 322.542969 84.4375 C 322.425781 84.730469 322.253906 84.988281 322.027344 85.210938 C 321.804688 85.433594 321.546875 85.605469 321.257812 85.726562 C 320.964844 85.847656 320.660156 85.90625 320.34375 85.90625 C 320.03125 85.90625 319.726562 85.847656 319.433594 85.726562 C 319.144531 85.605469 318.886719 85.433594 318.664062 85.210938 C 318.4375 84.988281 318.265625 84.730469 318.148438 84.4375 C 318.027344 84.144531 317.964844 83.84375 317.964844 83.527344 C 317.964844 83.210938 318.027344 82.90625 318.148438 82.617188 C 318.265625 82.324219 318.4375 82.066406 318.664062 81.84375 C 318.886719 81.621094 319.144531 81.449219 319.433594 81.328125 C 319.726562 81.207031 320.03125 81.144531 320.34375 81.144531 C 320.660156 81.144531 320.964844 81.207031 321.257812 81.328125 C 321.546875 81.449219 321.804688 81.621094 322.027344 81.84375 C 322.253906 82.066406 322.425781 82.324219 322.542969 82.617188 C 322.664062 82.90625 322.726562 83.210938 322.726562 83.527344 Z M 322.726562 83.527344 " fill-opacity="1" fill-rule="nonzero"/></svg>