<svg xmlns="http://www.w3.org/2000/svg" xmlns:xlink="http://www.w3.org/1999/xlink" width="500" zoomAndPan="magnify" viewBox="0 0 375 374.999991" height="500" preserveAspectRatio="xMidYMid meet" version="1.0"><defs><clipPath id="c195b315f9"><path d="M 0 0 L 375 0 L 375 375 L 0 375 Z M 0 0 " clip-rule="nonzero"/></clipPath><clipPath id="5f8ad2c76b"><rect x="0" width="375" y="0" height="375"/></clipPath><clipPath id="bad7f83655"><path d="M 37.5 40.125 L 337.5 40.125 L 337.5 337.875 L 37.5 337.875 Z M 37.5 40.125 " clip-rule="nonzero"/></clipPath></defs><rect x="-37.5" width="450" fill="#ffffff" y="-37.499999" height="449.999989" fill-opacity="1"/><rect x="-37.5" width="450" fill="#ffffff" y="-37.499999" height="449.999989" fill-opacity="1"/><g transform="matrix(1, 0, 0, 1, 0, 0)"><g clip-path="url(#5f8ad2c76b)"><g clip-path="url(#c195b315f9)"><rect x="-82.5" width="540" fill="#ffffff" height="539.999987" y="-82.499998" fill-opacity="1"/></g></g></g><path fill="#005de0" d="M 62.78125 143.222656 C 62.734375 189.714844 62.699219 261.4375 62.683594 296.03125 C 68.058594 287.730469 76.214844 281.574219 85.632812 278.722656 C 71.160156 268.460938 69.367188 247.632812 81.925781 235.074219 C 87.5625 229.4375 95.234375 226.421875 103.203125 226.703125 L 103.203125 218.882812 L 152.3125 207.335938 L 152.3125 167.839844 Z M 210.742188 60.929688 L 311.019531 60.929688 L 311.019531 294.234375 C 305.652344 286.820312 298.003906 281.359375 289.304688 278.722656 C 303.777344 268.460938 305.570312 247.632812 293.011719 235.074219 C 281.824219 223.890625 263.679688 223.890625 252.492188 235.074219 C 239.933594 247.632812 241.726562 268.460938 256.199219 278.722656 C 251.25 280.222656 246.605469 282.644531 242.507812 285.875 L 242.359375 186.164062 L 210.742188 193.597656 Z M 244.074219 166.640625 L 244.074219 174.152344 L 277.691406 174.152344 L 277.691406 166.640625 Z M 244.074219 137.25 L 244.074219 144.757812 L 277.691406 144.757812 L 277.691406 137.25 Z M 244.074219 107.855469 L 244.074219 115.367188 L 277.691406 115.367188 L 277.691406 107.855469 Z M 244.074219 78.464844 L 244.074219 85.976562 L 277.691406 85.976562 L 277.691406 78.464844 Z M 202.417969 240.386719 C 194.164062 232.132812 180.773438 232.132812 172.519531 240.386719 C 164.265625 248.640625 164.265625 262.027344 172.519531 270.28125 C 180.773438 278.535156 194.164062 278.535156 202.417969 270.28125 C 210.671875 262.027344 210.671875 248.640625 202.417969 240.386719 Z M 205.335938 336.714844 L 169.601562 336.714844 L 169.601562 312.773438 C 169.601562 310.566406 167.8125 308.777344 165.609375 308.777344 C 163.402344 308.777344 161.613281 310.566406 161.613281 312.773438 L 161.613281 336.714844 L 148.820312 336.714844 L 148.820312 318.542969 C 148.820312 299.804688 164.167969 284.460938 182.902344 284.460938 L 192.03125 284.460938 C 210.769531 284.460938 226.117188 299.804688 226.117188 318.542969 L 226.117188 336.714844 L 213.324219 336.714844 L 213.324219 312.773438 C 213.324219 310.566406 211.535156 308.777344 209.328125 308.777344 C 207.125 308.777344 205.335938 310.566406 205.335938 312.773438 Z M 246.898438 336.714844 L 246.898438 312.773438 C 246.898438 310.566406 248.683594 308.777344 250.890625 308.777344 C 253.097656 308.777344 254.882812 310.566406 254.882812 312.773438 L 254.882812 336.714844 L 290.617188 336.714844 L 290.617188 312.773438 C 290.617188 310.566406 292.40625 308.777344 294.613281 308.777344 C 296.820312 308.777344 298.605469 310.566406 298.605469 312.773438 L 298.605469 336.714844 L 311.398438 336.714844 L 311.398438 318.542969 C 311.398438 299.804688 296.054688 284.460938 277.316406 284.460938 L 268.1875 284.460938 C 249.449219 284.460938 234.105469 299.804688 234.105469 318.542969 L 234.105469 336.714844 Z M 106.75 284.460938 C 125.488281 284.460938 140.832031 299.804688 140.832031 318.542969 L 140.832031 336.714844 L 128.039062 336.714844 L 128.039062 312.773438 C 128.039062 310.566406 126.253906 308.777344 124.046875 308.777344 C 121.839844 308.777344 120.054688 310.566406 120.054688 312.773438 L 120.054688 336.714844 L 84.316406 336.714844 L 84.316406 312.773438 C 84.316406 310.566406 82.53125 308.777344 80.324219 308.777344 C 78.117188 308.777344 76.332031 310.566406 76.332031 312.773438 L 76.332031 336.714844 L 63.539062 336.714844 L 63.539062 318.542969 C 63.539062 299.804688 78.882812 284.460938 97.621094 284.460938 Z M 90.6875 195.261719 L 124.304688 195.261719 L 124.304688 202.769531 L 90.6875 202.769531 Z M 90.6875 176.21875 L 124.304688 176.21875 L 124.304688 183.726562 L 90.6875 183.726562 Z M 90.6875 176.21875 " fill-opacity="1" fill-rule="evenodd"/><g clip-path="url(#bad7f83655)"><path fill="#ff6600" d="M 318.734375 314.71875 L 337.464844 314.71875 L 337.464844 337.40625 L 318.910156 337.40625 L 318.910156 318.542969 C 318.910156 317.261719 318.851562 315.984375 318.734375 314.71875 Z M 297.777344 53.417969 L 297.777344 40.28125 L 223.988281 40.28125 L 223.988281 53.417969 Z M 121.214844 123.632812 L 121.195312 151.496094 L 159.820312 162.117188 L 159.820312 205.570312 L 203.234375 195.363281 L 203.234375 95.28125 Z M 234.867188 195.640625 C 234.925781 227.105469 234.972656 268.433594 234.992188 293.542969 C 233.042969 296.128906 231.40625 298.914062 230.109375 301.847656 C 225.210938 290.746094 215.632812 282.238281 204.019531 278.722656 C 218.492188 268.457031 220.285156 247.632812 207.726562 235.074219 C 196.542969 223.886719 178.394531 223.886719 167.210938 235.074219 C 154.652344 247.632812 156.445312 268.457031 170.917969 278.722656 C 159.304688 282.238281 149.726562 290.742188 144.828125 301.847656 C 139.929688 290.746094 130.347656 282.238281 118.738281 278.722656 C 133.210938 268.460938 135.003906 247.632812 122.445312 235.074219 C 119.125 231.757812 115.097656 229.34375 110.714844 227.976562 L 110.714844 224.832031 Z M 272.75 234.195312 C 261.074219 234.195312 251.613281 243.65625 251.613281 255.332031 C 251.613281 267.007812 261.082031 276.480469 272.78125 276.472656 C 284.429688 276.464844 293.890625 267.003906 293.890625 255.332031 C 293.890625 243.664062 284.425781 234.195312 272.75 234.195312 Z M 102.1875 234.195312 C 90.511719 234.195312 81.046875 243.65625 81.046875 255.332031 C 81.046875 267.007812 90.515625 276.480469 102.214844 276.472656 C 113.863281 276.464844 123.324219 267.003906 123.324219 255.332031 C 123.324219 243.664062 113.863281 234.195312 102.1875 234.195312 Z M 37.472656 314.71875 L 56.203125 314.71875 C 56.085938 315.984375 56.027344 317.261719 56.027344 318.542969 L 56.027344 337.40625 L 37.472656 337.40625 Z M 37.472656 314.71875 " fill-opacity="1" fill-rule="evenodd"/></g></svg>