<svg xmlns="http://www.w3.org/2000/svg" xmlns:xlink="http://www.w3.org/1999/xlink" width="1200" zoomAndPan="magnify" viewBox="0 0 900 899.99999" height="1200" preserveAspectRatio="xMidYMid meet" version="1.0"><defs><filter x="0%" y="0%" width="100%" height="100%" id="2264df5a83"><feColorMatrix values="0 0 0 0 1 0 0 0 0 1 0 0 0 0 1 0 0 0 1 0" color-interpolation-filters="sRGB"/></filter><clipPath id="1c11099e1f"><path d="M 171.164062 93 L 729 93 L 729 810 L 171.164062 810 Z M 171.164062 93 " clip-rule="nonzero"/></clipPath><clipPath id="730e9b6d8c"><path d="M 184 157 L 729.164062 157 L 729.164062 804 L 184 804 Z M 184 157 " clip-rule="nonzero"/></clipPath><mask id="89fcfd7a03"><g filter="url(#2264df5a83)"><rect x="-90" width="1080" fill="#000000" y="-89.999999" height="1079.999988" fill-opacity="0.4"/></g></mask><clipPath id="07a346380a"><rect x="0" width="546" y="0" height="647"/></clipPath><clipPath id="05c3e50032"><path d="M 171.164062 93 L 729 93 L 729 810 L 171.164062 810 Z M 171.164062 93 " clip-rule="nonzero"/></clipPath></defs><g clip-path="url(#1c11099e1f)"><path fill="#8d5d39" d="M 220.390625 578.789062 C 201.789062 578.789062 186.761719 564.222656 186.179688 545.632812 L 186.175781 545.507812 L 186.09375 545.414062 C 185.84375 545.109375 185.710938 544.757812 185.714844 544.390625 C 185.78125 536.167969 188.878906 528.195312 194.441406 521.933594 L 194.730469 521.609375 L 172.4375 508.609375 C 171.953125 508.320312 171.648438 507.792969 171.648438 507.230469 L 171.648438 485.191406 C 171.648438 484.96875 171.710938 484.734375 171.84375 484.472656 L 171.957031 484.308594 C 172.0625 484.160156 172.195312 484.027344 172.347656 483.914062 L 172.390625 483.886719 L 172.476562 483.789062 L 179.472656 479.710938 L 172.4375 475.609375 C 171.953125 475.324219 171.648438 474.796875 171.648438 474.234375 L 171.648438 430.15625 C 171.648438 429.933594 171.710938 429.699219 171.84375 429.4375 L 171.960938 429.273438 C 172.0625 429.121094 172.195312 428.988281 172.347656 428.878906 L 172.390625 428.851562 L 172.472656 428.757812 L 218.796875 401.738281 L 218.796875 390.082031 C 218.796875 389.207031 219.511719 388.492188 220.390625 388.492188 C 221.269531 388.492188 221.980469 389.207031 221.980469 390.082031 L 221.980469 401.738281 L 268.34375 428.78125 C 268.832031 429.078125 269.128906 429.601562 269.128906 430.15625 L 269.128906 474.234375 C 269.128906 474.796875 268.828125 475.324219 268.339844 475.609375 L 261.324219 479.699219 L 268.34375 483.816406 L 268.335938 483.804688 C 268.851562 484.144531 269.128906 484.652344 269.128906 485.191406 L 269.128906 507.230469 C 269.128906 507.792969 268.828125 508.320312 268.339844 508.609375 L 245.847656 521.726562 L 246.132812 522.050781 C 251.609375 528.3125 254.628906 536.300781 254.628906 544.550781 C 254.628906 563.429688 239.269531 578.789062 220.390625 578.789062 Z M 680.425781 809.425781 L 692.992188 802.113281 L 693.101562 802.003906 L 693.152344 802.003906 L 727.578125 781.925781 C 728.0625 781.640625 728.367188 781.113281 728.367188 780.550781 L 728.367188 758.511719 C 728.367188 757.957031 728.070312 757.433594 727.578125 757.136719 L 719.453125 752.398438 L 727.578125 747.660156 C 728.0625 747.371094 728.367188 746.847656 728.367188 746.28125 L 728.367188 724.074219 C 728.367188 723.503906 728.058594 722.972656 727.558594 722.691406 L 720.582031 718.738281 L 727.578125 714.660156 C 728.0625 714.375 728.367188 713.84375 728.367188 713.28125 L 728.367188 669.207031 C 728.367188 668.652344 728.070312 668.128906 727.578125 667.832031 L 681.21875 640.789062 L 681.21875 638.375 C 681.21875 637.496094 680.503906 636.785156 679.625 636.785156 C 678.746094 636.785156 678.035156 637.496094 678.035156 638.375 L 678.035156 640.789062 L 631.714844 667.804688 L 631.628906 667.898438 L 631.585938 667.929688 C 631.429688 668.039062 631.300781 668.171875 631.195312 668.324219 L 631.082031 668.488281 C 630.949219 668.746094 630.886719 668.980469 630.886719 669.207031 L 630.886719 713.28125 C 630.886719 713.84375 631.1875 714.375 631.671875 714.660156 L 638.710938 718.761719 L 631.714844 722.839844 L 631.628906 722.9375 L 631.585938 722.964844 C 631.429688 723.078125 631.296875 723.210938 631.195312 723.359375 L 631.082031 723.523438 C 630.949219 723.78125 630.886719 724.015625 630.886719 724.242188 L 630.886719 746.28125 C 630.886719 746.84375 631.1875 747.371094 631.671875 747.660156 L 639.800781 752.398438 L 631.714844 757.109375 L 631.628906 757.207031 L 631.585938 757.238281 C 631.429688 757.347656 631.296875 757.480469 631.195312 757.628906 L 631.082031 757.792969 C 630.949219 758.050781 630.886719 758.289062 630.886719 758.511719 L 630.886719 780.550781 C 630.886719 781.113281 631.1875 781.640625 631.671875 781.925781 L 678.742188 809.394531 L 678.847656 809.414062 L 678.902344 809.441406 C 679.160156 809.574219 679.40625 809.640625 679.625 809.640625 C 679.847656 809.640625 680.089844 809.574219 680.425781 809.425781 Z M 348.542969 442.058594 C 349.039062 441.777344 349.34375 441.246094 349.34375 440.679688 L 349.34375 432.875 C 349.34375 432 348.628906 431.285156 347.753906 431.285156 C 346.875 431.285156 346.160156 432 346.160156 432.875 L 346.160156 437.90625 L 341.816406 435.371094 C 341.570312 435.230469 341.292969 435.152344 341.015625 435.152344 C 340.449219 435.152344 339.921875 435.457031 339.640625 435.945312 C 339.425781 436.3125 339.367188 436.742188 339.472656 437.152344 C 339.582031 437.5625 339.84375 437.90625 340.210938 438.121094 L 346.949219 442.050781 C 347.195312 442.195312 347.472656 442.269531 347.753906 442.269531 C 348.03125 442.269531 348.304688 442.199219 348.542969 442.058594 Z M 329.730469 430.167969 C 329.945312 429.800781 330.003906 429.375 329.898438 428.964844 C 329.789062 428.550781 329.527344 428.207031 329.160156 427.992188 L 316.507812 420.609375 C 316.265625 420.464844 315.988281 420.390625 315.707031 420.390625 C 315.144531 420.390625 314.613281 420.695312 314.332031 421.183594 C 314.117188 421.546875 314.058594 421.976562 314.164062 422.386719 C 314.273438 422.796875 314.535156 423.144531 314.902344 423.359375 L 327.554688 430.742188 C 327.796875 430.882812 328.078125 430.957031 328.355469 430.957031 C 328.921875 430.957031 329.449219 430.65625 329.730469 430.167969 Z M 380.144531 466.535156 L 391.117188 460.136719 C 391.484375 459.921875 391.746094 459.578125 391.855469 459.164062 C 391.964844 458.753906 391.902344 458.324219 391.691406 457.957031 C 391.40625 457.46875 390.875 457.167969 390.3125 457.167969 C 390.03125 457.167969 389.753906 457.242188 389.511719 457.382812 L 378.539062 463.785156 C 378.171875 464 377.910156 464.34375 377.800781 464.753906 C 377.695312 465.167969 377.753906 465.59375 377.96875 465.964844 C 378.253906 466.449219 378.777344 466.753906 379.34375 466.753906 C 379.625 466.753906 379.902344 466.675781 380.144531 466.535156 Z M 530.109375 797.195312 L 580.78125 767.644531 C 581.269531 767.359375 581.570312 766.832031 581.570312 766.269531 L 581.570312 671.226562 C 581.570312 671 581.507812 670.769531 581.375 670.511719 L 581.261719 670.347656 C 581.15625 670.195312 581.027344 670.0625 580.875 669.953125 C 580.808594 669.910156 580.769531 669.859375 580.78125 669.851562 L 559.65625 657.527344 L 559.808594 657.226562 C 561.3125 654.285156 562.378906 651.140625 562.996094 647.777344 C 563.097656 647.207031 563.1875 646.632812 563.261719 646.054688 L 563.3125 645.667969 C 563.367188 645.160156 563.414062 644.648438 563.453125 644.136719 L 563.488281 643.664062 C 563.523438 643.019531 563.546875 642.367188 563.546875 641.699219 C 563.546875 640.90625 563.511719 640.046875 563.425781 638.945312 L 563.398438 638.570312 C 563.324219 637.75 563.21875 636.9375 563.085938 636.136719 L 562.980469 635.542969 C 562.84375 634.796875 562.691406 634.054688 562.503906 633.320312 L 562.34375 632.71875 C 562.175781 632.109375 561.992188 631.507812 561.75 630.78125 C 561.671875 630.539062 561.589844 630.296875 561.503906 630.054688 C 561.28125 629.4375 561.039062 628.828125 560.777344 628.226562 C 560.625 627.867188 560.460938 627.507812 560.292969 627.152344 C 560.136719 626.824219 559.972656 626.5 559.808594 626.175781 C 559.484375 625.542969 559.144531 624.921875 558.785156 624.316406 L 558.425781 623.71875 C 557.890625 622.851562 557.324219 622.019531 556.734375 621.230469 C 556.410156 620.796875 556.074219 620.371094 555.65625 619.863281 C 555.050781 619.132812 554.390625 618.410156 553.703125 617.707031 L 553.25 617.261719 C 552.75 616.769531 552.234375 616.296875 551.699219 615.835938 C 551.410156 615.585938 551.117188 615.335938 550.820312 615.09375 C 550.535156 614.863281 550.25 614.636719 549.960938 614.417969 C 549.394531 613.988281 548.816406 613.578125 548.226562 613.1875 L 547.757812 612.882812 C 542.238281 609.339844 535.859375 607.464844 529.308594 607.464844 C 510.429688 607.464844 495.070312 622.824219 495.070312 641.703125 C 495.070312 647.121094 496.335938 652.339844 498.828125 657.21875 L 498.980469 657.519531 L 477.882812 669.828125 L 477.796875 669.921875 L 477.753906 669.953125 C 477.601562 670.058594 477.46875 670.191406 477.359375 670.351562 L 477.246094 670.511719 C 477.117188 670.761719 477.050781 671.003906 477.050781 671.226562 L 477.050781 766.269531 C 477.050781 766.832031 477.355469 767.359375 477.839844 767.644531 L 528.429688 797.164062 L 528.535156 797.1875 L 528.585938 797.210938 C 528.84375 797.34375 529.085938 797.414062 529.308594 797.414062 C 529.53125 797.414062 529.773438 797.34375 530.109375 797.195312 Z M 362.433594 662.515625 L 409.582031 635.015625 C 410.070312 634.730469 410.371094 634.203125 410.371094 633.640625 L 410.371094 611.601562 C 410.371094 611.046875 410.074219 610.523438 409.582031 610.226562 L 402.050781 605.832031 L 409.582031 601.4375 C 410.070312 601.152344 410.371094 600.625 410.371094 600.0625 L 410.371094 578.023438 C 410.371094 577.5625 410.175781 577.128906 409.871094 576.84375 L 409.667969 576.742188 L 409.667969 576.683594 L 403.71875 571.457031 L 409.613281 567.839844 L 409.921875 567.59375 C 409.960938 567.550781 409.996094 567.5 410.066406 567.394531 L 410.164062 567.265625 C 410.203125 567.203125 410.226562 567.132812 410.25 567.058594 L 410.316406 566.894531 C 410.355469 566.757812 410.371094 566.617188 410.371094 566.484375 L 410.371094 532.90625 C 410.371094 532.671875 410.3125 532.445312 410.175781 532.1875 L 410.0625 532.019531 C 409.960938 531.871094 409.828125 531.738281 409.671875 531.628906 C 409.609375 531.582031 409.570312 531.53125 409.582031 531.527344 L 363.222656 504.488281 L 363.222656 496.910156 C 363.222656 496.03125 362.507812 495.316406 361.632812 495.316406 C 360.753906 495.316406 360.039062 496.03125 360.039062 496.910156 L 360.039062 504.488281 L 313.71875 531.503906 L 313.632812 531.597656 L 313.589844 531.628906 C 313.4375 531.738281 313.304688 531.871094 313.199219 532.027344 L 313.085938 532.1875 C 312.953125 532.445312 312.890625 532.679688 312.890625 532.90625 L 312.890625 566.484375 C 312.890625 567.046875 313.191406 567.574219 313.679688 567.859375 L 319.886719 571.480469 L 313.523438 576.730469 L 313.472656 576.816406 L 313.429688 576.855469 C 313.261719 577.003906 313.125 577.195312 313.015625 577.480469 C 313.007812 577.53125 313 577.582031 312.949219 577.753906 C 312.917969 577.855469 312.890625 577.945312 312.890625 578.023438 L 312.890625 600.0625 C 312.890625 600.625 313.191406 601.152344 313.679688 601.4375 L 321.214844 605.832031 L 313.71875 610.199219 L 313.632812 610.296875 L 313.589844 610.324219 C 313.4375 610.433594 313.304688 610.566406 313.199219 610.722656 L 313.085938 610.886719 C 312.953125 611.140625 312.890625 611.375 312.890625 611.601562 L 312.890625 633.640625 C 312.890625 634.203125 313.191406 634.730469 313.679688 635.015625 L 360.75 662.484375 L 360.855469 662.503906 L 360.90625 662.53125 C 361.167969 662.664062 361.410156 662.730469 361.632812 662.730469 C 361.851562 662.730469 362.097656 662.664062 362.433594 662.515625 Z M 253.8125 385.878906 C 254.027344 385.511719 254.085938 385.082031 253.976562 384.667969 C 253.867188 384.257812 253.605469 383.914062 253.238281 383.699219 L 240.582031 376.316406 C 240.339844 376.175781 240.066406 376.101562 239.785156 376.101562 C 239.21875 376.101562 238.691406 376.40625 238.40625 376.890625 C 238.191406 377.261719 238.132812 377.6875 238.242188 378.101562 C 238.351562 378.511719 238.613281 378.855469 238.980469 379.070312 L 251.632812 386.453125 C 251.878906 386.59375 252.15625 386.667969 252.4375 386.667969 C 253 386.667969 253.527344 386.367188 253.8125 385.878906 Z M 304.421875 415.40625 C 304.636719 415.039062 304.695312 414.613281 304.589844 414.203125 C 304.480469 413.789062 304.21875 413.445312 303.851562 413.230469 L 291.199219 405.847656 C 290.953125 405.703125 290.675781 405.628906 290.398438 405.628906 C 289.832031 405.628906 289.304688 405.933594 289.023438 406.421875 C 288.808594 406.785156 288.75 407.210938 288.859375 407.625 C 288.964844 408.035156 289.226562 408.382812 289.59375 408.597656 L 302.246094 415.976562 C 302.492188 416.121094 302.765625 416.195312 303.050781 416.195312 C 303.613281 416.195312 304.140625 415.894531 304.421875 415.40625 Z M 221.980469 374.183594 L 221.980469 369.15625 L 226.328125 371.691406 C 226.570312 371.832031 226.84375 371.90625 227.125 371.90625 C 227.6875 371.90625 228.21875 371.605469 228.503906 371.117188 C 228.71875 370.75 228.777344 370.320312 228.667969 369.910156 C 228.5625 369.5 228.300781 369.15625 227.929688 368.941406 L 221.191406 365.007812 C 220.949219 364.867188 220.671875 364.792969 220.390625 364.792969 C 220.113281 364.792969 219.839844 364.867188 219.597656 365.003906 C 219.105469 365.285156 218.796875 365.816406 218.796875 366.382812 L 218.796875 374.183594 C 218.796875 375.0625 219.511719 375.777344 220.390625 375.777344 C 221.269531 375.777344 221.980469 375.0625 221.980469 374.183594 Z M 279.117188 400.640625 C 279.328125 400.273438 279.390625 399.847656 279.28125 399.4375 C 279.171875 399.023438 278.910156 398.679688 278.542969 398.464844 L 265.890625 391.082031 C 265.648438 390.941406 265.371094 390.863281 265.089844 390.863281 C 264.527344 390.863281 264 391.167969 263.714844 391.65625 C 263.5 392.019531 263.441406 392.449219 263.550781 392.859375 C 263.65625 393.269531 263.917969 393.617188 264.289062 393.832031 L 276.9375 401.210938 C 277.183594 401.355469 277.460938 401.429688 277.742188 401.429688 C 278.304688 401.429688 278.832031 401.128906 279.117188 400.640625 Z M 363.222656 483.292969 L 363.222656 476.40625 L 369.171875 472.933594 C 369.542969 472.722656 369.804688 472.375 369.910156 471.964844 C 370.019531 471.550781 369.960938 471.125 369.746094 470.757812 C 369.460938 470.269531 368.933594 469.964844 368.367188 469.964844 C 368.089844 469.964844 367.8125 470.042969 367.570312 470.1875 L 360.828125 474.117188 C 360.34375 474.402344 360.039062 474.929688 360.039062 475.492188 L 360.039062 483.292969 C 360.039062 484.171875 360.753906 484.886719 361.632812 484.886719 C 362.507812 484.886719 363.222656 484.171875 363.222656 483.292969 Z M 610.539062 554.5625 L 610.539062 539.097656 C 610.539062 538.222656 609.824219 537.507812 608.949219 537.507812 C 608.070312 537.507812 607.355469 538.222656 607.355469 539.097656 L 607.355469 554.5625 C 607.355469 555.441406 608.070312 556.15625 608.949219 556.15625 C 609.824219 556.15625 610.539062 555.441406 610.539062 554.5625 Z M 662.820312 609.253906 C 663.035156 608.890625 663.09375 608.464844 662.988281 608.054688 C 662.878906 607.640625 662.617188 607.292969 662.25 607.078125 L 650.8125 600.40625 C 650.566406 600.261719 650.289062 600.1875 650.011719 600.1875 C 649.445312 600.1875 648.917969 600.492188 648.632812 600.980469 C 648.421875 601.34375 648.363281 601.773438 648.46875 602.183594 C 648.578125 602.59375 648.839844 602.941406 649.207031 603.15625 L 660.644531 609.828125 C 660.886719 609.972656 661.164062 610.046875 661.445312 610.046875 C 662.011719 610.046875 662.535156 609.742188 662.820312 609.253906 Z M 617.0625 582.5625 C 617.277344 582.195312 617.335938 581.765625 617.226562 581.355469 C 617.117188 580.945312 616.855469 580.597656 616.488281 580.386719 L 610.539062 576.917969 L 610.539062 570.027344 C 610.539062 569.152344 609.824219 568.4375 608.949219 568.4375 C 608.070312 568.4375 607.355469 569.152344 607.355469 570.027344 L 607.355469 577.832031 C 607.355469 578.394531 607.65625 578.921875 608.144531 579.207031 L 614.886719 583.136719 C 615.128906 583.277344 615.40625 583.351562 615.6875 583.351562 C 616.25 583.351562 616.777344 583.050781 617.0625 582.5625 Z M 489.167969 530.71875 C 489.382812 530.351562 489.441406 529.925781 489.335938 529.515625 C 489.226562 529.101562 488.964844 528.757812 488.597656 528.542969 L 482.648438 525.070312 L 482.648438 518.183594 C 482.648438 517.308594 481.933594 516.59375 481.054688 516.59375 C 480.175781 516.59375 479.464844 517.308594 479.464844 518.183594 L 479.464844 525.988281 C 479.464844 526.550781 479.765625 527.078125 480.253906 527.359375 L 486.992188 531.292969 C 487.234375 531.433594 487.511719 531.511719 487.796875 531.511719 C 488.359375 531.511719 488.886719 531.207031 489.167969 530.71875 Z M 681.21875 626.859375 L 681.21875 619.058594 C 681.21875 618.496094 680.914062 617.964844 680.425781 617.683594 L 673.691406 613.753906 C 673.445312 613.609375 673.167969 613.535156 672.886719 613.535156 C 672.320312 613.535156 671.792969 613.839844 671.511719 614.324219 C 671.296875 614.695312 671.238281 615.121094 671.347656 615.535156 C 671.457031 615.945312 671.71875 616.289062 672.085938 616.503906 L 678.035156 619.972656 L 678.035156 626.859375 C 678.035156 627.738281 678.746094 628.453125 679.625 628.453125 C 680.503906 628.453125 681.21875 627.738281 681.21875 626.859375 Z M 639.941406 595.910156 C 640.160156 595.542969 640.21875 595.117188 640.109375 594.703125 C 640 594.292969 639.738281 593.945312 639.371094 593.730469 L 627.929688 587.058594 C 627.6875 586.917969 627.410156 586.84375 627.128906 586.84375 C 626.5625 586.84375 626.035156 587.144531 625.753906 587.632812 C 625.539062 588 625.480469 588.429688 625.585938 588.839844 C 625.695312 589.25 625.957031 589.597656 626.324219 589.8125 L 637.765625 596.484375 C 638.007812 596.625 638.285156 596.699219 638.570312 596.699219 C 639.132812 596.699219 639.660156 596.398438 639.941406 595.910156 Z M 609.992188 535.828125 C 611.890625 534.714844 613.757812 533.335938 615.609375 531.679688 L 674.851562 497.511719 C 685.023438 492.589844 692.484375 482.507812 696.425781 468.355469 C 698.804688 460.550781 699.863281 451.632812 699.566406 441.828125 C 699.296875 417.867188 692.011719 391.5 679.058594 367.578125 L 679 367.394531 C 678.980469 367.316406 678.964844 367.25 678.9375 367.199219 C 672.546875 354.625 664.804688 343.976562 655.265625 334.636719 C 648.886719 328.101562 642.277344 322.828125 635.621094 318.96875 L 633.683594 317.851562 C 631.703125 316.628906 629.671875 315.449219 627.652344 314.339844 L 627.46875 314.238281 L 627.464844 314.03125 C 626.550781 261.082031 594.347656 199.671875 555.679688 177.136719 C 545.824219 171.394531 536.253906 168.484375 527.226562 168.484375 C 523.671875 168.484375 520.203125 168.949219 516.914062 169.867188 L 516.636719 169.945312 L 516.5 169.691406 C 514.738281 166.363281 512.816406 162.960938 510.789062 159.570312 L 510.710938 159.4375 C 495.664062 134.320312 477.449219 115.054688 458.039062 103.726562 C 446.414062 96.949219 435.074219 93.511719 424.332031 93.511719 C 416.675781 93.511719 409.550781 95.292969 403.105469 98.832031 C 403.011719 98.867188 402.921875 98.90625 402.828125 98.960938 L 336.320312 138.113281 L 336.25 138.203125 L 335.773438 138.453125 C 335.605469 138.539062 335.433594 138.625 335.269531 138.71875 C 317.886719 148.71875 307.078125 171.539062 305.605469 201.332031 L 305.597656 201.523438 L 282.421875 215.050781 C 282.316406 215.109375 282.234375 215.21875 282.136719 215.347656 L 282.011719 215.511719 L 281.957031 215.546875 C 280.472656 216.488281 279.285156 217.347656 278.21875 218.242188 C 266.535156 228.050781 260.101562 245.945312 260.101562 268.632812 C 260.101562 316.835938 289.121094 372.691406 324.785156 393.140625 L 346.160156 405.398438 L 346.160156 414.433594 C 346.160156 415.3125 346.875 416.027344 347.753906 416.027344 C 348.628906 416.027344 349.34375 415.3125 349.34375 414.433594 L 349.34375 407.222656 L 406.566406 440.039062 L 406.476562 440.433594 C 406.457031 440.507812 406.4375 440.574219 406.4375 440.625 L 406.4375 447.511719 L 400.488281 450.980469 C 400.121094 451.195312 399.859375 451.542969 399.75 451.953125 C 399.640625 452.363281 399.703125 452.792969 399.917969 453.160156 C 400.199219 453.648438 400.726562 453.949219 401.289062 453.949219 C 401.574219 453.949219 401.851562 453.875 402.09375 453.734375 L 408.832031 449.804688 C 409.320312 449.519531 409.621094 448.992188 409.621094 448.429688 L 409.621094 441.789062 L 568.464844 532.871094 C 577.023438 537.777344 585.371094 540.265625 593.28125 540.265625 C 599.359375 540.265625 604.980469 538.773438 609.992188 535.828125 Z M 512.355469 544.242188 C 512.570312 543.875 512.628906 543.449219 512.519531 543.035156 C 512.414062 542.625 512.152344 542.28125 511.78125 542.0625 L 500.191406 535.300781 C 499.945312 535.160156 499.667969 535.085938 499.390625 535.085938 C 498.824219 535.085938 498.296875 535.390625 498.011719 535.875 C 497.796875 536.242188 497.738281 536.671875 497.847656 537.082031 C 497.957031 537.496094 498.21875 537.839844 498.585938 538.054688 L 510.175781 544.816406 C 510.421875 544.957031 510.699219 545.03125 510.980469 545.03125 C 511.542969 545.03125 512.070312 544.730469 512.355469 544.242188 Z M 482.648438 501.929688 L 482.648438 485.675781 C 482.648438 484.796875 481.933594 484.082031 481.054688 484.082031 C 480.175781 484.082031 479.464844 484.796875 479.464844 485.675781 L 479.464844 501.929688 C 479.464844 502.808594 480.175781 503.523438 481.054688 503.523438 C 481.933594 503.523438 482.648438 502.808594 482.648438 501.929688 Z M 530.902344 561.9375 L 530.902344 554.132812 C 530.902344 553.570312 530.601562 553.042969 530.109375 552.757812 L 523.371094 548.828125 C 523.128906 548.683594 522.851562 548.609375 522.570312 548.609375 C 522.007812 548.609375 521.476562 548.914062 521.195312 549.402344 C 520.980469 549.769531 520.921875 550.195312 521.03125 550.605469 C 521.136719 551.019531 521.398438 551.363281 521.769531 551.578125 L 527.71875 555.050781 L 527.71875 561.9375 C 527.71875 562.816406 528.429688 563.527344 529.308594 563.527344 C 530.1875 563.527344 530.902344 562.816406 530.902344 561.9375 Z M 530.902344 595.234375 L 530.902344 578.585938 C 530.902344 577.707031 530.1875 576.992188 529.308594 576.992188 C 528.429688 576.992188 527.71875 577.707031 527.71875 578.585938 L 527.71875 595.234375 C 527.71875 596.113281 528.429688 596.824219 529.308594 596.824219 C 530.1875 596.824219 530.902344 596.113281 530.902344 595.234375 Z M 530.902344 595.234375 " fill-opacity="1" fill-rule="nonzero"/></g><path fill="#f41b3e" d="M 579.980469 671.230469 L 579.980469 766.269531 L 529.3125 795.820312 L 478.644531 766.269531 L 478.644531 671.230469 L 529.3125 700.785156 Z M 173.242188 430.15625 L 173.242188 474.230469 L 192.03125 485.191406 L 220.390625 501.730469 L 248.746094 485.191406 L 267.539062 474.230469 L 267.539062 430.15625 L 220.390625 402.652344 Z M 173.242188 430.15625 " fill-opacity="1" fill-rule="nonzero"/><path fill="#ff6600" d="M 561.957031 641.703125 C 561.957031 647.695312 560.316406 653.289062 557.5 658.117188 C 554.171875 663.816406 549.175781 668.40625 543.171875 671.230469 C 538.957031 673.210938 534.273438 674.351562 529.3125 674.351562 C 524.347656 674.351562 519.664062 673.210938 515.453125 671.230469 C 509.445312 668.40625 504.449219 663.816406 501.125 658.117188 C 498.304688 653.289062 496.664062 647.695312 496.664062 641.703125 C 496.664062 623.675781 511.28125 609.058594 529.3125 609.058594 C 547.339844 609.058594 561.957031 623.675781 561.957031 641.703125 Z M 220.390625 501.730469 L 192.03125 485.191406 L 173.242188 485.191406 L 173.242188 507.230469 L 197.4375 521.34375 C 191.457031 527.261719 187.742188 535.46875 187.742188 544.550781 C 187.742188 562.578125 202.359375 577.195312 220.390625 577.195312 C 238.417969 577.195312 253.035156 562.578125 253.035156 544.550781 C 253.035156 535.46875 249.324219 527.261719 243.339844 521.34375 L 267.539062 507.230469 L 267.539062 485.191406 L 248.746094 485.191406 Z M 726.773438 724.242188 L 707.984375 724.242188 L 679.628906 740.78125 L 651.269531 724.242188 L 632.480469 724.242188 L 632.480469 746.28125 L 653.453125 758.511719 L 632.480469 758.511719 L 632.480469 780.550781 L 679.628906 808.050781 L 726.773438 780.550781 L 726.773438 758.511719 L 705.800781 758.511719 L 726.773438 746.28125 Z M 726.773438 724.242188 " fill-opacity="1" fill-rule="nonzero"/><path fill="#0a5eff" d="M 388.992188 611.601562 L 408.78125 611.601562 L 408.78125 633.640625 L 361.632812 661.136719 L 314.484375 633.640625 L 314.484375 611.601562 L 334.269531 611.601562 L 361.632812 627.558594 Z M 314.484375 532.90625 L 314.484375 566.484375 L 334.269531 578.023438 L 361.632812 593.980469 L 388.992188 578.023438 L 408.78125 566.484375 L 408.78125 532.90625 L 361.632812 505.402344 Z M 634.820312 320.347656 L 625.886719 315.175781 C 625.414062 262.207031 593.664062 201.117188 554.875 178.511719 C 540.40625 170.082031 526.988281 168.195312 515.84375 171.855469 C 500.765625 142.9375 480.0625 118.417969 457.234375 105.105469 C 436.820312 93.195312 418.125 92.261719 403.65625 100.355469 L 403.640625 100.332031 L 337.042969 139.558594 L 337.046875 139.558594 C 351.441406 131.789062 369.929688 132.863281 390.089844 144.625 C 412.917969 157.941406 433.621094 182.457031 448.699219 211.375 C 459.84375 207.714844 473.261719 209.601562 487.730469 218.035156 C 526.519531 240.636719 558.269531 301.730469 558.742188 354.695312 L 567.675781 359.871094 C 602.066406 379.796875 630.308594 434.136719 630.832031 481.410156 C 631.085938 504.082031 624.910156 521.035156 614.625 530.40625 L 674.15625 496.078125 C 688.925781 488.933594 698.289062 469.710938 697.976562 441.886719 C 697.453125 394.617188 669.210938 340.273438 634.820312 320.347656 Z M 283.222656 216.425781 L 283.246094 216.660156 C 290.058594 212.472656 298.140625 210.917969 307.070312 212.488281 C 307.042969 211.265625 307 210.042969 307 208.832031 C 306.996094 206.667969 307.046875 204.554688 307.132812 202.472656 Z M 283.222656 216.425781 " fill-opacity="1" fill-rule="nonzero"/><path fill="#ffffff" d="M 557.5 658.117188 L 579.980469 671.230469 L 529.3125 700.785156 L 478.644531 671.230469 L 501.125 658.117188 C 504.449219 663.816406 509.445312 668.40625 515.453125 671.230469 C 519.664062 673.210938 524.347656 674.351562 529.3125 674.351562 C 534.273438 674.351562 538.957031 673.210938 543.171875 671.230469 C 549.175781 668.40625 554.171875 663.816406 557.5 658.117188 Z M 679.628906 641.703125 L 632.480469 669.207031 L 632.480469 713.285156 L 651.269531 724.242188 L 679.628906 740.78125 L 707.984375 724.242188 L 726.773438 713.285156 L 726.773438 669.207031 Z M 361.632812 593.980469 L 334.269531 578.023438 L 314.484375 578.023438 L 314.484375 600.0625 L 334.269531 611.601562 L 361.632812 627.558594 L 388.992188 611.601562 L 408.78125 600.0625 L 408.78125 578.023438 L 388.992188 578.023438 Z M 567.675781 359.871094 L 558.742188 354.695312 C 558.269531 301.730469 526.519531 240.636719 487.730469 218.035156 C 473.261719 209.601562 459.84375 207.714844 448.699219 211.375 C 433.621094 182.457031 412.917969 157.941406 390.089844 144.625 C 369.929688 132.863281 351.441406 131.789062 337.046875 139.558594 C 319.792969 148.871094 308.433594 170.894531 307.132812 202.472656 C 307.046875 204.554688 306.996094 206.667969 307 208.832031 C 307 210.042969 307.042969 211.265625 307.070312 212.488281 C 298.140625 210.917969 290.058594 212.472656 283.246094 216.660156 C 270.058594 224.765625 261.695312 242.914062 261.695312 268.628906 C 261.695312 316.347656 290.332031 371.550781 325.578125 391.761719 L 508.421875 496.609375 L 569.261719 531.492188 C 587.296875 541.835938 603.40625 540.636719 614.625 530.40625 C 624.910156 521.035156 631.085938 504.082031 630.832031 481.410156 C 630.308594 434.136719 602.066406 379.796875 567.675781 359.871094 Z M 567.675781 359.871094 " fill-opacity="1" fill-rule="nonzero"/><g clip-path="url(#730e9b6d8c)"><g mask="url(#89fcfd7a03)"><g transform="matrix(1, 0, 0, 1, 184, 157)"><g clip-path="url(#07a346380a)"><path fill="#8d5d39" d="M 226.730469 376.847656 L 226.730469 409.484375 C 226.730469 410.160156 226.378906 410.792969 225.800781 411.148438 L 220.320312 414.507812 L 226.070312 419.558594 C 226.492188 419.929688 226.730469 420.460938 226.730469 421.023438 L 226.730469 443.0625 C 226.730469 443.753906 226.363281 444.394531 225.765625 444.746094 L 187.222656 467.222656 C 186.917969 467.402344 186.582031 467.488281 186.242188 467.488281 C 185.859375 467.488281 185.484375 467.378906 185.15625 467.160156 C 184.535156 466.742188 184.207031 466.011719 184.308594 465.269531 L 194.304688 393.226562 C 194.382812 392.636719 194.734375 392.113281 195.25 391.808594 L 223.796875 375.160156 C 224.402344 374.8125 225.148438 374.804688 225.753906 375.15625 C 226.359375 375.503906 226.730469 376.148438 226.730469 376.847656 Z M 225.753906 452.910156 C 225.148438 452.5625 224.402344 452.566406 223.796875 452.917969 L 183.304688 476.535156 C 182.511719 477 182.148438 477.949219 182.433594 478.824219 L 188.417969 497.367188 C 188.597656 497.929688 189.023438 498.378906 189.574219 498.585938 C 189.800781 498.675781 190.035156 498.71875 190.273438 498.71875 C 190.617188 498.71875 190.953125 498.628906 191.253906 498.453125 L 225.765625 478.324219 C 226.363281 477.976562 226.730469 477.332031 226.730469 476.640625 L 226.730469 454.601562 C 226.730469 453.902344 226.359375 453.257812 225.753906 452.910156 Z M 122.144531 43.792969 L 104.988281 53.804688 C 104.226562 54.246094 103.855469 55.144531 104.089844 55.996094 C 104.316406 56.847656 105.089844 57.4375 105.96875 57.4375 L 123.074219 57.4375 C 124.148438 57.4375 125.019531 56.570312 125.023438 55.496094 L 125.078125 45.484375 C 125.082031 44.785156 124.707031 44.136719 124.101562 43.785156 C 123.496094 43.4375 122.75 43.4375 122.144531 43.792969 Z M 84.511719 271.464844 C 83.90625 271.117188 83.160156 271.121094 82.554688 271.46875 L 54.007812 288.121094 C 53.492188 288.425781 53.140625 288.945312 53.0625 289.539062 L 41.558594 372.457031 L 36.390625 375.46875 L 14.265625 362.566406 C 13.519531 362.128906 12.558594 362.242188 11.921875 362.851562 C 5.28125 369.300781 1.429688 378.246094 1.355469 387.386719 C 1.347656 388.246094 1.90625 389.011719 2.726562 389.265625 C 3.539062 389.515625 4.441406 389.207031 4.921875 388.496094 C 8.335938 383.449219 13.414062 379.910156 19.210938 378.535156 C 32.113281 375.484375 45.101562 383.480469 48.164062 396.382812 C 49.972656 404.003906 47.914062 412.070312 42.660156 417.949219 C 42.089844 418.59375 42 419.53125 42.449219 420.265625 C 42.808594 420.855469 43.449219 421.199219 44.117188 421.199219 C 44.28125 421.199219 44.445312 421.179688 44.605469 421.136719 C 62.683594 416.449219 73.890625 397.855469 69.582031 379.695312 C 68.292969 374.269531 65.703125 369.246094 62.03125 365.03125 L 84.523438 351.917969 C 85.121094 351.566406 85.488281 350.925781 85.488281 350.230469 L 85.488281 328.191406 C 85.488281 327.5 85.125 326.859375 84.527344 326.511719 L 78.035156 322.699219 L 84.523438 318.917969 C 85.121094 318.570312 85.488281 317.925781 85.488281 317.234375 L 85.488281 273.15625 C 85.488281 272.457031 85.117188 271.8125 84.511719 271.464844 Z M 333.542969 13.902344 L 327.035156 2.273438 C 326.757812 1.78125 326.28125 1.429688 325.722656 1.316406 C 325.167969 1.203125 324.589844 1.335938 324.140625 1.679688 C 292.460938 26.015625 264.394531 27.582031 233.140625 6.75 C 232.316406 6.199219 231.210938 6.351562 230.570312 7.109375 C 229.933594 7.863281 229.953125 8.976562 230.628906 9.703125 C 244.304688 24.386719 254.882812 39.289062 262.957031 55.257812 C 263.203125 55.738281 263.632812 56.097656 264.152344 56.25 C 264.328125 56.300781 264.515625 56.328125 264.699219 56.328125 C 265.042969 56.328125 265.386719 56.234375 265.691406 56.058594 L 332.832031 16.535156 C 333.746094 15.996094 334.0625 14.828125 333.542969 13.902344 Z M 544.726562 555.535156 L 544.726562 512.207031 C 544.726562 511.507812 544.351562 510.863281 543.746094 510.515625 C 543.140625 510.167969 542.398438 510.171875 541.792969 510.523438 L 514.863281 526.230469 C 514.34375 526.535156 513.992188 527.054688 513.914062 527.648438 L 502.304688 611.320312 C 502.203125 612.0625 502.53125 612.796875 503.148438 613.210938 C 503.476562 613.429688 503.855469 613.539062 504.234375 613.539062 C 504.574219 613.539062 504.914062 613.453125 505.21875 613.277344 L 543.757812 590.796875 C 544.355469 590.449219 544.726562 589.804688 544.726562 589.113281 L 544.726562 567.074219 C 544.726562 566.371094 544.347656 565.726562 543.734375 565.378906 L 536.832031 561.46875 L 543.796875 557.199219 C 544.371094 556.84375 544.726562 556.214844 544.726562 555.535156 Z M 514.222656 282.953125 C 513.246094 282.828125 512.371094 283.425781 512.101562 284.347656 C 502.496094 317.644531 473.96875 342.054688 447.328125 361.539062 C 446.488281 362.152344 446.273438 363.3125 446.847656 364.183594 C 447.214844 364.75 447.839844 365.0625 448.476562 365.0625 C 448.8125 365.0625 449.152344 364.980469 449.460938 364.800781 L 496.609375 337.363281 C 496.738281 337.289062 496.859375 337.195312 496.972656 337.089844 C 510.394531 324.328125 516.597656 307.234375 515.929688 284.828125 C 515.898438 283.871094 515.175781 283.074219 514.222656 282.953125 Z M 353.574219 451.140625 C 352.714844 450.925781 351.867188 451.304688 351.429688 452.039062 C 350.988281 452.78125 351.089844 453.71875 351.671875 454.351562 C 355.792969 458.847656 358.0625 464.601562 358.0625 470.558594 C 358.0625 483.820312 347.273438 494.609375 334.011719 494.609375 C 326.179688 494.609375 318.8125 490.746094 314.300781 484.277344 C 313.808594 483.570312 312.921875 483.277344 312.097656 483.539062 C 311.28125 483.804688 310.730469 484.574219 310.75 485.433594 C 311.140625 504.109375 326.644531 519.300781 345.308594 519.300781 C 364.382812 519.300781 379.90625 503.78125 379.90625 484.703125 C 379.90625 468.746094 369.078125 454.949219 353.574219 451.140625 Z M 543.746094 599.820312 C 543.140625 599.472656 542.398438 599.480469 541.792969 599.828125 L 501.296875 623.449219 C 500.507812 623.914062 500.144531 624.863281 500.425781 625.734375 L 506.410156 644.277344 C 506.589844 644.839844 507.015625 645.289062 507.570312 645.5 C 507.792969 645.585938 508.03125 645.628906 508.265625 645.628906 C 508.609375 645.628906 508.949219 645.539062 509.25 645.363281 L 543.757812 625.238281 C 544.355469 624.886719 544.726562 624.242188 544.726562 623.550781 L 544.726562 601.511719 C 544.726562 600.8125 544.351562 600.171875 543.746094 599.820312 Z M 493.519531 212.871094 C 493.957031 212.871094 494.394531 212.722656 494.753906 212.429688 C 495.460938 211.851562 495.675781 210.851562 495.257812 210.035156 C 483.3125 186.535156 466.15625 169.011719 442.808594 156.453125 C 442.210938 156.132812 441.480469 156.140625 440.894531 156.492188 L 373.753906 196.015625 C 372.863281 196.539062 372.535156 197.671875 373.011719 198.589844 C 373.488281 199.515625 374.609375 199.894531 375.542969 199.472656 C 418.128906 180.339844 457.417969 184.707031 492.304688 212.445312 C 492.664062 212.726562 493.089844 212.871094 493.519531 212.871094 Z M 493.519531 212.871094 " fill-opacity="1" fill-rule="nonzero"/></g></g></g></g><g clip-path="url(#05c3e50032)"><path fill="#8d5d39" d="M 581.554688 670.144531 C 581.425781 669.957031 581.265625 669.792969 581.078125 669.660156 C 581.03125 669.628906 581.011719 669.570312 580.960938 669.542969 L 560.109375 657.378906 C 562.519531 652.667969 563.90625 647.351562 563.90625 641.703125 C 563.90625 622.628906 548.382812 607.105469 529.308594 607.105469 C 510.234375 607.105469 494.714844 622.628906 494.714844 641.703125 C 494.714844 647.351562 496.101562 652.667969 498.507812 657.382812 L 477.660156 669.542969 C 477.613281 669.574219 477.59375 669.625 477.550781 669.65625 C 477.359375 669.789062 477.195312 669.957031 477.066406 670.144531 C 477.019531 670.210938 476.964844 670.273438 476.929688 670.347656 C 476.789062 670.617188 476.691406 670.914062 476.691406 671.230469 L 476.691406 766.269531 C 476.691406 766.960938 477.0625 767.601562 477.660156 767.953125 L 528.328125 797.507812 C 528.355469 797.523438 528.390625 797.515625 528.421875 797.53125 C 528.703125 797.675781 529.003906 797.769531 529.308594 797.769531 C 529.613281 797.769531 529.914062 797.675781 530.195312 797.53125 C 530.226562 797.515625 530.261719 797.523438 530.292969 797.507812 L 580.960938 767.953125 C 581.558594 767.601562 581.929688 766.960938 581.929688 766.269531 L 581.929688 671.230469 C 581.929688 670.90625 581.832031 670.613281 581.691406 670.347656 C 581.65625 670.273438 581.601562 670.210938 581.554688 670.144531 Z M 578.027344 765.148438 L 531.261719 792.425781 L 531.261719 701.90625 L 578.027344 674.625 Z M 482.515625 671.230469 L 485.859375 669.277344 L 500.460938 660.757812 C 502.636719 664.039062 505.367188 666.90625 508.5 669.277344 C 509.421875 669.976562 510.378906 670.625 511.367188 671.230469 C 512.546875 671.949219 513.765625 672.601562 515.027344 673.179688 C 519.390625 675.164062 524.214844 676.300781 529.308594 676.300781 C 534.40625 676.300781 539.230469 675.164062 543.589844 673.179688 C 544.855469 672.601562 546.070312 671.949219 547.25 671.230469 C 548.238281 670.625 549.195312 669.976562 550.117188 669.277344 C 553.25 666.90625 555.984375 664.039062 558.15625 660.757812 L 572.765625 669.277344 L 576.109375 671.230469 L 576.105469 671.230469 L 572.765625 673.179688 L 529.308594 698.527344 L 485.859375 673.179688 Z M 527.53125 611.097656 C 527.421875 611.339844 527.359375 611.601562 527.359375 611.882812 L 527.359375 619.6875 C 527.359375 620.765625 528.230469 621.636719 529.308594 621.636719 C 530.386719 621.636719 531.261719 620.765625 531.261719 619.6875 L 531.261719 611.882812 C 531.261719 611.601562 531.195312 611.339844 531.089844 611.097656 C 547.1875 612.027344 560.003906 625.378906 560.003906 641.703125 C 560.003906 646.632812 558.808594 651.277344 556.734375 655.410156 C 556.441406 655.996094 556.132812 656.566406 555.804688 657.128906 C 555.476562 657.691406 555.15625 658.257812 554.792969 658.792969 C 551.777344 663.277344 547.597656 666.890625 542.710938 669.277344 C 541.082031 670.074219 539.378906 670.730469 537.605469 671.230469 C 534.964844 671.972656 532.1875 672.398438 529.308594 672.398438 C 526.429688 672.398438 523.65625 671.972656 521.011719 671.230469 C 519.238281 670.730469 517.539062 670.074219 515.910156 669.277344 C 511.019531 666.894531 506.839844 663.277344 503.828125 658.796875 C 503.464844 658.257812 503.140625 657.691406 502.816406 657.128906 C 502.484375 656.566406 502.175781 655.996094 501.886719 655.414062 C 499.8125 651.28125 498.613281 646.636719 498.613281 641.703125 C 498.613281 625.378906 511.433594 612.027344 527.53125 611.097656 Z M 480.59375 674.625 L 527.359375 701.90625 L 527.359375 792.425781 L 480.59375 765.148438 Z M 269.117188 429.070312 C 268.988281 428.882812 268.828125 428.722656 268.636719 428.585938 C 268.59375 428.554688 268.570312 428.5 268.523438 428.46875 L 222.339844 401.53125 L 222.339844 390.082031 C 222.339844 389.003906 221.46875 388.132812 220.390625 388.132812 C 219.3125 388.132812 218.4375 389.003906 218.4375 390.082031 L 218.4375 401.53125 L 172.257812 428.46875 C 172.207031 428.5 172.1875 428.554688 172.140625 428.585938 C 171.953125 428.722656 171.792969 428.882812 171.664062 429.070312 C 171.617188 429.136719 171.5625 429.199219 171.527344 429.273438 C 171.386719 429.546875 171.289062 429.84375 171.289062 430.15625 L 171.289062 474.234375 C 171.289062 474.925781 171.660156 475.570312 172.257812 475.917969 L 178.761719 479.710938 L 172.257812 483.507812 C 172.207031 483.535156 172.1875 483.589844 172.140625 483.625 C 171.953125 483.757812 171.792969 483.917969 171.664062 484.105469 C 171.617188 484.171875 171.5625 484.238281 171.527344 484.308594 C 171.386719 484.582031 171.289062 484.878906 171.289062 485.191406 L 171.289062 507.230469 C 171.289062 507.925781 171.660156 508.566406 172.257812 508.917969 L 194.375 521.816406 C 189.050781 527.902344 185.792969 535.84375 185.792969 544.550781 C 185.792969 563.625 201.3125 579.144531 220.390625 579.144531 C 239.464844 579.144531 254.984375 563.625 254.984375 544.550781 C 254.984375 535.84375 251.730469 527.902344 246.402344 521.816406 L 268.523438 508.917969 C 269.121094 508.566406 269.488281 507.925781 269.488281 507.230469 L 269.488281 485.191406 C 269.488281 484.878906 269.390625 484.582031 269.253906 484.308594 C 269.214844 484.238281 269.164062 484.171875 269.117188 484.105469 C 268.988281 483.917969 268.828125 483.757812 268.636719 483.625 C 268.59375 483.589844 268.570312 483.535156 268.523438 483.507812 L 262.019531 479.710938 L 268.523438 475.917969 C 269.121094 475.570312 269.488281 474.925781 269.488281 474.234375 L 269.488281 430.15625 C 269.488281 429.832031 269.390625 429.542969 269.253906 429.273438 C 269.214844 429.199219 269.164062 429.136719 269.117188 429.070312 Z M 265.589844 473.113281 L 258.144531 477.453125 L 256.207031 478.582031 L 254.273438 479.710938 L 248.222656 483.242188 L 244.875 485.191406 L 241.53125 487.140625 L 222.339844 498.335938 L 222.339844 458.78125 L 224.238281 457.675781 L 265.589844 433.554688 Z M 265.589844 506.109375 L 243.578125 518.949219 L 241.828125 519.96875 L 240.050781 521.003906 L 222.339844 531.332031 L 222.339844 513.816406 L 225 512.265625 L 227.632812 510.730469 L 265.589844 488.589844 Z M 220.390625 575.246094 C 203.464844 575.246094 189.695312 561.472656 189.695312 544.550781 C 189.695312 536.554688 192.792969 529.289062 197.816406 523.824219 L 219.40625 536.414062 C 219.4375 536.429688 219.472656 536.425781 219.503906 536.4375 C 219.785156 536.582031 220.085938 536.679688 220.390625 536.679688 C 220.695312 536.679688 220.996094 536.582031 221.277344 536.4375 C 221.308594 536.425781 221.34375 536.429688 221.371094 536.414062 L 242.964844 523.824219 C 247.988281 529.289062 251.085938 536.554688 251.085938 544.550781 C 251.085938 561.472656 237.316406 575.246094 220.390625 575.246094 Z M 180.457031 428.207031 L 218.449219 406.042969 C 218.484375 407.089844 219.332031 407.933594 220.390625 407.933594 C 221.445312 407.933594 222.296875 407.089844 222.328125 406.042969 L 260.324219 428.207031 L 263.667969 430.15625 L 260.324219 432.105469 L 220.390625 455.402344 L 180.457031 432.105469 L 177.109375 430.15625 Z M 175.191406 433.554688 L 216.542969 457.675781 L 218.4375 458.78125 L 218.4375 498.335938 L 199.246094 487.140625 L 192.558594 483.242188 L 186.507812 479.710938 L 182.632812 477.453125 L 175.191406 473.113281 Z M 175.191406 488.589844 L 213.144531 510.730469 L 215.78125 512.265625 L 218.4375 513.816406 L 218.4375 531.332031 L 200.730469 521.003906 L 198.953125 519.96875 L 197.203125 518.949219 L 175.191406 506.109375 Z M 728.726562 713.28125 L 728.726562 669.207031 C 728.726562 668.894531 728.628906 668.597656 728.488281 668.324219 C 728.453125 668.253906 728.398438 668.1875 728.351562 668.121094 C 728.222656 667.933594 728.0625 667.773438 727.875 667.640625 C 727.828125 667.605469 727.808594 667.550781 727.757812 667.523438 L 681.578125 640.585938 L 681.578125 638.375 C 681.578125 637.296875 680.703125 636.425781 679.625 636.425781 C 678.546875 636.425781 677.675781 637.296875 677.675781 638.375 L 677.675781 640.585938 L 631.492188 667.523438 C 631.445312 667.550781 631.421875 667.605469 631.378906 667.640625 C 631.1875 667.773438 631.027344 667.933594 630.898438 668.121094 C 630.851562 668.1875 630.800781 668.253906 630.761719 668.324219 C 630.625 668.597656 630.527344 668.894531 630.527344 669.207031 L 630.527344 713.28125 C 630.527344 713.976562 630.894531 714.617188 631.492188 714.96875 L 638 718.761719 L 631.492188 722.558594 C 631.445312 722.585938 631.421875 722.640625 631.378906 722.675781 C 631.1875 722.808594 631.027344 722.96875 630.898438 723.15625 C 630.851562 723.226562 630.800781 723.289062 630.761719 723.359375 C 630.625 723.632812 630.527344 723.929688 630.527344 724.242188 L 630.527344 746.28125 C 630.527344 746.976562 630.894531 747.617188 631.492188 747.96875 L 639.089844 752.398438 L 631.492188 756.828125 C 631.445312 756.855469 631.421875 756.914062 631.378906 756.945312 C 631.1875 757.078125 631.027344 757.242188 630.898438 757.425781 C 630.851562 757.496094 630.800781 757.558594 630.761719 757.632812 C 630.625 757.902344 630.527344 758.199219 630.527344 758.511719 L 630.527344 780.550781 C 630.527344 781.242188 630.894531 781.886719 631.492188 782.238281 L 678.644531 809.734375 C 678.671875 809.753906 678.707031 809.746094 678.738281 809.761719 C 679.019531 809.90625 679.320312 810 679.625 810 C 679.933594 810 680.230469 809.90625 680.511719 809.761719 C 680.542969 809.746094 680.578125 809.753906 680.609375 809.734375 L 727.757812 782.238281 C 728.355469 781.886719 728.726562 781.242188 728.726562 780.550781 L 728.726562 758.511719 C 728.726562 758.199219 728.628906 757.902344 728.488281 757.632812 C 728.453125 757.558594 728.398438 757.496094 728.351562 757.425781 C 728.222656 757.242188 728.0625 757.078125 727.875 756.945312 C 727.828125 756.914062 727.808594 756.855469 727.757812 756.828125 L 720.164062 752.398438 L 727.757812 747.96875 C 728.355469 747.617188 728.726562 746.976562 728.726562 746.28125 L 728.726562 724.242188 C 728.726562 723.929688 728.628906 723.632812 728.488281 723.359375 C 728.453125 723.289062 728.398438 723.226562 728.351562 723.15625 C 728.222656 722.96875 728.0625 722.808594 727.875 722.675781 C 727.828125 722.640625 727.808594 722.585938 727.757812 722.558594 L 721.253906 718.761719 L 727.757812 714.96875 C 728.355469 714.617188 728.726562 713.976562 728.726562 713.28125 Z M 724.824219 712.164062 L 717.378906 716.503906 L 715.445312 717.632812 L 713.507812 718.761719 L 707.457031 722.292969 L 704.109375 724.242188 L 700.765625 726.195312 L 688.003906 733.636719 L 686.066406 734.765625 L 684.132812 735.894531 L 681.578125 737.386719 L 681.578125 697.832031 L 683.472656 696.726562 L 724.824219 672.605469 Z M 724.824219 745.164062 L 716.289062 750.136719 L 714.355469 751.269531 L 712.417969 752.398438 L 705.277344 756.5625 L 701.929688 758.511719 L 698.585938 760.464844 L 681.578125 770.382812 L 681.578125 752.867188 L 697.402344 743.636719 L 699.335938 742.507812 L 701.273438 741.378906 L 724.824219 727.640625 Z M 724.824219 779.429688 L 681.578125 804.65625 L 681.578125 787.140625 L 724.824219 761.910156 Z M 639.691406 667.257812 L 677.675781 645.101562 L 677.675781 649.890625 C 677.675781 650.96875 678.546875 651.839844 679.625 651.839844 C 680.703125 651.839844 681.578125 650.96875 681.578125 649.890625 L 681.578125 645.101562 L 719.5625 667.257812 L 722.90625 669.207031 L 719.5625 671.15625 L 679.625 694.453125 L 639.691406 671.15625 L 636.347656 669.207031 Z M 634.425781 672.605469 L 675.777344 696.726562 L 677.675781 697.832031 L 677.675781 737.386719 L 675.121094 735.894531 L 673.1875 734.765625 L 671.25 733.636719 L 658.484375 726.195312 L 655.140625 724.242188 L 651.796875 722.292969 L 645.742188 718.761719 L 643.808594 717.632812 L 641.871094 716.503906 L 634.425781 712.164062 Z M 634.425781 727.640625 L 657.980469 741.378906 L 659.914062 742.507812 L 661.851562 743.636719 L 677.675781 752.867188 L 677.675781 770.382812 L 660.664062 760.464844 L 657.320312 758.511719 L 653.976562 756.5625 L 646.832031 752.398438 L 644.898438 751.269531 L 642.960938 750.136719 L 634.425781 745.164062 Z M 634.425781 761.910156 L 677.675781 787.140625 L 677.675781 804.65625 L 634.425781 779.429688 Z M 410.359375 531.820312 C 410.230469 531.632812 410.070312 531.46875 409.878906 531.335938 C 409.835938 531.304688 409.8125 531.246094 409.765625 531.21875 L 363.582031 504.28125 L 363.582031 496.910156 C 363.582031 495.832031 362.710938 494.957031 361.632812 494.957031 C 360.554688 494.957031 359.679688 495.832031 359.679688 496.910156 L 359.679688 504.28125 L 313.5 531.21875 C 313.449219 531.246094 313.429688 531.304688 313.382812 531.335938 C 313.195312 531.46875 313.035156 531.632812 312.90625 531.820312 C 312.859375 531.886719 312.804688 531.949219 312.769531 532.023438 C 312.628906 532.292969 312.53125 532.589844 312.53125 532.90625 L 312.53125 566.484375 C 312.53125 567.175781 312.902344 567.820312 313.5 568.167969 L 319.261719 571.53125 L 313.238281 576.519531 C 313.214844 576.539062 313.207031 576.566406 313.1875 576.585938 C 312.976562 576.777344 312.8125 577.015625 312.699219 577.28125 C 312.664062 577.359375 312.667969 577.449219 312.640625 577.53125 C 312.597656 577.691406 312.53125 577.847656 312.53125 578.023438 L 312.53125 600.0625 C 312.53125 600.753906 312.902344 601.394531 313.5 601.746094 L 320.503906 605.832031 L 313.5 609.917969 C 313.449219 609.945312 313.429688 610 313.382812 610.035156 C 313.195312 610.167969 313.035156 610.328125 312.90625 610.515625 C 312.859375 610.585938 312.804688 610.648438 312.769531 610.71875 C 312.628906 610.992188 312.53125 611.289062 312.53125 611.601562 L 312.53125 633.640625 C 312.53125 634.332031 312.902344 634.976562 313.5 635.324219 L 360.648438 662.824219 C 360.679688 662.839844 360.714844 662.835938 360.746094 662.851562 C 361.027344 662.992188 361.324219 663.089844 361.632812 663.089844 C 361.9375 663.089844 362.238281 662.992188 362.519531 662.851562 C 362.550781 662.835938 362.585938 662.839844 362.613281 662.824219 L 409.765625 635.324219 C 410.363281 634.976562 410.730469 634.332031 410.730469 633.640625 L 410.730469 611.601562 C 410.730469 611.289062 410.632812 610.992188 410.496094 610.71875 C 410.457031 610.648438 410.40625 610.585938 410.359375 610.515625 C 410.230469 610.328125 410.070312 610.167969 409.878906 610.035156 C 409.835938 610 409.8125 609.945312 409.765625 609.917969 L 402.761719 605.832031 L 409.765625 601.746094 C 410.363281 601.394531 410.730469 600.753906 410.730469 600.0625 L 410.730469 578.023438 C 410.730469 577.847656 410.667969 577.695312 410.621094 577.535156 C 410.597656 577.449219 410.601562 577.359375 410.566406 577.277344 C 410.449219 577.015625 410.289062 576.777344 410.074219 576.585938 C 410.054688 576.566406 410.046875 576.539062 410.027344 576.519531 L 404 571.53125 L 409.765625 568.167969 C 410.363281 567.820312 410.730469 567.175781 410.730469 566.484375 L 410.730469 532.90625 C 410.730469 532.582031 410.632812 532.292969 410.496094 532.023438 C 410.457031 531.949219 410.40625 531.886719 410.359375 531.820312 Z M 406.832031 565.363281 L 400.800781 568.878906 L 399.003906 569.929688 L 397.210938 570.972656 L 388.46875 576.074219 L 385.121094 578.023438 L 381.777344 579.972656 L 370.105469 586.78125 L 368.167969 587.910156 L 366.234375 589.039062 L 363.582031 590.585938 L 363.582031 561.53125 L 376.621094 553.925781 L 378.414062 552.878906 L 380.210938 551.828125 L 406.832031 536.300781 Z M 406.832031 598.941406 L 398.890625 603.574219 L 395.015625 605.832031 L 388.464844 609.652344 L 385.121094 611.601562 L 381.777344 613.554688 L 363.582031 624.164062 L 363.582031 606.648438 L 380 597.070312 L 381.933594 595.941406 L 383.871094 594.8125 L 406.832031 581.417969 Z M 406.832031 632.519531 L 363.582031 657.742188 L 363.582031 640.226562 L 406.832031 615 Z M 321.695312 530.953125 L 359.679688 508.796875 L 359.679688 510.523438 C 359.679688 511.601562 360.554688 512.472656 361.632812 512.472656 C 362.710938 512.472656 363.582031 511.601562 363.582031 510.523438 L 363.582031 508.796875 L 401.566406 530.953125 L 404.910156 532.90625 L 401.566406 534.855469 L 377.011719 549.179688 L 375.214844 550.226562 L 373.421875 551.277344 L 361.632812 558.152344 L 349.84375 551.277344 L 348.046875 550.226562 L 346.253906 549.179688 L 321.695312 534.855469 L 318.351562 532.90625 Z M 316.433594 536.300781 L 343.050781 551.828125 L 344.847656 552.878906 L 346.644531 553.925781 L 359.679688 561.53125 L 359.679688 590.585938 L 357.03125 589.039062 L 355.09375 587.910156 L 353.160156 586.78125 L 341.484375 579.972656 L 334.796875 576.074219 L 326.054688 570.972656 L 324.257812 569.929688 L 322.460938 568.878906 L 316.433594 565.363281 Z M 316.433594 581.417969 L 339.390625 594.8125 L 341.328125 595.941406 L 343.261719 597.070312 L 359.679688 606.648438 L 359.679688 624.164062 L 341.488281 613.554688 L 338.140625 611.601562 L 334.796875 609.652344 L 328.246094 605.832031 L 326.3125 604.703125 L 324.375 603.574219 L 316.433594 598.941406 Z M 316.433594 632.519531 L 316.433594 615 L 359.679688 640.226562 L 359.679688 657.742188 Z M 340.03125 438.429688 C 339.101562 437.890625 338.785156 436.695312 339.328125 435.765625 C 339.871094 434.832031 341.066406 434.515625 341.996094 435.0625 L 345.800781 437.28125 L 345.800781 432.875 C 345.800781 431.796875 346.675781 430.925781 347.753906 430.925781 C 348.832031 430.925781 349.703125 431.796875 349.703125 432.875 L 349.703125 440.679688 C 349.703125 441.378906 349.328125 442.023438 348.722656 442.371094 C 348.421875 442.542969 348.089844 442.628906 347.753906 442.628906 C 347.414062 442.628906 347.074219 442.539062 346.769531 442.363281 Z M 304.734375 415.585938 C 304.371094 416.207031 303.71875 416.554688 303.050781 416.554688 C 302.714844 416.554688 302.375 416.46875 302.066406 416.285156 L 289.414062 408.90625 C 288.484375 408.363281 288.167969 407.167969 288.714844 406.238281 C 289.253906 405.304688 290.449219 404.996094 291.378906 405.539062 L 304.03125 412.917969 C 304.960938 413.460938 305.277344 414.65625 304.734375 415.585938 Z M 314.722656 423.667969 C 313.792969 423.125 313.476562 421.929688 314.019531 421 C 314.5625 420.070312 315.761719 419.757812 316.6875 420.300781 L 329.339844 427.683594 C 330.269531 428.226562 330.585938 429.417969 330.042969 430.347656 C 329.679688 430.96875 329.027344 431.316406 328.359375 431.316406 C 328.023438 431.316406 327.683594 431.230469 327.375 431.050781 Z M 279.425781 400.820312 C 279.0625 401.441406 278.410156 401.789062 277.742188 401.789062 C 277.40625 401.789062 277.066406 401.703125 276.757812 401.523438 L 264.105469 394.140625 C 263.175781 393.597656 262.859375 392.402344 263.40625 391.472656 C 263.945312 390.542969 265.144531 390.230469 266.070312 390.773438 L 278.722656 398.15625 C 279.652344 398.699219 279.96875 399.890625 279.425781 400.820312 Z M 238.097656 376.710938 C 238.636719 375.777344 239.839844 375.46875 240.765625 376.007812 L 253.421875 383.390625 C 254.351562 383.933594 254.664062 385.128906 254.121094 386.058594 C 253.757812 386.679688 253.109375 387.027344 252.4375 387.027344 C 252.101562 387.027344 251.761719 386.941406 251.453125 386.761719 L 238.796875 379.378906 C 237.867188 378.835938 237.550781 377.644531 238.097656 376.710938 Z M 218.4375 374.1875 L 218.4375 366.382812 C 218.4375 365.683594 218.8125 365.039062 219.417969 364.691406 C 220.027344 364.34375 220.769531 364.347656 221.371094 364.699219 L 228.113281 368.632812 C 229.042969 369.171875 229.359375 370.367188 228.8125 371.296875 C 228.269531 372.226562 227.070312 372.542969 226.144531 372 L 222.339844 369.78125 L 222.339844 374.1875 C 222.339844 375.265625 221.46875 376.136719 220.390625 376.136719 C 219.3125 376.136719 218.4375 375.265625 218.4375 374.1875 Z M 218.535156 430.15625 C 218.496094 430 218.4375 429.851562 218.4375 429.683594 L 218.4375 421.882812 C 218.4375 420.804688 219.3125 419.929688 220.390625 419.929688 C 221.46875 419.929688 222.339844 420.804688 222.339844 421.882812 L 222.339844 429.683594 C 222.339844 429.851562 222.285156 430 222.246094 430.15625 C 222.03125 431 221.300781 431.632812 220.390625 431.632812 C 219.480469 431.632812 218.75 431 218.535156 430.15625 Z M 379.34375 467.109375 C 378.671875 467.109375 378.019531 466.765625 377.660156 466.144531 C 377.113281 465.210938 377.429688 464.015625 378.359375 463.472656 L 389.332031 457.074219 C 390.257812 456.535156 391.453125 456.84375 392 457.777344 C 392.542969 458.707031 392.226562 459.902344 391.296875 460.445312 L 380.324219 466.847656 C 380.015625 467.023438 379.679688 467.109375 379.34375 467.109375 Z M 359.679688 483.292969 L 359.679688 475.492188 C 359.679688 474.796875 360.050781 474.15625 360.648438 473.808594 L 367.386719 469.875 C 368.3125 469.328125 369.511719 469.644531 370.054688 470.578125 C 370.601562 471.507812 370.285156 472.703125 369.355469 473.246094 L 363.582031 476.613281 L 363.582031 483.292969 C 363.582031 484.371094 362.710938 485.246094 361.632812 485.246094 C 360.554688 485.246094 359.679688 484.371094 359.679688 483.292969 Z M 359.972656 532.90625 C 359.804688 532.617188 359.679688 532.296875 359.679688 531.9375 L 359.679688 524.136719 C 359.679688 523.058594 360.554688 522.183594 361.632812 522.183594 C 362.710938 522.183594 363.582031 523.058594 363.582031 524.136719 L 363.582031 531.9375 C 363.582031 532.296875 363.457031 532.617188 363.289062 532.90625 C 362.949219 533.480469 362.351562 533.886719 361.632812 533.886719 C 360.914062 533.886719 360.3125 533.480469 359.972656 532.90625 Z M 479.105469 501.929688 L 479.105469 485.675781 C 479.105469 484.597656 479.976562 483.726562 481.054688 483.726562 C 482.132812 483.726562 483.007812 484.597656 483.007812 485.675781 L 483.007812 501.929688 C 483.007812 503.007812 482.132812 503.878906 481.054688 503.878906 C 479.976562 503.878906 479.105469 503.007812 479.105469 501.929688 Z M 479.105469 518.183594 C 479.105469 517.105469 479.976562 516.234375 481.054688 516.234375 C 482.132812 516.234375 483.007812 517.105469 483.007812 518.183594 L 483.007812 524.867188 L 488.777344 528.234375 C 489.707031 528.773438 490.023438 529.972656 489.480469 530.902344 C 489.117188 531.523438 488.464844 531.867188 487.792969 531.867188 C 487.460938 531.867188 487.121094 531.78125 486.8125 531.601562 L 480.074219 527.671875 C 479.472656 527.320312 479.105469 526.679688 479.105469 525.988281 Z M 498.40625 538.363281 C 497.476562 537.820312 497.160156 536.628906 497.703125 535.695312 C 498.246094 534.761719 499.441406 534.453125 500.371094 534.992188 L 511.964844 541.753906 C 512.894531 542.296875 513.210938 543.492188 512.664062 544.421875 C 512.304688 545.042969 511.652344 545.390625 510.980469 545.390625 C 510.644531 545.390625 510.304688 545.304688 509.996094 545.125 Z M 531.261719 561.9375 C 531.261719 563.015625 530.386719 563.886719 529.308594 563.886719 C 528.230469 563.886719 527.359375 563.015625 527.359375 561.9375 L 527.359375 555.253906 L 521.585938 551.886719 C 520.65625 551.347656 520.339844 550.148438 520.886719 549.21875 C 521.425781 548.289062 522.625 547.972656 523.554688 548.519531 L 530.292969 552.449219 C 530.890625 552.800781 531.261719 553.441406 531.261719 554.132812 Z M 531.261719 578.585938 L 531.261719 595.234375 C 531.261719 596.3125 530.386719 597.183594 529.308594 597.183594 C 528.230469 597.183594 527.359375 596.3125 527.359375 595.234375 L 527.359375 578.585938 C 527.359375 577.507812 528.230469 576.636719 529.308594 576.636719 C 530.386719 576.636719 531.261719 577.507812 531.261719 578.585938 Z M 608.949219 537.148438 C 610.027344 537.148438 610.898438 538.019531 610.898438 539.097656 L 610.898438 554.5625 C 610.898438 555.640625 610.027344 556.515625 608.949219 556.515625 C 607.871094 556.515625 606.996094 555.640625 606.996094 554.5625 L 606.996094 539.097656 C 606.996094 538.019531 607.871094 537.148438 608.949219 537.148438 Z M 617.371094 582.742188 C 617.007812 583.363281 616.359375 583.710938 615.6875 583.710938 C 615.351562 583.710938 615.011719 583.625 614.703125 583.445312 L 607.964844 579.515625 C 607.367188 579.167969 606.996094 578.523438 606.996094 577.832031 L 606.996094 570.027344 C 606.996094 568.949219 607.871094 568.078125 608.949219 568.078125 C 610.027344 568.078125 610.898438 568.949219 610.898438 570.027344 L 610.898438 576.710938 L 616.671875 580.074219 C 617.601562 580.617188 617.917969 581.8125 617.371094 582.742188 Z M 637.585938 596.792969 L 626.144531 590.121094 C 625.214844 589.578125 624.898438 588.382812 625.445312 587.453125 C 625.984375 586.519531 627.183594 586.210938 628.109375 586.75 L 639.550781 593.421875 C 640.480469 593.964844 640.796875 595.160156 640.253906 596.089844 C 639.890625 596.710938 639.238281 597.058594 638.570312 597.058594 C 638.234375 597.058594 637.894531 596.972656 637.585938 596.792969 Z M 662.429688 606.769531 C 663.359375 607.3125 663.675781 608.507812 663.128906 609.4375 C 662.769531 610.058594 662.117188 610.40625 661.445312 610.40625 C 661.109375 610.40625 660.773438 610.320312 660.464844 610.136719 L 649.027344 603.464844 C 648.097656 602.921875 647.78125 601.726562 648.324219 600.796875 C 648.867188 599.863281 650.066406 599.554688 650.992188 600.097656 Z M 677.675781 626.859375 L 677.675781 620.179688 L 671.902344 616.8125 C 670.972656 616.269531 670.65625 615.078125 671.203125 614.144531 C 671.742188 613.210938 672.941406 612.902344 673.871094 613.441406 L 680.609375 617.371094 C 681.207031 617.722656 681.578125 618.363281 681.578125 619.058594 L 681.578125 626.859375 C 681.578125 627.9375 680.703125 628.8125 679.625 628.8125 C 678.546875 628.8125 677.675781 627.9375 677.675781 626.859375 Z M 677.675781 669.207031 L 677.675781 661.40625 C 677.675781 660.328125 678.546875 659.453125 679.625 659.453125 C 680.703125 659.453125 681.578125 660.328125 681.578125 661.40625 L 681.578125 669.207031 C 681.578125 670.285156 680.703125 671.15625 679.625 671.15625 C 678.546875 671.15625 677.675781 670.285156 677.675781 669.207031 Z M 615.785156 531.992188 L 675.003906 497.835938 C 691.152344 490.023438 700.238281 469.625 699.929688 441.867188 C 699.398438 394.113281 670.628906 338.84375 635.800781 318.660156 L 627.824219 314.042969 C 626.910156 260.871094 594.792969 199.519531 555.859375 176.828125 C 542.007812 168.753906 528.554688 166.246094 516.816406 169.519531 C 501.011719 139.703125 480.242188 116.269531 458.21875 103.417969 C 438.125 91.699219 418.53125 89.953125 402.984375 98.496094 C 402.867188 98.535156 402.757812 98.589844 402.648438 98.652344 L 336.054688 137.878906 C 336.03125 137.890625 336.027344 137.914062 336.003906 137.929688 C 335.703125 138.09375 335.390625 138.234375 335.089844 138.410156 C 317.402344 148.585938 306.730469 171.296875 305.25 201.316406 L 282.242188 214.742188 C 282.03125 214.863281 281.910156 215.0625 281.765625 215.242188 C 280.46875 216.070312 279.199219 216.953125 277.988281 217.96875 C 266.222656 227.84375 259.746094 245.835938 259.746094 268.632812 C 259.746094 316.949219 288.84375 372.945312 324.609375 393.453125 L 345.800781 405.605469 L 345.800781 414.433594 C 345.800781 415.511719 346.675781 416.382812 347.753906 416.382812 C 348.832031 416.382812 349.703125 415.511719 349.703125 414.433594 L 349.703125 407.84375 L 406.160156 440.21875 C 406.132812 440.351562 406.078125 440.480469 406.078125 440.625 L 406.078125 447.308594 L 400.308594 450.671875 C 399.378906 451.214844 399.0625 452.410156 399.605469 453.339844 C 399.96875 453.960938 400.621094 454.308594 401.289062 454.308594 C 401.625 454.308594 401.964844 454.222656 402.273438 454.042969 L 409.011719 450.113281 C 409.613281 449.761719 409.980469 449.121094 409.980469 448.429688 L 409.980469 442.40625 L 568.285156 533.183594 C 576.917969 538.132812 585.414062 540.625 593.28125 540.625 C 599.363281 540.625 605.074219 539.136719 610.175781 536.140625 C 612.171875 534.96875 614.035156 533.570312 615.785156 531.992188 Z M 349.703125 403.347656 L 345.800781 401.109375 L 326.550781 390.070312 C 291.863281 370.183594 263.644531 315.703125 263.644531 268.632812 C 263.644531 247.011719 269.628906 230.078125 280.5 220.953125 C 280.863281 220.648438 281.242188 220.382812 281.617188 220.097656 C 282.214844 219.636719 282.828125 219.199219 283.449219 218.789062 C 284.058594 218.390625 284.671875 218.003906 285.300781 217.65625 C 289.820312 215.132812 294.878906 213.832031 300.300781 213.832031 C 302.394531 213.832031 304.542969 214.023438 306.734375 214.410156 C 307.324219 214.503906 307.898438 214.347656 308.34375 213.964844 C 308.785156 213.585938 309.039062 213.023438 309.023438 212.4375 L 309 211.648438 C 308.976562 210.707031 308.949219 209.765625 308.949219 208.828125 C 308.949219 207.0625 308.988281 205.332031 309.046875 203.613281 C 309.074219 202.832031 309.117188 202.0625 309.15625 201.289062 C 309.195312 200.503906 309.246094 199.726562 309.296875 198.953125 C 311.097656 172.527344 320.359375 152.488281 335.398438 142.839844 C 335.941406 142.488281 336.472656 142.113281 337.03125 141.789062 C 337.101562 141.75 337.175781 141.71875 337.25 141.675781 C 337.859375 141.328125 338.488281 141.011719 339.113281 140.703125 C 353.191406 133.703125 370.824219 135.644531 389.109375 146.308594 C 410.859375 159 431.40625 182.425781 446.96875 212.277344 C 447.40625 213.125 448.398438 213.53125 449.308594 213.230469 C 460.316406 209.609375 473.261719 211.859375 486.746094 219.71875 C 524.90625 241.957031 556.328125 302.511719 556.792969 354.710938 C 556.800781 355.402344 557.167969 356.039062 557.765625 356.382812 L 566.699219 361.558594 C 600.472656 381.128906 628.367188 434.902344 628.882812 481.429688 C 629.113281 502.046875 623.910156 518.441406 614.417969 527.90625 C 613.949219 528.378906 613.480469 528.855469 612.988281 529.292969 C 612.472656 529.746094 611.933594 530.15625 611.398438 530.570312 C 610.367188 531.371094 609.3125 532.121094 608.203125 532.773438 C 597.761719 538.910156 584.273438 537.851562 570.230469 529.800781 Z M 305.105469 205.914062 C 305.085938 206.886719 305.046875 207.84375 305.050781 208.832031 C 305.050781 209.292969 305.058594 209.753906 305.066406 210.21875 C 302.6875 209.929688 300.363281 209.875 298.089844 210.007812 Z M 404.605469 102.058594 C 418.945312 94.042969 437.28125 95.722656 456.253906 106.789062 C 478.003906 119.476562 498.550781 142.90625 514.113281 172.753906 C 514.550781 173.601562 515.535156 174.007812 516.453125 173.707031 C 527.453125 170.089844 540.40625 172.339844 553.894531 180.199219 C 592.046875 202.433594 623.46875 262.992188 623.9375 315.191406 C 623.945312 315.882812 624.316406 316.519531 624.910156 316.863281 L 633.839844 322.035156 C 667.613281 341.605469 695.507812 395.378906 696.027344 441.910156 C 696.316406 468.09375 688.035156 487.195312 673.179688 494.386719 L 622.957031 523.351562 C 629.488281 512.988281 632.976562 498.539062 632.785156 481.390625 C 632.488281 454.722656 623.378906 425.726562 609.332031 401.792969 C 608.578125 400.507812 607.78125 399.277344 606.996094 398.023438 C 596.261719 380.792969 582.992188 366.492188 568.65625 358.183594 L 560.679688 353.5625 C 559.769531 300.394531 527.652344 239.042969 488.710938 216.347656 C 474.859375 208.277344 461.414062 205.773438 449.675781 209.042969 C 433.867188 179.226562 413.101562 155.792969 391.074219 142.941406 C 377.472656 135.007812 364.128906 131.664062 352.109375 132.949219 L 404.359375 102.171875 C 404.441406 102.140625 404.527344 102.101562 404.605469 102.058594 Z M 404.605469 102.058594 " fill-opacity="1" fill-rule="nonzero"/></g></svg>