<svg xmlns="http://www.w3.org/2000/svg" xmlns:xlink="http://www.w3.org/1999/xlink" width="500" zoomAndPan="magnify" viewBox="0 0 375 374.999991" height="500" preserveAspectRatio="xMidYMid meet" version="1.0"><defs><clipPath id="1640fc4f2b"><path d="M 0 0 L 375 0 L 375 375 L 0 375 Z M 0 0 " clip-rule="nonzero"/></clipPath><clipPath id="153b341bfb"><rect x="0" width="375" y="0" height="375"/></clipPath><clipPath id="f0898e0f5f"><path d="M 240 198 L 350.792969 198 L 350.792969 238 L 240 238 Z M 240 198 " clip-rule="nonzero"/></clipPath><clipPath id="4232f0670e"><path d="M 189 249 L 216 249 L 216 344.25 L 189 344.25 Z M 189 249 " clip-rule="nonzero"/></clipPath><clipPath id="57799283dc"><path d="M 189 37.5 L 216 37.5 L 216 133 L 189 133 Z M 189 37.5 " clip-rule="nonzero"/></clipPath><clipPath id="c23abed978"><path d="M 48 37.5 L 216 37.5 L 216 344.25 L 48 344.25 Z M 48 37.5 " clip-rule="nonzero"/></clipPath></defs><rect x="-37.5" width="450" fill="#ffffff" y="-37.499999" height="449.999989" fill-opacity="1"/><rect x="-37.5" width="450" fill="#ffffff" y="-37.499999" height="449.999989" fill-opacity="1"/><g transform="matrix(1, 0, 0, 1, 0, 0)"><g clip-path="url(#153b341bfb)"><g clip-path="url(#1640fc4f2b)"><rect x="-82.5" width="540" fill="#ffffff" height="539.999987" y="-82.499998" fill-opacity="1"/></g></g></g><path fill="#ff6600" d="M 268.363281 68.78125 L 268.363281 75.695312 C 273.007812 76.421875 277.285156 78.257812 280.9375 80.902344 L 285.824219 76.015625 L 292.296875 82.492188 L 287.410156 87.382812 C 290.066406 91.023438 291.890625 95.308594 292.628906 99.949219 L 299.539062 99.949219 L 299.539062 109.105469 L 292.628906 109.105469 C 291.894531 113.75 290.066406 118.035156 287.410156 121.679688 L 292.296875 126.566406 L 285.824219 133.042969 L 280.9375 128.148438 C 277.289062 130.804688 273.011719 132.636719 268.363281 133.367188 L 268.363281 140.277344 L 259.207031 140.277344 L 259.207031 133.367188 C 254.566406 132.640625 250.285156 130.804688 246.640625 128.15625 L 241.742188 133.042969 L 235.273438 126.566406 L 240.160156 121.679688 C 237.515625 118.039062 235.679688 113.75 234.953125 109.105469 L 228.039062 109.105469 L 228.039062 99.949219 L 234.953125 99.949219 C 235.679688 95.308594 237.515625 91.027344 240.160156 87.382812 L 235.273438 82.492188 L 241.742188 76.015625 L 246.640625 80.902344 C 250.28125 78.257812 254.566406 76.421875 259.207031 75.695312 L 259.207031 68.78125 L 268.363281 68.78125 M 263.785156 125.144531 C 275.167969 125.144531 284.398438 115.917969 284.398438 104.53125 C 284.398438 93.144531 275.171875 83.90625 263.785156 83.90625 C 252.398438 83.90625 243.160156 93.136719 243.160156 104.53125 C 243.160156 115.921875 252.394531 125.144531 263.785156 125.144531 M 272.738281 64.402344 L 254.824219 64.402344 L 254.824219 72.167969 C 252.183594 72.902344 249.628906 73.960938 247.238281 75.3125 L 244.832031 72.914062 L 241.734375 69.820312 L 238.636719 72.917969 L 232.167969 79.394531 L 229.074219 82.488281 L 232.171875 85.585938 L 234.566406 87.984375 C 233.214844 90.375 232.15625 92.925781 231.421875 95.566406 L 223.65625 95.566406 L 223.65625 113.480469 L 231.421875 113.480469 C 232.15625 116.121094 233.214844 118.679688 234.566406 121.070312 L 232.171875 123.46875 L 229.074219 126.5625 L 232.167969 129.65625 L 238.636719 136.136719 L 241.734375 139.230469 L 244.832031 136.140625 L 247.238281 133.738281 C 249.628906 135.09375 252.183594 136.152344 254.824219 136.882812 L 254.824219 144.648438 L 272.738281 144.648438 L 272.738281 136.882812 C 275.378906 136.152344 277.933594 135.089844 280.328125 133.734375 L 282.722656 136.132812 L 285.820312 139.234375 L 288.917969 136.132812 L 295.394531 129.65625 L 298.484375 126.558594 L 292.996094 121.070312 C 294.347656 118.683594 295.410156 116.125 296.144531 113.476562 L 303.914062 113.476562 L 303.914062 95.5625 L 296.144531 95.5625 C 295.410156 92.914062 294.347656 90.363281 292.996094 87.976562 L 295.390625 85.582031 L 298.484375 82.484375 L 295.394531 79.390625 L 288.917969 72.914062 L 285.824219 69.8125 L 282.726562 72.914062 L 280.328125 75.3125 C 277.933594 73.953125 275.375 72.898438 272.738281 72.160156 L 272.738281 64.394531 Z M 263.785156 120.765625 C 254.828125 120.765625 247.539062 113.484375 247.539062 104.53125 C 247.539062 95.578125 254.828125 88.285156 263.785156 88.285156 C 272.742188 88.285156 280.019531 95.574219 280.019531 104.53125 C 280.019531 113.488281 272.738281 120.765625 263.785156 120.765625 Z M 263.785156 120.765625 " fill-opacity="1" fill-rule="nonzero"/><path fill="#ff6600" d="M 268.363281 241.246094 L 268.363281 248.15625 C 273.007812 248.886719 277.285156 250.71875 280.9375 253.367188 L 285.824219 248.480469 L 292.296875 254.957031 L 287.410156 259.84375 C 290.066406 263.484375 291.890625 267.773438 292.628906 272.410156 L 299.539062 272.410156 L 299.539062 281.566406 L 292.628906 281.566406 C 291.894531 286.214844 290.066406 290.496094 287.410156 294.140625 L 292.296875 299.03125 L 285.824219 305.507812 L 280.9375 300.613281 C 277.289062 303.265625 273.011719 305.097656 268.363281 305.828125 L 268.363281 312.742188 L 259.207031 312.742188 L 259.207031 305.828125 C 254.566406 305.101562 250.285156 303.265625 246.640625 300.621094 L 241.742188 305.507812 L 235.273438 299.03125 L 240.160156 294.140625 C 237.515625 290.5 235.679688 286.214844 234.953125 281.566406 L 228.039062 281.566406 L 228.039062 272.410156 L 234.953125 272.410156 C 235.679688 267.773438 237.515625 263.488281 240.160156 259.84375 L 235.273438 254.957031 L 241.742188 248.480469 L 246.640625 253.367188 C 250.28125 250.71875 254.566406 248.886719 259.207031 248.15625 L 259.207031 241.246094 L 268.363281 241.246094 M 263.785156 297.613281 C 275.167969 297.613281 284.398438 288.382812 284.398438 276.996094 C 284.398438 265.609375 275.171875 256.375 263.785156 256.375 C 252.398438 256.375 243.160156 265.605469 243.160156 276.996094 C 243.160156 288.390625 252.394531 297.613281 263.785156 297.613281 M 272.738281 236.871094 L 254.824219 236.871094 L 254.824219 244.636719 C 252.183594 245.367188 249.628906 246.429688 247.238281 247.78125 L 244.832031 245.378906 L 241.734375 242.289062 L 238.636719 245.382812 L 232.167969 251.863281 L 229.074219 254.957031 L 232.171875 258.050781 L 234.566406 260.449219 C 233.214844 262.839844 232.15625 265.394531 231.421875 268.03125 L 223.65625 268.03125 L 223.65625 285.945312 L 231.421875 285.945312 C 232.15625 288.589844 233.214844 291.144531 234.566406 293.535156 L 232.171875 295.933594 L 229.074219 299.03125 L 232.167969 302.125 L 238.636719 308.601562 L 241.734375 311.699219 L 244.832031 308.605469 L 247.238281 306.207031 C 249.628906 307.5625 252.183594 308.617188 254.824219 309.351562 L 254.824219 317.117188 L 272.738281 317.117188 L 272.738281 309.351562 C 275.378906 308.617188 277.933594 307.558594 280.328125 306.203125 L 282.722656 308.601562 L 285.820312 311.703125 L 288.917969 308.601562 L 295.394531 302.121094 L 298.484375 299.027344 L 295.390625 295.929688 L 292.996094 293.535156 C 294.347656 291.148438 295.410156 288.59375 296.144531 285.941406 L 303.914062 285.941406 L 303.914062 268.027344 L 296.144531 268.027344 C 295.410156 265.382812 294.347656 262.828125 292.996094 260.441406 L 298.484375 254.953125 L 295.394531 251.859375 L 288.917969 245.378906 L 285.824219 242.28125 L 280.328125 247.777344 C 277.933594 246.421875 275.375 245.363281 272.738281 244.628906 L 272.738281 236.863281 Z M 263.785156 293.234375 C 254.828125 293.234375 247.539062 285.949219 247.539062 276.996094 C 247.539062 268.042969 254.828125 260.753906 263.785156 260.753906 C 272.742188 260.753906 280.019531 268.039062 280.019531 276.996094 C 280.019531 285.953125 272.738281 293.234375 263.785156 293.234375 Z M 263.785156 293.234375 " fill-opacity="1" fill-rule="nonzero"/><path fill="#ff6600" d="M 190.859375 135.839844 C 189.648438 135.839844 188.671875 136.785156 188.671875 137.945312 L 188.671875 150.339844 C 188.671875 151.5 189.652344 152.441406 190.859375 152.441406 C 192.066406 152.441406 193.046875 151.5 193.046875 150.339844 L 193.046875 137.945312 C 193.046875 136.785156 192.066406 135.839844 190.859375 135.839844 Z M 190.859375 135.839844 " fill-opacity="1" fill-rule="nonzero"/><path fill="#ff6600" d="M 220.222656 135.839844 C 219.011719 135.839844 218.035156 136.785156 218.035156 137.945312 L 218.035156 150.339844 C 218.035156 151.5 219.015625 152.441406 220.222656 152.441406 C 221.429688 152.441406 222.410156 151.5 222.410156 150.339844 L 222.410156 137.945312 C 222.410156 136.785156 221.429688 135.839844 220.222656 135.839844 Z M 220.222656 135.839844 " fill-opacity="1" fill-rule="nonzero"/><path fill="#ff6600" d="M 210.4375 135.839844 C 209.226562 135.839844 208.25 136.785156 208.25 137.945312 L 208.25 150.339844 C 208.25 151.5 209.230469 152.441406 210.4375 152.441406 C 211.644531 152.441406 212.625 151.5 212.625 150.339844 L 212.625 137.945312 C 212.625 136.785156 211.644531 135.839844 210.4375 135.839844 Z M 210.4375 135.839844 " fill-opacity="1" fill-rule="nonzero"/><path fill="#ff6600" d="M 200.648438 135.839844 C 199.4375 135.839844 198.460938 136.785156 198.460938 137.945312 L 198.460938 150.339844 C 198.460938 151.5 199.441406 152.441406 200.648438 152.441406 C 201.855469 152.441406 202.835938 151.5 202.835938 150.339844 L 202.835938 137.945312 C 202.835938 136.785156 201.855469 135.839844 200.648438 135.839844 Z M 200.648438 135.839844 " fill-opacity="1" fill-rule="nonzero"/><path fill="#ff6600" d="M 190.859375 229.847656 C 189.648438 229.847656 188.671875 230.789062 188.671875 231.953125 L 188.671875 244.34375 C 188.671875 245.503906 189.652344 246.449219 190.859375 246.449219 C 192.066406 246.449219 193.046875 245.503906 193.046875 244.34375 L 193.046875 231.953125 C 193.046875 230.789062 192.066406 229.847656 190.859375 229.847656 Z M 190.859375 229.847656 " fill-opacity="1" fill-rule="nonzero"/><path fill="#ff6600" d="M 220.222656 229.847656 C 219.011719 229.847656 218.035156 230.789062 218.035156 231.953125 L 218.035156 244.34375 C 218.035156 245.503906 219.015625 246.449219 220.222656 246.449219 C 221.429688 246.449219 222.410156 245.503906 222.410156 244.34375 L 222.410156 231.953125 C 222.410156 230.789062 221.429688 229.847656 220.222656 229.847656 Z M 220.222656 229.847656 " fill-opacity="1" fill-rule="nonzero"/><path fill="#ff6600" d="M 210.4375 229.847656 C 209.226562 229.847656 208.25 230.789062 208.25 231.953125 L 208.25 244.34375 C 208.25 245.503906 209.230469 246.449219 210.4375 246.449219 C 211.644531 246.449219 212.625 245.503906 212.625 244.34375 L 212.625 231.953125 C 212.625 230.789062 211.644531 229.847656 210.4375 229.847656 Z M 210.4375 229.847656 " fill-opacity="1" fill-rule="nonzero"/><path fill="#ff6600" d="M 200.648438 229.847656 C 199.4375 229.847656 198.460938 230.789062 198.460938 231.953125 L 198.460938 244.34375 C 198.460938 245.503906 199.441406 246.449219 200.648438 246.449219 C 201.855469 246.449219 202.835938 245.503906 202.835938 244.34375 L 202.835938 231.953125 C 202.835938 230.789062 201.855469 229.847656 200.648438 229.847656 Z M 200.648438 229.847656 " fill-opacity="1" fill-rule="nonzero"/><path fill="#ff6600" d="M 219.832031 223.28125 C 219.832031 224.492188 220.773438 225.46875 221.933594 225.46875 L 234.328125 225.46875 C 235.488281 225.46875 236.429688 224.488281 236.429688 223.28125 C 236.429688 222.074219 235.488281 221.09375 234.328125 221.09375 L 221.933594 221.09375 C 220.773438 221.09375 219.832031 222.074219 219.832031 223.28125 Z M 219.832031 223.28125 " fill-opacity="1" fill-rule="nonzero"/><path fill="#ff6600" d="M 219.480469 158.414062 C 219.480469 159.625 220.425781 160.601562 221.585938 160.601562 L 233.976562 160.601562 C 235.140625 160.601562 236.082031 159.621094 236.082031 158.414062 C 236.082031 157.207031 235.140625 156.226562 233.976562 156.226562 L 221.585938 156.226562 C 220.425781 156.226562 219.480469 157.207031 219.480469 158.414062 Z M 219.480469 158.414062 " fill-opacity="1" fill-rule="nonzero"/><path fill="#ff6600" d="M 219.734375 167.679688 C 219.734375 168.890625 220.675781 169.867188 221.835938 169.867188 L 234.230469 169.867188 C 235.390625 169.867188 236.335938 168.886719 236.335938 167.679688 C 236.335938 166.476562 235.390625 165.492188 234.230469 165.492188 L 221.835938 165.492188 C 220.675781 165.492188 219.734375 166.476562 219.734375 167.679688 Z M 219.734375 167.679688 " fill-opacity="1" fill-rule="nonzero"/><path fill="#ff6600" d="M 219.734375 176.949219 C 219.734375 178.160156 220.675781 179.136719 221.835938 179.136719 L 234.230469 179.136719 C 235.390625 179.136719 236.335938 178.15625 236.335938 176.949219 C 236.335938 175.742188 235.390625 174.761719 234.230469 174.761719 L 221.835938 174.761719 C 220.675781 174.761719 219.734375 175.742188 219.734375 176.949219 Z M 219.734375 176.949219 " fill-opacity="1" fill-rule="nonzero"/><path fill="#ff6600" d="M 219.734375 186.214844 C 219.734375 187.425781 220.675781 188.402344 221.835938 188.402344 L 234.230469 188.402344 C 235.390625 188.402344 236.335938 187.421875 236.335938 186.214844 C 236.335938 185.007812 235.390625 184.027344 234.230469 184.027344 L 221.835938 184.027344 C 220.675781 184.027344 219.734375 185.007812 219.734375 186.214844 Z M 219.734375 186.214844 " fill-opacity="1" fill-rule="nonzero"/><path fill="#ff6600" d="M 219.734375 195.484375 C 219.734375 196.695312 220.675781 197.671875 221.835938 197.671875 L 234.230469 197.671875 C 235.390625 197.671875 236.335938 196.691406 236.335938 195.484375 C 236.335938 194.277344 235.390625 193.296875 234.230469 193.296875 L 221.835938 193.296875 C 220.675781 193.296875 219.734375 194.277344 219.734375 195.484375 Z M 219.734375 195.484375 " fill-opacity="1" fill-rule="nonzero"/><path fill="#ff6600" d="M 219.734375 204.746094 C 219.734375 205.957031 220.675781 206.933594 221.835938 206.933594 L 234.230469 206.933594 C 235.390625 206.933594 236.335938 205.953125 236.335938 204.746094 C 236.335938 203.539062 235.390625 202.558594 234.230469 202.558594 L 221.835938 202.558594 C 220.675781 202.558594 219.734375 203.539062 219.734375 204.746094 Z M 219.734375 204.746094 " fill-opacity="1" fill-rule="nonzero"/><path fill="#ff6600" d="M 219.734375 214.015625 C 219.734375 215.226562 220.675781 216.203125 221.835938 216.203125 L 234.230469 216.203125 C 235.390625 216.203125 236.335938 215.222656 236.335938 214.015625 C 236.335938 212.808594 235.390625 211.828125 234.230469 211.828125 L 221.835938 211.828125 C 220.675781 211.828125 219.734375 212.808594 219.734375 214.015625 Z M 219.734375 214.015625 " fill-opacity="1" fill-rule="nonzero"/><path fill="#ff6600" d="M 340.417969 128.660156 C 336.378906 128.660156 332.984375 131.421875 331.988281 135.148438 L 302.457031 135.148438 C 301.90625 135.148438 301.378906 135.355469 300.972656 135.730469 C 298.40625 138.105469 292.050781 144.164062 285.90625 150.023438 C 280.226562 155.4375 274.371094 161.023438 271.511719 163.691406 L 242.371094 163.660156 C 241.164062 163.660156 240.183594 164.636719 240.183594 165.847656 C 240.183594 167.058594 241.160156 168.039062 242.371094 168.039062 L 272.375 168.070312 C 272.925781 168.070312 273.453125 167.863281 273.859375 167.484375 C 276.425781 165.109375 282.78125 159.054688 288.925781 153.191406 C 294.609375 147.777344 300.464844 142.195312 303.320312 139.527344 L 331.957031 139.527344 C 332.910156 143.316406 336.335938 146.132812 340.417969 146.132812 C 345.234375 146.132812 349.152344 142.210938 349.152344 137.398438 C 349.152344 132.582031 345.234375 128.660156 340.417969 128.660156 Z M 340.417969 141.75 C 338.011719 141.75 336.0625 139.800781 336.0625 137.394531 C 336.0625 134.988281 338.011719 133.039062 340.417969 133.039062 C 342.824219 133.039062 344.773438 134.988281 344.773438 137.394531 C 344.773438 139.800781 342.824219 141.75 340.417969 141.75 Z M 340.417969 141.75 " fill-opacity="1" fill-rule="nonzero"/><path fill="#ff6600" d="M 318.476562 235.398438 C 314.417969 235.398438 311.003906 238.183594 310.03125 241.941406 L 298.058594 241.941406 C 295.078125 239.167969 288.332031 232.78125 281.789062 226.59375 C 274.730469 219.914062 267.421875 213.003906 264.859375 210.632812 C 264.453125 210.257812 263.925781 210.050781 263.375 210.050781 L 242.363281 210.078125 C 241.152344 210.078125 240.175781 211.066406 240.175781 212.269531 C 240.175781 213.476562 241.15625 214.457031 242.363281 214.457031 L 262.511719 214.433594 C 265.488281 217.207031 272.234375 223.589844 278.773438 229.777344 C 285.835938 236.460938 293.140625 243.371094 295.703125 245.742188 C 296.109375 246.117188 296.640625 246.324219 297.191406 246.324219 L 310.023438 246.324219 C 311.003906 250.082031 314.410156 252.867188 318.46875 252.867188 C 323.285156 252.867188 327.203125 248.949219 327.203125 244.132812 C 327.203125 239.320312 323.285156 235.398438 318.46875 235.398438 Z M 318.476562 248.488281 C 316.070312 248.488281 314.121094 246.535156 314.121094 244.128906 C 314.121094 241.722656 316.070312 239.773438 318.476562 239.773438 C 320.882812 239.773438 322.832031 241.722656 322.832031 244.128906 C 322.832031 246.535156 320.882812 248.488281 318.476562 248.488281 Z M 318.476562 248.488281 " fill-opacity="1" fill-rule="nonzero"/><g clip-path="url(#f0898e0f5f)"><path fill="#ff6600" d="M 342.191406 220.125 C 338.128906 220.125 334.714844 222.914062 333.742188 226.675781 C 333.71875 226.675781 333.695312 226.667969 333.671875 226.667969 L 307.414062 226.667969 C 304.558594 224.003906 298.695312 218.417969 293.019531 213.003906 C 286.875 207.144531 280.519531 201.085938 277.953125 198.710938 C 277.546875 198.332031 277.015625 198.128906 276.464844 198.128906 C 272.789062 198.128906 266.101562 198.136719 259.417969 198.140625 C 252.730469 198.144531 246.042969 198.152344 242.367188 198.15625 C 241.15625 198.15625 240.179688 199.140625 240.179688 200.347656 C 240.179688 201.554688 241.160156 202.535156 242.367188 202.535156 C 246.042969 202.53125 252.730469 202.523438 259.417969 202.519531 C 265.613281 202.515625 271.800781 202.511719 275.601562 202.507812 C 278.460938 205.171875 284.320312 210.757812 289.996094 216.171875 C 296.140625 222.027344 302.496094 228.089844 305.0625 230.464844 C 305.46875 230.839844 306 231.046875 306.550781 231.046875 L 333.667969 231.046875 C 333.695312 231.046875 333.714844 231.039062 333.738281 231.039062 C 334.710938 234.800781 338.125 237.589844 342.1875 237.589844 C 347.003906 237.589844 350.921875 233.671875 350.921875 228.855469 C 350.921875 224.039062 347.003906 220.121094 342.1875 220.121094 Z M 342.191406 233.210938 C 339.785156 233.210938 337.835938 231.261719 337.835938 228.855469 C 337.835938 226.449219 339.785156 224.5 342.191406 224.5 C 344.597656 224.5 346.546875 226.449219 346.546875 228.855469 C 346.546875 231.261719 344.597656 233.210938 342.191406 233.210938 Z M 342.191406 233.210938 " fill-opacity="1" fill-rule="nonzero"/></g><path fill="#ff6600" d="M 319.261719 200.066406 C 316.871094 200.066406 314.707031 201.03125 313.128906 202.589844 L 296.996094 187.273438 C 296.589844 186.886719 296.050781 186.671875 295.488281 186.671875 L 242.371094 186.703125 C 241.164062 186.703125 240.183594 187.683594 240.183594 188.894531 C 240.183594 190.105469 241.164062 191.082031 242.371094 191.082031 L 294.617188 191.050781 L 310.855469 206.472656 C 310.648438 207.214844 310.53125 207.996094 310.53125 208.804688 C 310.53125 213.621094 314.449219 217.539062 319.265625 217.539062 C 324.082031 217.539062 328 213.621094 328 208.804688 C 328 203.988281 324.082031 200.070312 319.265625 200.070312 Z M 319.261719 213.152344 C 316.855469 213.152344 314.90625 211.203125 314.90625 208.796875 C 314.90625 206.390625 316.855469 204.441406 319.261719 204.441406 C 321.667969 204.441406 323.617188 206.390625 323.617188 208.796875 C 323.617188 211.203125 321.667969 213.152344 319.261719 213.152344 Z M 319.261719 213.152344 " fill-opacity="1" fill-rule="nonzero"/><path fill="#ff6600" d="M 333.019531 158.921875 C 328.921875 158.921875 325.484375 161.761719 324.546875 165.574219 L 297.800781 165.574219 C 297.25 165.574219 296.71875 165.78125 296.3125 166.15625 C 293.726562 168.546875 292.355469 169.914062 291.03125 171.238281 C 289.84375 172.421875 288.621094 173.640625 286.492188 175.625 C 282.347656 175.621094 273.605469 175.617188 264.859375 175.609375 C 255.457031 175.605469 246.050781 175.597656 242.371094 175.59375 C 241.164062 175.59375 240.183594 176.570312 240.183594 177.78125 C 240.183594 178.992188 241.160156 179.972656 242.371094 179.972656 C 246.046875 179.976562 255.457031 179.984375 264.863281 179.988281 C 274.269531 179.992188 283.675781 180 287.351562 180.003906 C 287.90625 180.003906 288.433594 179.796875 288.839844 179.417969 C 291.425781 177.027344 292.796875 175.660156 294.121094 174.339844 C 295.308594 173.15625 296.53125 171.9375 298.664062 169.953125 L 324.605469 169.953125 C 325.617188 173.65625 329.003906 176.390625 333.023438 176.390625 C 337.839844 176.390625 341.757812 172.46875 341.757812 167.65625 C 341.757812 162.839844 337.839844 158.917969 333.023438 158.917969 Z M 333.019531 172.011719 C 330.613281 172.011719 328.664062 170.0625 328.664062 167.65625 C 328.664062 165.25 330.613281 163.296875 333.019531 163.296875 C 335.425781 163.296875 337.375 165.25 337.375 167.65625 C 337.375 170.0625 335.425781 172.011719 333.019531 172.011719 Z M 333.019531 172.011719 " fill-opacity="1" fill-rule="nonzero"/><g clip-path="url(#4232f0670e)"><path fill="#ff6600" d="M 208.492188 326.835938 L 208.519531 306.316406 C 208.519531 305.765625 208.3125 305.230469 207.9375 304.824219 L 194.339844 290.125 L 194.339844 251.441406 C 194.339844 250.230469 193.359375 249.253906 192.152344 249.253906 C 190.945312 249.253906 189.964844 250.234375 189.964844 251.441406 L 189.964844 290.984375 C 189.964844 291.535156 190.171875 292.066406 190.546875 292.472656 L 204.144531 307.171875 L 204.117188 326.824219 C 200.34375 327.789062 197.542969 331.207031 197.542969 335.273438 C 197.542969 340.089844 201.464844 344.011719 206.28125 344.011719 C 211.09375 344.011719 215.015625 340.089844 215.015625 335.273438 C 215.015625 331.226562 212.242188 327.824219 208.5 326.839844 Z M 210.632812 335.273438 C 210.632812 337.675781 208.683594 339.628906 206.277344 339.628906 C 203.871094 339.628906 201.921875 337.675781 201.921875 335.273438 C 201.921875 332.867188 203.871094 330.914062 206.277344 330.914062 C 208.683594 330.914062 210.632812 332.867188 210.632812 335.273438 Z M 210.632812 335.273438 " fill-opacity="1" fill-rule="nonzero"/></g><path fill="#ff6600" d="M 254.863281 327.210938 C 254.863281 322.394531 250.941406 318.476562 246.125 318.476562 C 242.109375 318.476562 238.722656 321.210938 237.710938 324.914062 L 234.328125 324.914062 L 220.746094 310.328125 L 220.734375 297.832031 C 220.734375 297.277344 220.527344 296.75 220.152344 296.347656 L 206.507812 281.601562 L 206.507812 251.441406 C 206.511719 250.230469 205.535156 249.25 204.324219 249.25 C 203.117188 249.25 202.136719 250.230469 202.136719 251.4375 L 202.136719 282.457031 C 202.132812 283.007812 202.339844 283.539062 202.714844 283.941406 L 216.355469 298.6875 L 216.367188 311.191406 C 216.367188 311.742188 216.578125 312.273438 216.953125 312.679688 L 231.773438 328.589844 C 232.183594 329.035156 232.765625 329.289062 233.375 329.289062 L 237.652344 329.289062 C 238.589844 333.097656 242.027344 335.9375 246.121094 335.9375 C 250.9375 335.9375 254.859375 332.019531 254.859375 327.203125 Z M 250.484375 327.210938 C 250.484375 329.617188 248.53125 331.566406 246.125 331.566406 C 243.722656 331.566406 241.769531 329.617188 241.769531 327.210938 C 241.769531 324.804688 243.722656 322.855469 246.125 322.855469 C 248.53125 322.855469 250.484375 324.804688 250.484375 327.210938 Z M 250.484375 327.210938 " fill-opacity="1" fill-rule="nonzero"/><g clip-path="url(#57799283dc)"><path fill="#ff6600" d="M 215.011719 46.253906 C 215.011719 41.441406 211.089844 37.519531 206.277344 37.519531 C 201.460938 37.519531 197.542969 41.441406 197.542969 46.253906 C 197.542969 50.324219 200.339844 53.742188 204.113281 54.707031 L 204.140625 74.359375 L 190.542969 89.058594 C 190.167969 89.464844 189.960938 89.996094 189.960938 90.546875 L 189.960938 130.089844 C 189.960938 131.300781 190.941406 132.277344 192.148438 132.277344 C 193.355469 132.277344 194.335938 131.296875 194.335938 130.089844 L 194.335938 91.40625 L 207.933594 76.707031 C 208.308594 76.300781 208.515625 75.765625 208.515625 75.214844 L 208.492188 54.695312 C 212.234375 53.710938 215.003906 50.304688 215.003906 46.257812 Z M 206.277344 50.609375 C 203.871094 50.609375 201.921875 48.65625 201.921875 46.253906 C 201.921875 43.847656 203.871094 41.894531 206.277344 41.894531 C 208.683594 41.894531 210.632812 43.847656 210.632812 46.253906 C 210.632812 48.65625 208.683594 50.609375 206.277344 50.609375 Z M 206.277344 50.609375 " fill-opacity="1" fill-rule="nonzero"/></g><path fill="#ff6600" d="M 253.804688 50.15625 C 253.128906 48.917969 252.167969 47.859375 251.007812 47.074219 C 249.613281 46.132812 247.933594 45.582031 246.125 45.582031 C 245.847656 45.582031 245.570312 45.597656 245.296875 45.625 C 245.203125 45.632812 245.117188 45.648438 245.023438 45.65625 C 244.84375 45.679688 244.664062 45.707031 244.484375 45.742188 C 244.375 45.761719 244.273438 45.789062 244.167969 45.8125 C 244.011719 45.847656 243.855469 45.886719 243.703125 45.933594 C 243.589844 45.964844 243.484375 46 243.375 46.035156 C 243.234375 46.078125 243.09375 46.132812 242.949219 46.191406 C 242.839844 46.234375 242.730469 46.273438 242.621094 46.324219 C 242.492188 46.382812 242.363281 46.445312 242.242188 46.507812 C 242.132812 46.566406 242.015625 46.617188 241.910156 46.675781 C 241.816406 46.726562 241.734375 46.785156 241.640625 46.839844 C 241.367188 47.003906 241.105469 47.179688 240.851562 47.375 C 240.796875 47.417969 240.738281 47.453125 240.6875 47.496094 C 240.542969 47.613281 240.40625 47.730469 240.273438 47.851562 C 240.222656 47.898438 240.171875 47.941406 240.125 47.992188 C 239.984375 48.121094 239.855469 48.253906 239.726562 48.394531 C 239.6875 48.433594 239.652344 48.472656 239.613281 48.515625 C 239.480469 48.664062 239.347656 48.824219 239.222656 48.984375 C 239.207031 49.007812 239.1875 49.027344 239.171875 49.046875 C 238.460938 49.984375 237.9375 51.0625 237.648438 52.234375 L 233.371094 52.234375 C 232.761719 52.234375 232.179688 52.488281 231.769531 52.933594 L 216.949219 68.84375 C 216.574219 69.25 216.363281 69.78125 216.363281 70.335938 L 216.351562 82.835938 L 202.710938 97.582031 C 202.332031 97.988281 202.125 98.515625 202.125 99.066406 L 202.125 130.085938 C 202.128906 131.296875 203.113281 132.273438 204.320312 132.273438 C 205.53125 132.273438 206.507812 131.292969 206.507812 130.082031 L 206.507812 99.921875 C 206.507812 99.921875 220.144531 85.175781 220.144531 85.175781 C 220.519531 84.773438 220.726562 84.242188 220.726562 83.691406 L 220.738281 71.195312 L 234.320312 56.609375 L 237.703125 56.609375 C 237.761719 56.839844 237.835938 57.0625 237.917969 57.28125 C 237.917969 57.289062 237.921875 57.296875 237.925781 57.304688 C 238.320312 58.386719 238.921875 59.367188 239.6875 60.199219 C 239.722656 60.238281 239.75 60.273438 239.785156 60.3125 C 239.910156 60.441406 240.039062 60.570312 240.167969 60.691406 C 240.226562 60.746094 240.285156 60.796875 240.339844 60.847656 C 240.464844 60.960938 240.589844 61.066406 240.722656 61.171875 C 240.792969 61.226562 240.871094 61.285156 240.945312 61.339844 C 241.074219 61.429688 241.195312 61.523438 241.328125 61.609375 C 241.429688 61.679688 241.535156 61.742188 241.644531 61.804688 C 241.824219 61.914062 242.007812 62.015625 242.195312 62.113281 C 242.339844 62.183594 242.488281 62.261719 242.640625 62.328125 C 242.738281 62.371094 242.84375 62.40625 242.945312 62.449219 C 243.09375 62.507812 243.242188 62.566406 243.390625 62.609375 C 243.496094 62.644531 243.597656 62.675781 243.707031 62.707031 C 243.863281 62.753906 244.019531 62.789062 244.179688 62.828125 C 244.285156 62.851562 244.382812 62.875 244.488281 62.894531 C 244.664062 62.929688 244.84375 62.957031 245.027344 62.976562 C 245.117188 62.988281 245.203125 63.003906 245.296875 63.011719 C 245.566406 63.039062 245.84375 63.054688 246.117188 63.054688 C 247.921875 63.054688 249.605469 62.503906 251 61.5625 C 252.160156 60.777344 253.125 59.71875 253.796875 58.480469 C 254.472656 57.242188 254.855469 55.824219 254.855469 54.320312 C 254.855469 52.816406 254.472656 51.398438 253.796875 50.160156 Z M 246.125 58.671875 C 245.226562 58.671875 244.386719 58.394531 243.691406 57.929688 C 243.460938 57.773438 243.242188 57.597656 243.046875 57.398438 C 242.257812 56.605469 241.769531 55.519531 241.769531 54.316406 C 241.769531 53.113281 242.257812 52.023438 243.046875 51.234375 C 243.242188 51.039062 243.460938 50.859375 243.691406 50.703125 C 244.382812 50.234375 245.222656 49.960938 246.125 49.960938 C 247.78125 49.960938 249.21875 50.882812 249.957031 52.238281 C 250.09375 52.484375 250.203125 52.75 250.289062 53.019531 C 250.414062 53.429688 250.484375 53.863281 250.484375 54.316406 C 250.484375 54.769531 250.414062 55.203125 250.289062 55.609375 C 250.203125 55.882812 250.09375 56.144531 249.957031 56.394531 C 249.21875 57.75 247.78125 58.671875 246.125 58.671875 Z M 246.125 58.671875 " fill-opacity="1" fill-rule="nonzero"/><g clip-path="url(#c23abed978)"><path fill="#ff6600" d="M 210.753906 156.054688 L 184.773438 156.054688 L 184.773438 59.417969 C 184.054688 53.246094 182.3125 47.585938 178.394531 43.773438 C 172.917969 38.449219 166.0625 37.519531 161.441406 37.519531 C 159.890625 37.519531 158.589844 37.625 157.683594 37.703125 C 149.613281 38.398438 143.265625 42.273438 139.636719 45.761719 C 136.25 49.015625 133.917969 53.191406 133.71875 53.554688 C 133.019531 54.84375 132.429688 56.203125 131.851562 57.554688 C 131.457031 57.527344 130.722656 57.484375 129.726562 57.484375 C 124.644531 57.484375 112.609375 58.558594 102.511719 68.175781 C 90.535156 79.585938 90.445312 94.289062 90.46875 96.714844 L 90.460938 97.941406 C 88.011719 99.132812 83.378906 101.800781 79.636719 107.058594 C 74.367188 114.453125 74.273438 122.160156 74.355469 124.796875 C 72.238281 126.148438 66.34375 130.304688 63.195312 138.320312 C 60.5 145.1875 61.257812 151.238281 61.734375 153.796875 C 58.875 157.644531 49.792969 170.878906 52.773438 186.84375 C 53.421875 190.3125 54.53125 193.351562 55.796875 195.9375 C 54.132812 198.527344 44.796875 213.632812 49.535156 232.882812 C 53.601562 249.40625 65.371094 258.167969 68.472656 260.335938 L 69.351562 260.851562 C 68.988281 263.609375 67.222656 279.058594 77.914062 291.089844 C 82.492188 296.238281 87.699219 298.917969 91.152344 300.300781 C 91.589844 303.28125 93.089844 310.59375 99.1875 316.714844 C 106.101562 323.652344 114.917969 325.023438 120.816406 325.023438 C 124.25 325.023438 126.695312 324.558594 127.203125 324.453125 C 128.242188 326.710938 129.96875 329.824219 132.816406 332.90625 C 138.820312 339.421875 148.144531 344.007812 157.878906 344.007812 C 160.175781 344.007812 162.5 343.75 164.800781 343.207031 C 171.394531 341.640625 177.875 337.597656 180.851562 333.050781 C 182.957031 329.839844 184.0625 326.226562 184.683594 322.476562 C 184.71875 322.25 184.757812 322.023438 184.789062 321.796875 L 184.789062 289.933594 C 184.855469 289.617188 184.859375 289.292969 184.789062 288.976562 L 184.789062 225.476562 L 210.769531 225.476562 C 213.1875 225.476562 215.148438 223.515625 215.148438 221.097656 L 215.148438 160.4375 C 215.148438 158.019531 213.1875 156.058594 210.769531 156.058594 Z M 180.398438 260.855469 L 149.550781 260.855469 C 148.339844 260.855469 147.363281 261.835938 147.363281 263.042969 C 147.363281 264.25 148.34375 265.230469 149.550781 265.230469 L 160.964844 265.230469 L 160.964844 274.234375 L 150.855469 284.34375 L 141.617188 284.34375 L 127.300781 270.800781 L 127.117188 238.5 C 127.109375 237.296875 126.132812 236.324219 124.929688 236.324219 L 124.917969 236.324219 C 123.707031 236.332031 122.734375 237.316406 122.742188 238.527344 L 122.917969 269.605469 L 116.601562 269.742188 C 115.390625 269.769531 114.433594 270.769531 114.460938 271.976562 C 114.488281 273.1875 115.507812 274.15625 116.695312 274.121094 L 124.269531 273.960938 L 137.890625 286.84375 L 132.53125 294.703125 L 118.601562 294.703125 L 108.289062 280.640625 L 108.289062 261.675781 C 108.289062 260.464844 107.308594 259.488281 106.101562 259.488281 C 104.894531 259.488281 103.914062 260.46875 103.914062 261.675781 L 103.914062 281.355469 C 103.914062 281.824219 104.0625 282.277344 104.339844 282.652344 L 115.734375 298.1875 C 116.144531 298.75 116.800781 299.082031 117.5 299.082031 L 133.691406 299.082031 C 134.417969 299.082031 135.09375 298.726562 135.5 298.125 L 141.910156 288.722656 L 151.769531 288.722656 C 152.355469 288.722656 152.910156 288.496094 153.320312 288.085938 L 164.710938 276.691406 C 165.121094 276.28125 165.351562 275.722656 165.351562 275.144531 L 165.351562 265.230469 L 180.40625 265.230469 L 180.40625 288.707031 L 172.140625 298.277344 L 167.683594 298.277344 C 166.980469 298.277344 166.324219 298.617188 165.914062 299.175781 L 158.566406 309.203125 L 148.34375 309.203125 C 147.472656 305.289062 143.988281 302.355469 139.820312 302.355469 C 135.648438 302.355469 132.257812 305.203125 131.332031 309.023438 C 131.171875 309.6875 131.082031 310.382812 131.082031 311.089844 C 131.082031 311.894531 131.195312 312.664062 131.398438 313.402344 C 132.414062 317.105469 135.804688 319.824219 139.820312 319.824219 C 143.832031 319.824219 147.109375 317.1875 148.179688 313.582031 L 157.488281 313.582031 L 157.488281 328.523438 C 157.488281 329.734375 158.464844 330.710938 159.675781 330.710938 C 160.886719 330.710938 161.863281 329.734375 161.863281 328.523438 L 161.863281 312.105469 L 168.789062 302.652344 L 173.136719 302.652344 C 173.78125 302.652344 174.378906 302.378906 174.792969 301.894531 L 180.398438 295.410156 L 180.398438 321.480469 C 180.382812 321.566406 180.371094 321.660156 180.355469 321.75 C 179.746094 325.441406 178.734375 328.265625 177.179688 330.644531 C 174.84375 334.210938 169.332031 337.625 163.777344 338.9375 C 161.863281 339.390625 159.875 339.625 157.863281 339.625 C 149.902344 339.625 141.53125 335.910156 136.023438 329.933594 C 134.050781 327.800781 132.421875 325.335938 131.171875 322.617188 L 129.71875 319.460938 L 126.3125 320.15625 C 125.921875 320.238281 123.824219 320.636719 120.808594 320.636719 C 115.546875 320.636719 108.066406 319.417969 102.28125 313.613281 C 97.425781 308.746094 95.9375 302.78125 95.476562 299.65625 L 95.113281 297.167969 L 92.777344 296.230469 C 88.203125 294.394531 84.300781 291.6875 81.183594 288.175781 C 72.28125 278.15625 73.191406 265.160156 73.6875 261.417969 L 74.0625 258.550781 L 71.574219 257.078125 L 70.847656 256.648438 C 66.757812 253.757812 57.210938 245.738281 53.789062 231.828125 C 50.324219 217.75 55.171875 206.011719 58.148438 200.554688 L 63.855469 211.644531 C 64.230469 212.371094 64.980469 212.832031 65.800781 212.832031 L 72.726562 212.832031 C 73.933594 212.832031 74.914062 211.851562 74.914062 210.644531 C 74.914062 209.4375 73.933594 208.457031 72.726562 208.457031 L 67.140625 208.457031 L 60.273438 195.125 L 59.734375 194.011719 C 58.480469 191.445312 57.589844 188.761719 57.082031 186.035156 C 54.894531 174.320312 60 164.070312 64.015625 158.140625 L 69.03125 165.460938 L 69.03125 179.375 C 69.03125 179.839844 69.175781 180.292969 69.453125 180.671875 L 75.664062 189.144531 C 76.082031 189.707031 76.734375 190.039062 77.429688 190.039062 L 95.328125 190.039062 L 111.5 212.4375 C 111.917969 213.007812 112.570312 213.339844 113.28125 213.339844 L 131.265625 213.296875 L 140.492188 224.960938 L 140.492188 251.878906 C 140.492188 253.078125 141.46875 254.066406 142.679688 254.066406 C 143.890625 254.066406 144.867188 253.078125 144.867188 251.878906 L 144.867188 235.003906 L 158.894531 235.003906 C 159.910156 238.707031 163.300781 241.425781 167.3125 241.425781 C 172.128906 241.425781 176.042969 237.507812 176.042969 232.691406 C 176.042969 227.875 172.128906 223.957031 167.3125 223.957031 C 163.207031 223.957031 159.753906 226.800781 158.828125 230.625 L 144.867188 230.625 L 144.867188 224.191406 C 144.867188 223.699219 144.699219 223.21875 144.394531 222.832031 L 134.039062 209.75 C 133.621094 209.226562 132.988281 208.917969 132.320312 208.917969 L 132.3125 208.917969 L 114.390625 208.960938 L 100.066406 189.128906 C 100.082031 189.046875 100.097656 188.96875 100.097656 188.886719 L 100.046875 177.585938 C 100.039062 176.382812 99.0625 175.402344 97.859375 175.402344 L 97.851562 175.402344 C 96.640625 175.410156 95.664062 176.394531 95.667969 177.605469 L 95.707031 185.660156 L 78.535156 185.660156 L 73.40625 178.652344 L 73.40625 164.773438 C 73.40625 164.335938 73.269531 163.902344 73.019531 163.539062 L 66.128906 153.46875 L 66.039062 152.988281 C 65.472656 149.910156 65.222656 145.136719 67.273438 139.90625 C 69.738281 133.632812 74.246094 130.050781 76.714844 128.472656 L 78.8125 127.132812 L 78.730469 124.644531 C 78.628906 121.503906 79.078125 115.375 83.199219 109.589844 C 85.703125 106.074219 88.742188 103.847656 91.175781 102.496094 L 105.699219 124.347656 L 105.699219 131.171875 C 105.699219 132.382812 106.679688 133.359375 107.886719 133.359375 C 109.09375 133.359375 110.074219 132.378906 110.074219 131.171875 L 110.074219 124.769531 L 125.480469 112.996094 C 126.441406 112.261719 126.625 110.890625 125.886719 109.929688 C 125.152344 108.964844 123.78125 108.78125 122.820312 109.519531 L 108.410156 120.527344 L 94.824219 100.078125 L 94.835938 97.957031 L 94.839844 96.730469 L 94.839844 96.691406 C 94.839844 96.691406 94.839844 96.652344 94.839844 96.652344 C 94.804688 93.136719 95.460938 80.914062 105.523438 71.332031 C 114.511719 62.773438 125.441406 61.84375 129.71875 61.84375 C 130.363281 61.84375 130.964844 61.863281 131.554688 61.902344 L 134.648438 62.105469 L 135.867188 59.25 C 136.414062 57.976562 136.953125 56.738281 137.558594 55.621094 C 138.132812 54.566406 140.171875 51.289062 142.660156 48.898438 C 144.144531 47.472656 149.632812 42.773438 158.046875 42.050781 C 158.984375 41.96875 160.097656 41.882812 161.433594 41.882812 L 161.433594 37.519531 C 161.433594 37.519531 161.433594 41.898438 161.433594 41.898438 C 167.238281 41.898438 171.914062 43.585938 175.335938 46.914062 C 178.011719 49.511719 179.660156 53.6875 180.390625 59.679688 L 180.390625 105.746094 L 164.765625 105.824219 L 159.09375 100.492188 C 158.6875 100.109375 158.148438 99.898438 157.59375 99.898438 L 149.851562 99.898438 C 148.984375 95.992188 145.496094 93.054688 141.332031 93.054688 C 136.515625 93.054688 132.597656 96.976562 132.597656 101.789062 C 132.597656 106.605469 136.515625 110.527344 141.332031 110.527344 C 145.28125 110.527344 148.625 107.886719 149.699219 104.28125 L 156.730469 104.28125 L 162.40625 109.617188 C 162.8125 110 163.347656 110.210938 163.90625 110.210938 L 163.914062 110.210938 L 180.394531 110.128906 L 180.394531 167.691406 L 156.695312 167.609375 L 156.960938 124.703125 C 156.960938 124.121094 156.738281 123.5625 156.328125 123.148438 C 155.917969 122.734375 155.355469 122.5 154.773438 122.5 L 148.078125 122.5 L 142.234375 114.460938 C 141.523438 113.484375 140.15625 113.265625 139.179688 113.976562 C 138.203125 114.6875 137.984375 116.058594 138.691406 117.035156 L 145.191406 125.980469 C 145.601562 126.546875 146.257812 126.882812 146.960938 126.882812 L 152.570312 126.882812 L 152.429688 149.34375 L 141.378906 149.34375 C 140.203125 145.90625 136.949219 143.421875 133.117188 143.421875 C 128.300781 143.421875 124.382812 147.34375 124.382812 152.15625 C 124.382812 156.972656 128.300781 160.894531 133.117188 160.894531 C 137.402344 160.894531 140.964844 157.792969 141.703125 153.722656 L 152.402344 153.722656 L 152.304688 169.785156 C 152.304688 170.367188 152.53125 170.925781 152.9375 171.339844 C 153.347656 171.753906 153.902344 171.988281 154.484375 171.988281 L 180.394531 172.078125 L 180.394531 197.6875 L 150.050781 197.707031 L 141.011719 186.910156 C 140.59375 186.410156 139.980469 186.125 139.332031 186.125 L 129.414062 186.125 L 128.902344 166.601562 C 128.875 165.421875 127.910156 164.480469 126.726562 164.46875 L 113.484375 164.378906 L 97.679688 146.609375 C 99.058594 145.066406 99.902344 143.035156 99.902344 140.808594 C 99.902344 135.996094 95.984375 132.074219 91.167969 132.074219 C 86.351562 132.074219 82.433594 135.996094 82.433594 140.808594 C 82.433594 145.625 86.351562 149.546875 91.167969 149.546875 C 92.160156 149.546875 93.109375 149.371094 94 149.066406 L 96.394531 151.757812 L 82.738281 151.757812 C 81.527344 151.757812 80.550781 152.742188 80.550781 153.945312 C 80.550781 155.152344 81.53125 156.132812 82.738281 156.132812 L 100.289062 156.132812 L 110.859375 168.019531 C 111.273438 168.480469 111.859375 168.75 112.480469 168.753906 L 124.578125 168.835938 L 125.089844 188.371094 C 125.117188 189.5625 126.089844 190.503906 127.277344 190.503906 L 138.304688 190.503906 L 147.347656 201.300781 C 147.761719 201.796875 148.378906 202.085938 149.023438 202.085938 L 180.390625 202.066406 L 180.390625 260.871094 Z M 144.164062 311.097656 C 144.164062 312.023438 143.871094 312.878906 143.382812 313.582031 C 142.601562 314.714844 141.285156 315.453125 139.816406 315.453125 C 138.257812 315.453125 136.894531 314.636719 136.128906 313.410156 C 135.699219 312.742188 135.457031 311.953125 135.457031 311.097656 C 135.457031 310.355469 135.648438 309.644531 135.976562 309.03125 C 136.710938 307.667969 138.152344 306.742188 139.816406 306.742188 C 141.476562 306.742188 143.03125 307.75 143.726562 309.207031 C 144.007812 309.78125 144.164062 310.417969 144.164062 311.097656 Z M 162.953125 232.699219 C 162.953125 231.957031 163.144531 231.246094 163.472656 230.632812 C 164.207031 229.269531 165.648438 228.34375 167.308594 228.34375 C 169.710938 228.34375 171.660156 230.292969 171.660156 232.699219 C 171.660156 235.105469 169.707031 237.054688 167.308594 237.054688 C 165.753906 237.054688 164.390625 236.238281 163.625 235.011719 C 163.195312 234.34375 162.953125 233.554688 162.953125 232.699219 Z M 145.691406 101.789062 C 145.691406 104.191406 143.742188 106.144531 141.335938 106.144531 C 138.929688 106.144531 136.980469 104.191406 136.980469 101.789062 C 136.980469 99.382812 138.929688 97.429688 141.335938 97.429688 C 143.742188 97.429688 145.691406 99.382812 145.691406 101.789062 Z M 137.472656 152.148438 C 137.472656 154.550781 135.523438 156.503906 133.117188 156.503906 C 130.710938 156.503906 128.761719 154.550781 128.761719 152.148438 C 128.761719 149.742188 130.710938 147.789062 133.117188 147.789062 C 135.523438 147.789062 137.472656 149.742188 137.472656 152.148438 Z M 95.527344 140.800781 C 95.527344 143.203125 93.578125 145.15625 91.171875 145.15625 C 88.765625 145.15625 86.816406 143.203125 86.816406 140.800781 C 86.816406 138.394531 88.765625 136.441406 91.171875 136.441406 C 93.578125 136.441406 95.527344 138.394531 95.527344 140.800781 Z M 210.753906 221.09375 L 184.773438 221.09375 L 184.773438 160.433594 L 210.753906 160.433594 Z M 210.753906 221.09375 " fill-opacity="1" fill-rule="nonzero"/></g><path fill="#ff6600" d="M 102.710938 217.351562 C 102.289062 216.898438 101.710938 216.648438 101.082031 216.648438 L 81.503906 216.839844 C 80.921875 216.847656 80.359375 217.082031 79.949219 217.503906 L 74.132812 223.488281 C 73.054688 223.007812 71.859375 222.746094 70.601562 222.746094 C 66.496094 222.746094 63.042969 225.59375 62.117188 229.414062 C 61.957031 230.078125 61.867188 230.773438 61.867188 231.480469 C 61.867188 232.285156 61.980469 233.054688 62.183594 233.792969 C 63.195312 237.496094 66.585938 240.214844 70.601562 240.214844 C 75.417969 240.214844 79.328125 236.296875 79.328125 231.480469 C 79.328125 229.511719 78.675781 227.691406 77.578125 226.226562 L 82.453125 221.214844 L 100.164062 221.035156 L 108.351562 229.828125 L 96.097656 244.265625 L 88.96875 236.558594 C 88.144531 235.671875 86.757812 235.609375 85.875 236.4375 C 84.984375 237.261719 84.929688 238.648438 85.75 239.53125 L 93.242188 247.625 L 85.3125 256.972656 C 84.96875 257.382812 84.78125 257.898438 84.796875 258.441406 L 85.039062 270.054688 C 85.046875 270.59375 85.265625 271.113281 85.636719 271.515625 L 91.570312 277.78125 C 92 278.242188 92.585938 278.46875 93.160156 278.46875 C 93.699219 278.46875 94.238281 278.273438 94.660156 277.871094 C 95.542969 277.039062 95.582031 275.652344 94.75 274.773438 L 89.394531 269.113281 L 89.191406 259.175781 L 112.949219 231.179688 C 113.667969 230.335938 113.636719 229.085938 112.878906 228.269531 L 102.714844 217.355469 Z M 70.601562 235.835938 C 69.046875 235.835938 67.683594 235.019531 66.917969 233.792969 C 66.488281 233.125 66.246094 232.335938 66.246094 231.480469 C 66.246094 230.738281 66.4375 230.027344 66.765625 229.414062 C 67.5 228.050781 68.941406 227.125 70.601562 227.125 C 72.265625 227.125 73.726562 228.066406 74.449219 229.453125 C 74.769531 230.058594 74.949219 230.753906 74.949219 231.484375 C 74.949219 233.894531 73 235.839844 70.601562 235.839844 Z M 70.601562 235.835938 " fill-opacity="1" fill-rule="nonzero"/><path fill="#ff6600" d="M 120.851562 69.578125 L 108.964844 82.007812 C 108.570312 82.414062 108.359375 82.957031 108.359375 83.519531 L 108.359375 103.953125 C 108.359375 105.164062 109.339844 106.140625 110.546875 106.140625 C 111.753906 106.140625 112.734375 105.160156 112.734375 103.953125 L 112.734375 84.398438 L 124.011719 72.605469 C 124.847656 71.730469 124.816406 70.34375 123.941406 69.511719 C 123.070312 68.675781 121.683594 68.707031 120.847656 69.578125 Z M 120.851562 69.578125 " fill-opacity="1" fill-rule="nonzero"/><path fill="#ff6600" d="M 143.3125 82.199219 L 171.273438 82.199219 C 172.484375 82.199219 173.460938 81.21875 173.460938 80.011719 C 173.460938 78.804688 172.480469 77.824219 171.273438 77.824219 L 161.789062 77.824219 L 161.789062 53.648438 C 161.789062 52.4375 160.808594 51.460938 159.601562 51.460938 C 158.394531 51.460938 157.414062 52.441406 157.414062 53.648438 L 157.414062 77.824219 L 143.316406 77.824219 C 142.105469 77.824219 141.128906 78.804688 141.128906 80.011719 C 141.128906 81.21875 142.109375 82.199219 143.316406 82.199219 Z M 143.3125 82.199219 " fill-opacity="1" fill-rule="nonzero"/></svg>