<svg xmlns="http://www.w3.org/2000/svg" xmlns:xlink="http://www.w3.org/1999/xlink" width="500" zoomAndPan="magnify" viewBox="0 0 375 374.999991" height="500" preserveAspectRatio="xMidYMid meet" version="1.0"><defs><clipPath id="47a401c69e"><path d="M 0 0 L 375 0 L 375 375 L 0 375 Z M 0 0 " clip-rule="nonzero"/></clipPath><clipPath id="9203a4086b"><rect x="0" width="375" y="0" height="375"/></clipPath><clipPath id="1e0abc9cbd"><path d="M 67.5 37.5 L 307.5 37.5 L 307.5 337.5 L 67.5 337.5 Z M 67.5 37.5 " clip-rule="nonzero"/></clipPath></defs><rect x="-37.5" width="450" fill="#ffffff" y="-37.499999" height="449.999989" fill-opacity="1"/><rect x="-37.5" width="450" fill="#ffffff" y="-37.499999" height="449.999989" fill-opacity="1"/><g transform="matrix(1, 0, 0, 1, 0, 0)"><g clip-path="url(#9203a4086b)"><g clip-path="url(#47a401c69e)"><rect x="-82.5" width="540" fill="#ffffff" height="539.999987" y="-82.499998" fill-opacity="1"/></g></g></g><g clip-path="url(#1e0abc9cbd)"><path fill="#ff6600" d="M 187.363281 337.417969 C 149.808594 337.417969 112.253906 337.417969 74.699219 337.421875 C 69.226562 337.421875 66.53125 333.949219 67.828125 328.671875 C 72.816406 308.339844 77.8125 288.011719 82.707031 267.65625 C 83.460938 264.511719 85.070312 262.601562 88.125 261.429688 C 107.457031 254.011719 126.742188 246.460938 146.058594 239 C 147.027344 238.625 147.519531 238.097656 147.773438 237.152344 C 149.617188 230.230469 151.460938 223.3125 153.355469 216.40625 C 153.582031 215.585938 153.589844 215.039062 152.925781 214.390625 C 143.136719 204.78125 136.09375 193.363281 130.976562 180.707031 C 130.519531 179.578125 129.875 179.382812 128.78125 179.371094 C 124.054688 179.320312 119.308594 179.769531 114.625 178.683594 C 103.878906 176.1875 96.453125 166.9375 96.425781 155.910156 C 96.414062 150.542969 96.382812 145.179688 96.4375 139.816406 C 96.539062 130.09375 100.929688 122.921875 109.519531 118.398438 C 110.695312 117.777344 110.824219 117.054688 110.820312 115.941406 C 110.699219 95.359375 117.035156 77.09375 131.277344 62.089844 C 149.894531 42.476562 172.921875 34.480469 199.632812 38.570312 C 231.746094 43.484375 255.957031 66.878906 262.601562 98.566406 C 263.792969 104.242188 264.234375 110.011719 264.097656 115.808594 C 264.070312 117.074219 264.402344 117.765625 265.578125 118.378906 C 274.300781 122.929688 278.585938 130.277344 278.652344 140.019531 C 278.695312 146.285156 279.171875 152.585938 278.363281 158.8125 C 277.15625 168.101562 271.917969 174.464844 263.289062 177.984375 C 262.085938 178.472656 261.753906 179 261.777344 180.21875 C 261.839844 183.839844 261.792969 187.464844 261.742188 191.085938 C 261.6875 194.761719 259.808594 196.585938 256.167969 196.585938 C 250.035156 196.589844 243.90625 196.613281 237.773438 196.574219 C 236.773438 196.566406 236.160156 196.8125 235.59375 197.710938 C 231.859375 203.617188 227.511719 209.050781 222.632812 214.042969 C 221.84375 214.851562 221.625 215.523438 221.902344 216.589844 C 223.589844 223.121094 225.261719 229.65625 226.84375 236.214844 C 227.222656 237.789062 227.992188 238.625 229.527344 239.222656 C 248.195312 246.457031 266.800781 253.867188 285.511719 260.992188 C 289.65625 262.570312 291.769531 264.902344 292.792969 269.316406 C 297.378906 289.171875 302.355469 308.941406 307.15625 328.75 C 308.476562 334.203125 305.910156 337.363281 300.234375 337.363281 C 268.042969 337.375 235.855469 337.375 203.667969 337.378906 C 198.230469 337.378906 192.796875 337.378906 187.363281 337.378906 C 187.363281 337.390625 187.363281 337.40625 187.363281 337.417969 Z M 81.488281 324.980469 C 152.269531 324.980469 222.886719 324.980469 293.480469 324.980469 C 293.527344 324.855469 293.582031 324.789062 293.570312 324.742188 C 289.339844 307.597656 285.097656 290.460938 280.898438 273.3125 C 280.679688 272.414062 280.195312 272.109375 279.425781 271.8125 C 261.816406 264.9375 244.214844 258.046875 226.628906 251.109375 C 225.40625 250.628906 224.734375 250.765625 223.84375 251.78125 C 213.609375 263.46875 203.316406 275.101562 193.039062 286.75 C 189.332031 290.953125 185.867188 290.992188 182.195312 286.839844 C 171.855469 275.152344 161.519531 263.464844 151.203125 251.757812 C 150.511719 250.96875 149.992188 250.519531 148.804688 250.992188 C 131.15625 257.960938 113.488281 264.882812 95.808594 271.769531 C 94.753906 272.179688 94.359375 272.796875 94.105469 273.824219 C 91.851562 283.082031 89.542969 292.328125 87.257812 301.578125 C 85.34375 309.335938 83.433594 317.09375 81.488281 324.980469 Z M 221.582031 196.574219 C 217.808594 196.574219 214.484375 196.632812 211.160156 196.542969 C 209.894531 196.507812 209.246094 196.84375 208.644531 198.042969 C 206.484375 202.359375 202.867188 204.480469 198.042969 204.503906 C 193.515625 204.523438 188.988281 204.539062 184.460938 204.496094 C 178.097656 204.433594 173.238281 199.703125 172.972656 193.347656 C 172.925781 192.164062 172.933594 190.980469 172.964844 189.796875 C 173.121094 183.054688 177.871094 178.253906 184.609375 178.132812 C 189.0625 178.054688 193.523438 178.105469 197.980469 178.132812 C 203.375 178.167969 207.109375 180.703125 209.023438 185.75 C 209.394531 186.722656 209.855469 186.960938 210.8125 186.953125 C 216.035156 186.902344 221.257812 186.882812 226.480469 186.929688 C 227.546875 186.9375 228.082031 186.570312 228.5625 185.648438 C 230.863281 181.265625 232.605469 176.65625 234.347656 172.035156 C 236.257812 166.96875 237.265625 161.804688 237.011719 156.335938 C 236.777344 151.332031 236.875 146.308594 236.988281 141.296875 C 237.019531 139.8125 236.457031 139.351562 235.191406 138.847656 C 223.894531 134.332031 214.941406 127.0625 209.171875 116.195312 C 208.585938 115.097656 208.25 114.992188 207.265625 115.785156 C 201.496094 120.414062 195.304688 124.386719 188.671875 127.679688 C 173.316406 135.308594 157.015625 139.328125 139.957031 140.378906 C 138.355469 140.480469 138.0625 141 138.074219 142.460938 C 138.136719 149.007812 138.0625 155.554688 138.070312 162.101562 C 138.074219 162.925781 138.179688 163.78125 138.417969 164.566406 C 140.917969 172.839844 143.878906 180.941406 148.277344 188.410156 C 154.765625 199.433594 162.902344 208.914062 174.351562 215.105469 C 183.164062 219.871094 192.027344 219.878906 200.867188 215.132812 C 209.121094 210.703125 215.59375 204.28125 221.582031 196.574219 Z M 236.914062 126.175781 C 236.96875 121.621094 237.011719 117.378906 236.460938 113.148438 C 234.910156 101.273438 230.3125 90.851562 221.152344 82.9375 C 208.609375 72.101562 193.804688 69.039062 177.78125 71.773438 C 162.703125 74.34375 151.164062 82.265625 143.84375 95.917969 C 138.589844 105.714844 137.847656 116.355469 138.097656 127.175781 C 138.125 128.355469 138.855469 128.101562 139.511719 128.089844 C 142.578125 128.019531 145.625 127.703125 148.660156 127.277344 C 170.839844 124.164062 190.601562 115.972656 206.523438 99.730469 C 207.78125 98.445312 209.292969 97.914062 211.046875 97.988281 C 213.933594 98.109375 215.894531 99.714844 216.925781 103.015625 C 218.460938 107.929688 220.808594 112.382812 224.070312 116.355469 C 227.515625 120.550781 231.621094 123.882812 236.914062 126.175781 Z M 164.214844 223.410156 C 162.578125 229.425781 161.015625 235.261719 159.378906 241.078125 C 159.128906 241.964844 159.613281 242.378906 160.054688 242.882812 C 168.925781 253.0625 177.808594 263.226562 186.664062 273.417969 C 187.308594 274.164062 187.679688 274.296875 188.398438 273.476562 C 197.347656 263.269531 206.328125 253.09375 215.300781 242.914062 C 215.722656 242.433594 216.007812 242.03125 215.789062 241.265625 C 214.125 235.390625 212.53125 229.496094 210.851562 223.367188 C 195.304688 233.5 179.789062 233.203125 164.214844 223.410156 Z M 187.0625 49.746094 C 184.957031 49.832031 182.316406 49.867188 179.679688 50.191406 C 147.257812 54.199219 123.28125 81.207031 123.246094 113.835938 C 123.246094 114.726562 122.675781 115.914062 124.558594 115.957031 C 126.269531 115.992188 126.039062 115.046875 126.136719 114.007812 C 127.230469 102.25 130.96875 91.46875 138.214844 82.046875 C 148.636719 68.503906 162.652344 61.222656 179.40625 59.226562 C 195.351562 57.324219 210.382812 60.316406 223.757812 69.515625 C 239.425781 80.289062 247.15625 95.714844 248.953125 114.355469 C 249.082031 115.664062 249.441406 115.933594 250.667969 115.9375 C 252.011719 115.9375 251.886719 115.191406 251.871094 114.324219 C 251.789062 109.652344 251.496094 104.988281 250.503906 100.421875 C 244.035156 70.609375 218.152344 49.78125 187.0625 49.746094 Z M 249.347656 147.703125 C 249.34375 147.703125 249.339844 147.703125 249.335938 147.703125 C 249.335938 152.578125 249.324219 157.453125 249.339844 162.324219 C 249.355469 167.152344 249.367188 167.152344 254.199219 167.171875 C 261.449219 167.203125 266.402344 162.332031 266.472656 155.050781 C 266.523438 149.96875 266.527344 144.886719 266.503906 139.800781 C 266.472656 133.039062 261.527344 128.078125 254.777344 127.992188 C 253.527344 127.976562 252.261719 128.09375 251.019531 127.980469 C 249.617188 127.859375 249.300781 128.410156 249.316406 129.738281 C 249.386719 135.726562 249.347656 141.714844 249.347656 147.703125 Z M 125.71875 147.597656 C 125.71875 144.605469 125.71875 141.617188 125.71875 138.625 C 125.722656 135.636719 125.671875 132.644531 125.746094 129.65625 C 125.777344 128.46875 125.601562 127.851562 124.203125 127.988281 C 122.753906 128.128906 121.28125 127.988281 119.824219 128.042969 C 113.667969 128.273438 108.742188 133.144531 108.625 139.300781 C 108.515625 144.792969 108.523438 150.289062 108.636719 155.78125 C 108.769531 161.875 113.277344 166.550781 119.363281 167.042969 C 120.953125 167.171875 122.566406 166.996094 124.152344 167.148438 C 125.503906 167.277344 125.753906 166.777344 125.742188 165.539062 C 125.683594 159.558594 125.714844 153.578125 125.71875 147.597656 Z M 191.230469 195.152344 C 191.230469 195.132812 191.230469 195.117188 191.230469 195.097656 C 193.382812 195.097656 195.539062 195.15625 197.691406 195.078125 C 199.492188 195.015625 200.515625 193.753906 200.625 191.703125 C 200.746094 189.390625 199.800781 187.695312 198.003906 187.636719 C 193.703125 187.492188 189.390625 187.476562 185.085938 187.582031 C 183.167969 187.628906 182.132812 189.269531 182.257812 191.488281 C 182.386719 193.800781 183.453125 195.085938 185.394531 195.140625 C 187.339844 195.191406 189.285156 195.152344 191.230469 195.152344 Z M 241.660156 186.910156 C 244.851562 186.910156 247.765625 186.875 250.679688 186.929688 C 251.566406 186.945312 251.929688 186.738281 251.898438 185.789062 C 251.839844 183.980469 251.875 182.167969 251.910156 180.359375 C 251.921875 179.691406 251.757812 179.308594 251 179.324219 C 249.191406 179.359375 247.382812 179.363281 245.570312 179.363281 C 245.023438 179.359375 244.664062 179.539062 244.449219 180.078125 C 243.578125 182.253906 242.675781 184.421875 241.660156 186.910156 Z M 241.660156 186.910156 " fill-opacity="1" fill-rule="evenodd"/></g></svg>