<svg xmlns="http://www.w3.org/2000/svg" xmlns:xlink="http://www.w3.org/1999/xlink" width="500" zoomAndPan="magnify" viewBox="0 0 375 374.999991" height="500" preserveAspectRatio="xMidYMid meet" version="1.0"><defs><clipPath id="c26e3b6eec"><path d="M 0 0 L 375 0 L 375 375 L 0 375 Z M 0 0 " clip-rule="nonzero"/></clipPath><clipPath id="8f69208c02"><rect x="0" width="375" y="0" height="375"/></clipPath><clipPath id="a4fac6b68f"><path d="M 37.5 37.5 L 335.25 37.5 L 335.25 339.75 L 37.5 339.75 Z M 37.5 37.5 " clip-rule="nonzero"/></clipPath></defs><rect x="-37.5" width="450" fill="#ffffff" y="-37.499999" height="449.999989" fill-opacity="1"/><rect x="-37.5" width="450" fill="#ffffff" y="-37.499999" height="449.999989" fill-opacity="1"/><g transform="matrix(1, 0, 0, 1, 0, 0)"><g clip-path="url(#8f69208c02)"><g clip-path="url(#c26e3b6eec)"><rect x="-82.5" width="540" fill="#ffffff" height="539.999987" y="-82.499998" fill-opacity="1"/></g></g></g><g clip-path="url(#a4fac6b68f)"><path fill="#ff6600" d="M 134.023438 240.957031 C 135.421875 240.957031 136.707031 240.179688 137.351562 238.945312 C 137.996094 237.710938 137.910156 236.207031 137.113281 235.058594 C 132.800781 228.832031 129.0625 221.976562 125.992188 214.675781 C 125.183594 212.765625 122.984375 211.863281 121.066406 212.664062 C 119.15625 213.472656 118.253906 215.671875 119.054688 217.589844 C 121.386719 223.136719 124.085938 228.441406 127.105469 233.441406 L 94.332031 233.441406 C 93.429688 233.441406 92.558594 233.769531 91.875 234.359375 L 73.421875 250.265625 C 71.554688 249.234375 69.410156 248.644531 67.136719 248.644531 C 59.949219 248.644531 54.105469 254.488281 54.105469 261.675781 C 54.105469 268.863281 59.949219 274.710938 67.136719 274.710938 C 74.324219 274.710938 80.171875 268.863281 80.171875 261.675781 C 80.171875 259.503906 79.632812 257.460938 78.683594 255.65625 L 95.726562 240.960938 L 134.019531 240.960938 Z M 67.148438 267.183594 C 64.109375 267.183594 61.636719 264.710938 61.636719 261.671875 C 61.636719 258.632812 64.109375 256.15625 67.148438 256.15625 C 70.1875 256.15625 72.664062 258.632812 72.664062 261.671875 C 72.664062 264.710938 70.1875 267.183594 67.148438 267.183594 Z M 186.355469 258.15625 C 186.933594 258.15625 187.503906 258.023438 188.027344 257.761719 C 208.171875 247.730469 221.84375 235.492188 231.039062 219.234375 C 242.289062 199.339844 246.457031 173.78125 243.761719 141.105469 C 243.605469 139.199219 242.046875 137.714844 240.136719 137.660156 C 220.203125 137.011719 202.886719 131.042969 188.660156 119.914062 C 187.300781 118.847656 185.390625 118.847656 184.03125 119.914062 C 169.808594 131.042969 152.488281 137.011719 132.558594 137.660156 C 130.648438 137.722656 129.085938 139.207031 128.929688 141.105469 C 126.242188 173.78125 130.402344 199.339844 141.65625 219.234375 C 150.855469 235.484375 164.519531 247.730469 184.664062 257.761719 C 185.191406 258.023438 185.765625 258.15625 186.335938 258.15625 Z M 136.1875 145.019531 C 155.289062 143.84375 172.140625 137.992188 186.355469 127.59375 C 200.574219 137.996094 217.421875 143.847656 236.527344 145.019531 C 241.113281 211.921875 214.113281 235.980469 186.355469 250.191406 C 158.597656 235.980469 131.597656 211.921875 136.1875 145.019531 Z M 216.324219 216.382812 L 216.324219 183.722656 C 216.324219 179.070312 213.109375 175.164062 208.789062 174.082031 L 208.789062 165.484375 C 208.789062 153.121094 198.730469 143.066406 186.367188 143.066406 C 174.007812 143.066406 163.925781 153.121094 163.925781 165.484375 L 163.925781 174.082031 C 159.601562 175.164062 156.386719 179.074219 156.386719 183.722656 L 156.386719 216.382812 C 156.386719 221.871094 160.855469 226.339844 166.34375 226.339844 L 206.367188 226.339844 C 211.859375 226.339844 216.324219 221.871094 216.324219 216.382812 Z M 186.367188 150.585938 C 194.582031 150.585938 201.269531 157.269531 201.269531 165.484375 L 201.269531 173.773438 L 171.445312 173.773438 L 171.445312 165.484375 C 171.445312 157.269531 178.140625 150.585938 186.367188 150.585938 Z M 163.914062 216.382812 L 163.914062 183.722656 C 163.914062 182.402344 165.027344 181.285156 166.347656 181.285156 L 206.375 181.285156 C 207.699219 181.285156 208.8125 182.402344 208.8125 183.722656 L 208.8125 216.382812 C 208.8125 217.703125 207.699219 218.820312 206.375 218.820312 L 166.347656 218.820312 C 165.027344 218.820312 163.914062 217.703125 163.914062 216.382812 Z M 186.355469 184.894531 C 180.710938 184.894531 176.125 189.488281 176.125 195.128906 C 176.125 200.765625 180.71875 205.359375 186.355469 205.359375 C 191.996094 205.359375 196.589844 200.765625 196.589844 195.128906 C 196.589844 189.488281 191.996094 184.894531 186.355469 184.894531 Z M 186.355469 197.847656 C 184.859375 197.847656 183.644531 196.632812 183.644531 195.132812 C 183.644531 193.636719 184.859375 192.421875 186.355469 192.421875 C 187.855469 192.421875 189.070312 193.636719 189.070312 195.132812 C 189.070312 196.632812 187.855469 197.847656 186.355469 197.847656 Z M 220.40625 119.613281 C 231.902344 123.480469 244.402344 125.785156 257.609375 126.492188 C 258 131.851562 258.25 137.09375 258.355469 142.132812 C 258.398438 144.179688 260.074219 145.808594 262.117188 145.808594 C 262.140625 145.808594 262.171875 145.808594 262.195312 145.808594 C 264.269531 145.765625 265.917969 144.050781 265.875 141.976562 C 265.742188 135.753906 265.398438 129.222656 264.855469 122.570312 C 264.699219 120.664062 263.136719 119.179688 261.226562 119.125 C 248.488281 118.710938 236.4375 116.761719 225.359375 113.316406 L 225.359375 80.152344 L 245.28125 80.152344 C 246.894531 85.507812 251.878906 89.425781 257.753906 89.425781 C 264.941406 89.425781 270.789062 83.578125 270.789062 76.390625 C 270.789062 69.203125 264.941406 63.359375 257.753906 63.359375 C 251.871094 63.359375 246.894531 67.273438 245.28125 72.632812 L 221.601562 72.632812 C 219.527344 72.632812 217.839844 74.316406 217.839844 76.390625 L 217.839844 116.054688 C 217.839844 117.671875 218.875 119.105469 220.40625 119.617188 Z M 257.753906 70.871094 C 260.792969 70.871094 263.269531 73.347656 263.269531 76.386719 C 263.269531 79.425781 260.792969 81.898438 257.753906 81.898438 C 254.714844 81.898438 252.242188 79.425781 252.242188 76.386719 C 252.242188 73.347656 254.714844 70.871094 257.753906 70.871094 Z M 182.597656 63.144531 L 182.597656 97.054688 C 182.597656 98.214844 183.128906 99.304688 184.039062 100.019531 C 190.535156 105.101562 197.507812 109.511719 204.777344 113.140625 C 205.316406 113.410156 205.886719 113.535156 206.449219 113.535156 C 207.828125 113.535156 209.15625 112.769531 209.816406 111.453125 C 210.742188 109.59375 209.984375 107.339844 208.128906 106.410156 C 201.851562 103.277344 195.796875 99.511719 190.117188 95.207031 L 190.117188 63.144531 C 195.472656 61.527344 199.390625 56.546875 199.390625 50.671875 C 199.390625 43.484375 193.542969 37.636719 186.355469 37.636719 C 179.167969 37.636719 173.324219 43.484375 173.324219 50.671875 C 173.324219 56.554688 177.238281 61.527344 182.597656 63.144531 Z M 186.355469 45.148438 C 189.394531 45.148438 191.871094 47.625 191.871094 50.664062 C 191.871094 53.703125 189.394531 56.179688 186.355469 56.179688 C 183.316406 56.179688 180.84375 53.703125 180.84375 50.664062 C 180.84375 47.625 183.316406 45.148438 186.355469 45.148438 Z M 142.632812 242.390625 C 141.3125 240.785156 138.941406 240.5625 137.339844 241.878906 C 135.734375 243.199219 135.503906 245.566406 136.824219 247.171875 C 140.015625 251.050781 143.511719 254.796875 147.484375 258.605469 L 147.363281 297.136719 L 127.433594 297.136719 C 125.816406 291.777344 120.835938 287.863281 114.957031 287.863281 C 107.769531 287.863281 101.925781 293.707031 101.925781 300.894531 C 101.925781 308.082031 107.769531 313.925781 114.957031 313.925781 C 120.839844 313.925781 125.816406 310.011719 127.433594 304.652344 L 151.109375 304.652344 C 153.183594 304.652344 154.863281 302.980469 154.871094 300.90625 L 155.007812 257.007812 C 155.007812 255.96875 154.582031 254.964844 153.816406 254.257812 C 149.589844 250.285156 145.921875 246.414062 142.628906 242.402344 Z M 114.964844 306.402344 C 111.925781 306.402344 109.449219 303.925781 109.449219 300.886719 C 109.449219 297.847656 111.925781 295.375 114.964844 295.375 C 118.003906 295.375 120.476562 297.847656 120.476562 300.886719 C 120.476562 303.925781 118.003906 306.402344 114.964844 306.402344 Z M 190.117188 314.128906 L 190.117188 280.21875 C 190.117188 278.789062 189.308594 277.484375 188.027344 276.851562 C 180.742188 273.226562 174.308594 269.507812 168.359375 265.488281 C 166.644531 264.320312 164.300781 264.777344 163.140625 266.496094 C 161.976562 268.21875 162.433594 270.550781 164.148438 271.714844 C 169.796875 275.53125 175.855469 279.082031 182.597656 282.53125 L 182.597656 314.121094 C 177.238281 315.738281 173.324219 320.71875 173.324219 326.597656 C 173.324219 333.785156 179.167969 339.628906 186.355469 339.628906 C 193.542969 339.628906 199.390625 333.785156 199.390625 326.597656 C 199.390625 320.714844 195.472656 315.738281 190.117188 314.121094 Z M 186.355469 332.125 C 183.316406 332.125 180.84375 329.648438 180.84375 326.609375 C 180.84375 323.570312 183.316406 321.09375 186.355469 321.09375 C 189.394531 321.09375 191.871094 323.570312 191.871094 326.609375 C 191.871094 329.648438 189.394531 332.125 186.355469 332.125 Z M 322.222656 144.164062 C 316.339844 144.164062 311.363281 148.078125 309.75 153.4375 L 262.003906 153.4375 C 259.980469 153.4375 258.320312 155.035156 258.242188 157.058594 C 257.878906 166.980469 256.882812 176.4375 255.296875 185.171875 C 254.929688 187.214844 256.28125 189.167969 258.324219 189.546875 C 258.550781 189.589844 258.777344 189.609375 259 189.609375 C 260.78125 189.609375 262.367188 188.335938 262.699219 186.519531 C 264.152344 178.503906 265.128906 169.925781 265.597656 160.960938 L 309.75 160.960938 C 311.363281 166.316406 316.347656 170.234375 322.222656 170.234375 C 329.410156 170.234375 335.257812 164.386719 335.257812 157.203125 C 335.257812 150.015625 329.410156 144.167969 322.222656 144.167969 Z M 322.222656 162.707031 C 319.183594 162.707031 316.710938 160.234375 316.710938 157.195312 C 316.710938 154.15625 319.183594 151.679688 322.222656 151.679688 C 325.261719 151.679688 327.738281 154.15625 327.738281 157.195312 C 327.738281 160.234375 325.261719 162.707031 322.222656 162.707031 Z M 306.726562 170.101562 C 300.84375 170.101562 295.871094 174.019531 294.253906 179.375 L 284.058594 179.375 C 282.6875 179.375 281.421875 180.121094 280.761719 181.324219 L 272.046875 197.222656 L 255.5 197.222656 C 253.820312 197.222656 252.347656 198.335938 251.882812 199.945312 C 249.816406 207.175781 247.210938 214.0625 244.132812 220.410156 C 243.222656 222.277344 244.007812 224.527344 245.875 225.4375 C 246.402344 225.691406 246.957031 225.8125 247.511719 225.8125 C 248.90625 225.8125 250.25 225.027344 250.894531 223.695312 C 253.761719 217.765625 256.25 211.40625 258.300781 204.746094 L 274.265625 204.746094 C 275.636719 204.746094 276.902344 204 277.5625 202.792969 L 286.277344 186.894531 L 294.246094 186.894531 C 295.863281 192.253906 300.84375 196.167969 306.722656 196.167969 C 313.910156 196.167969 319.753906 190.320312 319.753906 183.136719 C 319.753906 175.949219 313.910156 170.101562 306.722656 170.101562 Z M 306.726562 188.648438 C 303.6875 188.648438 301.214844 186.175781 301.214844 183.136719 C 301.214844 180.097656 303.6875 177.621094 306.726562 177.621094 C 309.765625 177.621094 312.242188 180.097656 312.242188 183.136719 C 312.242188 186.175781 309.765625 188.648438 306.726562 188.648438 Z M 305.601562 248.632812 C 303.320312 248.632812 301.183594 249.21875 299.316406 250.253906 L 280.863281 234.34375 C 280.179688 233.757812 279.308594 233.429688 278.40625 233.429688 L 238.699219 233.429688 C 237.464844 233.429688 236.308594 234.039062 235.605469 235.054688 C 232.773438 239.164062 229.601562 243.136719 226.195312 246.847656 C 224.789062 248.375 224.890625 250.753906 226.417969 252.160156 C 227.949219 253.5625 230.328125 253.460938 231.734375 251.933594 C 234.921875 248.457031 237.917969 244.765625 240.648438 240.949219 L 277.003906 240.949219 C 277.003906 240.949219 294.046875 255.644531 294.046875 255.644531 C 293.101562 257.449219 292.5625 259.488281 292.5625 261.664062 C 292.5625 268.851562 298.40625 274.695312 305.59375 274.695312 C 312.78125 274.695312 318.625 268.851562 318.625 261.664062 C 318.625 254.476562 312.78125 248.632812 305.59375 248.632812 Z M 305.601562 267.183594 C 302.5625 267.183594 300.085938 264.710938 300.085938 261.671875 C 300.085938 258.632812 302.5625 256.15625 305.601562 256.15625 C 308.640625 256.15625 311.113281 258.632812 311.113281 261.671875 C 311.113281 264.710938 308.640625 267.183594 305.601562 267.183594 Z M 63 160.953125 L 110.726562 160.953125 C 111.75 160.953125 112.726562 160.539062 113.433594 159.800781 C 114.144531 159.0625 114.519531 158.070312 114.480469 157.050781 C 114.113281 147.53125 114.324219 137.269531 115.101562 126.492188 C 122.5625 126.097656 129.820312 125.1875 136.71875 123.785156 C 138.753906 123.371094 140.066406 121.386719 139.65625 119.355469 C 139.242188 117.320312 137.265625 116.003906 135.226562 116.417969 C 127.707031 117.945312 119.71875 118.855469 111.5 119.125 C 109.585938 119.1875 108.027344 120.671875 107.871094 122.570312 C 106.980469 133.386719 106.644531 143.75 106.855469 153.433594 L 63 153.433594 C 61.386719 148.078125 56.402344 144.164062 50.527344 144.164062 C 43.339844 144.164062 37.492188 150.007812 37.492188 157.195312 C 37.492188 164.382812 43.339844 170.226562 50.527344 170.226562 C 56.410156 170.226562 61.386719 166.3125 63 160.953125 Z M 50.527344 162.707031 C 47.488281 162.707031 45.011719 160.234375 45.011719 157.195312 C 45.011719 154.15625 47.488281 151.679688 50.527344 151.679688 C 53.566406 151.679688 56.039062 154.15625 56.039062 157.195312 C 56.039062 160.234375 53.566406 162.707031 50.527344 162.707031 Z M 66.023438 196.167969 C 71.898438 196.167969 76.878906 192.253906 78.496094 186.894531 L 86.46875 186.894531 L 95.1875 202.792969 C 95.847656 203.996094 97.113281 204.746094 98.484375 204.746094 L 117.238281 204.746094 C 118.417969 204.746094 119.53125 204.1875 120.238281 203.25 C 120.949219 202.300781 121.171875 201.082031 120.847656 199.945312 C 118.371094 191.355469 116.582031 181.9375 115.515625 171.945312 C 115.296875 169.875 113.449219 168.386719 111.378906 168.605469 C 109.320312 168.824219 107.820312 170.679688 108.039062 172.742188 C 108.953125 181.34375 110.394531 189.558594 112.332031 197.226562 L 100.710938 197.226562 L 91.988281 181.332031 C 91.328125 180.128906 90.0625 179.382812 88.691406 179.382812 L 78.496094 179.382812 C 76.878906 174.023438 71.898438 170.109375 66.023438 170.109375 C 58.835938 170.109375 52.988281 175.953125 52.988281 183.140625 C 52.988281 190.328125 58.835938 196.175781 66.023438 196.175781 Z M 66.023438 177.621094 C 69.0625 177.621094 71.535156 180.097656 71.535156 183.136719 C 71.535156 186.175781 69.0625 188.648438 66.023438 188.648438 C 62.984375 188.648438 60.507812 186.175781 60.507812 183.136719 C 60.507812 180.097656 62.984375 177.621094 66.023438 177.621094 Z M 114.964844 89.417969 C 120.847656 89.417969 125.824219 85.5 127.4375 80.144531 L 147.359375 80.144531 L 147.359375 116.046875 C 147.359375 117.257812 147.941406 118.390625 148.925781 119.097656 C 149.570312 119.5625 150.339844 119.808594 151.117188 119.808594 C 151.519531 119.808594 151.925781 119.746094 152.3125 119.613281 C 159.527344 117.1875 166.5 114.097656 173.054688 110.425781 C 174.863281 109.414062 175.511719 107.117188 174.496094 105.308594 C 173.480469 103.496094 171.191406 102.851562 169.375 103.867188 C 164.746094 106.460938 159.882812 108.746094 154.875 110.691406 L 154.875 76.386719 C 154.875 74.3125 153.191406 72.625 151.117188 72.625 L 127.4375 72.625 C 125.824219 67.269531 120.839844 63.351562 114.964844 63.351562 C 107.777344 63.351562 101.929688 69.199219 101.929688 76.386719 C 101.929688 83.570312 107.777344 89.417969 114.964844 89.417969 Z M 114.964844 70.871094 C 118.003906 70.871094 120.476562 73.347656 120.476562 76.386719 C 120.476562 79.425781 118.003906 81.898438 114.964844 81.898438 C 111.925781 81.898438 109.449219 79.425781 109.449219 76.386719 C 109.449219 73.347656 111.925781 70.871094 114.964844 70.871094 Z M 257.753906 287.847656 C 251.871094 287.847656 246.894531 291.765625 245.28125 297.121094 L 225.359375 297.121094 L 225.359375 256.832031 C 225.359375 255.347656 224.488281 254.007812 223.136719 253.398438 C 221.78125 252.796875 220.199219 253.042969 219.09375 254.03125 C 213.253906 259.265625 206.667969 264.171875 199.519531 268.621094 C 197.761719 269.714844 197.214844 272.035156 198.3125 273.796875 C 199.40625 275.554688 201.726562 276.101562 203.488281 275.003906 C 208.554688 271.851562 213.363281 268.476562 217.839844 264.921875 L 217.839844 300.886719 C 217.839844 302.960938 219.527344 304.648438 221.601562 304.648438 L 245.28125 304.648438 C 246.894531 310.003906 251.878906 313.921875 257.753906 313.921875 C 264.941406 313.921875 270.789062 308.074219 270.789062 300.886719 C 270.789062 293.703125 264.941406 287.855469 257.753906 287.855469 Z M 257.753906 306.402344 C 254.714844 306.402344 252.242188 303.925781 252.242188 300.886719 C 252.242188 297.847656 254.714844 295.375 257.753906 295.375 C 260.792969 295.375 263.269531 297.847656 263.269531 300.886719 C 263.269531 303.925781 260.792969 306.402344 257.753906 306.402344 Z M 257.753906 306.402344 " fill-opacity="1" fill-rule="nonzero"/></g></svg>