<svg xmlns="http://www.w3.org/2000/svg" xmlns:xlink="http://www.w3.org/1999/xlink" width="500" zoomAndPan="magnify" viewBox="0 0 375 374.999991" height="500" preserveAspectRatio="xMidYMid meet" version="1.0"><defs><clipPath id="2fe6963a14"><path d="M 0 0 L 375 0 L 375 375 L 0 375 Z M 0 0 " clip-rule="nonzero"/></clipPath><clipPath id="f0ac764e30"><rect x="0" width="375" y="0" height="375"/></clipPath><clipPath id="cf05191cca"><path d="M 40 45.152344 L 335 45.152344 L 335 348.152344 L 40 348.152344 Z M 40 45.152344 " clip-rule="nonzero"/></clipPath></defs><rect x="-37.5" width="450" fill="#ffffff" y="-37.499999" height="449.999989" fill-opacity="1"/><rect x="-37.5" width="450" fill="#ffffff" y="-37.499999" height="449.999989" fill-opacity="1"/><g transform="matrix(1, 0, 0, 1, 0, 0)"><g clip-path="url(#f0ac764e30)"><g clip-path="url(#2fe6963a14)"><rect x="-82.5" width="540" fill="#ffffff" height="539.999987" y="-82.499998" fill-opacity="1"/></g></g></g><g clip-path="url(#cf05191cca)"><path fill="#ff6600" d="M 40.195312 199.792969 C 39.367188 217.5 51.925781 234.378906 75.484375 247.582031 C 74.257812 252.117188 73.277344 256.621094 72.605469 261.121094 C 65.988281 262.132812 60.871094 267.800781 60.871094 274.695312 C 60.871094 281.953125 66.539062 287.835938 73.644531 288.386719 C 77.445312 302.601562 85.867188 311.820312 98.855469 315.589844 C 103.269531 316.878906 108.046875 317.488281 113.164062 317.488281 C 121.648438 317.488281 130.992188 315.804688 140.765625 312.800781 C 150.851562 331.117188 166.277344 348.398438 187.207031 348.398438 C 192.597656 348.398438 197.898438 347.113281 203.074219 344.691406 C 205.523438 346.960938 208.804688 348.398438 212.417969 348.398438 C 220.015625 348.398438 226.203125 342.210938 226.203125 334.613281 C 226.203125 331.886719 225.375 329.34375 223.996094 327.199219 C 227.429688 322.878906 230.554688 318.164062 233.402344 313.109375 C 242.101562 315.558594 250.679688 316.96875 258.921875 316.96875 C 259.136719 316.96875 259.320312 316.96875 259.535156 316.9375 C 261.617188 321.902344 266.519531 325.363281 272.214844 325.363281 C 279.8125 325.363281 286 319.207031 286 311.578125 C 286 310.933594 285.910156 310.320312 285.816406 309.707031 C 295.527344 303.335938 301.316406 293.933594 302.910156 281.554688 C 304.226562 271.355469 302.667969 259.746094 298.929688 247.550781 C 323.007812 234.105469 335.660156 216.703125 334.066406 198.386719 C 332.59375 181.75 320.066406 166.710938 298.960938 154.976562 C 301.289062 146.675781 302.636719 138.464844 302.726562 130.5625 C 308.117188 128.691406 312.007812 123.605469 312.007812 117.601562 C 312.007812 110.003906 305.851562 103.816406 298.222656 103.816406 C 297.582031 103.816406 296.96875 103.910156 296.324219 104 C 290.535156 94.414062 281.894531 88.410156 270.5625 86.203125 C 259.746094 84.121094 246.972656 85.710938 233.554688 89.757812 C 224.734375 73.429688 213.246094 60.992188 198.695312 56.273438 C 197.4375 49.960938 191.863281 45.152344 185.183594 45.152344 C 177.925781 45.152344 172.042969 50.789062 171.492188 57.898438 C 158.898438 63.65625 148.699219 75.203125 140.703125 89.757812 C 117.910156 82.925781 97.019531 83.628906 83.234375 97.382812 C 68.746094 111.90625 68.347656 132.949219 75.207031 155.28125 C 53.273438 167.566406 40.988281 183.035156 40.195312 199.792969 Z M 100.605469 309.707031 C 90.003906 306.644531 83.050781 299.140625 79.742188 287.5 C 84.828125 285.445312 88.441406 280.515625 88.441406 274.695312 C 88.441406 268.503906 84.335938 263.328125 78.730469 261.582031 C 79.28125 257.9375 80.078125 254.261719 81.089844 250.523438 C 93.527344 256.742188 107.925781 261.675781 123.457031 265.226562 C 127.042969 280.914062 131.941406 295.25 137.976562 307.472656 C 123.945312 311.609375 111.019531 312.773438 100.605469 309.707031 Z M 116.960938 218.847656 C 112.613281 213.148438 108.414062 207.207031 104.464844 201.140625 C 108.355469 195.230469 112.550781 189.378906 116.960938 183.679688 C 116.257812 195.503906 116.289062 207.300781 116.960938 218.847656 Z M 100.789062 195.320312 C 93.222656 183.007812 86.878906 170.386719 82.683594 158.253906 C 85.074219 157.027344 87.585938 155.863281 90.1875 154.730469 C 92.699219 157.855469 96.53125 159.9375 100.878906 159.9375 C 108.476562 159.9375 114.664062 153.75 114.664062 146.152344 L 114.664062 146.0625 C 116.992188 145.386719 119.414062 144.773438 121.957031 144.164062 C 119.996094 153.875 118.617188 163.554688 117.789062 172.714844 C 111.816406 179.941406 106.054688 187.507812 100.789062 195.320312 Z M 100.941406 206.65625 C 106.363281 214.835938 112.121094 222.554688 117.789062 229.632812 C 118.738281 239.527344 120.148438 249.207031 122.015625 258.488281 C 107.527344 254.996094 94.230469 250.371094 82.835938 244.582031 C 86.941406 231.988281 93.222656 219.15625 100.941406 206.65625 Z M 160.859375 137.914062 C 178.046875 136.410156 195.722656 136.382812 212.90625 137.851562 C 226.78125 149.027344 238.539062 160.476562 250.496094 175.195312 C 252.199219 192.417969 252.332031 208.777344 250.617188 227.640625 C 238.054688 242.6875 226.113281 254.277344 213.277344 264.796875 C 195.90625 266.269531 178.078125 266.238281 160.832031 264.707031 C 146.347656 252.628906 134.664062 240.6875 123.855469 227.546875 C 122.292969 210.484375 122.167969 192.746094 123.703125 175.316406 C 135.433594 161.285156 148.300781 148.480469 160.859375 137.914062 Z M 124.867188 164.503906 C 125.753906 157.734375 127.011719 150.320312 128.664062 142.660156 C 135.648438 141.160156 142.847656 139.964844 150.230469 139.015625 C 141.867188 146.519531 133.230469 155.128906 124.867188 164.503906 Z M 169.285156 131.144531 C 174.800781 126.945312 180.652344 122.808594 186.714844 118.917969 C 192.78125 122.808594 198.664062 126.914062 204.238281 131.113281 C 192.628906 130.46875 180.894531 130.5 169.285156 131.144531 Z M 223.996094 139.015625 C 231.378906 139.933594 238.578125 141.128906 245.59375 142.628906 C 247.09375 149.828125 248.289062 157.058594 249.238281 164.167969 C 241.347656 155.164062 233.84375 147.585938 223.996094 139.015625 Z M 249.453125 238.394531 C 248.535156 245.621094 247.339844 252.882812 245.839844 260.082031 C 238.761719 261.582031 231.472656 262.777344 224.058594 263.695312 C 233.828125 255.164062 240.902344 248.03125 249.453125 238.394531 Z M 204.515625 271.691406 C 198.753906 276.042969 192.84375 280.175781 186.839844 284.007812 C 180.894531 280.117188 175.105469 275.949219 169.53125 271.660156 C 181.332031 272.398438 192.75 272.382812 204.515625 271.691406 Z M 150.078125 263.542969 C 142.785156 262.625 135.648438 261.429688 128.757812 259.988281 C 127.253906 252.972656 126 245.746094 125.050781 238.332031 C 132.941406 247.425781 139.886719 254.503906 150.078125 263.542969 Z M 130.257812 266.699219 C 139.449219 268.535156 148.976562 269.945312 158.6875 270.863281 C 165.730469 276.65625 173.296875 282.320312 181.140625 287.558594 C 168.640625 295.125 155.988281 301.34375 143.949219 305.511719 C 138.375 294.328125 133.78125 281.15625 130.257812 266.699219 Z M 219.585938 322.882812 C 217.503906 321.59375 215.050781 320.828125 212.417969 320.828125 C 204.820312 320.828125 198.632812 327.015625 198.632812 334.613281 C 198.632812 336.359375 199 338.015625 199.582031 339.546875 C 195.539062 341.324219 191.371094 342.273438 187.207031 342.273438 C 169.179688 342.273438 155.507812 326.628906 146.738281 310.8125 C 159.757812 306.1875 173.390625 299.386719 186.683594 291.207031 C 199.886719 299.570312 213.734375 306.644531 227.429688 311.242188 C 225.039062 315.40625 222.40625 319.296875 219.585938 322.882812 Z M 230.429688 305.816406 C 217.75 301.683594 204.820312 295.25 192.414062 287.589844 C 200.316406 282.414062 208.066406 276.808594 215.449219 270.894531 C 225.253906 269.976562 234.964844 268.566406 244.367188 266.667969 C 241.03125 280.605469 236.464844 294.054688 230.429688 305.816406 Z M 296.84375 280.757812 C 295.527344 290.777344 291.085938 298.496094 283.613281 303.828125 C 281.097656 300.210938 276.933594 297.792969 272.214844 297.792969 C 264.894531 297.792969 258.921875 303.582031 258.523438 310.8125 C 251.355469 310.78125 243.910156 309.617188 236.34375 307.5625 C 242.746094 294.757812 247.523438 280.207031 250.925781 265.199219 C 254.265625 264.429688 257.542969 263.605469 260.789062 262.714844 C 263.269531 266.390625 267.46875 268.8125 272.214844 268.8125 C 280.046875 268.8125 286.59375 262.167969 285.910156 253.953125 C 288.484375 252.820312 290.996094 251.65625 293.382812 250.460938 C 296.628906 261.429688 298.007812 271.785156 296.84375 280.757812 Z M 258.644531 256.957031 C 256.5625 257.539062 254.480469 258.089844 252.363281 258.582031 C 254.265625 249.054688 255.613281 239.464844 256.53125 230.089844 C 262.382812 222.953125 268.109375 215.324219 273.410156 207.390625 C 280.976562 219.828125 287.257812 232.511719 291.484375 244.613281 C 289.125 245.804688 286.613281 246.941406 284.039062 248.074219 C 281.652344 244 277.269531 241.242188 272.214844 241.242188 C 264.148438 241.242188 257.351562 248.328125 258.644531 256.957031 Z M 257.328125 183.832031 C 261.738281 189.621094 265.9375 195.628906 269.855469 201.722656 C 265.9375 207.726562 261.738281 213.578125 257.390625 219.183594 C 258.214844 205.421875 258.125 195.3125 257.328125 183.832031 Z M 256.378906 172.589844 C 255.398438 163.339844 253.957031 153.6875 251.996094 144.070312 C 267.191406 147.714844 280.546875 152.496094 291.636719 158.132812 C 287.53125 170.78125 281.160156 183.648438 273.53125 195.964844 C 268.234375 187.90625 262.441406 180.066406 256.378906 172.589844 Z M 327.9375 198.9375 C 329.316406 214.46875 318.195312 229.570312 297 241.640625 C 292.371094 228.527344 285.449219 214.894531 277.179688 201.632812 C 285.480469 188.519531 292.496094 174.734375 297.089844 161.070312 C 315.5625 171.671875 326.714844 184.84375 327.9375 198.9375 Z M 269.398438 92.238281 C 278.558594 94.015625 285.632812 98.703125 290.503906 106.207031 C 286.859375 108.6875 284.4375 112.855469 284.4375 117.601562 C 284.4375 124.648438 289.769531 130.40625 296.601562 131.203125 C 296.476562 137.972656 295.34375 144.988281 293.445312 152.097656 C 281.4375 146.152344 267.039062 141.160156 250.558594 137.453125 C 247.15625 122.503906 242.46875 107.921875 236.34375 95.210938 C 248.382812 91.6875 259.777344 90.367188 269.398438 92.238281 Z M 244.125 136.074219 C 234.902344 134.207031 225.34375 132.859375 215.574219 131.941406 C 208.34375 126.117188 200.625 120.480469 192.660156 115.242188 C 205.066406 107.738281 218.148438 101.273438 230.707031 96.984375 C 236.402344 108.65625 240.816406 122.136719 244.125 136.074219 Z M 172.441406 64.207031 C 174.523438 69.199219 179.425781 72.722656 185.183594 72.722656 C 191.496094 72.722656 196.792969 68.433594 198.386719 62.613281 C 210.488281 67.117188 220.230469 77.71875 227.917969 91.625 C 214.257812 96.375 200.164062 103.417969 186.960938 111.566406 C 173.726562 103.328125 159.972656 96.34375 146.675781 91.6875 C 153.476562 79.523438 161.964844 69.539062 172.441406 64.207031 Z M 143.828125 97.140625 C 156.082031 101.457031 168.824219 107.890625 181.019531 115.335938 C 172.929688 120.636719 165.300781 126.304688 158.410156 131.96875 C 148.730469 132.890625 139.265625 134.269531 130.164062 136.074219 C 133.382812 122.808594 137.886719 109.148438 143.828125 97.140625 Z M 87.585938 101.734375 C 99.53125 89.757812 117.820312 89.328125 137.824219 95.238281 C 131.542969 108.046875 126.765625 122.6875 123.394531 137.515625 C 119.75 138.34375 116.378906 139.199219 113.226562 140.089844 C 110.957031 135.523438 106.300781 132.367188 100.878906 132.367188 C 93.28125 132.367188 87.09375 138.527344 87.09375 146.152344 C 87.09375 147.195312 87.246094 148.238281 87.460938 149.21875 C 85.164062 150.226562 82.929688 151.269531 80.785156 152.34375 C 74.871094 132.0625 75.574219 113.710938 87.585938 101.734375 Z M 77.199219 161.226562 C 81.976562 174.488281 89.085938 188.0625 97.171875 200.835938 C 88.808594 214.007812 81.855469 227.761719 77.320312 241.578125 C 56.613281 229.691406 45.617188 215.050781 46.320312 200.101562 C 46.964844 185.976562 58.023438 172.285156 77.199219 161.226562 Z M 77.199219 161.226562 " fill-opacity="1" fill-rule="nonzero"/></g><path fill="#ff6600" d="M 249.035156 74.132812 C 246.988281 74.359375 244.90625 74.65625 242.789062 75.019531 L 243.828125 81.058594 C 245.820312 80.710938 247.785156 80.433594 249.710938 80.222656 Z M 249.035156 74.132812 " fill-opacity="1" fill-rule="nonzero"/><path fill="#ff6600" d="M 261.710938 73.609375 C 259.640625 73.539062 257.515625 73.550781 255.351562 73.640625 L 255.613281 79.761719 C 257.617188 79.675781 259.585938 79.667969 261.507812 79.730469 Z M 261.710938 73.609375 " fill-opacity="1" fill-rule="nonzero"/><path fill="#ff6600" d="M 280.640625 76.917969 L 278.660156 82.714844 C 280.5 83.34375 282.289062 84.078125 283.980469 84.898438 L 286.65625 79.386719 C 284.738281 78.457031 282.71875 77.625 280.640625 76.917969 Z M 280.640625 76.917969 " fill-opacity="1" fill-rule="nonzero"/><path fill="#ff6600" d="M 274.417969 75.175781 C 272.378906 74.722656 270.25 74.359375 268.078125 74.09375 L 267.34375 80.175781 C 269.3125 80.417969 271.242188 80.746094 273.082031 81.15625 Z M 274.417969 75.175781 " fill-opacity="1" fill-rule="nonzero"/><path fill="#ff6600" d="M 297.519531 86.566406 C 295.882812 85.136719 294.132812 83.804688 292.320312 82.605469 L 288.945312 87.722656 C 290.53125 88.765625 292.0625 89.929688 293.488281 91.179688 Z M 297.519531 86.566406 " fill-opacity="1" fill-rule="nonzero"/><path fill="#ff6600" d="M 109.050781 328.925781 C 111.121094 329.097656 113.261719 329.183594 115.421875 329.183594 L 115.421875 323.058594 C 113.429688 323.058594 111.453125 322.976562 109.554688 322.820312 Z M 109.050781 328.925781 " fill-opacity="1" fill-rule="nonzero"/><path fill="#ff6600" d="M 96.410156 326.65625 C 98.429688 327.238281 100.542969 327.730469 102.691406 328.109375 L 103.761719 322.078125 C 101.824219 321.734375 99.921875 321.292969 98.109375 320.769531 Z M 96.410156 326.65625 " fill-opacity="1" fill-rule="nonzero"/><path fill="#ff6600" d="M 74.582031 314.019531 C 75.996094 315.425781 77.496094 316.753906 79.046875 317.957031 L 82.808594 313.121094 C 81.453125 312.070312 80.140625 310.910156 78.90625 309.679688 Z M 74.582031 314.019531 " fill-opacity="1" fill-rule="nonzero"/><path fill="#ff6600" d="M 90.300781 324.503906 L 92.671875 318.859375 C 90.894531 318.109375 89.167969 317.253906 87.535156 316.308594 L 84.460938 321.605469 C 86.320312 322.683594 88.28125 323.660156 90.300781 324.503906 Z M 90.300781 324.503906 " fill-opacity="1" fill-rule="nonzero"/><path fill="#ff6600" d="M 60.039062 137.828125 C 60.242188 139.878906 60.5 141.964844 60.832031 144.078125 L 66.886719 143.136719 C 66.574219 141.140625 66.324219 139.171875 66.136719 137.234375 Z M 60.039062 137.828125 " fill-opacity="1" fill-rule="nonzero"/><path fill="#ff6600" d="M 63.441406 106.257812 L 69.1875 108.390625 C 69.867188 106.5625 70.644531 104.800781 71.511719 103.148438 L 66.082031 100.304688 C 65.097656 102.183594 64.207031 104.1875 63.441406 106.257812 Z M 63.441406 106.257812 " fill-opacity="1" fill-rule="nonzero"/><path fill="#ff6600" d="M 78.09375 93.878906 L 73.644531 89.667969 C 72.152344 91.246094 70.753906 92.949219 69.488281 94.730469 L 74.484375 98.277344 C 75.582031 96.726562 76.800781 95.25 78.09375 93.878906 Z M 78.09375 93.878906 " fill-opacity="1" fill-rule="nonzero"/><path fill="#ff6600" d="M 60.335938 118.765625 L 66.402344 119.621094 C 66.679688 117.660156 67.046875 115.738281 67.496094 113.914062 L 61.546875 112.449219 C 61.050781 114.476562 60.640625 116.601562 60.335938 118.765625 Z M 60.335938 118.765625 " fill-opacity="1" fill-rule="nonzero"/><path fill="#ff6600" d="M 59.625 129.265625 C 59.628906 130 59.636719 130.742188 59.65625 131.492188 L 65.78125 131.335938 C 65.765625 130.632812 65.753906 129.933594 65.75 129.253906 C 65.75 127.964844 65.785156 126.695312 65.847656 125.445312 L 59.726562 125.136719 C 59.65625 126.488281 59.625 127.863281 59.625 129.265625 Z M 59.625 129.265625 " fill-opacity="1" fill-rule="nonzero"/><path fill="#ff6600" d="M 315.058594 273.246094 C 315.058594 272.132812 315.039062 271.003906 314.992188 269.867188 L 308.871094 270.117188 C 308.914062 271.171875 308.933594 272.214844 308.933594 273.246094 C 308.933594 274.171875 308.914062 275.09375 308.882812 276.003906 L 315.003906 276.234375 C 315.042969 275.246094 315.058594 274.25 315.058594 273.246094 Z M 315.058594 273.246094 " fill-opacity="1" fill-rule="nonzero"/><path fill="#ff6600" d="M 314.519531 263.554688 C 314.296875 261.503906 314.003906 259.421875 313.640625 257.300781 L 307.605469 258.332031 C 307.941406 260.324219 308.21875 262.285156 308.425781 264.214844 Z M 314.519531 263.554688 " fill-opacity="1" fill-rule="nonzero"/><path fill="#ff6600" d="M 311.578125 295.152344 L 305.796875 293.121094 C 305.15625 294.949219 304.40625 296.730469 303.570312 298.421875 L 309.054688 301.144531 C 310.007812 299.226562 310.855469 297.210938 311.578125 295.152344 Z M 311.578125 295.152344 " fill-opacity="1" fill-rule="nonzero"/><path fill="#ff6600" d="M 297.203125 307.878906 L 301.78125 311.949219 C 303.226562 310.324219 304.574219 308.585938 305.785156 306.785156 L 300.699219 303.367188 C 299.644531 304.941406 298.464844 306.457031 297.203125 307.878906 Z M 297.203125 307.878906 " fill-opacity="1" fill-rule="nonzero"/><path fill="#ff6600" d="M 314.488281 282.605469 L 308.410156 281.839844 C 308.164062 283.785156 307.824219 285.714844 307.398438 287.566406 L 313.371094 288.9375 C 313.84375 286.886719 314.214844 284.757812 314.488281 282.605469 Z M 314.488281 282.605469 " fill-opacity="1" fill-rule="nonzero"/><path fill="#ff6600" d="M 227.136719 164.175781 C 227.136719 164.617188 227.078125 165.054688 226.953125 165.496094 C 226.828125 165.933594 226.644531 166.367188 226.398438 166.800781 C 226.152344 167.230469 225.847656 167.65625 225.480469 168.078125 C 225.117188 168.5 224.691406 168.914062 224.210938 169.320312 C 223.730469 169.726562 223.191406 170.125 222.597656 170.515625 C 222.003906 170.902344 221.355469 171.28125 220.65625 171.644531 C 219.957031 172.011719 219.207031 172.363281 218.410156 172.707031 C 217.609375 173.046875 216.765625 173.371094 215.875 173.683594 C 214.984375 173.992188 214.050781 174.289062 213.078125 174.570312 C 212.105469 174.847656 211.09375 175.109375 210.046875 175.355469 C 209 175.597656 207.921875 175.824219 206.808594 176.03125 C 205.699219 176.238281 204.5625 176.429688 203.398438 176.597656 C 202.234375 176.765625 201.050781 176.914062 199.84375 177.042969 C 198.640625 177.167969 197.417969 177.277344 196.183594 177.363281 C 194.949219 177.449219 193.703125 177.511719 192.449219 177.554688 C 191.195312 177.597656 189.941406 177.621094 188.679688 177.621094 C 187.421875 177.621094 186.164062 177.597656 184.910156 177.554688 C 183.65625 177.511719 182.414062 177.449219 181.179688 177.363281 C 179.941406 177.277344 178.722656 177.167969 177.515625 177.042969 C 176.3125 176.914062 175.128906 176.765625 173.964844 176.597656 C 172.800781 176.429688 171.664062 176.238281 170.550781 176.03125 C 169.441406 175.824219 168.363281 175.597656 167.316406 175.355469 C 166.269531 175.109375 165.257812 174.847656 164.285156 174.570312 C 163.308594 174.289062 162.378906 173.992188 161.488281 173.683594 C 160.597656 173.371094 159.75 173.046875 158.953125 172.707031 C 158.152344 172.363281 157.402344 172.011719 156.703125 171.644531 C 156.003906 171.28125 155.359375 170.902344 154.765625 170.515625 C 154.171875 170.125 153.632812 169.726562 153.152344 169.320312 C 152.667969 168.914062 152.246094 168.5 151.878906 168.078125 C 151.511719 167.65625 151.207031 167.230469 150.960938 166.800781 C 150.714844 166.367188 150.53125 165.933594 150.410156 165.496094 C 150.285156 165.054688 150.222656 164.617188 150.222656 164.175781 C 150.222656 163.738281 150.285156 163.296875 150.410156 162.859375 C 150.53125 162.421875 150.714844 161.988281 150.960938 161.554688 C 151.207031 161.121094 151.511719 160.695312 151.878906 160.273438 C 152.246094 159.855469 152.667969 159.441406 153.152344 159.03125 C 153.632812 158.625 154.171875 158.226562 154.765625 157.839844 C 155.359375 157.453125 156.003906 157.074219 156.703125 156.707031 C 157.402344 156.34375 158.152344 155.988281 158.953125 155.648438 C 159.75 155.308594 160.597656 154.984375 161.488281 154.671875 C 162.378906 154.359375 163.308594 154.066406 164.285156 153.785156 C 165.257812 153.507812 166.269531 153.246094 167.316406 153 C 168.363281 152.753906 169.441406 152.527344 170.550781 152.320312 C 171.664062 152.113281 172.800781 151.925781 173.964844 151.757812 C 175.128906 151.589844 176.3125 151.441406 177.515625 151.3125 C 178.722656 151.183594 179.941406 151.078125 181.179688 150.992188 C 182.414062 150.90625 183.65625 150.84375 184.910156 150.800781 C 186.164062 150.757812 187.421875 150.734375 188.679688 150.734375 C 189.941406 150.734375 191.195312 150.757812 192.449219 150.800781 C 193.703125 150.84375 194.949219 150.90625 196.183594 150.992188 C 197.417969 151.078125 198.640625 151.183594 199.84375 151.3125 C 201.050781 151.441406 202.234375 151.589844 203.398438 151.757812 C 204.5625 151.925781 205.699219 152.113281 206.808594 152.320312 C 207.921875 152.527344 209 152.753906 210.046875 153 C 211.09375 153.246094 212.105469 153.507812 213.078125 153.785156 C 214.050781 154.066406 214.984375 154.359375 215.875 154.671875 C 216.765625 154.984375 217.609375 155.308594 218.410156 155.648438 C 219.207031 155.988281 219.957031 156.34375 220.65625 156.707031 C 221.355469 157.074219 222.003906 157.453125 222.597656 157.839844 C 223.191406 158.226562 223.730469 158.625 224.210938 159.03125 C 224.691406 159.441406 225.117188 159.855469 225.480469 160.273438 C 225.847656 160.695312 226.152344 161.121094 226.398438 161.554688 C 226.644531 161.988281 226.828125 162.421875 226.953125 162.859375 C 227.078125 163.296875 227.136719 163.738281 227.136719 164.175781 Z M 227.136719 164.175781 " fill-opacity="1" fill-rule="nonzero"/><path fill="#ff6600" d="M 188.679688 243.644531 C 209.917969 243.644531 227.136719 237.628906 227.136719 230.203125 L 227.136719 203.316406 C 227.136719 210.742188 209.917969 216.761719 188.679688 216.761719 C 167.441406 216.761719 150.222656 210.742188 150.222656 203.316406 L 150.222656 230.203125 C 150.222656 237.628906 167.441406 243.644531 188.679688 243.644531 Z M 205.082031 225.457031 L 209.582031 225.457031 L 209.582031 231.582031 L 205.082031 231.582031 Z M 192.921875 225.457031 L 197.421875 225.457031 L 197.421875 231.582031 L 192.921875 231.582031 Z M 179.941406 225.457031 L 184.4375 225.457031 L 184.4375 231.582031 L 179.941406 231.582031 Z M 167.78125 225.457031 L 172.28125 225.457031 L 172.28125 231.582031 L 167.78125 231.582031 Z M 167.78125 225.457031 " fill-opacity="1" fill-rule="nonzero"/><path fill="#ff6600" d="M 188.679688 210.632812 C 209.917969 210.632812 227.136719 204.613281 227.136719 197.191406 L 227.136719 170.304688 C 227.136719 177.730469 209.917969 183.746094 188.679688 183.746094 C 167.441406 183.746094 150.222656 177.730469 150.222656 170.304688 L 150.222656 197.191406 C 150.222656 204.613281 167.441406 210.632812 188.679688 210.632812 Z M 205.082031 192.445312 L 209.582031 192.445312 L 209.582031 198.570312 L 205.082031 198.570312 Z M 192.921875 192.445312 L 197.421875 192.445312 L 197.421875 198.570312 L 192.921875 198.570312 Z M 179.941406 192.445312 L 184.4375 192.445312 L 184.4375 198.570312 L 179.941406 198.570312 Z M 167.78125 192.445312 L 172.28125 192.445312 L 172.28125 198.570312 L 167.78125 198.570312 Z M 167.78125 192.445312 " fill-opacity="1" fill-rule="nonzero"/></svg>