<svg xmlns="http://www.w3.org/2000/svg" xmlns:xlink="http://www.w3.org/1999/xlink" width="500" zoomAndPan="magnify" viewBox="0 0 375 374.999991" height="500" preserveAspectRatio="xMidYMid meet" version="1.0"><defs><clipPath id="cb06850638"><path d="M 0 0 L 375 0 L 375 375 L 0 375 Z M 0 0 " clip-rule="nonzero"/></clipPath><clipPath id="1904a952e7"><rect x="0" width="375" y="0" height="375"/></clipPath></defs><g transform="matrix(1, 0, 0, 1, 0, 0)"><g clip-path="url(#1904a952e7)"><g clip-path="url(#cb06850638)"><rect x="-82.5" width="540" fill="#ffffff" height="539.999987" y="-82.499998" fill-opacity="1"/></g></g></g><path fill="#005de0" d="M 266.140625 318.796875 L 263.890625 314.773438 C 263.820312 314.636719 263.617188 314.566406 263.410156 314.636719 L 256.859375 317.773438 C 256.792969 317.84375 256.722656 317.910156 256.65625 317.980469 C 256.65625 318.046875 256.65625 318.183594 256.65625 318.253906 L 258.769531 322.210938 C 258.839844 322.347656 258.976562 322.414062 259.042969 322.414062 C 259.113281 322.414062 259.113281 322.414062 259.179688 322.414062 L 265.800781 319.277344 C 265.867188 319.207031 265.9375 319.140625 266.003906 319.070312 C 266.210938 319.003906 266.210938 318.867188 266.140625 318.796875 Z M 221.578125 322.894531 L 214.277344 322.894531 C 214.070312 322.894531 213.933594 323.03125 213.933594 323.234375 L 213.933594 327.191406 C 213.933594 327.398438 214.070312 327.535156 214.277344 327.535156 L 221.578125 327.535156 C 221.78125 327.535156 221.917969 327.398438 221.917969 327.191406 L 221.917969 323.234375 C 221.917969 323.03125 221.78125 322.894531 221.578125 322.894531 Z M 221.578125 322.894531 " fill-opacity="1" fill-rule="nonzero"/><path fill="#ff6600" d="M 269.210938 325.351562 L 265.867188 318.253906 C 265.800781 318.183594 265.730469 318.117188 265.664062 318.046875 C 265.59375 318.046875 265.457031 318.046875 265.390625 318.046875 L 258.769531 321.1875 C 258.703125 321.253906 258.632812 321.324219 258.566406 321.390625 C 258.566406 321.460938 258.566406 321.597656 258.566406 321.664062 L 259.25 323.097656 C 258.089844 323.4375 254.746094 324.53125 252.902344 326.511719 C 250.648438 329.035156 253.3125 332.652344 253.378906 332.789062 C 253.449219 332.855469 253.515625 332.925781 253.652344 332.925781 C 253.722656 332.925781 253.722656 332.925781 253.789062 332.925781 L 268.9375 325.828125 C 269.210938 325.757812 269.28125 325.554688 269.210938 325.351562 Z M 221.578125 326.238281 L 214.277344 326.238281 C 214.070312 326.238281 213.933594 326.375 213.933594 326.578125 L 213.933594 328.148438 C 212.773438 327.941406 209.226562 327.535156 206.769531 328.558594 C 203.628906 329.855469 204.515625 334.289062 204.585938 334.496094 C 204.585938 334.632812 204.789062 334.765625 204.925781 334.765625 L 221.644531 334.765625 C 221.851562 334.765625 221.988281 334.632812 221.988281 334.425781 L 221.988281 326.578125 C 221.917969 326.375 221.78125 326.238281 221.578125 326.238281 Z M 221.578125 326.238281 " fill-opacity="1" fill-rule="nonzero"/><path fill="#005de0" d="M 57.316406 276.554688 L 49.945312 276.554688 C 49.742188 276.554688 49.605469 276.691406 49.605469 276.898438 L 49.605469 280.855469 C 49.605469 281.058594 49.742188 281.195312 49.945312 281.195312 L 57.25 281.195312 C 57.453125 281.195312 57.589844 281.058594 57.589844 280.855469 L 57.589844 276.898438 C 57.65625 276.761719 57.519531 276.554688 57.316406 276.554688 Z M 86.523438 276.554688 L 79.15625 276.554688 C 78.949219 276.554688 78.8125 276.691406 78.8125 276.898438 L 78.8125 280.855469 C 78.8125 281.058594 78.949219 281.195312 79.15625 281.195312 L 86.457031 281.195312 C 86.660156 281.195312 86.796875 281.058594 86.796875 280.855469 L 86.796875 276.898438 C 86.867188 276.761719 86.660156 276.554688 86.523438 276.554688 Z M 86.523438 276.554688 " fill-opacity="1" fill-rule="nonzero"/><path fill="#ff6600" d="M 64.824219 282.21875 C 62.367188 281.195312 58.816406 281.605469 57.65625 281.8125 L 57.65625 280.242188 C 57.65625 280.035156 57.519531 279.898438 57.316406 279.898438 L 49.945312 279.898438 C 49.742188 279.898438 49.605469 280.035156 49.605469 280.242188 L 49.605469 288.089844 C 49.605469 288.292969 49.742188 288.429688 49.945312 288.429688 L 66.667969 288.429688 C 66.800781 288.429688 66.9375 288.292969 67.007812 288.15625 C 67.074219 287.953125 67.960938 283.515625 64.824219 282.21875 Z M 94.03125 282.21875 C 91.574219 281.195312 88.027344 281.605469 86.867188 281.8125 L 86.867188 280.242188 C 86.867188 280.035156 86.730469 279.898438 86.523438 279.898438 L 79.15625 279.898438 C 78.949219 279.898438 78.8125 280.035156 78.8125 280.242188 L 78.8125 288.089844 C 78.8125 288.292969 78.949219 288.429688 79.15625 288.429688 L 95.941406 288.429688 C 96.078125 288.429688 96.214844 288.292969 96.285156 288.15625 C 96.285156 287.953125 97.171875 283.515625 94.03125 282.21875 Z M 94.03125 282.21875 " fill-opacity="1" fill-rule="nonzero"/><path fill="#ff6600" d="M 324.285156 240.523438 C 324.078125 239.976562 322.578125 235.816406 323.261719 231.445312 C 323.875 227.695312 324.078125 225.917969 324.148438 225.375 C 324.832031 225.167969 325.582031 224.828125 326.261719 224.144531 C 328.515625 221.960938 328.515625 218.480469 328.515625 218.34375 C 328.515625 218.34375 328.515625 218.277344 328.515625 218.277344 C 333.15625 213.089844 337.457031 203.808594 336.089844 199.238281 C 334.382812 193.300781 326.058594 189.410156 324.285156 188.589844 C 324.964844 187.089844 328.105469 180.332031 329.539062 175.28125 C 330.496094 171.871094 330.359375 168.800781 328.992188 166.480469 C 327.765625 164.363281 325.71875 162.863281 322.851562 162.113281 C 316.367188 160.335938 312.410156 164.910156 311.179688 167.914062 C 310.15625 170.300781 308.382812 178.082031 310.363281 181.425781 C 310.429688 181.5625 310.5 181.628906 310.566406 181.765625 C 310.226562 181.835938 309.816406 182.105469 309.75 182.585938 C 309.679688 183.132812 309.75 184.15625 311.523438 185.382812 C 311.453125 185.453125 311.453125 185.453125 311.453125 185.519531 C 311.386719 185.65625 311.386719 185.792969 311.386719 185.996094 C 309.476562 186.132812 300.945312 186.816406 298.554688 190.023438 C 298.214844 190.5 289.480469 202.171875 290.914062 209.949219 C 291.324219 211.996094 292.414062 213.636719 294.121094 214.726562 C 294.597656 215 295.074219 215.273438 295.554688 215.613281 C 295.347656 216.570312 294.53125 219.980469 293.984375 223.871094 C 293.371094 228.238281 293.164062 239.363281 293.164062 240.25 C 292.6875 241.820312 284.226562 267.890625 283.40625 275.601562 C 282.65625 283.378906 283.542969 290.683594 283.609375 290.75 C 283.609375 290.886719 283.679688 290.957031 283.816406 291.023438 C 283.882812 291.023438 285.316406 291.773438 287.636719 292.796875 L 282.042969 323.234375 C 282.042969 323.4375 282.109375 323.574219 282.316406 323.644531 C 282.316406 323.644531 282.382812 323.644531 282.382812 323.644531 C 282.519531 323.644531 282.65625 323.507812 282.722656 323.371094 L 288.25 293.070312 C 290.980469 294.164062 294.734375 295.527344 298.761719 296.550781 L 289.277344 324.460938 C 289.207031 324.667969 289.34375 324.804688 289.480469 324.871094 C 289.546875 324.871094 289.546875 324.871094 289.617188 324.871094 C 289.753906 324.871094 289.890625 324.804688 289.957031 324.667969 L 299.511719 296.6875 C 302.445312 297.371094 305.585938 297.847656 308.589844 297.847656 C 308.792969 297.847656 309.066406 297.847656 309.269531 297.847656 C 310.773438 297.78125 312.207031 297.710938 313.570312 297.574219 L 319.644531 324.121094 C 319.710938 324.257812 319.847656 324.394531 319.984375 324.394531 C 319.984375 324.394531 320.054688 324.394531 320.054688 324.394531 C 320.257812 324.328125 320.324219 324.191406 320.324219 323.984375 L 314.253906 297.507812 C 318.824219 296.960938 322.238281 295.9375 324.421875 295.050781 L 326.945312 324.054688 C 326.945312 324.257812 327.082031 324.394531 327.285156 324.394531 C 327.492188 324.394531 327.628906 324.191406 327.628906 324.054688 L 325.101562 294.84375 C 326.605469 294.230469 327.421875 293.753906 327.492188 293.683594 C 327.628906 293.617188 327.695312 293.480469 327.628906 293.34375 L 324.898438 281.058594 C 325.308594 279.761719 329.8125 264.546875 330.289062 255.742188 C 330.699219 246.734375 324.964844 241.136719 324.285156 240.523438 Z M 325.785156 223.667969 C 325.171875 224.28125 324.421875 224.621094 323.738281 224.757812 C 322.917969 224.964844 322.167969 224.828125 321.691406 224.757812 C 322.988281 223.53125 323.464844 222.4375 323.535156 222.167969 C 324.558594 221.6875 325.648438 221.007812 326.671875 220.117188 C 327.082031 219.777344 327.421875 219.4375 327.832031 219.027344 C 327.695312 220.117188 327.21875 222.234375 325.785156 223.667969 Z M 335.476562 199.441406 C 336.703125 203.605469 332.335938 214.386719 326.261719 219.574219 C 324.148438 221.347656 321.007812 223.191406 317.734375 221.6875 C 309.203125 217.660156 315.277344 192.957031 315.820312 190.636719 L 321.484375 188.589844 L 324.148438 208.652344 C 324.148438 208.789062 324.285156 208.925781 324.488281 208.925781 C 324.625 208.925781 324.832031 208.859375 324.832031 208.722656 L 327.082031 201.691406 C 327.152344 201.488281 327.015625 201.351562 326.878906 201.285156 C 326.671875 201.214844 326.535156 201.351562 326.46875 201.488281 L 324.695312 207.015625 L 322.78125 192.277344 L 325.785156 190.023438 C 328.652344 191.59375 334.109375 194.9375 335.476562 199.441406 Z M 313.636719 189.273438 C 314.117188 189.613281 314.867188 190.226562 315.140625 190.5 C 315.003906 190.910156 314.796875 192.003906 314.457031 193.503906 C 313.773438 193.570312 313.230469 193.570312 312.683594 193.4375 C 312.070312 193.230469 311.660156 192.890625 311.523438 192.480469 C 311.179688 191.523438 311.796875 189.820312 313.09375 187.90625 C 313.160156 187.976562 313.160156 188.042969 313.09375 188.25 C 313.160156 188.453125 313.09375 188.863281 313.636719 189.273438 Z M 324.964844 189.683594 L 322.511719 191.457031 L 322.375 190.296875 C 323.125 189.75 323.601562 189.339844 323.875 189.136719 C 324.078125 189.273438 324.488281 189.476562 324.964844 189.683594 Z M 311.796875 168.1875 C 312.136719 167.433594 315.207031 160.746094 322.714844 162.792969 C 325.445312 163.546875 327.355469 164.910156 328.445312 166.820312 C 329.675781 169.003906 329.8125 171.871094 328.925781 175.078125 C 327.421875 180.46875 324.011719 187.773438 323.601562 188.523438 C 323.464844 188.660156 322.988281 189 322.304688 189.546875 L 322.101562 188.179688 C 322.238281 187.90625 322.578125 187.15625 322.578125 186.40625 C 322.578125 186.132812 323.191406 185.65625 323.671875 185.316406 C 324.214844 184.90625 324.832031 184.496094 325.101562 183.949219 C 325.375 183.402344 325.445312 182.996094 325.308594 182.652344 C 325.171875 182.3125 324.898438 182.105469 324.421875 181.972656 C 324.078125 181.902344 323.464844 182.105469 322.917969 182.449219 C 322.78125 182.449219 322.714844 182.449219 322.644531 182.515625 C 322.644531 182.515625 320.734375 184.425781 318.621094 184.699219 C 316.4375 184.972656 314.59375 184.15625 314.59375 184.15625 C 314.527344 184.15625 314.527344 184.15625 314.457031 184.15625 C 314.457031 184.15625 312.683594 184.085938 310.976562 181.152344 C 309.132812 178.082031 310.703125 170.710938 311.796875 168.1875 Z M 310.363281 182.722656 C 310.429688 182.449219 310.773438 182.378906 310.976562 182.378906 C 312.546875 184.496094 313.980469 184.699219 314.320312 184.769531 C 314.59375 184.90625 315.890625 185.382812 317.597656 185.382812 C 317.9375 185.382812 318.277344 185.382812 318.6875 185.316406 C 320.257812 185.109375 321.691406 184.15625 322.441406 183.539062 C 323.191406 182.996094 324.078125 182.515625 324.285156 182.585938 C 324.488281 182.652344 324.695312 182.722656 324.695312 182.859375 C 324.761719 182.996094 324.695312 183.265625 324.488281 183.609375 C 324.285156 184.019531 323.738281 184.359375 323.261719 184.769531 C 322.578125 185.316406 321.894531 185.792969 321.894531 186.40625 C 321.894531 186.953125 321.621094 187.636719 321.554688 187.839844 L 315.617188 190.023438 C 315.277344 189.75 314.527344 189.136719 314.046875 188.726562 C 313.84375 188.589844 313.84375 188.453125 313.84375 188.25 C 313.84375 188.042969 313.910156 187.703125 313.707031 187.429688 C 313.570312 187.226562 313.367188 187.089844 313.160156 187.089844 C 313.09375 187.089844 313.023438 187.019531 312.957031 187.019531 C 312.613281 186.953125 312.339844 186.882812 312.136719 186.476562 C 312 186.203125 312 185.996094 312 185.859375 C 312 185.859375 312 185.792969 312.070312 185.792969 C 313.707031 186.746094 315.550781 187.226562 315.6875 187.226562 C 315.6875 187.226562 315.753906 187.226562 315.753906 187.226562 C 315.890625 187.226562 316.027344 187.089844 316.09375 186.953125 C 316.164062 186.746094 316.027344 186.613281 315.820312 186.542969 C 315.820312 186.542969 313.84375 186.066406 312.273438 185.109375 C 310.363281 183.882812 310.292969 183.0625 310.363281 182.722656 Z M 311.589844 186.953125 C 311.863281 187.363281 312.207031 187.5 312.476562 187.566406 C 311.386719 189.136719 310.363281 191.183594 310.910156 192.617188 C 311.113281 193.300781 311.660156 193.777344 312.546875 194.050781 C 312.886719 194.1875 313.296875 194.1875 313.773438 194.1875 C 313.980469 194.1875 314.183594 194.1875 314.320312 194.1875 C 314.253906 194.527344 314.183594 194.9375 314.117188 195.347656 C 313.433594 195.550781 310.636719 196.300781 309.203125 193.980469 C 307.769531 191.867188 310.636719 188.179688 311.589844 186.953125 Z M 294.394531 214.183594 C 292.824219 213.15625 291.800781 211.726562 291.460938 209.8125 C 290.09375 202.375 298.625 190.910156 298.964844 190.433594 C 301.011719 187.703125 308.382812 186.882812 310.839844 186.746094 C 309.613281 188.25 306.949219 191.933594 308.519531 194.390625 C 309.476562 195.960938 310.976562 196.300781 312.273438 196.300781 C 312.957031 196.300781 313.5 196.164062 313.910156 196.097656 C 313.433594 198.554688 312.957031 201.488281 312.683594 204.492188 C 312.476562 206.402344 312.410156 208.175781 312.476562 209.8125 C 310.910156 209.0625 306.132812 206.742188 304.015625 205.308594 C 302.515625 204.285156 301.355469 204.148438 300.605469 204.21875 C 302.242188 201.421875 304.5625 194.867188 304.628906 194.527344 C 304.699219 194.324219 304.628906 194.1875 304.425781 194.117188 C 304.222656 194.050781 304.085938 194.117188 304.015625 194.324219 C 304.015625 194.390625 301.082031 202.511719 299.582031 204.558594 C 298.078125 206.605469 296.714844 207.972656 296.714844 208.039062 C 296.578125 208.175781 296.578125 208.382812 296.714844 208.515625 C 296.78125 208.585938 296.851562 208.585938 296.988281 208.585938 C 297.054688 208.585938 297.191406 208.585938 297.261719 208.515625 C 297.261719 208.515625 298.625 207.085938 300.195312 205.035156 C 300.46875 204.902344 301.628906 204.492188 303.8125 205.855469 C 306.199219 207.425781 311.589844 210.019531 312.683594 210.566406 C 312.886719 216.84375 314.527344 220.800781 317.597656 222.234375 C 318.484375 222.644531 319.4375 222.847656 320.394531 222.847656 C 321.144531 222.847656 321.964844 222.710938 322.78125 222.4375 C 322.511719 222.984375 321.964844 223.734375 320.941406 224.554688 C 319.300781 225.851562 317.664062 225.441406 317.664062 225.441406 C 317.324219 225.441406 302.652344 219.367188 294.394531 214.183594 Z M 294.597656 223.941406 C 295.074219 220.324219 295.828125 217.117188 296.101562 215.957031 C 304.5625 220.871094 317.117188 226.054688 317.253906 226.125 C 317.324219 226.125 317.664062 226.261719 318.210938 226.261719 C 318.960938 226.261719 319.984375 226.054688 321.007812 225.304688 C 321.28125 225.375 321.964844 225.578125 322.714844 225.578125 C 322.917969 225.578125 323.191406 225.578125 323.398438 225.511719 C 323.328125 226.261719 323.125 228.035156 322.511719 231.378906 C 322.101562 233.765625 322.375 236.085938 322.714844 237.863281 C 321.007812 238.203125 313.023438 239.839844 306.335938 239.089844 C 298.828125 238.203125 294.1875 237.113281 294.121094 237.113281 C 293.984375 237.042969 293.847656 237.113281 293.78125 237.246094 C 293.914062 233.359375 294.1875 227.011719 294.597656 223.941406 Z M 310.363281 242.09375 C 304.289062 241.886719 295.417969 240.25 293.78125 239.976562 C 293.78125 239.566406 293.78125 238.679688 293.847656 237.519531 C 293.914062 237.589844 293.984375 237.65625 294.050781 237.65625 C 294.121094 237.65625 298.761719 238.75 306.335938 239.636719 C 307.632812 239.773438 308.996094 239.839844 310.363281 239.839844 C 316.027344 239.839844 321.621094 238.75 322.988281 238.40625 C 323.191406 239.296875 323.464844 240.046875 323.601562 240.386719 C 322.03125 240.863281 316.164062 242.296875 310.363281 242.09375 Z M 314.046875 176.511719 C 314.253906 176.511719 314.390625 176.375 314.390625 176.171875 C 314.390625 175.964844 314.183594 175.828125 314.046875 175.828125 C 313.636719 175.828125 313.023438 175.691406 313.023438 175.488281 C 313.023438 175.078125 314.527344 173.234375 315.820312 171.667969 C 315.957031 171.53125 315.957031 171.324219 315.820312 171.1875 C 315.6875 171.050781 315.480469 171.050781 315.34375 171.1875 C 314.183594 172.484375 312.339844 174.804688 312.410156 175.488281 C 312.410156 176.511719 313.773438 176.511719 314.046875 176.511719 Z M 312.136719 180.195312 C 312.410156 180.332031 312.75 180.402344 313.09375 180.402344 C 314.457031 180.402344 315.957031 179.378906 316.027344 179.308594 C 316.164062 179.242188 316.164062 179.105469 316.164062 178.96875 C 316.164062 178.832031 316.027344 178.761719 315.957031 178.695312 L 311.453125 177.125 C 311.386719 177.125 311.25 177.125 311.179688 177.125 C 311.113281 177.195312 311.046875 177.261719 311.046875 177.332031 C 310.976562 177.398438 310.636719 179.378906 312.136719 180.195312 Z M 315.070312 179.105469 C 314.320312 179.515625 313.160156 179.921875 312.476562 179.582031 C 311.726562 179.242188 311.660156 178.355469 311.660156 177.875 Z M 318.347656 174.328125 C 319.03125 174.328125 319.03125 173.304688 318.347656 173.304688 C 317.664062 173.304688 317.664062 174.328125 318.347656 174.328125 Z M 312.476562 172.210938 C 313.160156 172.210938 313.160156 171.1875 312.476562 171.1875 C 311.863281 171.1875 311.863281 172.210938 312.476562 172.210938 Z M 312.476562 172.210938 " fill-opacity="1" fill-rule="nonzero"/><path fill="#005de0" d="M 175.242188 112.976562 C 180.289062 111.613281 183.976562 107.039062 183.976562 101.582031 C 183.976562 95.027344 178.652344 89.707031 172.101562 89.707031 C 165.550781 89.707031 160.226562 95.027344 160.226562 101.582031 C 160.226562 107.039062 163.914062 111.613281 168.960938 112.976562 C 159.679688 114.476562 152.515625 122.53125 152.515625 132.289062 C 152.515625 132.496094 152.652344 132.632812 152.855469 132.632812 L 191.277344 132.632812 C 191.484375 132.632812 191.621094 132.496094 191.621094 132.289062 C 191.6875 122.53125 184.523438 114.476562 175.242188 112.976562 Z M 238.640625 122.460938 C 238.503906 122.53125 238.433594 122.734375 238.503906 122.941406 C 240.070312 125.671875 240.890625 128.742188 240.960938 131.949219 L 203.222656 131.949219 C 203.425781 121.710938 211.820312 113.386719 222.125 113.386719 C 225.878906 113.386719 229.5625 114.476562 232.703125 116.59375 C 232.839844 116.730469 233.042969 116.664062 233.179688 116.527344 C 233.316406 116.390625 233.246094 116.183594 233.109375 116.046875 C 230.722656 114.476562 228.0625 113.386719 225.261719 112.976562 C 230.3125 111.613281 234 107.039062 234 101.582031 C 234 95.027344 228.675781 89.707031 222.125 89.707031 C 215.574219 89.707031 210.25 95.027344 210.25 101.582031 C 210.25 107.039062 213.933594 111.613281 218.984375 112.976562 C 209.703125 114.476562 202.539062 122.53125 202.539062 132.289062 C 202.539062 132.496094 202.675781 132.632812 202.878906 132.632812 L 241.300781 132.632812 C 241.503906 132.632812 241.640625 132.496094 241.640625 132.289062 C 241.640625 128.878906 240.753906 125.535156 239.117188 122.597656 C 239.046875 122.460938 238.84375 122.394531 238.640625 122.460938 Z M 210.933594 101.582031 C 210.933594 95.4375 215.914062 90.386719 222.125 90.386719 C 228.265625 90.386719 233.316406 95.371094 233.316406 101.582031 C 233.316406 107.789062 228.335938 112.773438 222.125 112.773438 C 215.980469 112.703125 210.933594 107.722656 210.933594 101.582031 Z M 275.21875 112.976562 C 280.265625 111.613281 283.953125 107.039062 283.953125 101.582031 C 283.953125 95.027344 278.628906 89.707031 272.078125 89.707031 C 265.527344 89.707031 260.203125 95.027344 260.203125 101.582031 C 260.203125 107.039062 263.890625 111.613281 268.9375 112.976562 C 259.65625 114.476562 252.492188 122.53125 252.492188 132.289062 C 252.492188 132.496094 252.628906 132.632812 252.832031 132.632812 L 291.253906 132.632812 C 291.460938 132.632812 291.59375 132.496094 291.59375 132.289062 C 291.664062 122.53125 284.566406 114.476562 275.21875 112.976562 Z M 260.953125 101.582031 C 260.953125 95.4375 265.9375 90.386719 272.144531 90.386719 C 278.289062 90.386719 283.339844 95.371094 283.339844 101.582031 C 283.339844 107.789062 278.355469 112.773438 272.144531 112.773438 C 265.9375 112.703125 260.953125 107.722656 260.953125 101.582031 Z M 253.242188 131.949219 C 253.449219 121.710938 261.839844 113.386719 272.144531 113.386719 C 282.449219 113.386719 290.84375 121.644531 291.050781 131.949219 Z M 125.21875 112.976562 C 130.269531 111.613281 133.953125 107.039062 133.953125 101.582031 C 133.953125 95.027344 128.632812 89.707031 122.078125 89.707031 C 120.644531 89.707031 119.214844 89.980469 117.847656 90.457031 C 117.644531 90.523438 117.574219 90.730469 117.644531 90.867188 C 117.710938 91.070312 117.917969 91.140625 118.054688 91.070312 C 119.351562 90.59375 120.644531 90.320312 122.011719 90.320312 C 128.152344 90.320312 133.203125 95.300781 133.203125 101.511719 C 133.203125 107.722656 128.222656 112.703125 122.011719 112.703125 C 120.03125 112.703125 118.121094 112.15625 116.414062 111.203125 C 116.277344 111.132812 116.074219 111.132812 115.9375 111.339844 C 115.871094 111.476562 115.871094 111.679688 116.074219 111.816406 C 116.960938 112.363281 117.917969 112.703125 118.871094 112.976562 C 118.054688 113.113281 117.234375 113.316406 116.414062 113.523438 C 116.210938 113.589844 116.140625 113.796875 116.210938 113.933594 C 116.277344 114.136719 116.484375 114.207031 116.621094 114.136719 C 118.394531 113.589844 120.167969 113.386719 122.011719 113.386719 C 132.316406 113.386719 140.710938 121.644531 140.914062 131.949219 L 122.351562 131.949219 C 122.148438 131.949219 122.011719 132.085938 122.011719 132.289062 C 122.011719 132.496094 122.148438 132.632812 122.351562 132.632812 L 141.257812 132.632812 C 141.460938 132.632812 141.597656 132.496094 141.597656 132.289062 C 141.664062 122.53125 134.5 114.476562 125.21875 112.976562 Z M 114.164062 131.949219 L 103.246094 131.949219 C 103.3125 126.421875 105.835938 121.234375 110.136719 117.6875 C 110.273438 117.550781 110.273438 117.34375 110.207031 117.207031 C 110.070312 117.070312 109.863281 117.070312 109.726562 117.140625 C 105.15625 120.894531 102.5625 126.351562 102.5625 132.222656 C 102.5625 132.425781 102.699219 132.5625 102.902344 132.5625 L 114.164062 132.5625 C 114.367188 132.5625 114.503906 132.425781 114.503906 132.222656 C 114.503906 132.085938 114.300781 131.949219 114.164062 131.949219 Z M 114.164062 131.949219 " fill-opacity="1" fill-rule="nonzero"/><path fill="#005de0" d="M 327.152344 323.574219 L 319.847656 323.574219 C 319.644531 323.574219 319.507812 323.710938 319.507812 323.917969 L 319.507812 327.875 C 319.507812 328.078125 319.644531 328.214844 319.847656 328.214844 L 327.152344 328.214844 C 327.355469 328.214844 327.492188 328.078125 327.492188 327.875 L 327.492188 323.917969 C 327.492188 323.710938 327.355469 323.574219 327.152344 323.574219 Z M 289.546875 324.191406 L 282.316406 322.894531 C 282.109375 322.824219 281.972656 322.960938 281.90625 323.167969 L 281.222656 327.054688 C 281.222656 327.125 281.222656 327.261719 281.289062 327.328125 C 281.359375 327.398438 281.425781 327.464844 281.496094 327.464844 L 288.730469 328.761719 C 288.730469 328.761719 288.796875 328.761719 288.796875 328.761719 C 288.867188 328.761719 288.933594 328.761719 289.003906 328.695312 C 289.070312 328.625 289.140625 328.558594 289.140625 328.488281 L 289.820312 324.597656 C 289.820312 324.394531 289.753906 324.191406 289.546875 324.191406 Z M 289.546875 324.191406 " fill-opacity="1" fill-rule="nonzero"/><path fill="#ff6600" d="M 327.152344 326.917969 L 319.847656 326.917969 C 319.644531 326.917969 319.507812 327.054688 319.507812 327.261719 L 319.507812 328.832031 C 318.347656 328.625 314.796875 328.214844 312.339844 329.238281 C 309.203125 330.535156 310.089844 334.972656 310.15625 335.175781 C 310.15625 335.3125 310.363281 335.449219 310.5 335.449219 L 327.21875 335.449219 C 327.421875 335.449219 327.558594 335.3125 327.558594 335.109375 L 327.558594 327.261719 C 327.492188 327.054688 327.355469 326.917969 327.152344 326.917969 Z M 288.933594 327.464844 L 281.699219 326.167969 C 281.632812 326.167969 281.496094 326.167969 281.425781 326.238281 C 281.359375 326.304688 281.289062 326.375 281.289062 326.441406 L 281.019531 328.011719 C 279.859375 327.601562 276.445312 326.578125 273.851562 327.191406 C 270.578125 327.941406 270.644531 332.445312 270.644531 332.652344 C 270.644531 332.789062 270.78125 332.925781 270.917969 332.992188 L 287.433594 335.859375 C 287.433594 335.859375 287.5 335.859375 287.5 335.859375 C 287.636719 335.859375 287.773438 335.722656 287.84375 335.585938 L 289.207031 327.875 C 289.207031 327.808594 289.207031 327.671875 289.140625 327.601562 C 289.070312 327.535156 289.070312 327.464844 288.933594 327.464844 Z M 288.933594 327.464844 " fill-opacity="1" fill-rule="nonzero"/><path fill="#ff6600" d="M 86.117188 226.941406 L 80.382812 187.429688 L 81.203125 156.242188 C 81.203125 156.039062 81.066406 155.902344 80.859375 155.902344 C 80.65625 155.902344 80.519531 156.039062 80.519531 156.242188 L 79.699219 187.226562 C 78.472656 187.636719 72.195312 189.546875 66.53125 189.546875 C 60.796875 189.546875 52.882812 187.566406 51.378906 187.15625 L 51.515625 180.46875 C 51.515625 180.265625 51.378906 180.128906 51.175781 180.128906 C 50.96875 180.128906 50.832031 180.265625 50.832031 180.46875 L 50.695312 187.429688 C 50.628906 187.773438 49.742188 192.546875 49.671875 201.691406 C 49.671875 211.109375 50.628906 231.992188 50.628906 232.199219 L 47.011719 276.898438 C 47.011719 276.964844 47.011719 277.101562 47.082031 277.171875 C 47.148438 277.238281 47.214844 277.308594 47.351562 277.308594 L 59.023438 277.308594 C 59.160156 277.308594 59.363281 277.171875 59.363281 277.035156 L 69.054688 215.476562 L 71.578125 232.539062 L 75.945312 277.035156 C 75.945312 277.238281 76.082031 277.375 76.289062 277.375 L 88.09375 277.375 C 88.164062 277.375 88.300781 277.308594 88.367188 277.238281 C 88.4375 277.171875 88.4375 277.101562 88.4375 276.964844 Z M 86.117188 226.941406 " fill-opacity="1" fill-rule="nonzero"/><path fill="#005de0" d="M 266.753906 313.40625 L 248.945312 277.921875 C 249.082031 276.417969 250.582031 257.105469 250.511719 247.960938 C 250.511719 238.40625 247.714844 234.246094 247.578125 234.039062 C 247.511719 233.902344 247.375 233.835938 247.238281 233.902344 C 247.167969 233.902344 240.003906 235.816406 233.726562 235.816406 C 227.445312 235.816406 220.351562 233.425781 220.28125 233.425781 C 220.214844 233.425781 220.078125 233.425781 220.007812 233.425781 C 219.941406 233.496094 219.871094 233.5625 219.871094 233.632812 L 211.75 271.097656 C 211.75 271.097656 211.75 271.164062 211.75 271.164062 L 211.75 323.234375 C 211.75 323.4375 211.886719 323.574219 212.09375 323.574219 L 223.898438 323.574219 C 224.101562 323.574219 224.238281 323.4375 224.238281 323.234375 L 228.605469 278.738281 L 233.65625 263.453125 L 231.609375 276.554688 C 231.609375 276.625 231.609375 276.691406 231.679688 276.761719 L 254.609375 319.277344 C 254.675781 319.414062 254.878906 319.480469 255.085938 319.414062 L 266.753906 313.816406 C 266.824219 313.75 266.890625 313.679688 266.960938 313.613281 C 266.824219 313.542969 266.824219 313.476562 266.753906 313.40625 Z M 130.269531 201.828125 C 130.132812 201.761719 129.925781 201.761719 129.792969 201.964844 L 127.539062 205.515625 L 126.378906 203.808594 C 126.242188 203.671875 126.039062 203.605469 125.902344 203.742188 C 125.765625 203.875 125.695312 204.082031 125.832031 204.21875 L 127.265625 206.332031 C 127.335938 206.402344 127.402344 206.46875 127.539062 206.46875 C 127.675781 206.46875 127.742188 206.402344 127.8125 206.332031 L 130.335938 202.375 C 130.472656 202.171875 130.472656 201.964844 130.269531 201.828125 Z M 130.269531 212.886719 C 130.132812 212.816406 129.925781 212.816406 129.792969 213.023438 L 127.539062 216.570312 L 126.378906 214.863281 C 126.242188 214.726562 126.039062 214.660156 125.902344 214.796875 C 125.765625 214.933594 125.695312 215.136719 125.832031 215.273438 L 127.265625 217.390625 C 127.335938 217.457031 127.402344 217.527344 127.539062 217.527344 C 127.675781 217.527344 127.742188 217.457031 127.8125 217.390625 L 130.335938 213.429688 C 130.472656 213.15625 130.472656 212.953125 130.269531 212.886719 Z M 130.269531 223.941406 C 130.132812 223.871094 129.925781 223.871094 129.792969 224.078125 L 127.539062 227.625 L 126.378906 225.917969 C 126.242188 225.78125 126.039062 225.714844 125.902344 225.851562 C 125.765625 225.988281 125.695312 226.191406 125.832031 226.328125 L 127.265625 228.445312 C 127.335938 228.511719 127.402344 228.582031 127.539062 228.582031 C 127.675781 228.582031 127.742188 228.511719 127.8125 228.445312 L 130.335938 224.488281 C 130.472656 224.214844 130.472656 224.007812 130.269531 223.941406 Z M 192.097656 290.75 C 192.300781 290.75 192.4375 290.613281 192.4375 290.410156 C 192.4375 290.203125 192.300781 290.066406 192.097656 290.066406 L 180.835938 290.066406 C 180.632812 290.066406 180.496094 290.203125 180.496094 290.410156 L 180.496094 307.402344 C 180.496094 307.605469 180.632812 307.742188 180.835938 307.742188 L 192.097656 307.742188 C 192.300781 307.742188 192.4375 307.605469 192.4375 307.402344 C 192.4375 307.195312 192.300781 307.0625 192.097656 307.0625 L 181.179688 307.0625 L 181.179688 290.75 Z M 192.097656 290.75 " fill-opacity="1" fill-rule="nonzero"/><path fill="#ff6600" d="M 131.632812 222.371094 L 124.605469 222.371094 C 124.398438 222.371094 124.261719 222.507812 124.261719 222.710938 L 124.261719 229.742188 C 124.261719 229.945312 124.398438 230.082031 124.605469 230.082031 L 131.632812 230.082031 C 131.839844 230.082031 131.976562 229.945312 131.976562 229.742188 L 131.976562 222.710938 C 131.976562 222.507812 131.839844 222.371094 131.632812 222.371094 Z M 131.292969 229.332031 L 124.945312 229.332031 L 124.945312 222.984375 L 131.292969 222.984375 Z M 131.632812 211.316406 L 124.605469 211.316406 C 124.398438 211.316406 124.261719 211.453125 124.261719 211.65625 L 124.261719 218.6875 C 124.261719 218.890625 124.398438 219.027344 124.605469 219.027344 L 131.632812 219.027344 C 131.839844 219.027344 131.976562 218.890625 131.976562 218.6875 L 131.976562 211.65625 C 131.976562 211.453125 131.839844 211.316406 131.632812 211.316406 Z M 131.292969 218.277344 L 124.945312 218.277344 L 124.945312 211.929688 L 131.292969 211.929688 Z M 140.367188 185.109375 L 151.355469 185.109375 C 151.5625 185.109375 151.695312 184.972656 151.695312 184.769531 C 151.695312 184.5625 151.5625 184.425781 151.355469 184.425781 L 140.367188 184.425781 C 140.164062 184.425781 140.027344 184.5625 140.027344 184.769531 C 140.027344 184.90625 140.164062 185.109375 140.367188 185.109375 Z M 140.367188 187.636719 L 151.355469 187.636719 C 151.5625 187.636719 151.695312 187.5 151.695312 187.292969 C 151.695312 187.089844 151.5625 186.953125 151.355469 186.953125 L 140.367188 186.953125 C 140.164062 186.953125 140.027344 187.089844 140.027344 187.292969 C 140.027344 187.5 140.164062 187.636719 140.367188 187.636719 Z M 140.367188 190.226562 L 151.355469 190.226562 C 151.5625 190.226562 151.695312 190.09375 151.695312 189.886719 C 151.695312 189.683594 151.5625 189.546875 151.355469 189.546875 L 140.367188 189.546875 C 140.164062 189.546875 140.027344 189.683594 140.027344 189.886719 C 140.027344 190.09375 140.164062 190.226562 140.367188 190.226562 Z M 133 216.433594 L 146.167969 216.433594 C 146.375 216.433594 146.511719 216.296875 146.511719 216.09375 C 146.511719 215.886719 146.375 215.75 146.167969 215.75 L 133 215.75 C 132.792969 215.75 132.65625 215.886719 132.65625 216.09375 C 132.65625 216.230469 132.792969 216.433594 133 216.433594 Z M 153.0625 202.851562 L 133 202.851562 C 132.792969 202.851562 132.65625 202.988281 132.65625 203.195312 C 132.65625 203.398438 132.792969 203.535156 133 203.535156 L 153.0625 203.535156 C 153.265625 203.535156 153.402344 203.398438 153.402344 203.195312 C 153.402344 202.988281 153.199219 202.851562 153.0625 202.851562 Z M 152.378906 224.894531 L 142.550781 224.894531 C 142.347656 224.894531 142.210938 225.03125 142.210938 225.238281 C 142.210938 225.441406 142.347656 225.578125 142.550781 225.578125 L 152.378906 225.578125 C 152.585938 225.578125 152.722656 225.441406 152.722656 225.238281 C 152.722656 225.101562 152.515625 224.894531 152.378906 224.894531 Z M 131.632812 200.261719 L 124.605469 200.261719 C 124.398438 200.261719 124.261719 200.398438 124.261719 200.601562 L 124.261719 207.628906 C 124.261719 207.835938 124.398438 207.972656 124.605469 207.972656 L 131.632812 207.972656 C 131.839844 207.972656 131.976562 207.835938 131.976562 207.628906 L 131.976562 200.601562 C 131.976562 200.398438 131.839844 200.261719 131.632812 200.261719 Z M 131.292969 207.289062 L 124.945312 207.289062 L 124.945312 200.941406 L 131.292969 200.941406 Z M 158.726562 249.53125 L 137.640625 249.53125 L 137.640625 247.28125 C 137.640625 245.984375 136.546875 244.890625 135.25 244.890625 L 115.871094 244.890625 C 114.574219 244.890625 113.480469 245.984375 113.480469 247.28125 L 113.480469 274.097656 C 113.480469 274.304688 113.617188 274.441406 113.820312 274.441406 L 160.773438 274.441406 C 160.976562 274.441406 161.113281 274.304688 161.113281 274.097656 L 161.113281 251.921875 C 161.113281 250.554688 160.023438 249.53125 158.726562 249.53125 Z M 160.433594 273.691406 L 114.164062 273.691406 L 114.164062 269.664062 L 160.433594 269.664062 Z M 160.433594 254.308594 L 114.164062 254.308594 L 114.164062 247.28125 C 114.164062 246.324219 114.914062 245.574219 115.871094 245.574219 L 135.25 245.574219 C 136.207031 245.574219 136.957031 246.324219 136.957031 247.28125 L 136.957031 249.871094 C 136.957031 250.078125 137.09375 250.214844 137.296875 250.214844 L 158.726562 250.214844 C 159.679688 250.214844 160.433594 250.964844 160.433594 251.921875 Z M 119.484375 235.472656 L 157.429688 235.472656 C 157.632812 235.472656 157.769531 235.335938 157.769531 235.132812 L 157.769531 177.945312 C 157.769531 177.738281 157.632812 177.601562 157.429688 177.601562 L 119.484375 177.601562 C 119.28125 177.601562 119.144531 177.738281 119.144531 177.945312 L 119.144531 235.132812 C 119.144531 235.269531 119.28125 235.472656 119.484375 235.472656 Z M 119.828125 178.21875 L 157.089844 178.21875 L 157.089844 234.722656 L 119.828125 234.722656 Z M 133 214.589844 L 148.214844 214.589844 C 148.421875 214.589844 148.558594 214.453125 148.558594 214.25 C 148.558594 214.046875 148.421875 213.910156 148.214844 213.910156 L 133 213.910156 C 132.792969 213.910156 132.65625 214.046875 132.65625 214.25 C 132.65625 214.386719 132.792969 214.589844 133 214.589844 Z M 133 225.578125 L 139.617188 225.578125 C 139.824219 225.578125 139.960938 225.441406 139.960938 225.238281 C 139.960938 225.03125 139.824219 224.894531 139.617188 224.894531 L 133 224.894531 C 132.792969 224.894531 132.65625 225.03125 132.65625 225.238281 C 132.65625 225.441406 132.792969 225.578125 133 225.578125 Z M 133 205.378906 L 143.984375 205.378906 C 144.191406 205.378906 144.328125 205.242188 144.328125 205.035156 C 144.328125 204.832031 144.191406 204.695312 143.984375 204.695312 L 133 204.695312 C 132.792969 204.695312 132.65625 204.832031 132.65625 205.035156 C 132.65625 205.242188 132.792969 205.378906 133 205.378906 Z M 146.988281 226.738281 L 133 226.738281 C 132.792969 226.738281 132.65625 226.875 132.65625 227.078125 C 132.65625 227.285156 132.792969 227.421875 133 227.421875 L 146.988281 227.421875 C 147.191406 227.421875 147.328125 227.285156 147.328125 227.078125 C 147.328125 226.941406 147.191406 226.738281 146.988281 226.738281 Z M 136.273438 194.324219 L 136.273438 180.332031 C 136.273438 180.128906 136.136719 179.992188 135.933594 179.992188 L 121.875 179.992188 C 121.671875 179.992188 121.535156 180.128906 121.535156 180.332031 L 121.535156 194.324219 C 121.535156 194.527344 121.671875 194.664062 121.875 194.664062 L 135.863281 194.664062 C 136.070312 194.664062 136.273438 194.527344 136.273438 194.324219 Z M 135.589844 193.980469 L 122.285156 193.980469 L 122.285156 180.675781 L 135.589844 180.675781 Z M 135.589844 193.980469 " fill-opacity="1" fill-rule="nonzero"/><path fill="#005de0" d="M 291.390625 74.488281 L 290.84375 77.628906 C 290.84375 77.761719 290.84375 77.898438 290.980469 77.96875 C 291.117188 78.035156 291.253906 78.035156 291.324219 77.96875 L 294.121094 76.535156 L 296.917969 77.96875 C 296.988281 77.96875 297.054688 78.035156 297.054688 78.035156 C 297.125 78.035156 297.191406 78.035156 297.261719 77.96875 C 297.394531 77.898438 297.394531 77.761719 297.394531 77.628906 L 296.851562 74.488281 L 299.101562 72.304688 C 299.171875 72.234375 299.238281 72.097656 299.171875 71.960938 C 299.101562 71.828125 299.035156 71.757812 298.898438 71.757812 L 295.757812 71.28125 L 294.394531 68.480469 C 294.257812 68.277344 293.914062 68.277344 293.78125 68.480469 L 292.414062 71.28125 L 289.277344 71.757812 C 289.140625 71.757812 289.070312 71.894531 289.003906 71.960938 C 288.933594 72.097656 289.003906 72.234375 289.070312 72.304688 Z M 277.742188 74.488281 L 277.195312 77.628906 C 277.195312 77.761719 277.195312 77.898438 277.332031 77.96875 C 277.402344 78.035156 277.46875 78.035156 277.539062 78.035156 C 277.605469 78.035156 277.675781 78.035156 277.675781 77.96875 L 280.472656 76.535156 L 283.269531 77.96875 C 283.40625 78.035156 283.542969 78.035156 283.609375 77.96875 C 283.746094 77.898438 283.746094 77.761719 283.746094 77.628906 L 283.203125 74.488281 L 285.453125 72.304688 C 285.523438 72.234375 285.589844 72.097656 285.523438 71.960938 C 285.453125 71.828125 285.386719 71.757812 285.25 71.757812 L 282.109375 71.28125 L 280.746094 68.480469 C 280.609375 68.277344 280.265625 68.277344 280.132812 68.480469 L 278.765625 71.28125 L 275.625 71.757812 C 275.492188 71.757812 275.421875 71.894531 275.355469 71.960938 C 275.285156 72.097656 275.355469 72.234375 275.421875 72.304688 Z M 263.957031 77.96875 Z M 264.160156 74.488281 L 263.617188 77.628906 C 263.617188 77.761719 263.617188 77.898438 263.753906 77.96875 C 263.820312 78.035156 263.890625 78.035156 263.957031 78.035156 C 264.027344 78.035156 264.09375 78.035156 264.09375 77.96875 L 266.890625 76.535156 L 269.691406 77.96875 C 269.824219 78.035156 269.960938 78.035156 270.03125 77.96875 C 270.167969 77.898438 270.167969 77.761719 270.167969 77.628906 L 269.621094 74.488281 L 271.875 72.304688 C 271.941406 72.234375 272.011719 72.097656 271.941406 71.960938 C 271.875 71.828125 271.804688 71.757812 271.667969 71.757812 L 268.53125 71.28125 L 267.164062 68.480469 C 267.027344 68.277344 266.6875 68.277344 266.550781 68.480469 L 265.1875 71.28125 L 262.046875 71.757812 C 261.910156 71.757812 261.839844 71.894531 261.773438 71.960938 C 261.707031 72.097656 261.773438 72.234375 261.839844 72.304688 Z M 198.171875 187.976562 C 198.171875 187.773438 197.964844 187.636719 197.761719 187.703125 L 177.972656 190.773438 C 177.765625 190.773438 177.628906 190.980469 177.699219 191.183594 L 189.4375 266.523438 C 190.253906 271.640625 194.621094 275.257812 199.671875 275.257812 C 200.21875 275.257812 200.765625 275.191406 201.242188 275.121094 C 206.90625 274.234375 210.726562 268.980469 209.839844 263.316406 Z M 158.726562 258.882812 L 139.34375 258.882812 C 138.046875 258.882812 136.957031 259.972656 136.957031 261.269531 L 136.957031 263.523438 L 115.871094 263.523438 C 114.574219 263.523438 113.480469 264.613281 113.480469 265.910156 L 113.480469 288.089844 C 113.480469 288.292969 113.617188 288.429688 113.820312 288.429688 L 160.773438 288.429688 C 160.976562 288.429688 161.113281 288.292969 161.113281 288.089844 L 161.113281 261.269531 C 161.113281 259.972656 160.023438 258.882812 158.726562 258.882812 Z M 294.734375 169.753906 C 297.464844 167.160156 298.898438 164.023438 298.898438 160.746094 C 298.898438 152.421875 289.410156 145.664062 277.8125 145.664062 C 266.210938 145.664062 256.722656 152.421875 256.722656 160.746094 C 256.722656 169.074219 266.210938 175.828125 277.8125 175.828125 C 282.042969 175.828125 286.136719 174.941406 289.683594 173.234375 L 299.648438 177.125 C 299.714844 177.125 299.714844 177.125 299.785156 177.125 C 299.921875 177.125 299.988281 177.058594 300.058594 176.988281 C 300.125 176.851562 300.125 176.714844 300.058594 176.578125 Z M 289.753906 172.484375 C 289.683594 172.484375 289.683594 172.484375 289.617188 172.484375 C 289.546875 172.484375 289.480469 172.484375 289.480469 172.554688 C 286.066406 174.257812 281.972656 175.148438 277.808594 175.148438 C 266.550781 175.148438 257.40625 168.730469 257.40625 160.746094 C 257.40625 152.761719 266.550781 146.347656 277.808594 146.347656 C 289.070312 146.347656 298.214844 152.761719 298.214844 160.746094 C 298.214844 163.886719 296.78125 166.890625 294.050781 169.414062 C 293.914062 169.550781 293.914062 169.753906 293.984375 169.890625 L 298.691406 175.964844 Z M 335.679688 171.460938 C 333.429688 161.703125 325.445312 158.359375 318.550781 159.382812 C 312.546875 160.269531 307.222656 166.003906 306.746094 172.210938 C 306.335938 177.125 308.65625 177.875 309.679688 177.945312 C 309.75 177.945312 309.886719 177.945312 309.953125 177.875 C 310.019531 177.808594 310.089844 177.738281 310.089844 177.601562 C 309.953125 174.328125 311.453125 170.777344 312.207031 169.074219 C 313.570312 169.550781 319.984375 172.144531 324.285156 173.988281 C 324.421875 174.054688 324.558594 173.988281 324.625 173.917969 L 325.855469 172.960938 C 324.898438 174.804688 323.671875 178.082031 324.351562 180.8125 C 324.695312 182.242188 325.171875 183.335938 325.648438 184.222656 C 326.878906 186.269531 328.652344 187.226562 331.246094 187.292969 C 331.246094 187.292969 331.3125 187.292969 331.3125 187.292969 C 332.609375 187.292969 333.769531 186.746094 334.65625 185.585938 C 336.773438 182.925781 337.183594 177.808594 335.679688 171.460938 Z M 335.679688 171.460938 " fill-opacity="1" fill-rule="nonzero"/><path fill="#ff6600" d="M 75.058594 124.578125 C 74.992188 124.78125 74.378906 124.714844 73.96875 124.648438 C 73.761719 124.578125 73.625 124.714844 73.558594 124.851562 C 73.492188 125.054688 73.625 125.191406 73.761719 125.261719 C 73.832031 125.261719 74.171875 125.398438 74.582031 125.398438 C 74.992188 125.398438 75.46875 125.261719 75.675781 124.851562 C 75.945312 124.167969 74.71875 121.507812 73.96875 119.9375 C 73.898438 119.800781 73.695312 119.664062 73.492188 119.800781 C 73.355469 119.871094 73.21875 120.074219 73.355469 120.277344 C 74.242188 121.984375 75.128906 124.167969 75.058594 124.578125 Z M 71.304688 128.128906 C 71.375 128.128906 72.125 128.605469 73.355469 128.605469 C 73.625 128.605469 73.898438 128.605469 74.171875 128.535156 C 75.742188 128.261719 76.355469 127.855469 76.425781 127.785156 C 76.5625 127.648438 76.628906 127.445312 76.492188 127.308594 C 76.355469 127.171875 76.152344 127.101562 76.015625 127.238281 C 76.015625 127.238281 75.46875 127.648438 74.035156 127.855469 C 72.601562 128.058594 71.648438 127.511719 71.578125 127.511719 C 71.441406 127.445312 71.238281 127.511719 71.101562 127.648438 C 71.101562 127.785156 71.101562 127.992188 71.304688 128.128906 Z M 70.417969 121.984375 C 71.101562 121.984375 71.101562 120.960938 70.417969 120.960938 C 69.738281 120.960938 69.738281 121.984375 70.417969 121.984375 Z M 76.5625 121.507812 C 77.242188 121.507812 77.242188 120.484375 76.5625 120.484375 C 75.945312 120.484375 75.945312 121.507812 76.5625 121.507812 Z M 118.667969 142.730469 C 118.667969 142.730469 118.667969 142.664062 118.667969 142.730469 C 118.667969 142.664062 118.667969 142.664062 118.667969 142.664062 C 118.597656 142.457031 118.53125 142.320312 118.394531 142.117188 C 118.191406 141.84375 117.917969 141.570312 117.574219 141.367188 C 117.574219 141.367188 117.507812 141.296875 117.507812 141.296875 C 116.960938 140.957031 116.347656 140.753906 115.597656 140.617188 C 115.597656 140.617188 115.527344 140.617188 115.527344 140.617188 C 115.1875 140.546875 114.914062 140.546875 114.574219 140.480469 C 112.59375 140.410156 109.660156 141.367188 107.953125 142.046875 C 108.15625 141.707031 108.292969 141.433594 108.226562 141.09375 C 108.226562 140.886719 108.089844 140.617188 107.75 140.410156 C 106.929688 140 105.90625 140.753906 104.949219 141.503906 C 104.40625 141.914062 103.859375 142.390625 103.3125 142.527344 C 102.152344 142.9375 102.015625 144.503906 102.015625 145.390625 L 101.265625 144.984375 C 101.128906 144.914062 100.992188 144.914062 100.855469 145.050781 L 90.484375 154.402344 C 89.324219 149.691406 86.796875 140.617188 83.796875 138.839844 C 80.179688 136.792969 73.492188 135.429688 72.058594 135.15625 L 71.988281 133.65625 C 72.738281 133.65625 74.308594 133.382812 76.355469 131.472656 C 79.15625 128.742188 79.496094 120.757812 79.085938 118.164062 C 78.609375 114.957031 76.015625 109.496094 69.328125 109.496094 C 66.324219 109.496094 63.9375 110.382812 62.230469 112.089844 C 60.320312 114 59.363281 116.867188 59.433594 120.414062 C 59.5 125.671875 60.730469 132.972656 61 134.609375 C 58.953125 134.882812 48.992188 136.589844 47.082031 140.683594 C 46.945312 141.09375 35.886719 166.34375 40.390625 173.714844 C 44.417969 180.265625 58.953125 183.132812 59.570312 183.265625 C 59.570312 183.265625 59.636719 183.265625 59.636719 183.265625 C 59.707031 183.265625 59.773438 183.265625 59.839844 183.199219 C 59.910156 183.132812 62.230469 181.082031 63.390625 178.96875 C 64.617188 176.785156 64.003906 174.394531 64.003906 174.257812 C 64.003906 174.191406 63.9375 174.054688 63.800781 174.054688 L 51.585938 167.980469 L 52.746094 150.988281 C 52.746094 150.785156 52.609375 150.648438 52.402344 150.648438 C 52.199219 150.648438 52.0625 150.785156 52.0625 150.988281 L 50.902344 168.253906 C 50.902344 168.390625 50.96875 168.527344 51.105469 168.59375 L 63.390625 174.738281 C 63.527344 175.28125 63.800781 177.125 62.84375 178.761719 C 61.820312 180.539062 60.046875 182.242188 59.5 182.722656 C 57.863281 182.378906 44.625 179.445312 40.9375 173.507812 C 37.183594 167.367188 45.238281 146.484375 47.625 141.230469 C 49.265625 137.679688 58.273438 135.976562 60.730469 135.632812 L 58.476562 140.546875 C 58.410156 140.683594 58.410156 140.820312 58.546875 140.886719 L 60.933594 143.960938 L 60.183594 146.960938 C 60.183594 147.03125 60.183594 147.167969 60.183594 147.234375 L 68.304688 161.566406 C 68.304688 161.566406 68.371094 161.632812 68.371094 161.632812 C 68.371094 161.632812 68.441406 161.632812 68.441406 161.632812 C 68.441406 161.632812 68.507812 161.632812 68.507812 161.632812 C 68.507812 161.632812 68.578125 161.632812 68.578125 161.632812 C 68.578125 161.632812 68.578125 161.632812 68.644531 161.632812 C 68.644531 161.632812 68.644531 161.632812 68.714844 161.632812 C 68.714844 161.632812 68.78125 161.566406 68.78125 161.566406 L 74.105469 148.601562 C 74.105469 148.53125 74.105469 148.464844 74.105469 148.394531 L 73.21875 144.710938 L 74.855469 141.84375 C 74.921875 141.777344 74.921875 141.640625 74.855469 141.503906 L 72.332031 135.976562 C 74.308594 136.382812 80.246094 137.679688 83.523438 139.523438 C 87.34375 141.707031 90.550781 157.265625 90.550781 157.402344 C 90.621094 157.609375 90.757812 157.675781 90.960938 157.675781 C 91.164062 157.609375 91.234375 157.472656 91.234375 157.265625 C 91.234375 157.128906 91.027344 156.378906 90.757812 155.21875 L 101.265625 145.800781 L 102.355469 146.417969 L 106.382812 148.601562 L 107.679688 149.28125 C 106.179688 151.464844 97.171875 164.84375 92.871094 167.027344 C 91.234375 167.84375 89.730469 168.050781 88.367188 167.570312 C 86.320312 166.890625 84.410156 164.773438 82.839844 161.226562 C 80.585938 156.3125 80.519531 146.960938 80.519531 146.894531 C 80.519531 146.6875 80.382812 146.550781 80.179688 146.550781 C 79.972656 146.550781 79.835938 146.6875 79.835938 146.894531 C 79.835938 147.304688 79.90625 156.449219 82.226562 161.496094 C 83.929688 165.183594 85.910156 167.433594 88.164062 168.1875 C 88.777344 168.390625 89.324219 168.457031 89.9375 168.457031 C 90.960938 168.457031 92.121094 168.1875 93.210938 167.570312 C 97.988281 165.113281 107.75 150.304688 108.429688 149.28125 C 108.773438 149.007812 111.09375 147.167969 113.414062 146.6875 C 114.574219 146.484375 118.394531 145.597656 118.941406 143.6875 C 118.804688 143.414062 118.804688 143.070312 118.667969 142.730469 Z M 60.046875 120.550781 C 59.976562 117.207031 60.933594 114.476562 62.640625 112.703125 C 64.210938 111.132812 66.460938 110.316406 69.257812 110.316406 C 76.972656 110.316406 78.265625 117.550781 78.335938 118.367188 C 78.746094 121.03125 78.335938 128.605469 75.8125 131.0625 C 73.421875 133.449219 71.648438 133.039062 71.648438 133.039062 C 71.511719 133.039062 71.441406 133.039062 71.375 133.109375 C 71.304688 133.175781 71.238281 133.3125 71.238281 133.382812 L 71.375 135.359375 L 67.691406 138.773438 L 61.617188 134.816406 C 61.410156 133.722656 60.113281 126.011719 60.046875 120.550781 Z M 60.867188 146.824219 L 61.617188 143.753906 C 61.617188 143.617188 61.617188 143.550781 61.546875 143.480469 L 59.160156 140.480469 L 61.207031 136.042969 L 65.710938 152.421875 L 67.417969 158.699219 Z M 68.441406 159.65625 L 61.890625 135.839844 L 67.554688 139.523438 C 67.621094 139.59375 67.691406 139.59375 67.757812 139.59375 C 67.828125 139.59375 67.894531 139.59375 67.960938 139.523438 L 71.238281 136.453125 Z M 74.171875 141.640625 L 72.601562 144.503906 C 72.535156 144.574219 72.535156 144.640625 72.535156 144.777344 L 73.421875 148.53125 L 69.257812 158.835938 L 71.921875 136.726562 Z M 118.054688 143.617188 C 117.78125 144.640625 115.800781 145.597656 113.070312 146.144531 C 110.820312 146.550781 108.566406 148.257812 107.953125 148.738281 L 107.75 148.601562 L 102.699219 145.800781 C 102.628906 145.050781 102.699219 143.480469 103.515625 143.207031 C 104.132812 143.003906 104.746094 142.527344 105.292969 142.046875 C 106.042969 141.503906 106.859375 140.820312 107.339844 141.023438 C 107.476562 141.09375 107.476562 141.160156 107.476562 141.160156 C 107.542969 141.503906 106.859375 142.253906 106.382812 142.59375 C 106.246094 142.730469 106.246094 142.867188 106.316406 143.003906 C 106.382812 143.140625 106.589844 143.207031 106.726562 143.140625 C 106.792969 143.140625 111.160156 141.230469 113.890625 141.09375 L 109.046875 143.003906 C 108.839844 143.070312 108.773438 143.277344 108.839844 143.480469 C 108.910156 143.617188 109.046875 143.6875 109.179688 143.6875 C 109.25 143.6875 109.25 143.6875 109.316406 143.6875 L 115.460938 141.230469 C 115.800781 141.296875 116.140625 141.367188 116.484375 141.503906 L 110.683594 143.890625 C 110.476562 143.960938 110.410156 144.164062 110.476562 144.367188 C 110.546875 144.503906 110.683594 144.574219 110.820312 144.574219 C 110.886719 144.574219 110.886719 144.574219 110.957031 144.574219 L 117.234375 141.980469 C 117.4375 142.117188 117.574219 142.253906 117.710938 142.457031 C 117.710938 142.457031 117.710938 142.527344 117.78125 142.527344 L 112.183594 144.777344 C 111.980469 144.847656 111.910156 145.050781 111.980469 145.257812 C 112.046875 145.390625 112.183594 145.460938 112.320312 145.460938 C 112.390625 145.460938 112.390625 145.460938 112.457031 145.460938 L 117.984375 143.207031 C 118.121094 143.34375 118.121094 143.480469 118.054688 143.617188 Z M 118.054688 143.617188 " fill-opacity="1" fill-rule="nonzero"/><path fill="#005de0" d="M 185.273438 329.855469 L 174.355469 329.855469 L 174.355469 313.542969 L 185.273438 313.542969 C 185.476562 313.542969 185.613281 313.40625 185.613281 313.203125 C 185.613281 312.996094 185.476562 312.863281 185.273438 312.863281 L 174.011719 312.863281 C 173.808594 312.863281 173.671875 312.996094 173.671875 313.203125 L 173.671875 330.195312 C 173.671875 330.398438 173.808594 330.535156 174.011719 330.535156 L 185.273438 330.535156 C 185.476562 330.535156 185.613281 330.398438 185.613281 330.195312 C 185.613281 330.058594 185.410156 329.855469 185.273438 329.855469 Z M 148.558594 310.0625 L 140.574219 310.0625 C 140.367188 310.0625 140.230469 310.199219 140.230469 310.40625 L 140.230469 332.71875 C 140.230469 332.925781 140.367188 333.0625 140.574219 333.0625 L 148.558594 333.0625 C 148.761719 333.0625 148.898438 332.925781 148.898438 332.71875 L 148.898438 310.40625 C 148.898438 310.199219 148.761719 310.0625 148.558594 310.0625 Z M 125.355469 316.613281 L 62.570312 316.613281 C 61.273438 316.613281 60.183594 317.707031 60.183594 319.003906 L 60.183594 324.121094 C 60.183594 325.417969 61.273438 326.511719 62.570312 326.511719 L 125.355469 326.511719 C 126.652344 326.511719 127.742188 325.417969 127.742188 324.121094 L 127.742188 319.003906 C 127.742188 317.636719 126.652344 316.613281 125.355469 316.613281 Z M 125.355469 316.613281 " fill-opacity="1" fill-rule="nonzero"/><path fill="#ff6600" d="M 192.097656 287.746094 L 47.148438 287.746094 C 46.945312 287.746094 46.808594 287.882812 46.808594 288.089844 L 46.808594 310.0625 L 40.324219 310.0625 C 40.121094 310.0625 39.984375 310.199219 39.984375 310.40625 L 39.984375 332.71875 C 39.984375 332.925781 40.121094 333.0625 40.324219 333.0625 L 185.273438 333.0625 C 185.476562 333.0625 185.613281 332.925781 185.613281 332.71875 L 185.613281 310.746094 L 192.097656 310.746094 C 192.300781 310.746094 192.4375 310.609375 192.4375 310.40625 L 192.4375 288.089844 C 192.4375 287.882812 192.234375 287.746094 192.097656 287.746094 Z M 47.488281 288.429688 L 147.054688 288.429688 L 147.054688 310.0625 L 47.488281 310.0625 Z M 171.351562 332.378906 L 40.664062 332.378906 L 40.664062 310.746094 L 171.28125 310.746094 L 171.28125 332.378906 Z M 155.722656 310.0625 L 155.722656 288.429688 L 178.105469 288.429688 L 178.105469 310.0625 Z M 184.929688 332.378906 L 172.035156 332.378906 L 172.035156 310.746094 L 184.929688 310.746094 Z M 191.757812 310.0625 L 178.859375 310.0625 L 178.859375 288.429688 L 191.757812 288.429688 Z M 132.179688 294.300781 L 69.394531 294.300781 C 68.097656 294.300781 67.007812 295.390625 67.007812 296.6875 L 67.007812 301.804688 C 67.007812 303.101562 68.097656 304.195312 69.394531 304.195312 L 132.179688 304.195312 C 133.476562 304.195312 134.566406 303.101562 134.566406 301.804688 L 134.566406 296.6875 C 134.566406 295.390625 133.476562 294.300781 132.179688 294.300781 Z M 132.179688 294.300781 " fill-opacity="1" fill-rule="nonzero"/><path fill="#005de0" d="M 75.46875 169.824219 C 75.332031 169.6875 75.128906 169.753906 74.992188 169.890625 L 68.507812 179.035156 C 68.441406 179.105469 68.441406 179.242188 68.441406 179.308594 C 68.441406 179.378906 68.507812 179.515625 68.644531 179.515625 L 74.171875 182.378906 C 74.378906 182.515625 74.445312 182.722656 74.308594 182.925781 C 74.171875 183.132812 73.96875 183.199219 73.761719 183.0625 C 73.625 182.996094 73.421875 183.0625 73.285156 183.199219 C 73.21875 183.335938 73.285156 183.539062 73.421875 183.675781 L 74.105469 184.019531 C 74.308594 184.15625 74.378906 184.359375 74.242188 184.5625 C 74.105469 184.769531 73.898438 184.835938 73.695312 184.699219 L 73.011719 184.359375 C 72.875 184.292969 72.671875 184.359375 72.535156 184.496094 C 72.464844 184.632812 72.535156 184.835938 72.671875 184.972656 C 72.738281 185.042969 72.808594 185.109375 72.875 185.246094 C 72.875 185.382812 72.875 185.453125 72.808594 185.585938 C 72.738281 185.65625 72.671875 185.722656 72.535156 185.792969 C 72.398438 185.792969 72.332031 185.792969 72.195312 185.722656 L 71.171875 185.179688 C 71.035156 185.109375 70.828125 185.179688 70.691406 185.316406 C 70.625 185.453125 70.691406 185.65625 70.828125 185.792969 C 71.035156 185.929688 71.101562 186.132812 70.964844 186.339844 C 70.898438 186.40625 70.828125 186.476562 70.691406 186.542969 C 70.554688 186.542969 70.488281 186.542969 70.351562 186.542969 L 65.371094 183.746094 C 65.234375 183.675781 65.027344 183.675781 64.890625 183.8125 L 59.707031 191.117188 C 59.570312 191.25 59.636719 191.457031 59.773438 191.59375 L 69.875 198.757812 L 68.714844 211.246094 C 68.714844 211.453125 68.851562 211.589844 69.054688 211.589844 C 69.257812 211.589844 69.394531 211.453125 69.394531 211.246094 L 70.554688 199.167969 L 73.355469 201.148438 C 73.421875 201.214844 73.492188 201.214844 73.558594 201.214844 C 73.558594 201.214844 73.625 201.214844 73.625 201.214844 C 73.695312 201.214844 73.761719 201.148438 73.832031 201.078125 L 89.117188 179.921875 C 89.1875 179.855469 89.1875 179.785156 89.1875 179.652344 C 89.1875 179.582031 89.117188 179.515625 89.050781 179.445312 Z M 130.542969 188.863281 C 131.632812 188.25 132.453125 187.089844 132.453125 185.722656 C 132.453125 183.746094 130.882812 182.175781 128.902344 182.175781 C 126.925781 182.175781 125.355469 183.746094 125.355469 185.722656 C 125.355469 187.089844 126.105469 188.25 127.265625 188.863281 C 124.945312 189.546875 123.238281 191.730469 123.238281 194.324219 C 123.238281 194.527344 123.375 194.664062 123.582031 194.664062 L 134.363281 194.664062 C 134.566406 194.664062 134.703125 194.527344 134.703125 194.324219 C 134.636719 191.730469 132.929688 189.546875 130.542969 188.863281 Z M 130.542969 188.863281 " fill-opacity="1" fill-rule="nonzero"/><path fill="#ff6600" d="M 324.558594 141.570312 C 324.558594 141.367188 324.421875 141.230469 324.214844 141.230469 L 293.027344 141.230469 L 284.429688 132.632812 L 297.125 132.632812 C 297.328125 132.632812 297.464844 132.496094 297.464844 132.289062 L 297.464844 82.265625 C 297.464844 82.0625 297.328125 81.925781 297.125 81.925781 L 236.863281 81.925781 C 232.359375 70.121094 224.582031 59.882812 214.140625 52.242188 C 199.808594 41.730469 182.269531 37.5 164.730469 40.230469 C 147.191406 42.960938 131.769531 52.378906 121.328125 66.640625 C 117.847656 71.417969 115.050781 76.535156 112.933594 81.925781 L 97.101562 81.925781 C 96.898438 81.925781 96.761719 82.0625 96.761719 82.265625 L 96.761719 132.289062 C 96.761719 132.496094 96.898438 132.632812 97.101562 132.632812 L 114.09375 132.632812 C 118.734375 143.207031 126.105469 152.488281 135.726562 159.519531 C 147.191406 167.914062 160.839844 172.347656 174.761719 172.347656 C 175.992188 172.347656 177.289062 172.28125 178.515625 172.210938 L 181.382812 190.636719 C 181.382812 190.773438 181.585938 190.910156 181.722656 190.910156 C 181.722656 190.910156 181.792969 190.910156 181.792969 190.910156 C 181.996094 190.910156 182.132812 190.707031 182.066406 190.5 L 179.199219 172.144531 C 181.179688 172.007812 183.15625 171.800781 185.066406 171.53125 C 187.046875 171.257812 188.957031 170.847656 190.867188 170.371094 L 193.734375 188.726562 C 193.734375 188.863281 193.941406 189 194.074219 189 C 194.074219 189 194.144531 189 194.144531 189 C 194.347656 189 194.484375 188.796875 194.417969 188.589844 L 191.550781 170.164062 C 206.359375 166.34375 219.324219 157.609375 228.539062 145.050781 C 231.40625 141.09375 233.792969 136.929688 235.703125 132.632812 L 283.476562 132.632812 L 292.6875 141.84375 C 292.753906 141.914062 292.824219 141.914062 292.960938 141.914062 L 324.285156 141.914062 C 324.421875 141.914062 324.558594 141.777344 324.558594 141.570312 Z M 97.445312 131.949219 L 97.445312 82.609375 L 112.660156 82.609375 C 108.703125 93.1875 107.476562 104.582031 109.25 116.046875 C 110.136719 121.574219 111.636719 126.898438 113.753906 131.949219 Z M 235.296875 131.949219 L 228.0625 131.949219 C 232.019531 123.894531 234.136719 115.023438 234.136719 106.015625 C 234.136719 102.945312 233.929688 99.875 233.453125 96.804688 C 232.703125 91.890625 231.335938 87.113281 229.425781 82.675781 C 229.359375 82.472656 229.222656 82.199219 229.152344 81.996094 C 224.992188 72.578125 218.4375 64.386719 209.910156 58.109375 C 197.148438 48.761719 181.519531 45.007812 165.890625 47.394531 C 145.28125 50.601562 128.765625 64.183594 120.851562 81.996094 C 120.714844 82.199219 120.644531 82.472656 120.578125 82.675781 C 116.347656 92.574219 114.710938 103.628906 116.484375 115.023438 C 120.988281 144.230469 146.304688 165.183594 174.96875 165.183594 C 177.972656 165.183594 181.042969 164.976562 184.113281 164.5 C 199.742188 162.042969 213.457031 153.71875 222.804688 140.957031 C 224.71875 138.363281 226.355469 135.632812 227.855469 132.765625 L 235.089844 132.765625 C 233.179688 137 230.859375 141.023438 228.0625 144.777344 C 218.917969 157.265625 206.019531 165.933594 191.210938 169.6875 C 189.230469 170.164062 187.183594 170.640625 185.066406 170.914062 C 183.019531 171.257812 180.90625 171.460938 178.859375 171.597656 C 163.640625 172.554688 148.695312 168.1875 136.207031 159.042969 C 122.011719 148.667969 112.730469 133.382812 110.070312 116.046875 C 108.292969 104.652344 109.523438 93.1875 113.480469 82.675781 C 113.550781 82.472656 113.617188 82.199219 113.753906 81.996094 C 115.800781 76.738281 118.53125 71.757812 121.941406 67.117188 C 132.316406 52.921875 147.601562 43.640625 164.9375 40.914062 C 168.347656 40.367188 171.761719 40.09375 175.171875 40.09375 C 189.027344 40.09375 202.46875 44.460938 213.867188 52.785156 C 220.964844 57.972656 226.832031 64.386719 231.269531 71.621094 C 233.246094 74.898438 234.953125 78.308594 236.320312 81.925781 C 236.386719 82.132812 236.523438 82.402344 236.589844 82.609375 C 238.160156 86.839844 239.320312 91.207031 240.003906 95.78125 C 241.847656 108.199219 240.207031 120.6875 235.296875 131.949219 Z M 147.125 81.925781 L 121.535156 81.925781 C 123.171875 78.242188 125.285156 74.691406 127.742188 71.347656 C 136.957031 58.722656 150.535156 50.464844 166.027344 48.078125 C 169.097656 47.601562 172.101562 47.394531 175.105469 47.394531 C 187.457031 47.394531 199.398438 51.285156 209.5 58.65625 C 215.777344 63.296875 221.03125 68.960938 224.992188 75.441406 C 226.285156 77.558594 227.378906 79.742188 228.402344 81.996094 L 147.125 81.996094 Z M 196.804688 82.609375 L 196.804688 131.949219 L 147.464844 131.949219 L 147.464844 82.609375 Z M 146.785156 82.609375 L 146.785156 131.949219 L 122.558594 131.949219 C 119.964844 126.695312 118.054688 120.960938 117.097656 114.820312 C 115.390625 103.765625 116.824219 92.640625 121.191406 82.609375 Z M 147.125 132.632812 L 226.96875 132.632812 C 225.605469 135.292969 223.964844 137.886719 222.125 140.410156 C 212.910156 153.035156 199.332031 161.292969 183.839844 163.683594 C 180.769531 164.160156 177.765625 164.363281 174.832031 164.363281 C 152.722656 164.363281 132.726562 151.808594 122.832031 132.632812 Z M 197.488281 131.949219 L 197.488281 82.609375 L 228.675781 82.609375 C 230.585938 87.113281 232.019531 91.890625 232.769531 96.871094 C 234.679688 109.019531 232.769531 121.167969 227.378906 131.949219 Z M 246.761719 131.949219 L 236.046875 131.949219 C 240.890625 120.621094 242.527344 108.132812 240.550781 95.644531 C 239.867188 91.140625 238.707031 86.773438 237.136719 82.609375 L 246.761719 82.609375 Z M 247.441406 131.949219 L 247.441406 82.609375 L 296.78125 82.609375 L 296.78125 131.949219 Z M 237.410156 243.390625 C 237.207031 243.390625 237.070312 243.59375 237.136719 243.800781 C 237.136719 243.867188 238.023438 250.351562 237.136719 253.488281 C 236.320312 256.628906 234.40625 259.152344 234.339844 259.152344 C 234.203125 259.289062 234.269531 259.496094 234.40625 259.632812 C 234.476562 259.699219 234.542969 259.699219 234.613281 259.699219 C 234.679688 259.699219 234.816406 259.632812 234.886719 259.5625 C 234.953125 259.425781 236.933594 256.96875 237.75 253.625 C 238.640625 250.28125 237.820312 243.9375 237.75 243.664062 C 237.75 243.527344 237.617188 243.390625 237.410156 243.390625 Z M 74.515625 181.835938 L 69.328125 179.171875 L 71.035156 176.785156 C 71.101562 176.648438 71.101562 176.511719 71.035156 176.375 C 70.964844 176.238281 70.828125 176.171875 70.691406 176.238281 L 65.710938 176.988281 L 64.003906 176.035156 C 63.867188 175.964844 63.664062 176.035156 63.527344 176.171875 C 63.457031 176.308594 63.527344 176.511719 63.664062 176.648438 L 65.4375 177.601562 C 65.507812 177.671875 65.574219 177.671875 65.640625 177.671875 L 69.941406 177.058594 L 68.507812 179.105469 C 68.441406 179.171875 68.441406 179.308594 68.441406 179.378906 C 68.441406 179.445312 68.507812 179.582031 68.644531 179.582031 L 74.171875 182.449219 C 74.378906 182.585938 74.445312 182.789062 74.308594 182.996094 C 74.242188 183.0625 74.171875 183.132812 74.035156 183.199219 C 73.898438 183.199219 73.832031 183.199219 73.695312 183.132812 L 69.394531 180.742188 C 69.257812 180.675781 69.054688 180.742188 68.917969 180.878906 C 68.851562 181.015625 68.917969 181.21875 69.054688 181.355469 L 73.355469 183.746094 L 74.035156 184.15625 C 74.242188 184.292969 74.308594 184.496094 74.171875 184.699219 C 74.105469 184.769531 74.035156 184.835938 73.898438 184.90625 C 73.761719 184.90625 73.695312 184.90625 73.558594 184.835938 L 72.875 184.425781 L 68.578125 182.039062 C 68.441406 181.972656 68.234375 182.039062 68.097656 182.175781 C 68.03125 182.3125 68.097656 182.515625 68.234375 182.652344 L 72.535156 185.042969 C 72.738281 185.179688 72.808594 185.382812 72.671875 185.585938 C 72.535156 185.792969 72.332031 185.859375 72.125 185.722656 L 71.101562 185.179688 L 67.960938 183.402344 C 67.828125 183.335938 67.621094 183.402344 67.484375 183.539062 C 67.417969 183.675781 67.484375 183.882812 67.621094 184.019531 L 70.898438 185.859375 C 70.964844 185.929688 71.035156 185.996094 71.101562 186.132812 C 71.101562 186.269531 71.101562 186.339844 71.035156 186.476562 C 70.898438 186.679688 70.691406 186.746094 70.488281 186.613281 L 61.070312 181.355469 C 60.933594 181.289062 60.730469 181.355469 60.59375 181.492188 C 60.523438 181.628906 60.59375 181.835938 60.730469 181.972656 L 70.214844 187.226562 C 70.351562 187.292969 70.554688 187.363281 70.761719 187.363281 C 71.171875 187.363281 71.511719 187.15625 71.714844 186.816406 C 71.785156 186.679688 71.851562 186.542969 71.851562 186.40625 L 71.988281 186.476562 C 72.535156 186.746094 73.21875 186.542969 73.492188 186.066406 C 73.558594 185.929688 73.625 185.792969 73.625 185.65625 C 73.832031 185.722656 74.035156 185.722656 74.242188 185.65625 C 74.515625 185.585938 74.785156 185.382812 74.921875 185.109375 C 75.195312 184.632812 75.058594 184.085938 74.652344 183.746094 C 74.785156 183.675781 74.855469 183.539062 74.921875 183.402344 C 75.195312 182.789062 75.058594 182.175781 74.515625 181.835938 Z M 208.066406 229.261719 C 208.132812 229.332031 208.203125 229.332031 208.269531 229.332031 C 208.40625 229.332031 208.476562 229.261719 208.542969 229.195312 C 208.613281 229.058594 208.613281 228.855469 208.40625 228.71875 C 208.339844 228.648438 206.769531 227.695312 205.675781 227.351562 C 204.722656 227.011719 203.902344 226.054688 203.902344 226.054688 C 203.765625 225.917969 203.5625 225.917969 203.425781 225.988281 C 203.289062 226.125 203.289062 226.328125 203.355469 226.464844 C 203.425781 226.535156 204.246094 227.558594 205.40625 227.96875 C 206.566406 228.308594 208.066406 229.261719 208.066406 229.261719 Z M 326.058594 175.964844 L 321.621094 174.121094 C 321.484375 174.054688 321.351562 174.121094 321.214844 174.191406 C 321.214844 174.191406 319.03125 176.375 316.980469 175.828125 C 316.4375 175.691406 316.027344 175.417969 315.753906 175.011719 C 315.34375 174.328125 315.617188 173.441406 315.617188 173.441406 C 315.6875 173.304688 315.550781 173.097656 315.414062 173.03125 L 314.457031 172.621094 C 314.320312 172.554688 314.117188 172.621094 314.046875 172.757812 C 313.980469 172.828125 312.820312 174.328125 311.25 173.371094 C 309.679688 172.417969 311.179688 169.753906 311.179688 169.6875 C 311.25 169.550781 311.25 169.347656 311.046875 169.210938 C 310.910156 169.140625 310.703125 169.140625 310.566406 169.347656 C 310.5 169.480469 308.65625 172.691406 310.839844 173.917969 C 312.410156 174.875 313.773438 174.054688 314.390625 173.304688 L 314.867188 173.507812 C 314.796875 173.917969 314.796875 174.601562 315.140625 175.28125 C 315.480469 175.828125 316.027344 176.238281 316.777344 176.441406 C 318.824219 176.988281 320.871094 175.351562 321.484375 174.804688 L 325.71875 176.578125 C 325.785156 176.578125 325.785156 176.578125 325.855469 176.578125 C 325.992188 176.578125 326.125 176.511719 326.195312 176.375 C 326.332031 176.238281 326.261719 176.035156 326.058594 175.964844 Z M 247.578125 243.457031 C 247.511719 243.390625 247.441406 243.390625 247.304688 243.390625 L 240.960938 244.6875 C 240.753906 244.753906 240.6875 244.890625 240.6875 245.097656 C 240.753906 245.300781 241.777344 250.625 244.03125 252.125 C 244.441406 252.398438 244.847656 252.464844 245.257812 252.464844 C 245.394531 252.464844 245.601562 252.464844 245.734375 252.398438 C 249.148438 251.578125 247.785156 244.003906 247.714844 243.664062 C 247.648438 243.59375 247.648438 243.527344 247.578125 243.457031 Z M 245.53125 251.714844 C 245.121094 251.785156 244.78125 251.714844 244.371094 251.511719 C 242.664062 250.417969 241.640625 246.460938 241.367188 245.300781 L 247.03125 244.140625 C 247.441406 246.390625 247.714844 251.167969 245.53125 251.714844 Z M 240.617188 182.449219 C 240.890625 180.742188 242.121094 173.507812 242.1875 168.253906 C 242.253906 164.707031 241.230469 161.839844 239.390625 159.929688 C 237.683594 158.222656 235.296875 157.335938 232.292969 157.335938 C 225.535156 157.335938 223.011719 162.792969 222.535156 166.003906 C 222.191406 168.59375 222.464844 176.511719 225.261719 179.308594 C 227.242188 181.289062 228.878906 181.5625 229.628906 181.492188 L 229.5625 182.925781 C 227.925781 182.996094 220.417969 183.335938 216.871094 186.203125 C 213.117188 189.203125 203.222656 206.742188 202.0625 208.789062 L 183.429688 209.746094 C 183.429688 209.746094 183.363281 209.746094 183.363281 209.746094 C 183.292969 209.746094 181.585938 210.359375 180.5625 212.339844 C 179.8125 212.339844 177.492188 212.679688 176.675781 215.957031 C 176.402344 216.980469 176.539062 217.867188 177.082031 218.617188 C 178.105469 220.050781 180.15625 220.597656 180.835938 220.734375 C 181.179688 221.757812 181.449219 222.4375 181.449219 222.507812 C 181.519531 222.644531 181.585938 222.710938 181.722656 222.710938 C 181.859375 222.710938 194.144531 225.03125 204.039062 221.894531 C 208.269531 220.527344 212.09375 216.570312 215.367188 210.085938 C 216.871094 207.152344 217.894531 204.355469 218.507812 202.582031 L 219.257812 219.574219 L 209.910156 221.757812 C 209.703125 221.824219 209.636719 221.960938 209.636719 222.167969 L 210.046875 224.144531 C 209.5 224.078125 208.542969 224.007812 207.246094 224.144531 C 205.40625 224.417969 203.628906 223.804688 203.5625 223.804688 C 203.355469 223.734375 203.222656 223.871094 203.152344 224.007812 C 203.085938 224.214844 203.222656 224.351562 203.355469 224.417969 C 203.425781 224.417969 204.722656 224.828125 206.292969 224.828125 C 206.632812 224.828125 206.972656 224.828125 207.316406 224.757812 C 208.75 224.554688 209.773438 224.691406 210.179688 224.757812 L 211.339844 230.492188 C 210.796875 231.039062 209.636719 232.0625 208.613281 232.0625 C 207.042969 232.0625 204.925781 233.425781 204.789062 233.496094 C 204.652344 233.5625 204.585938 233.835938 204.722656 233.972656 C 204.789062 234.039062 204.925781 234.109375 204.996094 234.109375 C 205.0625 234.109375 205.132812 234.109375 205.199219 234.039062 C 205.199219 234.039062 207.246094 232.742188 208.613281 232.742188 C 209.773438 232.742188 210.933594 231.855469 211.546875 231.3125 L 211.886719 232.949219 C 211.957031 233.152344 212.09375 233.222656 212.296875 233.222656 C 212.707031 233.152344 215.777344 232.742188 219.941406 231.992188 L 220.007812 233.699219 C 220.007812 233.835938 220.078125 233.972656 220.214844 234.039062 C 220.28125 234.039062 225.878906 235.882812 233.863281 236.085938 C 234.269531 236.085938 234.679688 236.085938 235.089844 236.085938 C 242.460938 236.085938 247.578125 234.449219 247.578125 234.449219 C 247.714844 234.382812 247.785156 234.246094 247.785156 234.109375 C 247.785156 234.039062 247.648438 227.078125 247.921875 220.597656 L 248.054688 220.1875 C 250.648438 212.40625 255.972656 196.234375 254.128906 189.683594 C 252.21875 183.402344 242.664062 182.515625 240.617188 182.449219 Z M 177.492188 218.207031 C 177.082031 217.59375 177.015625 216.910156 177.21875 216.09375 C 177.835938 213.566406 179.402344 213.089844 180.15625 213.023438 C 180.019531 213.363281 179.949219 213.773438 179.882812 214.183594 C 179.609375 216.023438 180.019531 218.277344 180.496094 219.980469 C 179.675781 219.777344 178.242188 219.300781 177.492188 218.207031 Z M 239.59375 182.789062 L 230.449219 183.199219 C 230.3125 183.132812 230.246094 183.132812 230.175781 183.0625 L 230.3125 181.082031 C 230.3125 180.945312 230.246094 180.878906 230.175781 180.8125 C 230.109375 180.742188 229.972656 180.742188 229.902344 180.742188 C 229.902344 180.742188 228.199219 181.152344 225.742188 178.761719 C 223.214844 176.308594 222.804688 168.730469 223.214844 166.070312 C 223.351562 165.25 224.582031 158.015625 232.292969 158.015625 C 235.089844 158.015625 237.34375 158.835938 238.910156 160.40625 C 240.6875 162.179688 241.574219 164.910156 241.503906 168.253906 C 241.4375 173.78125 240.070312 181.5625 239.9375 182.585938 C 239.800781 182.585938 239.730469 182.652344 239.59375 182.789062 Z M 248.328125 236.359375 C 248.261719 236.359375 243.007812 238.679688 234.886719 239.226562 C 226.832031 239.773438 219.734375 236.429688 219.667969 236.359375 C 219.53125 236.292969 219.324219 236.359375 219.191406 236.496094 C 219.121094 236.632812 219.191406 236.839844 219.324219 236.976562 C 219.394531 236.976562 225.605469 239.976562 233.109375 239.976562 C 233.726562 239.976562 234.269531 239.976562 234.886719 239.910156 C 243.144531 239.363281 248.464844 236.976562 248.535156 236.976562 C 248.738281 236.90625 248.808594 236.703125 248.738281 236.496094 C 248.671875 236.292969 248.535156 236.292969 248.328125 236.359375 Z M 248.328125 236.359375 " fill-opacity="1" fill-rule="nonzero"/><path fill="#005de0" d="M 68.371094 144.503906 L 69.804688 142.457031 C 69.875 142.320312 69.875 142.183594 69.804688 142.117188 L 67.960938 139.113281 C 67.894531 139.046875 67.757812 138.976562 67.691406 138.976562 C 67.554688 138.976562 67.484375 139.046875 67.417969 139.113281 L 65.507812 142.183594 C 65.4375 142.320312 65.4375 142.527344 65.574219 142.59375 L 67.554688 144.574219 L 64.960938 149.28125 C 64.890625 149.351562 64.890625 149.417969 64.960938 149.554688 L 68.234375 161.566406 C 68.304688 161.703125 68.441406 161.839844 68.578125 161.839844 C 68.714844 161.839844 68.851562 161.703125 68.917969 161.566406 L 70.417969 149.144531 C 70.417969 149.078125 70.417969 149.007812 70.417969 148.941406 Z M 244.78125 152.625 C 241.710938 152.625 239.046875 154.539062 237.957031 157.265625 C 236.457031 156.449219 234.679688 155.96875 232.703125 155.96875 C 228.878906 155.902344 226.765625 157.199219 225.058594 158.152344 C 224.308594 158.5625 223.695312 158.972656 223.078125 159.109375 C 220.554688 159.792969 218.234375 160.882812 218.097656 163.613281 C 217.960938 166.617188 218.917969 168.867188 220.757812 169.550781 C 222.671875 170.234375 224.648438 169.480469 224.71875 169.414062 C 224.785156 169.414062 224.785156 169.347656 224.855469 169.347656 C 224.855469 169.347656 226.695312 167.503906 227.789062 168.527344 C 228.265625 168.9375 227.71875 169.753906 226.902344 170.914062 C 226.152344 172.007812 225.398438 173.097656 226.015625 173.851562 L 226.152344 174.054688 C 227.242188 175.417969 229.835938 178.628906 233.453125 178.628906 C 234.136719 178.628906 234.816406 178.628906 235.429688 178.695312 C 236.046875 178.695312 236.589844 178.695312 237.070312 178.695312 C 239.046875 178.695312 240.6875 178.492188 241.640625 177.261719 C 242.734375 175.898438 243.484375 171.050781 243.484375 167.09375 C 243.894531 167.164062 244.304688 167.230469 244.710938 167.230469 C 248.738281 167.230469 252.015625 163.953125 252.015625 159.929688 C 252.082031 155.902344 248.808594 152.625 244.78125 152.625 Z M 317.390625 135.15625 L 300.195312 135.15625 C 299.988281 135.15625 299.851562 135.292969 299.851562 135.496094 L 299.851562 138.296875 C 299.851562 138.5 299.988281 138.636719 300.195312 138.636719 L 317.390625 138.636719 C 317.597656 138.636719 317.734375 138.5 317.734375 138.296875 L 317.734375 135.496094 C 317.734375 135.359375 317.597656 135.15625 317.390625 135.15625 Z M 321.078125 129.96875 L 300.261719 129.96875 C 300.058594 129.96875 299.921875 130.105469 299.921875 130.3125 L 299.921875 133.109375 C 299.921875 133.3125 300.058594 133.449219 300.261719 133.449219 L 321.078125 133.449219 C 321.28125 133.449219 321.417969 133.3125 321.417969 133.109375 L 321.417969 130.3125 C 321.417969 130.105469 321.28125 129.96875 321.078125 129.96875 Z M 324.351562 119.460938 L 300.261719 119.460938 C 300.058594 119.460938 299.921875 119.597656 299.921875 119.800781 L 299.921875 122.597656 C 299.921875 122.804688 300.058594 122.941406 300.261719 122.941406 L 324.351562 122.941406 C 324.558594 122.941406 324.695312 122.804688 324.695312 122.597656 L 324.695312 119.800781 C 324.695312 119.597656 324.558594 119.460938 324.351562 119.460938 Z M 300.261719 128.195312 L 312.273438 128.195312 C 312.476562 128.195312 312.613281 128.058594 312.613281 127.855469 L 312.613281 125.054688 C 312.613281 124.851562 312.476562 124.714844 312.273438 124.714844 L 300.261719 124.714844 C 300.058594 124.714844 299.921875 124.851562 299.921875 125.054688 L 299.921875 127.855469 C 299.921875 128.058594 300.058594 128.195312 300.261719 128.195312 Z M 300.261719 128.195312 " fill-opacity="1" fill-rule="nonzero"/><path fill="#005de0" d="M 311.933594 285.425781 C 311.863281 285.292969 306.8125 272.800781 307.429688 267.480469 C 308.042969 261.953125 309.066406 252.125 309.066406 252.125 L 308.382812 252.058594 C 308.382812 252.058594 307.359375 261.953125 306.746094 267.410156 C 306.132812 272.9375 311.113281 285.15625 311.316406 285.699219 C 311.386719 285.835938 311.523438 285.90625 311.660156 285.90625 C 311.726562 285.90625 311.726562 285.90625 311.796875 285.90625 C 311.933594 285.835938 312.070312 285.632812 311.933594 285.425781 Z M 85.773438 111.066406 C 85.707031 111.132812 83.453125 112.566406 79.835938 110.179688 C 76.425781 107.925781 74.035156 107.996094 73.421875 108.0625 C 72.738281 107.515625 69.328125 105.199219 65.234375 106.015625 C 61.273438 106.835938 60.386719 109.972656 60.25 110.792969 C 59.433594 111.269531 55.679688 113.660156 55.269531 117.6875 C 54.859375 121.78125 56.90625 124.578125 57.316406 125.054688 C 57.386719 125.535156 57.929688 127.785156 59.296875 128.945312 C 60.523438 129.96875 62.027344 130.039062 62.707031 130.039062 C 62.914062 130.039062 62.980469 130.039062 63.050781 130.039062 C 63.253906 130.039062 63.320312 129.902344 63.390625 129.695312 C 63.390625 129.558594 63.527344 126.351562 61.890625 124.988281 C 61.070312 124.304688 60.933594 122.734375 61.34375 121.644531 C 61.546875 121.097656 61.820312 120.757812 62.160156 120.757812 C 63.253906 120.757812 63.457031 122.734375 63.457031 122.804688 C 63.457031 122.941406 63.527344 123.007812 63.664062 123.078125 C 63.730469 123.144531 63.867188 123.144531 64.003906 123.078125 L 65.4375 122.328125 C 65.574219 122.257812 65.640625 122.121094 65.640625 121.984375 L 65.234375 119.050781 C 65.574219 118.503906 67.484375 115.570312 71.785156 116.59375 C 72.332031 116.730469 72.875 116.867188 73.355469 117.003906 C 77.378906 117.957031 79.5625 118.503906 81.953125 117.414062 C 84.613281 116.183594 86.386719 111.679688 86.457031 111.476562 C 86.523438 111.339844 86.457031 111.203125 86.320312 111.066406 C 86.046875 110.996094 85.84375 110.996094 85.773438 111.066406 Z M 85.773438 111.066406 " fill-opacity="1" fill-rule="nonzero"/></svg>