<svg xmlns="http://www.w3.org/2000/svg" xmlns:xlink="http://www.w3.org/1999/xlink" width="500" zoomAndPan="magnify" viewBox="0 0 375 374.999991" height="500" preserveAspectRatio="xMidYMid meet" version="1.0"><defs><clipPath id="c19c825f01"><path d="M 0 0 L 375 0 L 375 375 L 0 375 Z M 0 0 " clip-rule="nonzero"/></clipPath><clipPath id="6a6a619615"><rect x="0" width="375" y="0" height="375"/></clipPath><clipPath id="944255215d"><path d="M 37.5 125 L 87 125 L 87 178 L 37.5 178 Z M 37.5 125 " clip-rule="nonzero"/></clipPath><clipPath id="9525ebe5ef"><path d="M 80 80 L 337.5 80 L 337.5 261 L 80 261 Z M 80 80 " clip-rule="nonzero"/></clipPath><clipPath id="319b1a9638"><path d="M 158 48.136719 L 259 48.136719 L 259 187 L 158 187 Z M 158 48.136719 " clip-rule="nonzero"/></clipPath></defs><rect x="-37.5" width="450" fill="#ffffff" y="-37.499999" height="449.999989" fill-opacity="1"/><rect x="-37.5" width="450" fill="#ffffff" y="-37.499999" height="449.999989" fill-opacity="1"/><g transform="matrix(1, 0, 0, 1, 0, 0)"><g clip-path="url(#6a6a619615)"><g clip-path="url(#c19c825f01)"><rect x="-82.5" width="540" fill="#ffffff" height="539.999987" y="-82.499998" fill-opacity="1"/></g></g></g><path fill="#ff6600" d="M 85.371094 191.957031 L 85.371094 326.269531 L 92.769531 326.269531 L 92.769531 199.355469 L 260.800781 199.355469 L 260.800781 326.269531 L 268.199219 326.269531 L 268.199219 191.957031 Z M 85.371094 191.957031 " fill-opacity="1" fill-rule="nonzero"/><path fill="#ff6600" d="M 268.199219 326.796875 L 260.800781 326.796875 C 260.507812 326.796875 260.273438 326.5625 260.273438 326.269531 L 260.273438 199.882812 L 93.300781 199.882812 L 93.300781 326.269531 C 93.300781 326.5625 93.0625 326.796875 92.769531 326.796875 L 85.371094 326.796875 C 85.078125 326.796875 84.84375 326.5625 84.84375 326.269531 L 84.84375 191.957031 C 84.84375 191.664062 85.078125 191.429688 85.371094 191.429688 L 268.199219 191.429688 C 268.492188 191.429688 268.730469 191.664062 268.730469 191.957031 L 268.730469 326.269531 C 268.730469 326.5625 268.492188 326.796875 268.199219 326.796875 Z M 261.328125 325.742188 L 267.671875 325.742188 L 267.671875 192.484375 L 85.898438 192.484375 L 85.898438 325.742188 L 92.242188 325.742188 L 92.242188 199.355469 C 92.242188 199.0625 92.480469 198.828125 92.769531 198.828125 L 260.800781 198.828125 C 261.09375 198.828125 261.328125 199.0625 261.328125 199.355469 Z M 261.328125 325.742188 " fill-opacity="1" fill-rule="nonzero"/><path fill="#005de0" d="M 201.132812 289.082031 L 192.171875 296.035156 L 195.90625 300.847656 L 204.867188 293.894531 Z M 153.589844 315.058594 L 164.929688 315.058594 L 164.929688 308.964844 L 153.589844 308.964844 Z M 153.589844 315.058594 " fill-opacity="1" fill-rule="nonzero"/><path fill="#ff6600" d="M 212.160156 302.429688 L 204.714844 292.832031 C 204.628906 292.722656 204.5 292.648438 204.363281 292.632812 C 204.222656 292.613281 204.082031 292.652344 203.972656 292.738281 L 195.011719 299.691406 C 194.898438 299.777344 194.828125 299.902344 194.808594 300.042969 C 194.792969 300.183594 194.832031 300.324219 194.914062 300.433594 L 196.402344 302.34375 C 194.765625 303.25 190.054688 306.085938 188.003906 309.691406 C 185.421875 314.230469 190.699219 318.839844 190.925781 319.035156 C 191.023438 319.121094 191.148438 319.164062 191.269531 319.164062 C 191.382812 319.164062 191.496094 319.125 191.59375 319.054688 L 212.066406 303.171875 C 212.296875 302.992188 212.335938 302.660156 212.160156 302.429688 Z M 164.929688 313.59375 L 153.589844 313.59375 C 153.296875 313.59375 153.058594 313.832031 153.058594 314.125 L 153.058594 316.542969 C 151.214844 316.257812 145.753906 315.613281 141.925781 317.203125 C 137.097656 319.207031 138.445312 326.085938 138.503906 326.375 C 138.554688 326.621094 138.769531 326.796875 139.019531 326.796875 L 164.929688 326.796875 C 165.222656 326.796875 165.460938 326.5625 165.460938 326.269531 L 165.460938 314.125 C 165.460938 313.832031 165.222656 313.59375 164.929688 313.59375 Z M 164.929688 313.59375 " fill-opacity="1" fill-rule="nonzero"/><path fill="#ff6600" d="M 241.910156 319.03125 C 240.648438 319.03125 239.535156 319.65625 238.847656 320.609375 L 201.035156 300.621094 L 201.035156 289.433594 L 205.347656 286.148438 C 205.460938 286.0625 205.535156 285.929688 205.550781 285.789062 C 205.566406 285.644531 205.527344 285.5 205.433594 285.390625 L 201.035156 280.109375 L 201.035156 244.058594 C 221.351562 243.734375 238.742188 224.65625 241.609375 199.414062 C 241.644531 199.125 241.433594 198.863281 241.144531 198.832031 C 240.859375 198.800781 240.59375 199.003906 240.558594 199.296875 C 237.730469 224.222656 220.511719 243.019531 200.507812 243.019531 C 199.246094 243.019531 197.976562 242.929688 196.71875 242.78125 L 199.398438 235.941406 C 201.261719 235.285156 212.769531 230.921875 214.558594 222.683594 C 216.335938 214.511719 214.808594 208.289062 214.578125 207.4375 L 215.398438 199.410156 C 215.429688 199.121094 215.21875 198.859375 214.925781 198.832031 C 214.640625 198.796875 214.378906 199.011719 214.347656 199.300781 L 213.566406 206.953125 L 158.183594 206.964844 L 160.066406 199.484375 C 160.136719 199.203125 159.964844 198.914062 159.683594 198.84375 C 159.398438 198.773438 159.113281 198.945312 159.039062 199.226562 L 157.078125 207.03125 C 155.921875 207.277344 151.90625 208.238281 147.550781 210.457031 C 140.804688 213.898438 136.570312 218.746094 135.308594 224.472656 C 133.867188 231.019531 145.238281 247.695312 157.773438 263.609375 L 147.792969 308.851562 C 147.757812 309.007812 147.796875 309.171875 147.898438 309.296875 C 148 309.421875 148.148438 309.492188 148.308594 309.492188 L 170.210938 309.492188 C 170.425781 309.492188 170.621094 309.359375 170.703125 309.160156 L 178.722656 288.691406 C 183.738281 294.414062 187.285156 298.289062 187.835938 298.886719 C 188.019531 299.089844 188.328125 299.117188 188.542969 298.949219 L 199.980469 290.238281 L 199.980469 300.621094 L 162.171875 320.609375 C 161.480469 319.65625 160.367188 319.03125 159.105469 319.03125 C 157.015625 319.03125 155.3125 320.734375 155.3125 322.824219 C 155.3125 324.917969 157.015625 326.621094 159.105469 326.621094 C 161.199219 326.621094 162.902344 324.917969 162.902344 322.824219 C 162.902344 322.375 162.808594 321.945312 162.664062 321.542969 L 199.980469 301.816406 L 199.980469 319.085938 C 198.140625 319.347656 196.714844 320.914062 196.714844 322.824219 C 196.714844 324.917969 198.414062 326.621094 200.507812 326.621094 C 202.601562 326.621094 204.300781 324.917969 204.300781 322.824219 C 204.300781 320.914062 202.875 319.347656 201.035156 319.085938 L 201.035156 301.816406 L 238.355469 321.542969 C 238.210938 321.945312 238.117188 322.375 238.117188 322.824219 C 238.117188 324.917969 239.816406 326.621094 241.910156 326.621094 C 244 326.621094 245.703125 324.917969 245.703125 322.824219 C 245.703125 320.734375 244 319.03125 241.910156 319.03125 Z M 188.152344 264.640625 L 196.316406 243.800781 C 197.53125 243.953125 198.757812 244.039062 199.980469 244.058594 L 199.980469 278.84375 Z M 188.152344 264.640625 " fill-opacity="1" fill-rule="nonzero"/><path fill="#005de0" d="M 81.757812 151.632812 C 81.757812 149.507812 81.414062 147.464844 80.792969 145.542969 L 85.90625 142.59375 L 81.765625 135.421875 L 76.636719 138.382812 C 73.898438 135.351562 70.25 133.164062 66.105469 132.285156 L 66.105469 126.382812 L 57.828125 126.382812 L 57.828125 132.285156 C 53.683594 133.164062 50.035156 135.351562 47.296875 138.382812 L 42.167969 135.421875 L 38.027344 142.59375 L 43.140625 145.542969 C 42.519531 147.464844 42.175781 149.507812 42.175781 151.632812 C 42.175781 153.761719 42.519531 155.804688 43.140625 157.722656 L 38.027344 160.675781 L 42.167969 167.84375 L 47.296875 164.882812 C 50.035156 167.914062 53.683594 170.101562 57.828125 170.984375 L 57.828125 176.886719 L 66.105469 176.886719 L 66.105469 170.984375 C 70.25 170.101562 73.898438 167.914062 76.636719 164.882812 L 81.765625 167.84375 L 85.90625 160.675781 L 80.792969 157.722656 C 81.414062 155.804688 81.757812 153.761719 81.757812 151.632812 Z M 81.757812 151.632812 " fill-opacity="1" fill-rule="nonzero"/><g clip-path="url(#944255215d)"><path fill="#005de0" d="M 66.105469 177.414062 L 57.828125 177.414062 C 57.535156 177.414062 57.300781 177.179688 57.300781 176.886719 L 57.300781 171.40625 C 53.429688 170.5 49.953125 168.484375 47.195312 165.550781 L 42.429688 168.300781 C 42.179688 168.445312 41.855469 168.359375 41.710938 168.109375 L 37.570312 160.9375 C 37.5 160.816406 37.480469 160.671875 37.519531 160.539062 C 37.554688 160.402344 37.644531 160.289062 37.765625 160.21875 L 42.511719 157.476562 C 41.9375 155.574219 41.648438 153.609375 41.648438 151.632812 C 41.648438 149.660156 41.9375 147.695312 42.511719 145.789062 L 37.765625 143.050781 C 37.644531 142.980469 37.554688 142.863281 37.519531 142.730469 C 37.480469 142.59375 37.5 142.449219 37.570312 142.328125 L 41.710938 135.160156 C 41.855469 134.90625 42.179688 134.820312 42.429688 134.964844 L 47.195312 137.714844 C 49.953125 134.785156 53.429688 132.769531 57.300781 131.859375 L 57.300781 126.382812 C 57.300781 126.089844 57.535156 125.851562 57.828125 125.851562 L 66.105469 125.851562 C 66.398438 125.851562 66.632812 126.089844 66.632812 126.382812 L 66.632812 131.859375 C 70.503906 132.769531 73.980469 134.785156 76.738281 137.714844 L 81.503906 134.964844 C 81.753906 134.820312 82.078125 134.90625 82.222656 135.160156 L 86.363281 142.328125 C 86.433594 142.449219 86.453125 142.59375 86.414062 142.730469 C 86.378906 142.863281 86.289062 142.980469 86.167969 143.050781 L 81.421875 145.789062 C 81.996094 147.695312 82.285156 149.660156 82.285156 151.632812 C 82.285156 153.609375 81.996094 155.570312 81.421875 157.476562 L 86.167969 160.21875 C 86.289062 160.289062 86.378906 160.402344 86.414062 160.539062 C 86.453125 160.671875 86.433594 160.816406 86.363281 160.9375 L 82.222656 168.109375 C 82.078125 168.359375 81.753906 168.445312 81.503906 168.300781 L 76.738281 165.550781 C 73.980469 168.484375 70.503906 170.5 66.632812 171.40625 L 66.632812 176.886719 C 66.632812 177.179688 66.398438 177.414062 66.105469 177.414062 Z M 58.355469 176.359375 L 65.578125 176.359375 L 65.578125 170.984375 C 65.578125 170.734375 65.753906 170.519531 65.996094 170.46875 C 69.953125 169.625 73.496094 167.574219 76.246094 164.527344 C 76.414062 164.34375 76.6875 164.300781 76.902344 164.425781 L 81.574219 167.121094 L 85.183594 160.867188 L 80.527344 158.179688 C 80.3125 158.054688 80.214844 157.796875 80.289062 157.5625 C 80.914062 155.632812 81.230469 153.636719 81.230469 151.632812 C 81.230469 149.628906 80.914062 147.632812 80.289062 145.707031 C 80.214844 145.46875 80.3125 145.210938 80.527344 145.085938 L 85.183594 142.398438 L 81.574219 136.144531 L 76.902344 138.839844 C 76.6875 138.964844 76.414062 138.921875 76.246094 138.738281 C 73.496094 135.695312 69.953125 133.640625 65.996094 132.800781 C 65.753906 132.746094 65.578125 132.53125 65.578125 132.28125 L 65.578125 126.910156 L 58.355469 126.910156 L 58.355469 132.28125 C 58.355469 132.53125 58.179688 132.746094 57.9375 132.800781 C 53.980469 133.640625 50.4375 135.695312 47.6875 138.738281 C 47.519531 138.921875 47.246094 138.964844 47.03125 138.839844 L 42.359375 136.144531 L 38.75 142.398438 L 43.40625 145.085938 C 43.621094 145.210938 43.71875 145.46875 43.644531 145.707031 C 43.019531 147.632812 42.703125 149.628906 42.703125 151.632812 C 42.703125 153.640625 43.019531 155.632812 43.644531 157.5625 C 43.71875 157.796875 43.621094 158.058594 43.40625 158.179688 L 38.75 160.867188 L 42.359375 167.121094 L 47.03125 164.425781 C 47.246094 164.300781 47.519531 164.34375 47.6875 164.527344 C 50.4375 167.570312 53.980469 169.625 57.9375 170.46875 C 58.179688 170.519531 58.355469 170.734375 58.355469 170.984375 Z M 58.355469 176.359375 " fill-opacity="1" fill-rule="nonzero"/></g><path fill="#ff6600" d="M 299.292969 141.628906 L 275.125 141.628906 L 275.125 103.457031 C 275.125 103.167969 274.886719 102.929688 274.597656 102.929688 L 249.898438 102.929688 C 249.609375 102.929688 249.371094 103.167969 249.371094 103.457031 L 249.371094 167.382812 C 249.371094 167.675781 249.609375 167.910156 249.898438 167.910156 L 299.292969 167.910156 C 299.585938 167.910156 299.820312 167.675781 299.820312 167.382812 L 299.820312 142.15625 C 299.820312 141.867188 299.585938 141.628906 299.292969 141.628906 Z M 255.742188 162.410156 L 253.605469 162.410156 L 253.605469 157.640625 L 255.742188 157.640625 Z M 267.695312 162.9375 L 267.695312 166.855469 L 256.796875 166.855469 L 256.796875 157.640625 L 267.695312 157.640625 Z M 274.066406 142.15625 L 274.066406 166.855469 L 268.753906 166.855469 L 268.753906 163.464844 L 271.421875 163.464844 C 271.710938 163.464844 271.949219 163.230469 271.949219 162.9375 L 271.949219 157.113281 C 271.949219 156.820312 271.710938 156.585938 271.421875 156.585938 L 253.074219 156.585938 C 252.785156 156.585938 252.546875 156.820312 252.546875 157.113281 L 252.546875 162.9375 C 252.546875 163.230469 252.785156 163.464844 253.074219 163.464844 L 255.742188 163.464844 L 255.742188 166.855469 L 250.429688 166.855469 L 250.429688 103.988281 L 274.066406 103.988281 Z M 268.753906 162.410156 L 268.753906 157.640625 L 270.890625 157.640625 L 270.890625 162.410156 Z M 290.699219 166.855469 L 283.191406 166.855469 L 283.191406 160.554688 L 290.699219 160.554688 Z M 298.765625 166.855469 L 291.753906 166.855469 L 291.753906 160.027344 C 291.753906 159.734375 291.519531 159.496094 291.226562 159.496094 L 282.664062 159.496094 C 282.371094 159.496094 282.132812 159.734375 282.132812 160.027344 L 282.132812 166.855469 L 275.125 166.855469 L 275.125 142.683594 L 298.765625 142.683594 Z M 253.074219 114.453125 L 256.269531 114.453125 C 256.5625 114.453125 256.796875 114.21875 256.796875 113.925781 L 256.796875 108.101562 C 256.796875 107.808594 256.5625 107.574219 256.269531 107.574219 L 253.074219 107.574219 C 252.785156 107.574219 252.546875 107.808594 252.546875 108.101562 L 252.546875 113.925781 C 252.546875 114.21875 252.785156 114.453125 253.074219 114.453125 Z M 253.605469 108.628906 L 255.742188 108.628906 L 255.742188 113.398438 L 253.605469 113.398438 Z M 260.648438 114.453125 L 263.84375 114.453125 C 264.136719 114.453125 264.375 114.21875 264.375 113.925781 L 264.375 108.101562 C 264.375 107.808594 264.136719 107.574219 263.84375 107.574219 L 260.648438 107.574219 C 260.359375 107.574219 260.121094 107.808594 260.121094 108.101562 L 260.121094 113.925781 C 260.121094 114.21875 260.359375 114.453125 260.648438 114.453125 Z M 261.179688 108.628906 L 263.316406 108.628906 L 263.316406 113.398438 L 261.179688 113.398438 Z M 268.226562 114.453125 L 271.421875 114.453125 C 271.710938 114.453125 271.949219 114.21875 271.949219 113.925781 L 271.949219 108.101562 C 271.949219 107.808594 271.710938 107.574219 271.421875 107.574219 L 268.226562 107.574219 C 267.933594 107.574219 267.695312 107.808594 267.695312 108.101562 L 267.695312 113.925781 C 267.695312 114.21875 267.933594 114.453125 268.226562 114.453125 Z M 268.753906 108.628906 L 270.890625 108.628906 L 270.890625 113.398438 L 268.753906 113.398438 Z M 253.074219 124.257812 L 256.269531 124.257812 C 256.5625 124.257812 256.796875 124.019531 256.796875 123.730469 L 256.796875 117.902344 C 256.796875 117.613281 256.5625 117.375 256.269531 117.375 L 253.074219 117.375 C 252.785156 117.375 252.546875 117.613281 252.546875 117.902344 L 252.546875 123.730469 C 252.546875 124.019531 252.785156 124.257812 253.074219 124.257812 Z M 253.605469 118.429688 L 255.742188 118.429688 L 255.742188 123.199219 L 253.605469 123.199219 Z M 260.648438 124.257812 L 263.84375 124.257812 C 264.136719 124.257812 264.375 124.019531 264.375 123.730469 L 264.375 117.902344 C 264.375 117.613281 264.136719 117.375 263.84375 117.375 L 260.648438 117.375 C 260.359375 117.375 260.121094 117.613281 260.121094 117.902344 L 260.121094 123.730469 C 260.121094 124.019531 260.359375 124.257812 260.648438 124.257812 Z M 261.179688 118.429688 L 263.316406 118.429688 L 263.316406 123.199219 L 261.179688 123.199219 Z M 268.226562 124.257812 L 271.421875 124.257812 C 271.710938 124.257812 271.949219 124.019531 271.949219 123.730469 L 271.949219 117.902344 C 271.949219 117.613281 271.710938 117.375 271.421875 117.375 L 268.226562 117.375 C 267.933594 117.375 267.695312 117.613281 267.695312 117.902344 L 267.695312 123.730469 C 267.695312 124.019531 267.933594 124.257812 268.226562 124.257812 Z M 268.753906 118.429688 L 270.890625 118.429688 L 270.890625 123.199219 L 268.753906 123.199219 Z M 253.074219 134.058594 L 256.269531 134.058594 C 256.5625 134.058594 256.796875 133.824219 256.796875 133.53125 L 256.796875 127.707031 C 256.796875 127.414062 256.5625 127.175781 256.269531 127.175781 L 253.074219 127.175781 C 252.785156 127.175781 252.546875 127.414062 252.546875 127.707031 L 252.546875 133.53125 C 252.546875 133.824219 252.785156 134.058594 253.074219 134.058594 Z M 253.605469 128.234375 L 255.742188 128.234375 L 255.742188 133.003906 L 253.605469 133.003906 Z M 260.648438 134.058594 L 263.84375 134.058594 C 264.136719 134.058594 264.375 133.824219 264.375 133.53125 L 264.375 127.707031 C 264.375 127.414062 264.136719 127.175781 263.84375 127.175781 L 260.648438 127.175781 C 260.359375 127.175781 260.121094 127.414062 260.121094 127.707031 L 260.121094 133.53125 C 260.121094 133.824219 260.359375 134.058594 260.648438 134.058594 Z M 261.179688 128.234375 L 263.316406 128.234375 L 263.316406 133.003906 L 261.179688 133.003906 Z M 268.226562 134.058594 L 271.421875 134.058594 C 271.710938 134.058594 271.949219 133.824219 271.949219 133.53125 L 271.949219 127.707031 C 271.949219 127.414062 271.710938 127.175781 271.421875 127.175781 L 268.226562 127.175781 C 267.933594 127.175781 267.695312 127.414062 267.695312 127.707031 L 267.695312 133.53125 C 267.695312 133.824219 267.933594 134.058594 268.226562 134.058594 Z M 268.753906 128.234375 L 270.890625 128.234375 L 270.890625 133.003906 L 268.753906 133.003906 Z M 253.074219 143.863281 L 256.269531 143.863281 C 256.5625 143.863281 256.796875 143.625 256.796875 143.332031 L 256.796875 137.507812 C 256.796875 137.214844 256.5625 136.980469 256.269531 136.980469 L 253.074219 136.980469 C 252.785156 136.980469 252.546875 137.214844 252.546875 137.507812 L 252.546875 143.332031 C 252.546875 143.625 252.785156 143.863281 253.074219 143.863281 Z M 253.605469 138.035156 L 255.742188 138.035156 L 255.742188 142.804688 L 253.605469 142.804688 Z M 260.648438 143.863281 L 263.84375 143.863281 C 264.136719 143.863281 264.375 143.625 264.375 143.332031 L 264.375 137.507812 C 264.375 137.214844 264.136719 136.980469 263.84375 136.980469 L 260.648438 136.980469 C 260.359375 136.980469 260.121094 137.214844 260.121094 137.507812 L 260.121094 143.332031 C 260.121094 143.625 260.359375 143.863281 260.648438 143.863281 Z M 261.179688 138.035156 L 263.316406 138.035156 L 263.316406 142.804688 L 261.179688 142.804688 Z M 268.226562 143.863281 L 271.421875 143.863281 C 271.710938 143.863281 271.949219 143.625 271.949219 143.332031 L 271.949219 137.507812 C 271.949219 137.214844 271.710938 136.980469 271.421875 136.980469 L 268.226562 136.980469 C 267.933594 136.980469 267.695312 137.214844 267.695312 137.507812 L 267.695312 143.332031 C 267.695312 143.625 267.933594 143.863281 268.226562 143.863281 Z M 268.753906 138.035156 L 270.890625 138.035156 L 270.890625 142.804688 L 268.753906 142.804688 Z M 253.074219 153.664062 L 256.269531 153.664062 C 256.5625 153.664062 256.796875 153.429688 256.796875 153.136719 L 256.796875 147.3125 C 256.796875 147.019531 256.5625 146.78125 256.269531 146.78125 L 253.074219 146.78125 C 252.785156 146.78125 252.546875 147.019531 252.546875 147.3125 L 252.546875 153.136719 C 252.546875 153.429688 252.785156 153.664062 253.074219 153.664062 Z M 253.605469 147.839844 L 255.742188 147.839844 L 255.742188 152.609375 L 253.605469 152.609375 Z M 260.648438 153.664062 L 263.84375 153.664062 C 264.136719 153.664062 264.375 153.429688 264.375 153.136719 L 264.375 147.3125 C 264.375 147.019531 264.136719 146.78125 263.84375 146.78125 L 260.648438 146.78125 C 260.359375 146.78125 260.121094 147.019531 260.121094 147.3125 L 260.121094 153.136719 C 260.121094 153.429688 260.359375 153.664062 260.648438 153.664062 Z M 261.179688 147.839844 L 263.316406 147.839844 L 263.316406 152.609375 L 261.179688 152.609375 Z M 268.226562 153.664062 L 271.421875 153.664062 C 271.710938 153.664062 271.949219 153.429688 271.949219 153.136719 L 271.949219 147.3125 C 271.949219 147.019531 271.710938 146.78125 271.421875 146.78125 L 268.226562 146.78125 C 267.933594 146.78125 267.695312 147.019531 267.695312 147.3125 L 267.695312 153.136719 C 267.695312 153.429688 267.933594 153.664062 268.226562 153.664062 Z M 268.753906 147.839844 L 270.890625 147.839844 L 270.890625 152.609375 L 268.753906 152.609375 Z M 268.753906 147.839844 " fill-opacity="1" fill-rule="nonzero"/><path fill="#ff6600" d="M 209.855469 179.949219 C 209.695312 179.90625 205.914062 178.753906 205.914062 174.972656 C 205.914062 170.753906 203.878906 154.9375 203.792969 154.265625 C 203.753906 153.976562 203.496094 153.773438 203.199219 153.808594 C 202.910156 153.84375 202.707031 154.109375 202.742188 154.398438 C 202.765625 154.5625 204.859375 170.820312 204.859375 174.972656 C 204.859375 176.125 205.152344 177.074219 205.59375 177.851562 C 203.949219 178.101562 199.972656 178.710938 195.207031 179.519531 C 188.90625 180.585938 181.429688 183.617188 181.355469 183.648438 C 181.21875 183.703125 181.113281 183.8125 181.0625 183.949219 C 181.007812 184.085938 181.015625 184.238281 181.082031 184.371094 L 181.679688 185.589844 C 181.023438 185.742188 178.085938 186.394531 175.140625 186.601562 L 174.097656 186.671875 C 171.257812 186.859375 169.546875 186.972656 167.878906 188.0625 C 165.941406 189.332031 165.789062 191.824219 165.78125 191.929688 C 165.769531 192.21875 165.992188 192.46875 166.28125 192.484375 L 166.3125 192.484375 C 166.589844 192.484375 166.820312 192.265625 166.835938 191.984375 C 166.839844 191.964844 166.972656 189.917969 168.457031 188.945312 C 169.890625 188.007812 171.410156 187.90625 174.164062 187.722656 L 175.214844 187.652344 C 178.632812 187.414062 181.929688 186.617188 182.070312 186.585938 C 182.097656 186.578125 182.121094 186.558594 182.148438 186.546875 L 184.910156 192.1875 C 185 192.375 185.1875 192.484375 185.382812 192.484375 C 185.460938 192.484375 185.542969 192.46875 185.617188 192.429688 C 185.878906 192.300781 185.988281 191.988281 185.859375 191.726562 L 182.28125 184.417969 C 184.078125 183.71875 190.15625 181.445312 195.382812 180.558594 C 200.78125 179.648438 205.167969 178.984375 206.285156 178.816406 C 207.65625 180.390625 209.53125 180.957031 209.5625 180.964844 C 209.613281 180.980469 209.660156 180.988281 209.710938 180.988281 C 209.9375 180.988281 210.148438 180.835938 210.214844 180.605469 C 210.296875 180.328125 210.136719 180.035156 209.855469 179.953125 Z M 200.507812 139.9375 C 199.5625 139.9375 198.605469 139.980469 197.664062 140.0625 C 197.183594 140.011719 196.816406 139.976562 196.585938 139.957031 L 191.9375 133.515625 C 191.96875 131.890625 192.164062 119.566406 190.929688 111.019531 C 190.144531 105.566406 187.964844 101.378906 184.621094 98.914062 C 181.589844 96.671875 177.726562 95.902344 173.152344 96.621094 C 162.851562 98.234375 160.214844 107.175781 160.277344 112.203125 C 160.332031 116.210938 162.679688 128.324219 167.65625 131.871094 C 171.183594 134.378906 173.703125 134.394531 174.839844 134.203125 L 175.085938 136.625 L 169.230469 140.808594 C 167.84375 140.816406 158.957031 141.164062 153.433594 147.496094 C 147.597656 154.195312 147.101562 179.378906 147.082031 180.449219 C 147.082031 180.46875 147.089844 180.484375 147.089844 180.503906 C 144.175781 180.175781 141.214844 179.929688 138.863281 179.929688 C 134.589844 179.929688 131.972656 180.71875 130.511719 181.398438 L 125.714844 169.179688 C 125.609375 168.90625 125.300781 168.777344 125.03125 168.878906 C 124.757812 168.988281 124.625 169.292969 124.730469 169.566406 L 129.570312 181.898438 C 129.441406 181.980469 129.332031 182.054688 129.246094 182.117188 C 128.960938 182.011719 128.640625 181.933594 128.234375 181.933594 C 127.128906 181.933594 126.753906 182.871094 126.527344 183.429688 C 126.457031 183.609375 126.335938 183.910156 126.265625 183.957031 C 125.285156 183.957031 124.378906 185.5 123.902344 186.484375 C 122.792969 186.183594 121.917969 185.726562 121.324219 185.109375 C 120.421875 184.183594 120.441406 183.230469 120.445312 183.195312 C 120.453125 183.019531 120.375 182.851562 120.230469 182.746094 C 120.089844 182.640625 119.902344 182.613281 119.738281 182.671875 C 119.5 182.757812 113.960938 184.796875 114.933594 188.320312 C 115.855469 191.671875 124.441406 192.410156 125.457031 192.484375 L 161.199219 192.484375 C 161.4375 192.484375 161.648438 192.320312 161.710938 192.089844 L 162.34375 189.648438 C 162.347656 189.632812 162.339844 189.621094 162.34375 189.605469 C 162.351562 189.558594 162.363281 189.507812 162.355469 189.457031 C 162.347656 189.375 161.425781 180.953125 161.339844 171.816406 C 161.253906 162.679688 162.34375 151.796875 162.355469 151.6875 C 162.386719 151.398438 162.175781 151.136719 161.882812 151.109375 C 161.59375 151.085938 161.335938 151.289062 161.304688 151.582031 C 161.292969 151.691406 160.195312 162.632812 160.28125 171.824219 C 160.355469 179.695312 161.046875 187.019531 161.25 189.023438 C 150.167969 189.683594 138.035156 190.058594 137.003906 189.507812 C 136.5625 189.011719 137.59375 187.472656 138.511719 186.550781 C 138.691406 186.371094 138.714844 186.089844 138.574219 185.882812 C 138.429688 185.671875 138.160156 185.589844 137.929688 185.691406 C 137.917969 185.695312 137.648438 185.808594 137.082031 185.960938 C 137.199219 185.203125 137.15625 184.15625 136.257812 183.5 C 135.183594 182.71875 134.347656 182.769531 133.078125 182.84375 C 132.738281 182.863281 132.355469 182.886719 131.910156 182.894531 C 131.578125 182.902344 131.3125 182.875 131.074219 182.835938 L 130.898438 182.386719 C 132.207031 181.769531 134.691406 180.988281 138.863281 180.988281 C 145.917969 180.988281 158.566406 183.21875 158.691406 183.242188 C 158.722656 183.246094 158.753906 183.25 158.785156 183.25 C 159.039062 183.25 159.261719 183.070312 159.304688 182.816406 C 159.355469 182.527344 159.164062 182.253906 158.878906 182.203125 C 158.796875 182.1875 153.671875 181.28125 148.105469 180.621094 C 148.121094 180.570312 148.136719 180.519531 148.136719 180.46875 C 148.140625 180.210938 148.644531 154.601562 154.230469 148.191406 C 159.320312 142.351562 167.757812 141.902344 169.183594 141.867188 L 174.558594 147.265625 C 174.753906 147.460938 175.074219 147.472656 175.28125 147.285156 L 180.417969 142.722656 L 183.167969 147.167969 C 183.269531 147.332031 183.441406 147.417969 183.617188 147.417969 C 183.699219 147.417969 183.777344 147.402344 183.855469 147.363281 L 196.410156 141.003906 C 197.804688 141.117188 209.429688 142.191406 214.515625 146.886719 C 219.9375 151.894531 228.296875 177.679688 224.277344 184.519531 C 220.269531 191.335938 212.109375 191.429688 212.027344 191.429688 C 211.734375 191.429688 211.5 191.664062 211.5 191.957031 C 211.5 192.25 211.734375 192.484375 212.027344 192.484375 C 212.394531 192.484375 220.871094 192.398438 225.1875 185.054688 C 229.496094 177.722656 220.96875 151.410156 215.230469 146.113281 C 212.582031 143.667969 208.394531 142.167969 204.632812 141.257812 C 225.011719 143.871094 240.972656 165.632812 240.972656 192.007812 C 240.972656 192.296875 241.207031 192.535156 241.5 192.535156 C 241.792969 192.535156 242.027344 192.296875 242.027344 192.007812 C 242.027344 163.296875 223.402344 139.9375 200.507812 139.9375 Z M 136.636719 187.160156 C 135.980469 188.117188 135.449219 189.355469 136.214844 190.210938 C 137.214844 191.332031 151.929688 190.636719 161.136719 190.085938 L 160.789062 191.429688 L 125.496094 191.429688 C 122.097656 191.175781 116.5 190.027344 115.949219 188.039062 C 115.394531 186.023438 118.199219 184.503906 119.484375 183.921875 C 119.609375 184.4375 119.890625 185.136719 120.535156 185.8125 C 121.890625 187.238281 124.226562 187.960938 127.480469 187.960938 C 132.085938 187.960938 134.996094 187.527344 136.636719 187.160156 Z M 131.9375 183.953125 C 132.394531 183.941406 132.789062 183.917969 133.140625 183.898438 C 134.363281 183.824219 134.867188 183.792969 135.636719 184.355469 C 136.253906 184.804688 136.082031 185.757812 135.949219 186.21875 C 135.121094 186.386719 134.011719 186.558594 132.585938 186.6875 L 131.503906 183.929688 C 131.648438 183.9375 131.773438 183.953125 131.9375 183.953125 Z M 131.488281 186.777344 C 130.328125 186.855469 129.003906 186.90625 127.480469 186.90625 C 126.5625 186.90625 125.734375 186.835938 124.976562 186.710938 C 125.449219 185.808594 126.015625 185.046875 126.265625 185.011719 C 127.03125 185.011719 127.308594 184.324219 127.507812 183.824219 C 127.761719 183.1875 127.898438 182.992188 128.234375 182.992188 C 128.710938 182.992188 129.003906 183.140625 129.40625 183.347656 C 129.65625 183.476562 129.941406 183.613281 130.289062 183.722656 Z M 174.953125 146.164062 L 170.214844 141.402344 L 175.578125 137.570312 L 179.769531 141.882812 Z M 176.148438 136.640625 L 175.828125 133.488281 C 175.8125 133.320312 175.714844 133.171875 175.570312 133.085938 C 175.425781 133 175.246094 132.988281 175.09375 133.054688 C 175.070312 133.066406 172.585938 134.082031 168.269531 131.007812 C 163.816406 127.835938 161.390625 116.378906 161.335938 112.1875 C 161.320312 110.898438 161.511719 99.515625 173.3125 97.664062 C 177.605469 96.992188 181.199219 97.695312 183.996094 99.761719 C 187.105469 102.058594 189.140625 106.003906 189.886719 111.167969 C 191.085938 119.511719 190.917969 131.523438 190.882812 133.414062 L 180.589844 141.207031 Z M 183.8125 146.203125 L 181.238281 142.042969 L 190.695312 134.878906 L 191.292969 134.425781 L 195.511719 140.273438 Z M 163.570312 115.347656 C 162.550781 115.347656 162.546875 116.929688 163.570312 116.929688 C 164.589844 116.929688 164.589844 115.347656 163.570312 115.347656 Z M 173.109375 115.699219 C 174.128906 115.699219 174.128906 114.117188 173.109375 114.117188 C 172.089844 114.117188 172.085938 115.699219 173.109375 115.699219 Z M 169.144531 121.726562 C 169.398438 121.589844 169.496094 121.269531 169.359375 121.011719 C 169.222656 120.753906 168.898438 120.65625 168.644531 120.792969 C 168.085938 121.09375 167.191406 121.339844 167.023438 121.085938 C 166.785156 120.515625 167.429688 116.898438 168.164062 113.875 C 168.234375 113.589844 168.058594 113.304688 167.773438 113.238281 C 167.492188 113.167969 167.207031 113.34375 167.136719 113.625 C 166.503906 116.234375 165.535156 120.742188 166.128906 121.648438 C 166.421875 122.09375 166.875 122.238281 167.34375 122.238281 C 168.152344 122.238281 169 121.800781 169.144531 121.726562 Z M 175.644531 123.46875 C 175.375 123.363281 175.066406 123.488281 174.957031 123.757812 C 174.921875 123.839844 174.09375 125.773438 171.671875 126.441406 C 169.300781 127.089844 167.878906 125.726562 167.816406 125.667969 C 167.613281 125.460938 167.277344 125.460938 167.074219 125.664062 C 166.867188 125.871094 166.863281 126.207031 167.070312 126.414062 C 167.132812 126.476562 168.351562 127.671875 170.414062 127.671875 C 170.882812 127.671875 171.398438 127.609375 171.953125 127.457031 C 174.894531 126.648438 175.894531 124.257812 175.933594 124.15625 C 176.042969 123.886719 175.914062 123.582031 175.644531 123.46875 Z M 61.96875 140.78125 C 55.984375 140.78125 51.117188 145.648438 51.117188 151.632812 C 51.117188 157.617188 55.984375 162.484375 61.96875 162.484375 C 67.949219 162.484375 72.816406 157.617188 72.816406 151.632812 C 72.816406 145.652344 67.949219 140.78125 61.96875 140.78125 Z M 61.96875 161.429688 C 56.566406 161.429688 52.171875 157.035156 52.171875 151.632812 C 52.171875 146.234375 56.566406 141.839844 61.96875 141.839844 C 67.367188 141.839844 71.761719 146.234375 71.761719 151.632812 C 71.761719 157.035156 67.367188 161.429688 61.96875 161.429688 Z M 61.96875 161.429688 " fill-opacity="1" fill-rule="nonzero"/><g clip-path="url(#9525ebe5ef)"><path fill="#005de0" d="M 130.132812 85.875 L 107.214844 85.875 L 107.214844 83.554688 C 107.214844 82.027344 105.972656 80.785156 104.445312 80.785156 L 83.242188 80.785156 C 81.714844 80.785156 80.472656 82.027344 80.472656 83.554688 L 80.472656 119.632812 C 80.472656 119.925781 80.710938 120.160156 81 120.160156 L 132.375 120.160156 C 132.664062 120.160156 132.902344 119.925781 132.902344 119.632812 L 132.902344 88.644531 C 132.902344 87.117188 131.660156 85.875 130.132812 85.875 Z M 171.933594 242.621094 C 170.660156 240.460938 169.359375 238.265625 168.125 236.183594 C 168.066406 235.03125 167.679688 225.761719 170.015625 222.738281 C 172.546875 219.460938 179.742188 215.699219 179.816406 215.664062 C 180.074219 215.527344 180.175781 215.210938 180.039062 214.949219 C 179.90625 214.691406 179.585938 214.589844 179.328125 214.726562 C 179.023438 214.882812 171.851562 218.632812 169.179688 222.089844 C 167.167969 224.695312 166.96875 231.015625 167.011719 234.308594 C 163.820312 228.945312 161.300781 224.746094 161.261719 224.683594 C 161.113281 224.4375 160.789062 224.355469 160.539062 224.503906 C 160.289062 224.65625 160.207031 224.976562 160.359375 225.230469 C 160.414062 225.320312 165.941406 234.53125 171.023438 243.15625 C 176.125 251.820312 183.496094 260.703125 183.570312 260.792969 C 183.675781 260.917969 183.828125 260.980469 183.976562 260.980469 C 184.097656 260.980469 184.214844 260.941406 184.316406 260.859375 C 184.539062 260.671875 184.570312 260.339844 184.382812 260.113281 C 184.308594 260.027344 176.992188 251.210938 171.933594 242.621094 Z M 333.609375 127.578125 C 333.441406 126.871094 332.839844 126.378906 332.113281 126.359375 C 331.386719 126.34375 330.757812 126.792969 330.546875 127.488281 L 326.816406 139.96875 L 300.480469 131.15625 L 296.441406 129.804688 C 295.910156 129.628906 295.335938 129.667969 294.832031 129.917969 C 294.324219 130.171875 293.949219 130.605469 293.769531 131.140625 L 284.285156 159.484375 C 283.917969 160.589844 284.515625 161.789062 285.617188 162.15625 L 289.152344 163.339844 L 279.296875 192.789062 C 279.253906 192.921875 279.261719 193.066406 279.324219 193.191406 C 279.386719 193.316406 279.5 193.414062 279.632812 193.457031 L 316.234375 205.707031 C 316.289062 205.726562 316.347656 205.734375 316.402344 205.734375 C 316.621094 205.734375 316.828125 205.59375 316.902344 205.371094 L 337.414062 144.074219 C 337.417969 144.070312 337.414062 144.066406 337.417969 144.066406 C 337.417969 144.058594 337.417969 144.050781 337.417969 144.042969 C 337.441406 143.964844 337.441406 143.890625 337.425781 143.8125 C 337.425781 143.804688 337.429688 143.792969 337.429688 143.785156 Z M 327.820312 140.304688 L 331.558594 127.792969 C 331.667969 127.429688 331.980469 127.414062 332.082031 127.414062 C 332.175781 127.417969 332.492188 127.453125 332.582031 127.820312 L 336.183594 143.105469 Z M 327.820312 140.304688 " fill-opacity="1" fill-rule="nonzero"/></g><g clip-path="url(#319b1a9638)"><path fill="#005de0" d="M 184.066406 146.613281 L 180.984375 141.632812 C 180.902344 141.5 180.765625 141.410156 180.609375 141.390625 C 180.457031 141.367188 180.300781 141.414062 180.183594 141.515625 L 174.582031 146.496094 C 174.375 146.679688 174.34375 146.992188 174.511719 147.210938 L 177.335938 150.917969 L 173.324219 178 C 173.304688 178.132812 173.335938 178.269531 173.414062 178.378906 L 178.839844 186.140625 C 178.941406 186.285156 179.101562 186.367188 179.273438 186.367188 C 179.289062 186.367188 179.304688 186.367188 179.320312 186.363281 C 179.511719 186.347656 179.675781 186.230469 179.753906 186.058594 L 184.097656 176.558594 C 184.144531 176.453125 184.15625 176.335938 184.132812 176.222656 L 178.484375 151.007812 L 183.914062 147.328125 C 184.148438 147.171875 184.214844 146.855469 184.066406 146.613281 Z M 233.648438 63.148438 C 227.664062 63.148438 222.796875 68.015625 222.796875 73.996094 C 222.796875 79.980469 227.664062 84.847656 233.648438 84.847656 C 239.632812 84.847656 244.5 79.980469 244.5 73.996094 C 244.5 68.015625 239.632812 63.148438 233.648438 63.148438 Z M 233.648438 83.792969 C 228.246094 83.792969 223.851562 79.398438 223.851562 73.996094 C 223.851562 68.597656 228.246094 64.203125 233.648438 64.203125 C 239.050781 64.203125 243.441406 68.597656 243.441406 73.996094 C 243.441406 79.398438 239.050781 83.792969 233.648438 83.792969 Z M 257.847656 82.582031 L 253.105469 79.84375 C 253.675781 77.9375 253.964844 75.972656 253.964844 73.996094 C 253.964844 72.019531 253.675781 70.058594 253.105469 68.152344 L 257.847656 65.414062 C 258.101562 65.269531 258.1875 64.945312 258.042969 64.691406 L 253.902344 57.523438 C 253.835938 57.402344 253.71875 57.3125 253.582031 57.277344 C 253.445312 57.242188 253.304688 57.261719 253.183594 57.328125 L 248.421875 60.078125 C 245.664062 57.148438 242.183594 55.132812 238.316406 54.222656 L 238.316406 48.746094 C 238.316406 48.453125 238.078125 48.21875 237.785156 48.21875 L 229.507812 48.21875 C 229.214844 48.21875 228.980469 48.453125 228.980469 48.746094 L 228.980469 54.222656 C 225.109375 55.132812 221.632812 57.148438 218.875 60.078125 L 214.113281 57.328125 C 213.859375 57.1875 213.535156 57.269531 213.390625 57.523438 L 209.25 64.691406 C 209.179688 64.8125 209.160156 64.957031 209.199219 65.09375 C 209.234375 65.226562 209.324219 65.34375 209.445312 65.414062 L 214.191406 68.152344 C 213.617188 70.058594 213.328125 72.023438 213.328125 73.996094 C 213.328125 75.972656 213.617188 77.9375 214.191406 79.84375 L 209.445312 82.582031 C 209.324219 82.652344 209.234375 82.769531 209.199219 82.902344 C 209.160156 83.039062 209.183594 83.183594 209.25 83.304688 L 213.390625 90.472656 C 213.535156 90.726562 213.859375 90.8125 214.113281 90.667969 L 218.875 87.917969 C 221.632812 90.847656 225.109375 92.863281 228.980469 93.773438 L 228.980469 99.25 C 228.980469 99.542969 229.214844 99.777344 229.507812 99.777344 L 237.785156 99.777344 C 238.078125 99.777344 238.316406 99.542969 238.316406 99.25 L 238.316406 93.773438 C 242.183594 92.863281 245.664062 90.847656 248.421875 87.917969 L 253.183594 90.667969 C 253.304688 90.734375 253.445312 90.753906 253.582031 90.71875 C 253.71875 90.683594 253.835938 90.59375 253.902344 90.472656 L 258.042969 83.304688 C 258.1875 83.050781 258.101562 82.726562 257.847656 82.582031 Z M 253.253906 89.488281 L 248.582031 86.789062 C 248.367188 86.667969 248.09375 86.707031 247.925781 86.894531 C 245.175781 89.9375 241.632812 91.988281 237.675781 92.832031 C 237.433594 92.882812 237.257812 93.097656 237.257812 93.347656 L 237.257812 98.722656 L 230.035156 98.722656 L 230.035156 93.347656 C 230.035156 93.101562 229.863281 92.882812 229.617188 92.832031 C 225.664062 91.988281 222.117188 89.9375 219.367188 86.894531 C 219.199219 86.707031 218.925781 86.667969 218.710938 86.789062 L 214.039062 89.488281 L 210.429688 83.234375 L 215.085938 80.546875 C 215.300781 80.421875 215.398438 80.164062 215.324219 79.925781 C 214.699219 77.996094 214.382812 76.003906 214.382812 73.996094 C 214.382812 71.992188 214.699219 70 215.324219 68.070312 C 215.398438 67.832031 215.300781 67.574219 215.085938 67.449219 L 210.429688 64.761719 L 214.039062 58.507812 L 218.710938 61.207031 C 218.929688 61.328125 219.203125 61.289062 219.367188 61.101562 C 222.117188 58.058594 225.664062 56.007812 229.617188 55.164062 C 229.863281 55.113281 230.035156 54.898438 230.035156 54.648438 L 230.035156 49.273438 L 237.257812 49.273438 L 237.257812 54.648438 C 237.257812 54.894531 237.433594 55.113281 237.675781 55.164062 C 241.632812 56.007812 245.175781 58.058594 247.925781 61.101562 C 248.09375 61.289062 248.367188 61.328125 248.582031 61.207031 L 253.253906 58.507812 L 256.863281 64.761719 L 252.210938 67.449219 C 251.996094 67.574219 251.894531 67.832031 251.972656 68.070312 C 252.59375 69.996094 252.910156 71.992188 252.910156 73.996094 C 252.910156 76.003906 252.59375 78 251.972656 79.925781 C 251.894531 80.164062 251.996094 80.421875 252.210938 80.546875 L 256.863281 83.234375 Z M 193.316406 95.523438 C 189.378906 91.992188 183.078125 93.050781 181.753906 93.320312 C 180.570312 92.519531 174.535156 88.941406 166.226562 92.957031 C 157.695312 97.082031 158.953125 104.597656 159.199219 105.738281 C 159.054688 106.34375 158.574219 108.761719 159.707031 110.542969 C 160.332031 111.523438 161.320312 112.132812 162.648438 112.355469 C 166.09375 112.929688 168.300781 110.425781 169.285156 108.933594 C 169.980469 110.414062 171.769531 112.734375 176.15625 112.4375 C 179.011719 112.246094 180.910156 111.410156 182.128906 110.546875 C 181.0625 113.707031 179.863281 119.011719 182.449219 122.054688 C 184.109375 124.003906 186.601562 125.109375 189.195312 125.109375 C 189.671875 125.109375 190.148438 125.074219 190.625 124.996094 C 193.46875 124.542969 195.714844 122.777344 196.792969 120.152344 C 198.992188 114.78125 196.132812 108.464844 195.554688 107.289062 C 195.875 105.996094 197.339844 99.136719 193.316406 95.523438 Z M 193.316406 95.523438 " fill-opacity="1" fill-rule="nonzero"/></g></svg>