<svg xmlns="http://www.w3.org/2000/svg" xmlns:xlink="http://www.w3.org/1999/xlink" width="1200" zoomAndPan="magnify" viewBox="0 0 900 899.99999" height="1200" preserveAspectRatio="xMidYMid meet" version="1.0"><defs><clipPath id="c92ed23850"><path d="M 74.523438 162 L 825.273438 162 L 825.273438 610 L 74.523438 610 Z M 74.523438 162 " clip-rule="nonzero"/></clipPath><clipPath id="924627218b"><path d="M 76.160156 364.402344 C 52.871094 430.28125 84.40625 503.101562 147.605469 532.949219 C 196.335938 555.964844 280.492188 588.109375 394.628906 603.59375 C 583.511719 629.226562 754.527344 565.285156 800.625 476.953125 C 846.726562 388.621094 836.195312 259.292969 699.445312 196.855469 C 562.695312 134.417969 364.792969 162.664062 327.546875 232.53125 C 290.296875 302.402344 224.929688 303.183594 144.726562 305.023438 C 111.308594 305.789062 87.941406 331.0625 76.160156 364.402344 Z M 76.160156 364.402344 " clip-rule="nonzero"/></clipPath><clipPath id="d5a086fb98"><path d="M 162 162 L 242 162 L 242 610 L 162 610 Z M 162 162 " clip-rule="nonzero"/></clipPath><clipPath id="b33c3407d5"><path d="M 76.160156 364.402344 C 52.871094 430.28125 84.40625 503.101562 147.605469 532.949219 C 196.335938 555.964844 280.492188 588.109375 394.628906 603.59375 C 583.511719 629.226562 754.527344 565.285156 800.625 476.953125 C 846.726562 388.621094 836.195312 259.292969 699.445312 196.855469 C 562.695312 134.417969 364.792969 162.664062 327.546875 232.53125 C 290.296875 302.402344 224.929688 303.183594 144.726562 305.023438 C 111.308594 305.789062 87.941406 331.0625 76.160156 364.402344 Z M 76.160156 364.402344 " clip-rule="nonzero"/></clipPath><clipPath id="5499024860"><path d="M 260 464 L 395 464 L 395 610 L 260 610 Z M 260 464 " clip-rule="nonzero"/></clipPath><clipPath id="b3c3915c20"><path d="M 76.160156 364.402344 C 52.871094 430.28125 84.40625 503.101562 147.605469 532.949219 C 196.335938 555.964844 280.492188 588.109375 394.628906 603.59375 C 583.511719 629.226562 754.527344 565.285156 800.625 476.953125 C 846.726562 388.621094 836.195312 259.292969 699.445312 196.855469 C 562.695312 134.417969 364.792969 162.664062 327.546875 232.53125 C 290.296875 302.402344 224.929688 303.183594 144.726562 305.023438 C 111.308594 305.789062 87.941406 331.0625 76.160156 364.402344 Z M 76.160156 364.402344 " clip-rule="nonzero"/></clipPath><clipPath id="373b53babc"><path d="M 446 162 L 717 162 L 717 375 L 446 375 Z M 446 162 " clip-rule="nonzero"/></clipPath><clipPath id="f067b260d9"><path d="M 76.160156 364.402344 C 52.871094 430.28125 84.40625 503.101562 147.605469 532.949219 C 196.335938 555.964844 280.492188 588.109375 394.628906 603.59375 C 583.511719 629.226562 754.527344 565.285156 800.625 476.953125 C 846.726562 388.621094 836.195312 259.292969 699.445312 196.855469 C 562.695312 134.417969 364.792969 162.664062 327.546875 232.53125 C 290.296875 302.402344 224.929688 303.183594 144.726562 305.023438 C 111.308594 305.789062 87.941406 331.0625 76.160156 364.402344 Z M 76.160156 364.402344 " clip-rule="nonzero"/></clipPath><clipPath id="d34371a0b6"><path d="M 461 162 L 703 162 L 703 359 L 461 359 Z M 461 162 " clip-rule="nonzero"/></clipPath><clipPath id="c5619f77b7"><path d="M 76.160156 364.402344 C 52.871094 430.28125 84.40625 503.101562 147.605469 532.949219 C 196.335938 555.964844 280.492188 588.109375 394.628906 603.59375 C 583.511719 629.226562 754.527344 565.285156 800.625 476.953125 C 846.726562 388.621094 836.195312 259.292969 699.445312 196.855469 C 562.695312 134.417969 364.792969 162.664062 327.546875 232.53125 C 290.296875 302.402344 224.929688 303.183594 144.726562 305.023438 C 111.308594 305.789062 87.941406 331.0625 76.160156 364.402344 Z M 76.160156 364.402344 " clip-rule="nonzero"/></clipPath><clipPath id="8e0f6c14ad"><path d="M 574 162 L 589 162 L 589 375 L 574 375 Z M 574 162 " clip-rule="nonzero"/></clipPath><clipPath id="c2707b9f6b"><path d="M 76.160156 364.402344 C 52.871094 430.28125 84.40625 503.101562 147.605469 532.949219 C 196.335938 555.964844 280.492188 588.109375 394.628906 603.59375 C 583.511719 629.226562 754.527344 565.285156 800.625 476.953125 C 846.726562 388.621094 836.195312 259.292969 699.445312 196.855469 C 562.695312 134.417969 364.792969 162.664062 327.546875 232.53125 C 290.296875 302.402344 224.929688 303.183594 144.726562 305.023438 C 111.308594 305.789062 87.941406 331.0625 76.160156 364.402344 Z M 76.160156 364.402344 " clip-rule="nonzero"/></clipPath></defs><g clip-path="url(#c92ed23850)"><g clip-path="url(#924627218b)"><path fill="#f4f4fd" d="M 74.554688 138.632812 L 825.273438 138.632812 L 825.273438 714.839844 L 74.554688 714.839844 Z M 74.554688 138.632812 " fill-opacity="1" fill-rule="nonzero"/></g></g><g clip-path="url(#d5a086fb98)"><g clip-path="url(#b33c3407d5)"><path fill="#dad9e7" d="M 162.570312 138.632812 L 241.058594 138.632812 L 241.058594 617.980469 L 162.570312 617.980469 Z M 162.570312 138.632812 " fill-opacity="1" fill-rule="nonzero"/></g></g><g clip-path="url(#5499024860)"><g clip-path="url(#b3c3915c20)"><path fill="#dad9e7" d="M 394.75 617.980469 L 260.933594 617.980469 L 260.933594 464.335938 L 394.75 464.335938 Z M 394.75 617.980469 " fill-opacity="1" fill-rule="nonzero"/></g></g><g clip-path="url(#373b53babc)"><g clip-path="url(#f067b260d9)"><path fill="#dad9e7" d="M 446.988281 138.632812 L 716.417969 138.632812 L 716.417969 374.609375 L 446.988281 374.609375 Z M 446.988281 138.632812 " fill-opacity="1" fill-rule="nonzero"/></g></g><g clip-path="url(#d34371a0b6)"><g clip-path="url(#c5619f77b7)"><path fill="#dad9e7" d="M 461.140625 138.632812 L 702.265625 138.632812 L 702.265625 358.25 L 461.140625 358.25 Z M 461.140625 138.632812 " fill-opacity="1" fill-rule="nonzero"/><path fill="#f4f4fd" d="M 461.140625 138.632812 L 702.265625 138.632812 L 702.265625 358.25 L 461.140625 358.25 Z M 461.140625 138.632812 " fill-opacity="1" fill-rule="nonzero"/></g></g><g clip-path="url(#8e0f6c14ad)"><g clip-path="url(#c2707b9f6b)"><path fill="#dad9e7" d="M 574.628906 138.632812 L 588.777344 138.632812 L 588.777344 374.609375 L 574.628906 374.609375 Z M 574.628906 138.632812 " fill-opacity="1" fill-rule="nonzero"/></g></g><path stroke-linecap="butt" transform="matrix(1.544435, 0, 0, 1.543903, 60.779541, 155.246306)" fill-opacity="1" fill="#ffffff" fill-rule="nonzero" stroke-linejoin="miter" d="M 132.720543 189.943123 L 132.720543 218.333534 C 132.720543 223.016776 128.92668 226.801826 124.250112 226.801826 L 46.830019 226.801826 C 42.15598 226.801826 38.362118 223.016776 38.362118 218.333534 L 38.362118 189.943123 Z M 132.720543 189.943123 " stroke="#1c2e3f" stroke-width="1" stroke-opacity="1" stroke-miterlimit="10"/><path stroke-linecap="butt" transform="matrix(1.544435, 0, 0, 1.543903, 60.779541, 155.246306)" fill-opacity="1" fill="#d25455" fill-rule="nonzero" stroke-linejoin="miter" d="M 132.720543 169.284741 L 132.720543 189.943123 L 38.362118 189.943123 L 38.362118 169.284741 C 38.362118 164.60909 42.15598 160.816449 46.830019 160.816449 L 124.250112 160.816449 C 128.92668 160.816449 132.720543 164.60909 132.720543 169.284741 Z M 132.720543 169.284741 " stroke="#1c2e3f" stroke-width="1" stroke-opacity="1" stroke-miterlimit="10"/><path stroke-linecap="round" transform="matrix(1.544435, 0, 0, 1.543903, 60.779541, 155.246306)" fill="none" stroke-linejoin="round" d="M 60.131302 157.934649 L 60.131302 164.318127 " stroke="#1c2e3f" stroke-width="4" stroke-opacity="1" stroke-miterlimit="4"/><path stroke-linecap="round" transform="matrix(1.544435, 0, 0, 1.543903, 60.779541, 155.246306)" fill="none" stroke-linejoin="round" d="M 110.948829 157.934649 L 110.948829 164.318127 " stroke="#1c2e3f" stroke-width="4" stroke-opacity="1" stroke-miterlimit="4"/><path fill="#1996f2" d="M 147.976562 464.550781 L 159.320312 464.550781 C 159.753906 464.550781 160.167969 464.632812 160.566406 464.800781 C 160.964844 464.964844 161.316406 465.199219 161.621094 465.503906 C 161.925781 465.808594 162.160156 466.160156 162.324219 466.558594 C 162.488281 466.953125 162.570312 467.371094 162.570312 467.800781 C 162.570312 468.230469 162.488281 468.644531 162.324219 469.042969 C 162.160156 469.441406 161.925781 469.792969 161.621094 470.097656 C 161.316406 470.402344 160.964844 470.636719 160.566406 470.800781 C 160.167969 470.964844 159.753906 471.046875 159.320312 471.046875 L 147.976562 471.046875 C 147.546875 471.046875 147.132812 470.964844 146.734375 470.800781 C 146.335938 470.636719 145.984375 470.402344 145.679688 470.097656 C 145.375 469.792969 145.140625 469.441406 144.976562 469.042969 C 144.808594 468.644531 144.726562 468.230469 144.726562 467.800781 C 144.726562 467.371094 144.808594 466.953125 144.976562 466.558594 C 145.140625 466.160156 145.375 465.808594 145.679688 465.503906 C 145.984375 465.199219 146.335938 464.964844 146.734375 464.800781 C 147.132812 464.632812 147.546875 464.550781 147.976562 464.550781 Z M 147.976562 464.550781 " fill-opacity="1" fill-rule="nonzero"/><path fill="#1996f2" d="M 147.976562 477.628906 L 159.320312 477.628906 C 159.753906 477.628906 160.167969 477.710938 160.566406 477.875 C 160.964844 478.039062 161.316406 478.277344 161.621094 478.578125 C 161.925781 478.882812 162.160156 479.234375 162.324219 479.632812 C 162.488281 480.03125 162.570312 480.445312 162.570312 480.878906 C 162.570312 481.308594 162.488281 481.722656 162.324219 482.121094 C 162.160156 482.519531 161.925781 482.871094 161.621094 483.175781 C 161.316406 483.476562 160.964844 483.714844 160.566406 483.878906 C 160.167969 484.042969 159.753906 484.125 159.320312 484.125 L 147.976562 484.125 C 147.546875 484.125 147.132812 484.042969 146.734375 483.878906 C 146.335938 483.714844 145.984375 483.476562 145.679688 483.175781 C 145.375 482.871094 145.140625 482.519531 144.976562 482.121094 C 144.808594 481.722656 144.726562 481.308594 144.726562 480.878906 C 144.726562 480.445312 144.808594 480.03125 144.976562 479.632812 C 145.140625 479.234375 145.375 478.882812 145.679688 478.578125 C 145.984375 478.277344 146.335938 478.039062 146.734375 477.875 C 147.132812 477.710938 147.546875 477.628906 147.976562 477.628906 Z M 147.976562 477.628906 " fill-opacity="1" fill-rule="nonzero"/><path fill="#1996f2" d="M 187.21875 464.550781 L 198.566406 464.550781 C 198.996094 464.550781 199.410156 464.632812 199.808594 464.800781 C 200.207031 464.964844 200.558594 465.199219 200.863281 465.503906 C 201.167969 465.808594 201.402344 466.160156 201.566406 466.558594 C 201.730469 466.953125 201.8125 467.371094 201.8125 467.800781 C 201.8125 468.230469 201.730469 468.644531 201.566406 469.042969 C 201.402344 469.441406 201.167969 469.792969 200.863281 470.097656 C 200.558594 470.402344 200.207031 470.636719 199.808594 470.800781 C 199.410156 470.964844 198.996094 471.046875 198.566406 471.046875 L 187.21875 471.046875 C 186.789062 471.046875 186.375 470.964844 185.976562 470.800781 C 185.578125 470.636719 185.226562 470.402344 184.921875 470.097656 C 184.617188 469.792969 184.382812 469.441406 184.21875 469.042969 C 184.050781 468.644531 183.96875 468.230469 183.96875 467.800781 C 183.96875 467.371094 184.050781 466.953125 184.21875 466.558594 C 184.382812 466.160156 184.617188 465.808594 184.921875 465.503906 C 185.226562 465.199219 185.578125 464.964844 185.976562 464.800781 C 186.375 464.632812 186.789062 464.550781 187.21875 464.550781 Z M 187.21875 464.550781 " fill-opacity="1" fill-rule="nonzero"/><path fill="#1996f2" d="M 187.21875 477.628906 L 198.566406 477.628906 C 198.996094 477.628906 199.410156 477.710938 199.808594 477.875 C 200.207031 478.039062 200.558594 478.277344 200.863281 478.578125 C 201.167969 478.882812 201.402344 479.234375 201.566406 479.632812 C 201.730469 480.03125 201.8125 480.445312 201.8125 480.878906 C 201.8125 481.308594 201.730469 481.722656 201.566406 482.121094 C 201.402344 482.519531 201.167969 482.871094 200.863281 483.175781 C 200.558594 483.476562 200.207031 483.714844 199.808594 483.878906 C 199.410156 484.042969 198.996094 484.125 198.566406 484.125 L 187.21875 484.125 C 186.789062 484.125 186.375 484.042969 185.976562 483.878906 C 185.578125 483.714844 185.226562 483.476562 184.921875 483.175781 C 184.617188 482.871094 184.382812 482.519531 184.21875 482.121094 C 184.050781 481.722656 183.96875 481.308594 183.96875 480.878906 C 183.96875 480.445312 184.050781 480.03125 184.21875 479.632812 C 184.382812 479.234375 184.617188 478.882812 184.921875 478.578125 C 185.226562 478.277344 185.578125 478.039062 185.976562 477.875 C 186.375 477.710938 186.789062 477.628906 187.21875 477.628906 Z M 187.21875 477.628906 " fill-opacity="1" fill-rule="nonzero"/><path fill="#1996f2" d="M 226.460938 464.550781 L 237.808594 464.550781 C 238.238281 464.550781 238.652344 464.632812 239.050781 464.800781 C 239.449219 464.964844 239.800781 465.199219 240.105469 465.503906 C 240.410156 465.808594 240.644531 466.160156 240.808594 466.558594 C 240.972656 466.953125 241.058594 467.371094 241.058594 467.800781 C 241.058594 468.230469 240.972656 468.644531 240.808594 469.042969 C 240.644531 469.441406 240.410156 469.792969 240.105469 470.097656 C 239.800781 470.402344 239.449219 470.636719 239.050781 470.800781 C 238.652344 470.964844 238.238281 471.046875 237.808594 471.046875 L 226.460938 471.046875 C 226.03125 471.046875 225.617188 470.964844 225.21875 470.800781 C 224.820312 470.636719 224.46875 470.402344 224.164062 470.097656 C 223.859375 469.792969 223.625 469.441406 223.460938 469.042969 C 223.292969 468.644531 223.210938 468.230469 223.210938 467.800781 C 223.210938 467.371094 223.292969 466.953125 223.460938 466.558594 C 223.625 466.160156 223.859375 465.808594 224.164062 465.503906 C 224.46875 465.199219 224.820312 464.964844 225.21875 464.800781 C 225.617188 464.632812 226.03125 464.550781 226.460938 464.550781 Z M 226.460938 464.550781 " fill-opacity="1" fill-rule="nonzero"/><path fill="#1996f2" d="M 226.460938 477.628906 L 237.808594 477.628906 C 238.238281 477.628906 238.652344 477.710938 239.050781 477.875 C 239.449219 478.039062 239.800781 478.277344 240.105469 478.578125 C 240.410156 478.882812 240.644531 479.234375 240.808594 479.632812 C 240.972656 480.03125 241.058594 480.445312 241.058594 480.878906 C 241.058594 481.308594 240.972656 481.722656 240.808594 482.121094 C 240.644531 482.519531 240.410156 482.871094 240.105469 483.175781 C 239.800781 483.476562 239.449219 483.714844 239.050781 483.878906 C 238.652344 484.042969 238.238281 484.125 237.808594 484.125 L 226.460938 484.125 C 226.03125 484.125 225.617188 484.042969 225.21875 483.878906 C 224.820312 483.714844 224.46875 483.476562 224.164062 483.175781 C 223.859375 482.871094 223.625 482.519531 223.460938 482.121094 C 223.292969 481.722656 223.210938 481.308594 223.210938 480.878906 C 223.210938 480.445312 223.292969 480.03125 223.460938 479.632812 C 223.625 479.234375 223.859375 478.882812 224.164062 478.578125 C 224.46875 478.277344 224.820312 478.039062 225.21875 477.875 C 225.617188 477.710938 226.03125 477.628906 226.460938 477.628906 Z M 226.460938 477.628906 " fill-opacity="1" fill-rule="nonzero"/><path stroke-linecap="round" transform="matrix(1.544435, 0, 0, 1.543903, 60.779541, 155.246306)" fill="none" stroke-linejoin="round" d="M 87.414234 232.469282 C 87.414234 232.469282 88.420872 247.981412 103.826484 246.483584 " stroke="#1c2e3f" stroke-width="1" stroke-opacity="1" stroke-miterlimit="4"/><path stroke-linecap="round" transform="matrix(1.544435, 0, 0, 1.543903, 60.779541, 155.246306)" fill="none" stroke-linejoin="round" d="M 97.407268 151.30069 C 97.407268 151.30069 101.259304 135.646873 113.027866 132.866278 " stroke="#1c2e3f" stroke-width="1" stroke-opacity="1" stroke-miterlimit="4"/><path stroke-linecap="butt" transform="matrix(1.544435, 0, 0, 1.543903, 60.779541, 155.246306)" fill-opacity="1" fill="#ffffff" fill-rule="nonzero" stroke-linejoin="miter" d="M 185.331302 80.103277 L 185.331302 109.665131 C 185.331302 113.700663 182.055934 116.974631 178.021793 116.974631 L 93.856213 116.974631 C 89.822072 116.974631 86.549233 113.700663 86.549233 109.665131 L 86.549233 80.103277 Z M 185.331302 80.103277 " stroke="#1c2e3f" stroke-width="1" stroke-opacity="1" stroke-miterlimit="10"/><path fill="#d25455" d="M 213.34375 291.988281 L 223.128906 291.988281 C 223.503906 291.988281 223.859375 292.0625 224.203125 292.203125 C 224.546875 292.34375 224.851562 292.546875 225.113281 292.8125 C 225.375 293.074219 225.578125 293.375 225.722656 293.71875 C 225.863281 294.0625 225.933594 294.421875 225.933594 294.792969 C 225.933594 295.164062 225.863281 295.523438 225.722656 295.867188 C 225.578125 296.207031 225.375 296.511719 225.113281 296.773438 C 224.851562 297.039062 224.546875 297.238281 224.203125 297.382812 C 223.859375 297.523438 223.503906 297.59375 223.128906 297.59375 L 213.34375 297.59375 C 212.96875 297.59375 212.613281 297.523438 212.269531 297.382812 C 211.925781 297.238281 211.621094 297.039062 211.359375 296.773438 C 211.097656 296.511719 210.894531 296.207031 210.75 295.867188 C 210.609375 295.523438 210.539062 295.164062 210.539062 294.792969 C 210.539062 294.421875 210.609375 294.0625 210.75 293.71875 C 210.894531 293.375 211.097656 293.074219 211.359375 292.8125 C 211.621094 292.546875 211.925781 292.34375 212.269531 292.203125 C 212.613281 292.0625 212.96875 291.988281 213.34375 291.988281 Z M 213.34375 291.988281 " fill-opacity="1" fill-rule="nonzero"/><path fill="#d25455" d="M 213.34375 303.273438 L 223.128906 303.273438 C 223.503906 303.273438 223.859375 303.34375 224.203125 303.488281 C 224.546875 303.628906 224.851562 303.832031 225.113281 304.09375 C 225.375 304.359375 225.578125 304.660156 225.722656 305.003906 C 225.863281 305.347656 225.933594 305.707031 225.933594 306.078125 C 225.933594 306.449219 225.863281 306.804688 225.722656 307.148438 C 225.578125 307.492188 225.375 307.796875 225.113281 308.058594 C 224.851562 308.320312 224.546875 308.523438 224.203125 308.667969 C 223.859375 308.808594 223.503906 308.878906 223.128906 308.878906 L 213.34375 308.878906 C 212.96875 308.878906 212.613281 308.808594 212.269531 308.667969 C 211.925781 308.523438 211.621094 308.320312 211.359375 308.058594 C 211.097656 307.796875 210.894531 307.492188 210.75 307.148438 C 210.609375 306.804688 210.539062 306.449219 210.539062 306.078125 C 210.539062 305.707031 210.609375 305.347656 210.75 305.003906 C 210.894531 304.660156 211.097656 304.359375 211.359375 304.09375 C 211.621094 303.832031 211.925781 303.628906 212.269531 303.488281 C 212.613281 303.34375 212.96875 303.273438 213.34375 303.273438 Z M 213.34375 303.273438 " fill-opacity="1" fill-rule="nonzero"/><path fill="#d25455" d="M 213.34375 314.558594 L 223.128906 314.558594 C 223.503906 314.558594 223.859375 314.628906 224.203125 314.769531 C 224.546875 314.914062 224.851562 315.113281 225.113281 315.378906 C 225.375 315.640625 225.578125 315.945312 225.722656 316.289062 C 225.863281 316.628906 225.933594 316.988281 225.933594 317.359375 C 225.933594 317.730469 225.863281 318.089844 225.722656 318.433594 C 225.578125 318.777344 225.375 319.078125 225.113281 319.34375 C 224.851562 319.605469 224.546875 319.808594 224.203125 319.949219 C 223.859375 320.089844 223.503906 320.164062 223.128906 320.164062 L 213.34375 320.164062 C 212.96875 320.164062 212.613281 320.089844 212.269531 319.949219 C 211.925781 319.808594 211.621094 319.605469 211.359375 319.34375 C 211.097656 319.078125 210.894531 318.777344 210.75 318.433594 C 210.609375 318.089844 210.539062 317.730469 210.539062 317.359375 C 210.539062 316.988281 210.609375 316.628906 210.75 316.289062 C 210.894531 315.945312 211.097656 315.640625 211.359375 315.378906 C 211.621094 315.113281 211.925781 314.914062 212.269531 314.769531 C 212.613281 314.628906 212.96875 314.558594 213.34375 314.558594 Z M 213.34375 314.558594 " fill-opacity="1" fill-rule="nonzero"/><path stroke-linecap="butt" transform="matrix(1.544435, 0, 0, 1.543903, 60.779541, 155.246306)" fill-opacity="1" fill="#1996f2" fill-rule="nonzero" stroke-linejoin="miter" d="M 185.331302 67.839813 L 185.331302 80.103277 L 86.549233 80.103277 L 86.549233 67.839813 C 86.549233 63.804281 89.822072 60.530314 93.856213 60.530314 L 178.021793 60.530314 C 182.055934 60.530314 185.331302 63.804281 185.331302 67.839813 Z M 185.331302 67.839813 " stroke="#1c2e3f" stroke-width="1" stroke-opacity="1" stroke-miterlimit="10"/><path fill="#d25455" d="M 256.902344 297.59375 L 275.214844 297.59375 L 275.214844 320.164062 L 256.902344 320.164062 Z M 256.902344 297.59375 " fill-opacity="1" fill-rule="nonzero"/><path fill="#d25455" d="M 280.589844 291.988281 L 298.902344 291.988281 L 298.902344 320.164062 L 280.589844 320.164062 Z M 280.589844 291.988281 " fill-opacity="1" fill-rule="nonzero"/><path fill="#d25455" d="M 303.847656 291.988281 L 322.15625 291.988281 L 322.15625 320.164062 L 303.847656 320.164062 Z M 303.847656 291.988281 " fill-opacity="1" fill-rule="nonzero"/><path fill="#ffcd5c" d="M 617.71875 287.785156 L 687.796875 287.785156 C 688.507812 287.785156 689.210938 287.851562 689.90625 287.992188 C 690.605469 288.128906 691.28125 288.335938 691.9375 288.605469 C 692.589844 288.878906 693.214844 289.210938 693.804688 289.605469 C 694.394531 290 694.941406 290.449219 695.441406 290.949219 C 695.945312 291.453125 696.394531 291.996094 696.789062 292.585938 C 697.183594 293.175781 697.515625 293.800781 697.785156 294.457031 C 698.058594 295.109375 698.261719 295.785156 698.402344 296.484375 C 698.539062 297.179688 698.609375 297.882812 698.609375 298.589844 L 698.609375 327.273438 C 698.609375 327.980469 698.539062 328.683594 698.402344 329.382812 C 698.261719 330.078125 698.058594 330.753906 697.785156 331.410156 C 697.515625 332.0625 697.183594 332.6875 696.789062 333.277344 C 696.394531 333.867188 695.945312 334.414062 695.441406 334.914062 C 694.941406 335.417969 694.394531 335.863281 693.804688 336.257812 C 693.214844 336.652344 692.589844 336.984375 691.9375 337.257812 C 691.28125 337.527344 690.605469 337.734375 689.90625 337.871094 C 689.210938 338.011719 688.507812 338.078125 687.796875 338.078125 L 617.71875 338.078125 C 617.007812 338.078125 616.304688 338.011719 615.609375 337.871094 C 614.914062 337.734375 614.238281 337.527344 613.582031 337.257812 C 612.925781 336.984375 612.300781 336.652344 611.710938 336.257812 C 611.121094 335.863281 610.574219 335.417969 610.074219 334.914062 C 609.570312 334.414062 609.125 333.867188 608.730469 333.277344 C 608.335938 332.6875 608 332.0625 607.730469 331.410156 C 607.457031 330.753906 607.253906 330.078125 607.113281 329.382812 C 606.976562 328.683594 606.90625 327.980469 606.90625 327.273438 L 606.90625 298.589844 C 606.90625 297.882812 606.976562 297.179688 607.113281 296.484375 C 607.253906 295.785156 607.457031 295.109375 607.730469 294.457031 C 608 293.800781 608.335938 293.175781 608.730469 292.585938 C 609.125 291.996094 609.570312 291.453125 610.074219 290.949219 C 610.574219 290.449219 611.121094 290 611.710938 289.605469 C 612.300781 289.210938 612.925781 288.878906 613.582031 288.605469 C 614.238281 288.335938 614.914062 288.128906 615.609375 287.992188 C 616.304688 287.851562 617.007812 287.785156 617.71875 287.785156 Z M 617.71875 287.785156 " fill-opacity="1" fill-rule="nonzero"/><path stroke-linecap="round" transform="matrix(1.544435, 0, 0, 1.543903, 60.779541, 155.246306)" fill="none" stroke-linejoin="round" d="M 357.8433 90.079517 L 383.29759 106.831403 L 408.75188 90.079517 " stroke="#1c2e3f" stroke-width="1" stroke-opacity="1" stroke-miterlimit="4"/><path stroke-linecap="round" transform="matrix(1.544435, 0, 0, 1.543903, 60.779541, 155.246306)" fill="none" stroke-linejoin="round" d="M 392.633022 104.139361 L 399.370922 111.360307 " stroke="#1c2e3f" stroke-width="1" stroke-opacity="1" stroke-miterlimit="4"/><path stroke-linecap="round" transform="matrix(1.544435, 0, 0, 1.543903, 60.779541, 155.246306)" fill="none" stroke-linejoin="round" d="M 373.962159 104.139361 L 367.221729 111.360307 " stroke="#1c2e3f" stroke-width="1" stroke-opacity="1" stroke-miterlimit="4"/><path stroke-linecap="butt" transform="matrix(1.544435, 0, 0, 1.543903, 60.779541, 155.246306)" fill-opacity="1" fill="#1996f2" fill-rule="nonzero" stroke-linejoin="miter" d="M 403.518879 152.363337 L 461.734438 152.363337 C 462.19476 152.363337 462.650024 152.40888 463.100229 152.497434 C 463.550434 152.585988 463.987993 152.720084 464.412905 152.894661 C 464.837818 153.071769 465.239967 153.286829 465.621883 153.542371 C 466.006328 153.797912 466.357892 154.088875 466.684164 154.41273 C 467.007907 154.739115 467.29877 155.090801 467.554224 155.472848 C 467.809677 155.854895 468.024663 156.259713 468.201709 156.684772 C 468.376227 157.109832 468.510277 157.547541 468.5988 157.997902 C 468.689853 158.448262 468.73285 158.903683 468.73285 159.364163 L 468.73285 191.268903 C 468.73285 191.726854 468.689853 192.182274 468.5988 192.632635 C 468.510277 193.085525 468.376227 193.523235 468.201709 193.945764 C 468.024663 194.370823 467.809677 194.775641 467.554224 195.157688 C 467.29877 195.539736 467.007907 195.893952 466.684164 196.217806 C 466.357892 196.541661 466.006328 196.832624 465.621883 197.088166 C 465.239967 197.343707 464.837818 197.558767 464.412905 197.735875 C 463.987993 197.910453 463.550434 198.044549 463.100229 198.133103 C 462.650024 198.224187 462.19476 198.267199 461.734438 198.267199 L 403.518879 198.267199 C 403.058557 198.267199 402.603293 198.224187 402.153088 198.133103 C 401.702883 198.044549 401.265324 197.910453 400.840412 197.735875 C 400.415499 197.558767 400.01335 197.343707 399.628905 197.088166 C 399.246989 196.832624 398.895425 196.541661 398.569152 196.217806 C 398.245409 195.893952 397.954547 195.539736 397.699093 195.157688 C 397.44364 194.775641 397.228654 194.370823 397.051607 193.945764 C 396.87709 193.523235 396.74304 193.085525 396.654516 192.632635 C 396.563464 192.182274 396.517937 191.726854 396.517937 191.268903 L 396.517937 159.364163 C 396.517937 158.903683 396.563464 158.448262 396.654516 157.997902 C 396.74304 157.547541 396.87709 157.109832 397.051607 156.684772 C 397.228654 156.259713 397.44364 155.854895 397.699093 155.472848 C 397.954547 155.090801 398.245409 154.739115 398.569152 154.41273 C 398.895425 154.088875 399.246989 153.797912 399.628905 153.542371 C 400.01335 153.286829 400.415499 153.071769 400.840412 152.894661 C 401.265324 152.720084 401.702883 152.585988 402.153088 152.497434 C 402.603293 152.40888 403.058557 152.363337 403.518879 152.363337 Z M 403.518879 152.363337 " stroke="#1c2e3f" stroke-width="1" stroke-opacity="1" stroke-miterlimit="10"/><path fill="#ffffff" d="M 723.09375 414.941406 L 720.273438 414.941406 C 720.109375 414.460938 719.914062 413.992188 719.691406 413.542969 L 721.6875 411.546875 C 722.710938 410.527344 722.710938 408.871094 721.6875 407.847656 L 719.824219 405.984375 C 718.800781 404.964844 717.144531 404.964844 716.125 405.984375 L 714.128906 407.980469 C 713.675781 407.757812 713.210938 407.5625 712.730469 407.398438 L 712.730469 404.578125 C 712.730469 403.136719 711.558594 401.964844 710.113281 401.964844 L 707.476562 401.964844 C 706.03125 401.964844 704.859375 403.136719 704.859375 404.578125 L 704.859375 407.398438 C 704.378906 407.5625 703.914062 407.757812 703.460938 407.980469 L 701.464844 405.984375 C 700.445312 404.964844 698.785156 404.964844 697.765625 405.984375 L 695.902344 407.847656 C 694.878906 408.871094 694.878906 410.527344 695.902344 411.546875 L 697.894531 413.542969 C 697.675781 413.992188 697.480469 414.460938 697.3125 414.941406 L 694.496094 414.941406 C 693.050781 414.941406 691.878906 416.113281 691.878906 417.554688 L 691.878906 420.191406 C 691.878906 421.636719 693.050781 422.808594 694.496094 422.808594 L 697.3125 422.808594 C 697.480469 423.289062 697.675781 423.753906 697.894531 424.207031 L 695.902344 426.199219 C 694.878906 427.222656 694.878906 428.878906 695.902344 429.898438 L 697.765625 431.761719 C 698.785156 432.785156 700.441406 432.785156 701.464844 431.761719 L 703.460938 429.769531 C 703.914062 429.988281 704.378906 430.183594 704.859375 430.351562 L 704.859375 433.167969 C 704.859375 434.613281 706.03125 435.785156 707.476562 435.785156 L 710.113281 435.785156 C 711.558594 435.785156 712.730469 434.613281 712.730469 433.167969 L 712.730469 430.351562 C 713.210938 430.183594 713.675781 429.988281 714.128906 429.769531 L 716.125 431.761719 C 717.144531 432.785156 718.800781 432.785156 719.824219 431.761719 L 721.6875 429.898438 C 722.710938 428.878906 722.710938 427.222656 721.6875 426.199219 L 719.691406 424.207031 C 719.914062 423.753906 720.109375 423.289062 720.273438 422.808594 L 723.09375 422.808594 C 724.539062 422.808594 725.710938 421.636719 725.710938 420.191406 L 725.710938 417.554688 C 725.710938 416.113281 724.539062 414.941406 723.09375 414.941406 Z M 708.792969 425.605469 C 705.074219 425.605469 702.0625 422.589844 702.0625 418.875 C 702.0625 415.15625 705.074219 412.144531 708.792969 412.144531 C 712.511719 412.144531 715.527344 415.15625 715.527344 418.875 C 715.527344 422.589844 712.511719 425.605469 708.792969 425.605469 Z M 708.792969 425.605469 " fill-opacity="1" fill-rule="nonzero"/><path fill="#ffffff" d="M 762.785156 424.210938 L 759.316406 424.210938 C 759.113281 423.617188 758.871094 423.042969 758.597656 422.488281 L 761.054688 420.03125 C 762.3125 418.777344 762.3125 416.738281 761.054688 415.480469 L 758.761719 413.183594 C 757.503906 411.929688 755.464844 411.929688 754.207031 413.183594 L 751.75 415.640625 C 751.191406 415.367188 750.617188 415.128906 750.027344 414.925781 L 750.027344 411.453125 C 750.027344 409.675781 748.585938 408.234375 746.804688 408.234375 L 743.558594 408.234375 C 741.78125 408.234375 740.339844 409.675781 740.339844 411.453125 L 740.339844 414.925781 C 739.746094 415.128906 739.171875 415.367188 738.617188 415.640625 L 736.160156 413.183594 C 734.902344 411.929688 732.863281 411.929688 731.605469 413.183594 L 729.308594 415.480469 C 728.050781 416.738281 728.050781 418.777344 729.308594 420.03125 L 731.765625 422.488281 C 731.492188 423.042969 731.253906 423.617188 731.050781 424.210938 L 727.578125 424.210938 C 725.800781 424.210938 724.359375 425.652344 724.359375 427.429688 L 724.359375 430.675781 C 724.359375 432.453125 725.800781 433.894531 727.578125 433.894531 L 731.050781 433.894531 C 731.253906 434.488281 731.492188 435.058594 731.765625 435.617188 L 729.308594 438.070312 C 728.050781 439.328125 728.050781 441.367188 729.308594 442.625 L 731.605469 444.917969 C 732.863281 446.175781 734.902344 446.175781 736.160156 444.917969 L 738.617188 442.464844 C 739.171875 442.738281 739.746094 442.976562 740.339844 443.179688 L 740.339844 446.648438 C 740.339844 448.429688 741.78125 449.871094 743.558594 449.871094 L 746.804688 449.871094 C 748.585938 449.871094 750.027344 448.429688 750.027344 446.648438 L 750.027344 443.179688 C 750.617188 442.976562 751.191406 442.738281 751.75 442.464844 L 754.207031 444.917969 C 755.464844 446.175781 757.503906 446.175781 758.761719 444.917969 L 761.054688 442.625 C 762.3125 441.367188 762.3125 439.328125 761.054688 438.070312 L 758.597656 435.617188 C 758.871094 435.058594 759.113281 434.488281 759.316406 433.894531 L 762.785156 433.894531 C 764.566406 433.894531 766.007812 432.453125 766.007812 430.675781 L 766.007812 427.429688 C 766.007812 425.652344 764.566406 424.210938 762.785156 424.210938 Z M 745.183594 437.339844 C 740.605469 437.339844 736.894531 433.628906 736.894531 429.050781 C 736.894531 424.476562 740.605469 420.765625 745.183594 420.765625 C 749.761719 420.765625 753.472656 424.476562 753.472656 429.050781 C 753.472656 433.628906 749.761719 437.339844 745.183594 437.339844 Z M 745.183594 437.339844 " fill-opacity="1" fill-rule="nonzero"/><path stroke-linecap="round" transform="matrix(1.544435, 0, 0, 1.543903, 60.779541, 155.246306)" fill="none" stroke-linejoin="round" d="M 404.158777 125.647862 C 404.158777 125.647862 418.739856 128.610626 417.887502 144.206249 " stroke="#1c2e3f" stroke-width="1" stroke-opacity="1" stroke-miterlimit="4"/><path stroke-linecap="round" transform="matrix(1.544435, 0, 0, 1.543903, 60.779541, 155.246306)" fill="none" stroke-linejoin="round" d="M 436.080338 208.372475 C 436.080338 208.372475 435.050937 220.377866 421.142636 224.23123 " stroke="#1c2e3f" stroke-width="1" stroke-opacity="1" stroke-miterlimit="4"/><path fill="#1c2e3f" d="M 548.128906 412.144531 L 613.054688 412.144531 C 640.855469 412.144531 663.429688 434.707031 663.429688 462.5 L 663.429688 629.226562 L 499.976562 629.226562 L 499.976562 460.28125 C 499.976562 433.714844 521.550781 412.144531 548.128906 412.144531 Z M 548.128906 412.144531 " fill-opacity="1" fill-rule="nonzero"/><path fill="#1c2e3f" d="M 411.957031 359.242188 C 408.003906 349.117188 401.941406 322.070312 401.726562 311.207031 C 401.367188 293.195312 407.550781 270.195312 424.03125 257.164062 C 451.296875 235.609375 496.34375 233.132812 524.90625 263.359375 C 553.464844 293.585938 541.511719 340.164062 553.65625 351.4375 C 565.800781 362.710938 592.070312 390.957031 583.398438 406.316406 C 583.398438 406.316406 515.488281 478.746094 451.171875 463.21875 C 386.855469 447.691406 386.03125 414.328125 406.929688 404.085938 C 426.003906 394.742188 426.375 396.191406 411.957031 359.242188 Z M 411.957031 359.242188 " fill-opacity="1" fill-rule="nonzero"/><path fill="#1996f2" d="M 630.214844 566.683594 C 630.867188 581.09375 637.371094 592.261719 648.148438 596.589844 C 630.738281 601.84375 610.882812 601.359375 610.882812 601.359375 L 610.882812 629.226562 L 420.542969 629.226562 C 443.171875 605.402344 426.246094 511.1875 426.246094 511.1875 C 359.074219 615.730469 316.941406 602.851562 292.15625 558.261719 C 283.429688 542.558594 279.0625 528.761719 277.058594 517.476562 C 311.136719 537.875 323.511719 519.046875 327.566406 508.402344 L 338.5 520.105469 C 338.5 520.105469 395.191406 430.441406 410.378906 417.40625 C 425.566406 404.367188 449.164062 413.0625 449.164062 413.0625 L 504.3125 425.121094 C 504.3125 425.121094 516.699219 443.296875 527.113281 435.777344 C 537.523438 428.269531 547.9375 386.804688 583.109375 402.667969 C 613.550781 416.382812 659.972656 509.472656 671.289062 554.546875 L 651.039062 543.394531 C 651.039062 543.394531 629.21875 544.871094 630.214844 566.683594 Z M 630.214844 566.683594 " fill-opacity="1" fill-rule="nonzero"/><path stroke-linecap="round" transform="matrix(1.544435, 0, 0, 1.543903, 60.779541, 155.246306)" fill="none" stroke-linejoin="round" d="M 179.820084 236.322646 L 188.062884 244.770697 " stroke="#1c2e3f" stroke-width="1" stroke-opacity="1" stroke-miterlimit="4"/><path stroke-linecap="round" transform="matrix(1.544435, 0, 0, 1.543903, 60.779541, 155.246306)" fill="none" stroke-linejoin="round" d="M 356.184118 288.951551 C 356.184118 288.951551 345.915396 210.447168 323.769354 190.163243 " stroke="#1c2e3f" stroke-width="1" stroke-opacity="1" stroke-miterlimit="4"/><path stroke-linecap="round" transform="matrix(1.544435, 0, 0, 1.543903, 60.779541, 155.246306)" fill="none" stroke-linejoin="round" d="M 231.899703 180.151581 L 238.941112 192.027937 C 238.941112 192.027937 229.4084 196.200096 228.530753 207.433802 C 227.521585 220.337385 236.631915 227.654475 236.631915 227.654475 " stroke="#1c2e3f" stroke-width="1" stroke-opacity="1" stroke-miterlimit="4"/><path stroke-linecap="round" transform="matrix(1.544435, 0, 0, 1.543903, 60.779541, 155.246306)" fill="none" stroke-linejoin="round" d="M 366.910632 254.774769 C 366.910632 254.774769 359.821167 254.721636 357.532204 268.634734 " stroke="#1c2e3f" stroke-width="1" stroke-opacity="1" stroke-miterlimit="4"/><path fill="#ffc5bd" d="M 510.015625 361.292969 C 506.15625 368.734375 496.226562 390.101562 498.386719 408.929688 L 479.367188 425.121094 L 452.394531 407.625 L 452.394531 381.851562 L 510.015625 355.839844 Z M 510.015625 361.292969 " fill-opacity="1" fill-rule="nonzero"/><path fill="#ffffff" d="M 505.605469 426.78125 L 503.042969 431.054688 C 499.863281 436.351562 492.632812 437.386719 488.105469 433.199219 L 479.367188 425.121094 L 470.941406 432.835938 C 466.261719 437.125 458.777344 435.84375 455.796875 430.21875 L 444.835938 409.597656 L 452.394531 407.625 L 479.027344 420.175781 L 498.203125 407.085938 C 498.675781 413.546875 500.464844 419.769531 504.3125 425.121094 C 504.742188 425.722656 505.175781 426.28125 505.605469 426.78125 Z M 505.605469 426.78125 " fill-opacity="1" fill-rule="nonzero"/><path fill="#ffc5bd" d="M 418.875 334.308594 C 418.875 334.308594 414.660156 327.34375 407.472656 328.828125 C 400.285156 330.316406 400.78125 350.878906 409.953125 357.816406 C 419.121094 364.753906 427.546875 361.535156 427.546875 361.535156 Z M 418.875 334.308594 " fill-opacity="1" fill-rule="nonzero"/><path stroke-linecap="round" transform="matrix(1.544435, 0, 0, 1.543903, 60.779541, 155.246306)" fill="none" stroke-linejoin="round" d="M 223.677138 119.332697 C 223.677138 119.332697 230.905711 115.757646 232.746999 127.494845 " stroke="#1c2e3f" stroke-width="1" stroke-opacity="1" stroke-miterlimit="4"/><path stroke-linecap="round" transform="matrix(1.544435, 0, 0, 1.543903, 60.779541, 155.246306)" fill="none" stroke-linejoin="round" d="M 229.378049 122.219557 L 227.207959 127.494845 L 230.255696 129.076167 " stroke="#1c2e3f" stroke-width="1" stroke-opacity="1" stroke-miterlimit="4"/><path fill="#ffc5bd" d="M 444.085938 279.773438 C 444.085938 279.773438 416.328125 299.347656 415.085938 327.34375 C 415.085938 327.34375 416.816406 377.660156 444.085938 387.054688 C 473.578125 397.210938 509.269531 360.789062 509.269531 360.789062 C 509.269531 360.789062 527.945312 360.960938 533.0625 349.144531 C 540.25 332.546875 522.40625 317.679688 510.011719 332.546875 C 510.011719 332.546875 457.46875 323.132812 444.085938 279.773438 Z M 444.085938 279.773438 " fill-opacity="1" fill-rule="nonzero"/><path stroke-linecap="round" transform="matrix(1.544435, 0, 0, 1.543903, 60.779541, 155.246306)" fill="none" stroke-linejoin="round" d="M 256.691332 151.265268 C 273.515848 150.359487 290.39095 133.13194 290.39095 133.13194 " stroke="#1c2e3f" stroke-width="1" stroke-opacity="1" stroke-miterlimit="4"/><path stroke-linecap="round" transform="matrix(1.544435, 0, 0, 1.543903, 60.779541, 155.246306)" fill="none" stroke-linejoin="round" d="M 259.579726 137.144701 C 259.579726 137.144701 265.194643 140.355416 272.5775 132.972542 " stroke="#1c2e3f" stroke-width="1" stroke-opacity="1" stroke-miterlimit="4"/><path stroke-linecap="round" transform="matrix(1.544435, 0, 0, 1.543903, 60.779541, 155.246306)" fill="none" stroke-linejoin="round" d="M 291.835147 129.923755 C 291.835147 129.923755 292.95813 117.612219 298.89679 115.980296 C 304.832921 114.345842 303.06751 122.95076 303.06751 122.95076 " stroke="#1c2e3f" stroke-width="1" stroke-opacity="1" stroke-miterlimit="4"/><path stroke-linecap="round" transform="matrix(1.544435, 0, 0, 1.543903, 60.779541, 155.246306)" fill="none" stroke-linejoin="round" d="M 296.810166 119.332697 L 299.218004 125.108948 L 294.402327 128.157735 " stroke="#1c2e3f" stroke-width="1" stroke-opacity="1" stroke-miterlimit="4"/><path stroke-linecap="round" transform="matrix(1.544435, 0, 0, 1.543903, 60.779541, 155.246306)" fill="none" stroke-linejoin="round" d="M 250.431458 119.332697 L 248.666047 132.972542 L 254.283493 131.36845 " stroke="#1c2e3f" stroke-width="1" stroke-opacity="1" stroke-miterlimit="4"/><path stroke-linecap="round" transform="matrix(1.544435, 0, 0, 1.543903, 60.779541, 155.246306)" fill="none" stroke-linejoin="round" d="M 277.873732 118.485109 C 277.873732 118.831734 277.856027 119.17836 277.823147 119.522456 C 277.787738 119.869081 277.737153 120.210647 277.668863 120.552212 C 277.603103 120.891247 277.517109 121.227753 277.415939 121.559197 C 277.317299 121.890642 277.198424 122.217027 277.066904 122.538352 C 276.932854 122.859676 276.786158 123.17088 276.621757 123.477024 C 276.459886 123.783168 276.28031 124.081721 276.088087 124.370154 C 275.895865 124.658587 275.688467 124.9369 275.468423 125.205092 C 275.248379 125.470754 275.015689 125.728826 274.770352 125.974247 C 274.525016 126.219668 274.269562 126.452438 274.001463 126.672558 C 273.733363 126.892678 273.455146 127.097617 273.166813 127.289906 C 272.878479 127.484725 272.580029 127.661833 272.273991 127.82629 C 271.967952 127.988218 271.654326 128.137494 271.335642 128.26906 C 271.014428 128.403156 270.688156 128.519542 270.356825 128.620746 C 270.025495 128.719421 269.689105 128.805444 269.347658 128.871227 C 269.008739 128.939541 268.664762 128.990143 268.320786 129.025564 C 267.974279 129.058456 267.627773 129.076167 267.281267 129.076167 C 266.934761 129.076167 266.588255 129.058456 266.244278 129.025564 C 265.897772 128.990143 265.556324 128.939541 265.214877 128.871227 C 264.875958 128.805444 264.539569 128.719421 264.208238 128.620746 C 263.876908 128.519542 263.550635 128.403156 263.229422 128.26906 C 262.908208 128.137494 262.594582 127.988218 262.288544 127.82629 C 261.982505 127.661833 261.686584 127.484725 261.398251 127.289906 C 261.109917 127.097617 260.8317 126.892678 260.563601 126.672558 C 260.295501 126.452438 260.037518 126.219668 259.792182 125.974247 C 259.546846 125.728826 259.314155 125.470754 259.094111 125.205092 C 258.874067 124.9369 258.669199 124.658587 258.476976 124.370154 C 258.282225 124.081721 258.105178 123.783168 257.940777 123.477024 C 257.778906 123.17088 257.62968 122.859676 257.49816 122.538352 C 257.36411 122.217027 257.247765 121.890642 257.146595 121.559197 C 257.045425 121.227753 256.96196 120.891247 256.893671 120.552212 C 256.827911 120.210647 256.774797 119.869081 256.741916 119.522456 C 256.709036 119.17836 256.691332 118.831734 256.691332 118.485109 C 256.691332 118.138483 256.709036 117.791857 256.741916 117.447762 C 256.774797 117.101136 256.827911 116.759571 256.893671 116.418005 C 256.96196 116.07897 257.045425 115.742465 257.146595 115.41102 C 257.247765 115.079575 257.36411 114.75319 257.49816 114.431866 C 257.62968 114.110541 257.778906 113.799337 257.940777 113.493194 C 258.105178 113.18705 258.282225 112.888496 258.476976 112.600063 C 258.669199 112.31163 258.874067 112.033318 259.094111 111.765126 C 259.314155 111.496933 259.546846 111.241392 259.792182 110.995971 C 260.037518 110.75055 260.295501 110.517779 260.563601 110.297659 C 260.8317 110.077539 261.109917 109.8726 261.398251 109.677781 C 261.686584 109.485493 261.982505 109.308385 262.288544 109.143927 C 262.594582 108.982 262.908208 108.832723 263.229422 108.701157 C 263.550635 108.567061 263.876908 108.450676 264.208238 108.349471 C 264.539569 108.248267 264.875958 108.164773 265.214877 108.09646 C 265.556324 108.030677 265.897772 107.980075 266.244278 107.944653 C 266.588255 107.911762 266.934761 107.894051 267.281267 107.894051 C 267.627773 107.894051 267.974279 107.911762 268.320786 107.944653 C 268.664762 107.980075 269.008739 108.030677 269.347658 108.09646 C 269.689105 108.164773 270.025495 108.248267 270.356825 108.349471 C 270.688156 108.450676 271.014428 108.567061 271.335642 108.701157 C 271.654326 108.832723 271.967952 108.982 272.273991 109.143927 C 272.580029 109.308385 272.878479 109.485493 273.166813 109.677781 C 273.455146 109.8726 273.733363 110.077539 274.001463 110.297659 C 274.269562 110.517779 274.525016 110.75055 274.770352 110.995971 C 275.015689 111.241392 275.248379 111.496933 275.468423 111.765126 C 275.688467 112.033318 275.895865 112.31163 276.088087 112.600063 C 276.28031 112.888496 276.459886 113.18705 276.621757 113.493194 C 276.786158 113.799337 276.932854 114.110541 277.066904 114.431866 C 277.198424 114.75319 277.317299 115.079575 277.415939 115.41102 C 277.517109 115.742465 277.603103 116.07897 277.668863 116.418005 C 277.737153 116.759571 277.787738 117.101136 277.823147 117.447762 C 277.856027 117.791857 277.873732 118.138483 277.873732 118.485109 Z M 277.873732 118.485109 " stroke="#ffffff" stroke-width="2" stroke-opacity="1" stroke-miterlimit="4"/><path stroke-linecap="round" transform="matrix(1.544435, 0, 0, 1.543903, 60.779541, 155.246306)" fill="none" stroke-linejoin="round" d="M 250.431458 118.485109 C 250.431458 118.831734 250.416283 119.17836 250.383402 119.522456 C 250.350522 119.869081 250.302467 120.210647 250.236706 120.552212 C 250.170946 120.891247 250.09001 121.227753 249.993899 121.559197 C 249.897788 121.890642 249.786501 122.217027 249.65751 122.538352 C 249.531048 122.859676 249.38941 123.17088 249.232597 123.477024 C 249.075784 123.783168 248.903796 124.081721 248.719161 124.370154 C 248.534527 124.658587 248.334717 124.9369 248.124789 125.205092 C 247.912333 125.470754 247.68976 125.728826 247.45454 125.974247 C 247.219321 126.219668 246.973984 126.452438 246.716002 126.672558 C 246.458019 126.892678 246.189919 127.097617 245.914232 127.289906 C 245.638545 127.484725 245.35274 127.661833 245.059348 127.82629 C 244.765956 127.988218 244.464976 128.137494 244.156409 128.26906 C 243.850371 128.403156 243.536745 128.519542 243.21806 128.620746 C 242.899376 128.719421 242.575633 128.805444 242.249361 128.871227 C 241.923088 128.939541 241.594287 128.990143 241.262956 129.025564 C 240.931626 129.058456 240.600295 129.076167 240.266435 129.076167 C 239.935104 129.076167 239.601244 129.058456 239.269914 129.025564 C 238.938583 128.990143 238.609782 128.939541 238.283509 128.871227 C 237.957237 128.805444 237.636024 128.719421 237.317339 128.620746 C 236.998655 128.519542 236.685029 128.403156 236.376461 128.26906 C 236.070423 128.137494 235.769443 127.988218 235.476051 127.82629 C 235.182659 127.661833 234.896855 127.484725 234.618638 127.289906 C 234.342951 127.097617 234.074851 126.892678 233.819398 126.672558 C 233.561415 126.452438 233.313549 126.219668 233.07833 125.974247 C 232.84311 125.728826 232.620537 125.470754 232.408081 125.205092 C 232.198154 124.9369 232.000873 124.658587 231.816238 124.370154 C 231.629074 124.081721 231.459615 123.783168 231.302802 123.477024 C 231.145989 123.17088 231.004351 122.859676 230.87536 122.538352 C 230.748898 122.217027 230.635082 121.890642 230.538971 121.559197 C 230.44286 121.227753 230.361924 120.891247 230.296164 120.552212 C 230.232933 120.210647 230.182348 119.869081 230.151997 119.522456 C 230.119117 119.17836 230.101412 118.831734 230.101412 118.485109 C 230.101412 118.138483 230.119117 117.791857 230.151997 117.447762 C 230.182348 117.101136 230.232933 116.759571 230.296164 116.418005 C 230.361924 116.07897 230.44286 115.742465 230.538971 115.41102 C 230.635082 115.079575 230.748898 114.75319 230.87536 114.431866 C 231.004351 114.110541 231.145989 113.799337 231.302802 113.493194 C 231.459615 113.18705 231.629074 112.888496 231.816238 112.600063 C 232.000873 112.31163 232.198154 112.033318 232.408081 111.765126 C 232.620537 111.496933 232.84311 111.241392 233.07833 110.995971 C 233.313549 110.75055 233.561415 110.517779 233.819398 110.297659 C 234.074851 110.077539 234.342951 109.8726 234.618638 109.677781 C 234.896855 109.485493 235.182659 109.308385 235.476051 109.143927 C 235.769443 108.982 236.070423 108.832723 236.376461 108.701157 C 236.685029 108.567061 236.998655 108.450676 237.317339 108.349471 C 237.636024 108.248267 237.957237 108.164773 238.283509 108.09646 C 238.609782 108.030677 238.938583 107.980075 239.269914 107.944653 C 239.601244 107.911762 239.935104 107.894051 240.266435 107.894051 C 240.600295 107.894051 240.931626 107.911762 241.262956 107.944653 C 241.594287 107.980075 241.923088 108.030677 242.249361 108.09646 C 242.575633 108.164773 242.899376 108.248267 243.21806 108.349471 C 243.536745 108.450676 243.850371 108.567061 244.156409 108.701157 C 244.464976 108.832723 244.765956 108.982 245.059348 109.143927 C 245.35274 109.308385 245.638545 109.485493 245.914232 109.677781 C 246.189919 109.8726 246.458019 110.077539 246.716002 110.297659 C 246.973984 110.517779 247.219321 110.75055 247.45454 110.995971 C 247.68976 111.241392 247.912333 111.496933 248.124789 111.765126 C 248.334717 112.033318 248.534527 112.31163 248.719161 112.600063 C 248.903796 112.888496 249.075784 113.18705 249.232597 113.493194 C 249.38941 113.799337 249.531048 114.110541 249.65751 114.431866 C 249.786501 114.75319 249.897788 115.079575 249.993899 115.41102 C 250.09001 115.742465 250.170946 116.07897 250.236706 116.418005 C 250.302467 116.759571 250.350522 117.101136 250.383402 117.447762 C 250.416283 117.791857 250.431458 118.138483 250.431458 118.485109 Z M 250.431458 118.485109 " stroke="#ffffff" stroke-width="2" stroke-opacity="1" stroke-miterlimit="4"/><path stroke-linecap="round" transform="matrix(1.544435, 0, 0, 1.543903, 60.779541, 155.246306)" fill="none" stroke-linejoin="round" d="M 277.873732 115.977766 L 290.871506 114.839214 " stroke="#ffffff" stroke-width="1" stroke-opacity="1" stroke-miterlimit="4"/><path stroke-linecap="round" transform="matrix(1.544435, 0, 0, 1.543903, 60.779541, 155.246306)" fill="none" stroke-linejoin="round" d="M 256.688802 118.485109 L 250.431458 118.485109 " stroke="#ffffff" stroke-width="1" stroke-opacity="1" stroke-miterlimit="4"/><path fill="#1c2e3f" d="M 474.902344 342.757812 C 474.902344 343.058594 474.878906 343.359375 474.828125 343.652344 C 474.78125 343.949219 474.710938 344.234375 474.617188 344.511719 C 474.523438 344.792969 474.410156 345.054688 474.273438 345.304688 C 474.140625 345.554688 473.984375 345.789062 473.8125 346 C 473.640625 346.214844 473.453125 346.402344 473.25 346.570312 C 473.046875 346.738281 472.832031 346.878906 472.605469 346.996094 C 472.378906 347.109375 472.148438 347.195312 471.910156 347.253906 C 471.667969 347.3125 471.429688 347.34375 471.183594 347.34375 C 470.941406 347.34375 470.699219 347.3125 470.457031 347.253906 C 470.21875 347.195312 469.988281 347.109375 469.761719 346.996094 C 469.535156 346.878906 469.320312 346.738281 469.117188 346.570312 C 468.914062 346.402344 468.726562 346.214844 468.554688 346 C 468.382812 345.789062 468.226562 345.554688 468.09375 345.304688 C 467.957031 345.054688 467.84375 344.792969 467.75 344.511719 C 467.65625 344.234375 467.585938 343.949219 467.539062 343.652344 C 467.488281 343.359375 467.464844 343.058594 467.464844 342.757812 C 467.464844 342.457031 467.488281 342.160156 467.539062 341.863281 C 467.585938 341.570312 467.65625 341.285156 467.75 341.003906 C 467.84375 340.726562 467.957031 340.464844 468.09375 340.210938 C 468.226562 339.960938 468.382812 339.730469 468.554688 339.519531 C 468.726562 339.304688 468.914062 339.117188 469.117188 338.949219 C 469.320312 338.78125 469.535156 338.640625 469.761719 338.523438 C 469.988281 338.410156 470.21875 338.324219 470.457031 338.265625 C 470.699219 338.203125 470.941406 338.175781 471.183594 338.175781 C 471.429688 338.175781 471.667969 338.203125 471.910156 338.265625 C 472.148438 338.324219 472.378906 338.410156 472.605469 338.523438 C 472.832031 338.640625 473.046875 338.78125 473.25 338.949219 C 473.453125 339.117188 473.640625 339.304688 473.8125 339.519531 C 473.984375 339.730469 474.140625 339.960938 474.273438 340.210938 C 474.410156 340.464844 474.523438 340.726562 474.617188 341.003906 C 474.710938 341.285156 474.78125 341.570312 474.828125 341.863281 C 474.878906 342.160156 474.902344 342.457031 474.902344 342.757812 Z M 474.902344 342.757812 " fill-opacity="1" fill-rule="nonzero"/><path fill="#1c2e3f" d="M 439.582031 342.757812 C 439.582031 343.058594 439.558594 343.359375 439.511719 343.652344 C 439.464844 343.949219 439.394531 344.234375 439.300781 344.511719 C 439.207031 344.792969 439.09375 345.054688 438.957031 345.304688 C 438.820312 345.554688 438.667969 345.789062 438.496094 346 C 438.320312 346.214844 438.132812 346.402344 437.929688 346.570312 C 437.726562 346.738281 437.515625 346.878906 437.289062 346.996094 C 437.0625 347.109375 436.832031 347.195312 436.589844 347.253906 C 436.351562 347.3125 436.109375 347.34375 435.867188 347.34375 C 435.621094 347.34375 435.378906 347.3125 435.140625 347.253906 C 434.902344 347.195312 434.667969 347.109375 434.441406 346.996094 C 434.21875 346.878906 434.003906 346.738281 433.800781 346.570312 C 433.597656 346.402344 433.410156 346.214844 433.238281 346 C 433.0625 345.789062 432.910156 345.554688 432.773438 345.304688 C 432.640625 345.054688 432.523438 344.792969 432.429688 344.511719 C 432.335938 344.234375 432.265625 343.949219 432.21875 343.652344 C 432.171875 343.359375 432.148438 343.058594 432.148438 342.757812 C 432.148438 342.457031 432.171875 342.160156 432.21875 341.863281 C 432.265625 341.570312 432.335938 341.285156 432.429688 341.003906 C 432.523438 340.726562 432.640625 340.464844 432.773438 340.210938 C 432.910156 339.960938 433.0625 339.730469 433.238281 339.519531 C 433.410156 339.304688 433.597656 339.117188 433.800781 338.949219 C 434.003906 338.78125 434.21875 338.640625 434.441406 338.523438 C 434.667969 338.410156 434.902344 338.324219 435.140625 338.265625 C 435.378906 338.203125 435.621094 338.175781 435.867188 338.175781 C 436.109375 338.175781 436.351562 338.203125 436.589844 338.265625 C 436.832031 338.324219 437.0625 338.410156 437.289062 338.523438 C 437.515625 338.640625 437.726562 338.78125 437.929688 338.949219 C 438.132812 339.117188 438.320312 339.304688 438.496094 339.519531 C 438.667969 339.730469 438.820312 339.960938 438.957031 340.210938 C 439.09375 340.464844 439.207031 340.726562 439.300781 341.003906 C 439.394531 341.285156 439.464844 341.570312 439.511719 341.863281 C 439.558594 342.160156 439.582031 342.457031 439.582031 342.757812 Z M 439.582031 342.757812 " fill-opacity="1" fill-rule="nonzero"/><path stroke-linecap="round" transform="matrix(1.544435, 0, 0, 1.543903, 60.779541, 155.246306)" fill="none" stroke-linejoin="round" d="M 258.401099 106.226706 C 258.401099 106.226706 267.068811 97.773594 273.488027 106.226706 " stroke="#1c2e3f" stroke-width="1" stroke-opacity="1" stroke-miterlimit="4"/><path stroke-linecap="round" transform="matrix(1.544435, 0, 0, 1.543903, 60.779541, 155.246306)" fill="none" stroke-linejoin="round" d="M 245.777653 106.226706 C 245.777653 106.226706 237.327456 98.950097 232.939221 106.226706 " stroke="#1c2e3f" stroke-width="1" stroke-opacity="1" stroke-miterlimit="4"/><path stroke-linecap="butt" transform="matrix(1.544435, 0, 0, 1.543903, 60.779541, 155.246306)" fill-opacity="1" fill="#ffffff" fill-rule="nonzero" stroke-linejoin="miter" d="M 224.253805 212.438368 L 167.201697 218.667509 L 157.590578 167.890648 L 214.642686 161.661507 Z M 224.253805 212.438368 " stroke="#1c2e3f" stroke-width="1" stroke-opacity="1" stroke-miterlimit="10"/><path fill="#ffc5bd" d="M 277.699219 484.421875 L 299.839844 441.558594 L 330.820312 422.976562 C 330.820312 422.976562 342.964844 429.417969 324.375 443.542969 L 351.144531 455.433594 C 351.144531 455.433594 353.375 467.574219 335.035156 462.125 L 351.230469 480.707031 C 351.230469 480.707031 349.160156 492.84375 340.238281 485.910156 L 345.691406 491.113281 C 345.691406 491.113281 339.496094 506.472656 322.394531 486.652344 L 320.90625 501.273438 L 309.503906 514.152344 C 309.503906 514.152344 283.570312 514.890625 277.699219 484.417969 Z M 277.699219 484.421875 " fill-opacity="1" fill-rule="nonzero"/><path stroke-linecap="round" transform="matrix(1.544435, 0, 0, 1.543903, 60.779541, 155.246306)" fill="none" stroke-linejoin="round" d="M 177.576647 198.768161 C 177.576647 198.768161 174.205167 196.52142 168.428379 198.768161 " stroke="#1c2e3f" stroke-width="1" stroke-opacity="1" stroke-miterlimit="4"/><path stroke-linecap="round" transform="matrix(1.544435, 0, 0, 1.543903, 60.779541, 155.246306)" fill="none" stroke-linejoin="round" d="M 170.674346 186.732408 L 161.849821 193.151308 " stroke="#1c2e3f" stroke-width="1" stroke-opacity="1" stroke-miterlimit="4"/><path stroke-linecap="round" transform="matrix(1.544435, 0, 0, 1.543903, 60.779541, 155.246306)" fill="none" stroke-linejoin="round" d="M 180.945597 214.174027 L 175.649365 208.235849 L 168.428379 205.551397 " stroke="#1c2e3f" stroke-width="1" stroke-opacity="1" stroke-miterlimit="4"/><path fill="#ffffff" d="M 327.566406 508.390625 L 327.566406 508.402344 C 323.511719 519.046875 311.136719 537.875 277.058594 517.476562 C 273.359375 496.699219 277.703125 484.421875 277.703125 484.421875 C 302.90625 519.109375 320.90625 501.273438 320.90625 501.273438 Z M 327.566406 508.390625 " fill-opacity="1" fill-rule="nonzero"/><path stroke-linecap="round" transform="matrix(1.544435, 0, 0, 1.543903, 60.779541, 155.246306)" fill="none" stroke-linejoin="round" d="M 140.037639 234.619879 C 137.642447 221.162202 140.452435 213.210053 140.452435 213.210053 " stroke="#1c2e3f" stroke-width="1" stroke-opacity="1" stroke-miterlimit="4"/><path stroke-linecap="round" transform="matrix(1.544435, 0, 0, 1.543903, 60.779541, 155.246306)" fill="none" stroke-linejoin="round" d="M 168.428379 224.124966 L 172.740736 228.734834 L 172.740736 228.742424 " stroke="#1c2e3f" stroke-width="1" stroke-opacity="1" stroke-miterlimit="4"/><path fill="#ffffff" d="M 673.839844 571.636719 C 673.40625 585.1875 661.503906 592.574219 648.148438 596.589844 C 637.371094 592.261719 630.867188 581.09375 630.214844 566.683594 C 629.21875 544.871094 651.039062 543.394531 651.039062 543.394531 L 671.289062 554.546875 C 673.066406 561.570312 673.96875 567.429688 673.839844 571.636719 Z M 673.839844 571.636719 " fill-opacity="1" fill-rule="nonzero"/><path stroke-linecap="round" transform="matrix(1.544435, 0, 0, 1.543903, 60.779541, 155.246306)" fill="none" stroke-linejoin="round" d="M 395.296313 258.630663 C 396.447119 263.179808 397.031373 266.974979 396.947908 269.699912 C 396.783508 274.800622 394.115158 278.550251 390.210008 281.310606 " stroke="#1c2e3f" stroke-width="1" stroke-opacity="1" stroke-miterlimit="4"/><path fill="#ffffff" d="M 584.117188 478.476562 L 671.289062 478.476562 L 671.289062 548.59375 L 584.117188 548.59375 Z M 584.117188 478.476562 " fill-opacity="1" fill-rule="nonzero"/><path stroke-linecap="butt" transform="matrix(1.544435, 0, 0, 1.543903, 60.779541, 155.246306)" fill-opacity="1" fill="#ffffff" fill-rule="nonzero" stroke-linejoin="miter" d="M 338.853753 209.359219 L 395.296313 209.359219 L 395.296313 254.774769 L 338.853753 254.774769 Z M 338.853753 209.359219 " stroke="#1c2e3f" stroke-width="1" stroke-opacity="1" stroke-miterlimit="10"/><path fill="#ffc5bd" d="M 677.472656 518.117188 C 677.472656 518.117188 673.757812 512.335938 661.117188 512.832031 C 648.476562 513.328125 629.722656 517.871094 641.867188 528.523438 C 641.867188 528.523438 631.941406 535.238281 643.707031 545.199219 C 643.707031 545.199219 633.441406 552.0625 642.859375 559 C 642.859375 559 638.644531 564.382812 644.839844 569.992188 C 648.816406 573.585938 661.046875 573.246094 669.308594 572.539062 C 674.351562 572.109375 678.597656 568.550781 679.820312 563.640625 C 682.363281 553.457031 685.09375 538.65625 677.472656 518.117188 Z M 677.472656 518.117188 " fill-opacity="1" fill-rule="nonzero"/><path stroke-linecap="round" transform="matrix(1.544435, 0, 0, 1.543903, 60.779541, 155.246306)" fill="none" stroke-linejoin="round" d="M 376.888491 261.514993 L 386.355444 261.514993 " stroke="#1c2e3f" stroke-width="1" stroke-opacity="1" stroke-miterlimit="4"/><path stroke-linecap="round" transform="matrix(1.544435, 0, 0, 1.543903, 60.779541, 155.246306)" fill="none" stroke-linejoin="round" d="M 377.437337 252.576099 L 393.591604 252.576099 " stroke="#1c2e3f" stroke-width="1" stroke-opacity="1" stroke-miterlimit="4"/><path stroke-linecap="round" transform="matrix(1.544435, 0, 0, 1.543903, 60.779541, 155.246306)" fill="none" stroke-linejoin="round" d="M 376.246064 241.775042 L 392.453446 241.775042 " stroke="#1c2e3f" stroke-width="1" stroke-opacity="1" stroke-miterlimit="4"/><path fill="#ffcd5c" d="M 569.398438 506.710938 L 508.542969 506.710938 L 505.609375 521.09375 L 403.894531 521.09375 L 381.546875 629.226562 L 544.433594 629.226562 Z M 569.398438 506.710938 " fill-opacity="1" fill-rule="nonzero"/><path fill="#ffffff" d="M 544.433594 629.226562 L 381.546875 629.226562 L 388.789062 527.949219 L 551.675781 527.949219 Z M 544.433594 629.226562 " fill-opacity="1" fill-rule="nonzero"/><path stroke-linecap="round" transform="matrix(1.544435, 0, 0, 1.543903, 60.779541, 155.246306)" fill="none" stroke-linejoin="round" d="M 207.692329 307.001385 L 212.381544 241.403115 L 317.848399 241.403115 L 313.159185 307.001385 " stroke="#1c2e3f" stroke-width="1" stroke-opacity="1" stroke-miterlimit="4"/><path fill="#ffffff" d="M 544.433594 629.226562 L 381.546875 629.226562 L 369.734375 533.148438 L 532.621094 533.148438 Z M 544.433594 629.226562 " fill-opacity="1" fill-rule="nonzero"/><path stroke-linecap="round" transform="matrix(1.544435, 0, 0, 1.543903, 60.779541, 155.246306)" fill="none" stroke-linejoin="round" d="M 207.692329 307.001385 L 200.043902 244.770697 L 305.510757 244.770697 L 313.159185 307.001385 " stroke="#1c2e3f" stroke-width="1" stroke-opacity="1" stroke-miterlimit="4"/><path fill="#ffcd5c" d="M 544.433594 629.226562 L 381.546875 629.226562 L 351.230469 542.898438 L 514.117188 542.898438 Z M 544.433594 629.226562 " fill-opacity="1" fill-rule="nonzero"/><path fill="#1c2e3f" d="M 131.433594 629.230469 C 121.800781 629.230469 113.988281 637.039062 113.988281 646.671875 C 113.988281 737.5625 771.789062 737.5625 771.789062 646.671875 C 771.789062 637.039062 763.976562 629.230469 754.34375 629.230469 Z M 131.433594 629.230469 " fill-opacity="1" fill-rule="nonzero"/><path stroke-linecap="round" transform="matrix(1.544435, 0, 0, 1.543903, 60.779541, 155.246306)" fill="none" stroke-linejoin="round" d="M 390.207479 307.001385 L 356.184118 307.001385 " stroke="#ffffff" stroke-width="1" stroke-opacity="1" stroke-miterlimit="4"/><path fill="#d25455" d="M 388.210938 639.285156 L 255.117188 639.285156 L 231.261719 665.796875 L 329.222656 665.796875 Z M 388.210938 639.285156 " fill-opacity="1" fill-rule="nonzero"/><path fill="#d25455" d="M 329.222656 665.796875 L 179.027344 665.796875 L 135.984375 575.777344 C 134.738281 573.171875 136.640625 570.160156 139.527344 570.160156 L 281.023438 570.160156 C 282.53125 570.160156 283.910156 571.03125 284.5625 572.394531 Z M 329.222656 665.796875 " fill-opacity="1" fill-rule="nonzero"/><path fill="#ffffff" d="M 235.378906 612.761719 C 235.929688 613.195312 236.449219 613.65625 236.9375 614.152344 C 237.421875 614.644531 237.871094 615.15625 238.273438 615.6875 C 238.679688 616.222656 239.035156 616.761719 239.34375 617.3125 C 239.652344 617.867188 239.902344 618.414062 240.101562 618.964844 C 240.300781 619.515625 240.4375 620.050781 240.519531 620.578125 C 240.601562 621.105469 240.621094 621.609375 240.582031 622.089844 C 240.542969 622.574219 240.445312 623.027344 240.285156 623.445312 C 240.128906 623.867188 239.914062 624.25 239.644531 624.59375 C 239.371094 624.933594 239.050781 625.230469 238.679688 625.484375 C 238.304688 625.734375 237.890625 625.933594 237.429688 626.085938 C 236.96875 626.234375 236.472656 626.332031 235.941406 626.378906 C 235.410156 626.421875 234.855469 626.410156 234.273438 626.34375 C 233.695312 626.28125 233.101562 626.164062 232.492188 625.992188 C 231.882812 625.820312 231.273438 625.601562 230.664062 625.332031 C 230.050781 625.0625 229.449219 624.746094 228.855469 624.386719 C 228.261719 624.027344 227.691406 623.632812 227.140625 623.199219 C 226.589844 622.761719 226.070312 622.300781 225.585938 621.808594 C 225.097656 621.316406 224.652344 620.800781 224.246094 620.269531 C 223.839844 619.738281 223.484375 619.195312 223.179688 618.644531 C 222.871094 618.09375 222.617188 617.542969 222.421875 616.992188 C 222.222656 616.445312 222.082031 615.90625 222.003906 615.378906 C 221.921875 614.855469 221.902344 614.347656 221.941406 613.867188 C 221.980469 613.382812 222.078125 612.933594 222.234375 612.511719 C 222.394531 612.089844 222.609375 611.707031 222.878906 611.367188 C 223.148438 611.023438 223.46875 610.726562 223.84375 610.476562 C 224.214844 610.222656 224.632812 610.023438 225.09375 609.871094 C 225.554688 609.722656 226.050781 609.625 226.578125 609.582031 C 227.109375 609.539062 227.667969 609.546875 228.246094 609.613281 C 228.828125 609.679688 229.421875 609.796875 230.03125 609.964844 C 230.636719 610.136719 231.246094 610.355469 231.859375 610.628906 C 232.472656 610.898438 233.074219 611.210938 233.667969 611.570312 C 234.257812 611.929688 234.832031 612.328125 235.378906 612.761719 Z M 235.378906 612.761719 " fill-opacity="1" fill-rule="nonzero"/><path fill="#d25455" d="M 388.210938 643.746094 L 329.222656 665.796875 L 327.414062 662.015625 L 388.210938 639.285156 Z M 388.210938 643.746094 " fill-opacity="1" fill-rule="nonzero"/><path fill="#ffffff" d="M 452.761719 678.5 L 358.976562 678.5 L 422.730469 641.503906 L 509.972656 641.503906 Z M 452.761719 678.5 " fill-opacity="1" fill-rule="nonzero"/><path fill="#ffcd5c" d="M 566.46875 673.875 L 480.09375 673.875 L 527.375 641.503906 L 599.359375 641.503906 Z M 566.46875 673.875 " fill-opacity="1" fill-rule="nonzero"/><path stroke-linecap="round" transform="matrix(1.544435, 0, 0, 1.543903, 60.779541, 155.246306)" fill="none" stroke-linejoin="round" d="M 276.583819 335.92059 L 310.536361 325.438327 L 323.192687 335.92059 " stroke="#1c2e3f" stroke-width="1" stroke-opacity="1" stroke-miterlimit="4"/><path stroke-linecap="round" transform="matrix(1.544435, 0, 0, 1.543903, 60.779541, 155.246306)" fill="none" stroke-linejoin="round" d="M 313.530983 327.917839 L 330.820881 321.880987 " stroke="#1c2e3f" stroke-width="1" stroke-opacity="1" stroke-miterlimit="4"/><path stroke-linecap="round" transform="matrix(1.544435, 0, 0, 1.543903, 60.779541, 155.246306)" fill="none" stroke-linejoin="round" d="M 302.66536 327.917839 L 297.644815 321.880987 " stroke="#1c2e3f" stroke-width="1" stroke-opacity="1" stroke-miterlimit="4"/></svg>