<svg xmlns="http://www.w3.org/2000/svg" xmlns:xlink="http://www.w3.org/1999/xlink" width="500" zoomAndPan="magnify" viewBox="0 0 375 374.999991" height="500" preserveAspectRatio="xMidYMid meet" version="1.0"><defs><clipPath id="8d6fb664ff"><path d="M 0 0 L 375 0 L 375 375 L 0 375 Z M 0 0 " clip-rule="nonzero"/></clipPath><clipPath id="b203216924"><rect x="0" width="375" y="0" height="375"/></clipPath><clipPath id="0b2ecf0540"><path d="M 44 47.625 L 332 47.625 L 332 327.375 L 44 327.375 Z M 44 47.625 " clip-rule="nonzero"/></clipPath></defs><rect x="-37.5" width="450" fill="#ffffff" y="-37.499999" height="449.999989" fill-opacity="1"/><rect x="-37.5" width="450" fill="#ffffff" y="-37.499999" height="449.999989" fill-opacity="1"/><g transform="matrix(1, 0, 0, 1, 0, 0)"><g clip-path="url(#b203216924)"><g clip-path="url(#8d6fb664ff)"><rect x="-82.5" width="540" fill="#ffffff" height="539.999987" y="-82.499998" fill-opacity="1"/></g></g></g><g clip-path="url(#0b2ecf0540)"><path fill="#ff6600" d="M 270.785156 193.265625 C 255.875 193.265625 243.78125 205.417969 243.78125 220.324219 C 244.511719 253.570312 291.933594 257.058594 297.503906 224.375 C 300.203125 208.230469 287.152344 193.152344 270.785156 193.265625 Z M 291.371094 222.574219 C 287.941406 248.226562 250.699219 246.3125 250.082031 220.324219 C 251.433594 191.410156 293.230469 193.773438 291.371094 222.574219 Z M 325.351562 234.613281 C 328.554688 234.332031 331.085938 231.632812 331.085938 228.425781 L 331.085938 212.109375 C 331.085938 208.90625 328.667969 206.261719 325.460938 205.867188 L 314.886719 204.796875 C 314.324219 203.167969 313.648438 201.535156 312.863281 200.015625 L 319.554688 191.859375 C 321.636719 189.382812 321.46875 185.726562 319.160156 183.421875 L 307.628906 171.945312 C 304.984375 169.246094 300.878906 169.695312 298.347656 172.285156 L 298.347656 80.925781 C 298.347656 62.589844 283.382812 47.625 265.046875 47.625 C 264.988281 47.625 246.199219 47.625 246.144531 47.625 C 246.144531 47.625 63.542969 47.625 63.542969 47.625 C 37.722656 48.523438 37.613281 85.765625 63.542969 86.722656 L 76.59375 86.722656 L 76.59375 294.074219 C 76.59375 312.410156 91.558594 327.375 109.898438 327.375 L 128.855469 327.375 C 128.855469 327.375 311.511719 327.375 311.511719 327.375 C 337.386719 326.476562 337.386719 289.179688 311.511719 288.277344 C 311.511719 288.277344 298.347656 288.277344 298.347656 288.277344 L 298.347656 268.308594 C 300.878906 270.894531 305.042969 271.347656 307.628906 268.644531 C 307.628906 268.644531 319.160156 257.113281 319.160156 257.113281 C 321.410156 254.808594 321.582031 251.152344 319.554688 248.730469 L 312.804688 240.519531 C 313.59375 238.945312 314.269531 237.199219 314.832031 235.679688 Z M 63.601562 80.363281 C 46.164062 79.800781 46.164062 54.542969 63.601562 53.980469 L 231.800781 53.980469 C 224.992188 61.125 224.992188 73.332031 231.800781 80.363281 Z M 128.910156 321.074219 C 128.910156 321.074219 109.953125 321.074219 109.953125 321.074219 C 95.101562 321.074219 83.007812 308.980469 83.007812 294.128906 L 83.007812 86.722656 L 246.257812 86.722656 C 250.417969 86.722656 250.417969 80.363281 246.257812 80.363281 C 238.945312 80.363281 233.039062 74.34375 233.039062 67.144531 C 233.039062 60.789062 237.59375 55.445312 243.558594 54.207031 C 244.625 53.757812 263.414062 53.980469 265.101562 53.925781 C 279.953125 53.925781 292.046875 66.019531 292.046875 80.871094 L 292.046875 177.289062 L 291.035156 178.132812 C 289.460938 177.347656 287.828125 176.726562 286.253906 176.164062 L 285.183594 165.53125 C 284.789062 162.382812 282.148438 160.019531 278.941406 160.019531 L 262.683594 160.019531 C 259.53125 160.019531 256.777344 162.382812 256.4375 165.589844 L 255.3125 176.164062 C 253.738281 176.726562 252.109375 177.402344 250.53125 178.132812 L 242.320312 171.441406 C 239.789062 169.359375 236.132812 169.582031 233.9375 171.890625 L 222.347656 183.367188 C 220.15625 185.558594 219.929688 189.273438 221.898438 191.746094 L 228.59375 199.960938 C 227.863281 201.480469 227.1875 203.109375 226.625 204.742188 L 215.992188 205.8125 C 212.84375 206.203125 210.480469 208.847656 210.480469 212.054688 L 210.480469 228.367188 C 210.480469 231.460938 212.953125 234.273438 216.105469 234.554688 L 226.679688 235.679688 C 227.1875 237.144531 227.917969 238.945312 228.707031 240.519531 L 221.957031 248.84375 C 219.988281 251.320312 220.210938 254.976562 222.40625 257.171875 L 233.882812 268.589844 C 236.074219 270.953125 239.789062 271.175781 242.320312 269.097656 L 250.53125 262.402344 C 252.050781 263.132812 253.683594 263.808594 255.3125 264.425781 L 256.4375 275.003906 C 256.777344 278.210938 259.421875 280.628906 262.683594 280.628906 L 278.941406 280.628906 C 282.089844 280.628906 284.789062 278.265625 285.183594 275.003906 L 286.253906 264.425781 C 287.941406 263.808594 289.515625 263.132812 291.035156 262.402344 L 292.046875 263.246094 L 292.046875 288.390625 L 128.910156 288.390625 C 127.113281 288.390625 125.707031 289.855469 125.761719 291.597656 C 125.761719 293.339844 127.167969 294.746094 128.910156 294.746094 C 132.398438 294.746094 135.550781 296.152344 137.914062 298.347656 C 146.632812 306 140.667969 321.300781 128.910156 321.074219 Z M 311.511719 294.691406 C 328.949219 295.253906 328.949219 320.511719 311.511719 321.074219 C 311.511719 321.074219 143.3125 321.074219 143.3125 321.074219 C 150.121094 313.988281 150.0625 301.609375 143.3125 294.691406 C 151.019531 294.691406 309.429688 294.691406 311.511719 294.691406 Z M 306.671875 242.996094 C 306.671875 242.996094 314.71875 252.671875 314.71875 252.671875 L 303.355469 264.144531 L 293.398438 256.15625 C 292.386719 255.371094 290.980469 255.203125 289.910156 255.820312 C 287.660156 257.058594 285.128906 258.125 282.316406 259.027344 C 281.132812 259.421875 280.234375 260.488281 280.121094 261.726562 L 278.941406 274.214844 L 262.796875 274.328125 L 261.5 261.726562 C 261.390625 260.488281 260.488281 259.421875 259.308594 259.027344 C 256.609375 258.183594 254.019531 257.113281 251.714844 255.820312 C 250.589844 255.257812 249.183594 255.371094 248.226562 256.15625 L 238.550781 264.144531 C 236.976562 262.570312 228.425781 254.078125 227.019531 252.78125 L 235.0625 242.996094 C 236.75 241.082031 235.007812 238.832031 234.21875 237.03125 C 232.53125 234.273438 233.09375 230.226562 229.605469 229.605469 C 229.605469 229.605469 217.0625 228.425781 217.0625 228.425781 L 216.949219 212.167969 L 229.605469 210.875 C 230.898438 210.761719 231.96875 209.859375 232.304688 208.625 C 233.09375 205.921875 234.164062 203.390625 235.398438 201.085938 C 236.019531 199.960938 235.90625 198.554688 235.0625 197.542969 L 227.019531 187.808594 L 238.4375 176.332031 L 248.28125 184.320312 C 249.292969 185.109375 250.644531 185.277344 251.769531 184.660156 C 254.300781 183.308594 256.832031 182.296875 259.308594 181.566406 C 260.546875 181.226562 261.445312 180.160156 261.613281 178.863281 L 262.851562 166.320312 L 278.996094 166.207031 L 280.289062 178.863281 C 280.402344 180.160156 281.304688 181.226562 282.597656 181.621094 C 285.128906 182.351562 287.660156 183.367188 290.078125 184.714844 C 292.667969 186.347656 295.480469 182.578125 297.390625 181.339844 C 297.449219 181.226562 303.296875 176.503906 303.355469 176.445312 L 314.832031 187.808594 L 306.671875 197.652344 C 305.886719 198.667969 305.71875 200.015625 306.335938 201.199219 C 307.628906 203.558594 308.699219 206.09375 309.484375 208.734375 C 309.878906 209.972656 310.949219 210.816406 312.1875 210.984375 L 324.730469 212.28125 L 324.789062 228.367188 L 312.1875 229.664062 C 308.753906 230.226562 309.09375 234.386719 307.574219 236.917969 C 306.730469 238.773438 304.984375 241.082031 306.671875 242.996094 Z M 100.277344 175.601562 L 182.632812 175.601562 C 184.378906 175.601562 185.785156 174.195312 185.785156 172.453125 L 185.785156 148.9375 C 185.785156 147.195312 184.378906 145.789062 182.632812 145.789062 L 100.277344 145.789062 C 98.535156 145.789062 97.128906 147.195312 97.128906 148.9375 L 97.128906 172.453125 C 97.128906 174.140625 98.535156 175.601562 100.277344 175.601562 Z M 103.484375 152.089844 L 179.484375 152.089844 L 179.484375 169.246094 L 103.484375 169.246094 Z M 100.277344 196.023438 C 100.277344 196.023438 146.011719 196.023438 146.011719 196.023438 C 150.175781 196.023438 150.175781 202.378906 146.011719 202.378906 C 146.011719 202.378906 100.277344 202.378906 100.277344 202.378906 C 96.117188 202.324219 96.171875 196.023438 100.277344 196.023438 Z M 186.851562 224.824219 C 186.851562 224.824219 100.335938 224.824219 100.335938 224.824219 C 96.171875 224.824219 96.226562 218.46875 100.335938 218.46875 L 186.851562 218.46875 C 191.015625 218.523438 190.960938 224.824219 186.851562 224.824219 Z M 186.851562 240.96875 C 191.015625 240.96875 190.960938 247.324219 186.851562 247.324219 C 186.851562 247.324219 100.335938 247.324219 100.335938 247.324219 C 96.171875 247.324219 96.226562 240.96875 100.335938 240.96875 Z M 186.851562 269.828125 C 186.851562 269.828125 100.335938 269.828125 100.335938 269.828125 C 96.171875 269.828125 96.226562 263.46875 100.335938 263.46875 L 186.851562 263.46875 C 191.015625 263.46875 190.960938 269.769531 186.851562 269.828125 Z M 154.167969 128.292969 L 169.582031 128.292969 C 171.328125 128.292969 172.734375 126.886719 172.734375 125.144531 L 172.734375 100.222656 C 172.734375 98.476562 171.328125 97.070312 169.582031 97.070312 L 154.167969 97.070312 C 152.425781 97.070312 151.019531 98.476562 151.019531 100.222656 L 151.019531 125.144531 C 150.964844 126.886719 152.425781 128.292969 154.167969 128.292969 Z M 157.320312 103.371094 L 166.375 103.371094 L 166.375 121.9375 L 157.320312 121.9375 Z M 231.519531 125.144531 L 231.519531 100.222656 C 231.519531 98.476562 232.925781 97.070312 234.667969 97.070312 C 234.667969 97.070312 250.082031 97.070312 250.082031 97.070312 C 254.246094 97.070312 254.246094 103.429688 250.082031 103.429688 L 237.820312 103.429688 L 237.820312 121.992188 C 237.820312 121.992188 250.082031 121.992188 250.082031 121.992188 C 254.246094 121.992188 254.246094 128.292969 250.082031 128.347656 L 234.667969 128.347656 C 232.925781 128.292969 231.519531 126.886719 231.519531 125.144531 Z M 177.851562 125.144531 C 177.851562 125.144531 177.851562 119.460938 177.851562 119.460938 C 177.851562 115.296875 184.210938 115.296875 184.210938 119.460938 L 184.210938 121.992188 L 193.265625 121.992188 L 193.265625 100.222656 C 193.265625 96.058594 199.621094 96.058594 199.621094 100.222656 C 199.621094 100.222656 199.621094 125.144531 199.621094 125.144531 C 199.621094 126.886719 198.214844 128.292969 196.472656 128.292969 L 181.058594 128.292969 C 179.257812 128.292969 177.851562 126.886719 177.851562 125.144531 Z M 204.683594 125.144531 L 204.683594 100.222656 C 204.683594 98.476562 206.09375 97.070312 207.835938 97.070312 C 207.835938 97.070312 223.25 97.070312 223.25 97.070312 C 227.410156 97.070312 227.410156 103.429688 223.25 103.429688 L 210.984375 103.429688 L 210.984375 109.558594 L 223.25 109.558594 C 224.992188 109.558594 226.398438 110.964844 226.398438 112.710938 C 226.398438 114.453125 224.992188 115.859375 223.25 115.859375 L 210.984375 115.859375 L 210.984375 121.992188 C 210.984375 121.992188 223.25 121.992188 223.25 121.992188 C 227.410156 121.992188 227.410156 128.292969 223.25 128.347656 L 207.890625 128.347656 C 206.148438 128.292969 204.683594 126.886719 204.683594 125.144531 Z M 260.65625 97.015625 C 260.65625 97.015625 276.070312 97.015625 276.070312 97.015625 C 280.234375 97.015625 280.234375 103.371094 276.070312 103.371094 L 271.515625 103.371094 L 271.515625 125.144531 C 271.515625 126.886719 270.109375 128.292969 268.363281 128.292969 C 266.621094 128.292969 265.214844 126.886719 265.214844 125.144531 L 265.214844 103.371094 L 260.65625 103.371094 C 256.496094 103.371094 256.496094 97.070312 260.65625 97.015625 Z M 102.136719 125.144531 L 102.136719 115.859375 L 114.398438 115.859375 C 116.140625 115.859375 117.546875 114.453125 117.546875 112.710938 L 117.546875 100.222656 C 117.546875 98.476562 116.140625 97.070312 114.398438 97.070312 L 98.984375 97.070312 C 97.242188 97.070312 95.835938 98.476562 95.835938 100.222656 L 95.835938 125.144531 C 95.835938 129.25 102.136719 129.304688 102.136719 125.144531 Z M 102.136719 103.371094 L 111.191406 103.371094 L 111.191406 109.503906 L 102.136719 109.503906 Z M 127.28125 128.292969 C 129.023438 128.292969 130.429688 126.886719 130.429688 125.144531 L 130.429688 118.84375 L 140.613281 127.5625 C 141.230469 128.066406 141.960938 128.347656 142.695312 128.347656 C 145.507812 128.460938 147.027344 124.582031 144.773438 122.78125 C 144.773438 122.78125 136.730469 115.917969 136.730469 115.917969 L 142.695312 115.917969 C 144.4375 115.917969 145.84375 114.511719 145.84375 112.765625 L 145.84375 100.277344 C 145.84375 98.535156 144.4375 97.128906 142.695312 97.128906 L 127.28125 97.128906 C 125.535156 97.128906 124.128906 98.535156 124.128906 100.277344 L 124.128906 125.199219 C 124.128906 126.886719 125.535156 128.292969 127.28125 128.292969 Z M 130.488281 103.371094 L 139.542969 103.371094 L 139.542969 109.503906 L 130.488281 109.503906 Z M 130.488281 103.371094 " fill-opacity="1" fill-rule="nonzero"/></g></svg>