<svg xmlns="http://www.w3.org/2000/svg" xmlns:xlink="http://www.w3.org/1999/xlink" width="500" zoomAndPan="magnify" viewBox="0 0 375 374.999991" height="500" preserveAspectRatio="xMidYMid meet" version="1.0"><defs><clipPath id="618cba4713"><path d="M 0 0 L 375 0 L 375 375 L 0 375 Z M 0 0 " clip-rule="nonzero"/></clipPath><clipPath id="ce48f2e8fe"><rect x="0" width="375" y="0" height="375"/></clipPath><clipPath id="057f540c8a"><path d="M 55.226562 37.5 L 319.976562 37.5 L 319.976562 337.5 L 55.226562 337.5 Z M 55.226562 37.5 " clip-rule="nonzero"/></clipPath></defs><rect x="-37.5" width="450" fill="#ffffff" y="-37.499999" height="449.999989" fill-opacity="1"/><rect x="-37.5" width="450" fill="#ffffff" y="-37.499999" height="449.999989" fill-opacity="1"/><g transform="matrix(1, 0, 0, 1, 0, 0)"><g clip-path="url(#ce48f2e8fe)"><g clip-path="url(#618cba4713)"><rect x="-82.5" width="540" fill="#ffffff" height="539.999987" y="-82.499998" fill-opacity="1"/></g></g></g><g clip-path="url(#057f540c8a)"><path fill="#ff6600" d="M 117.988281 135.777344 C 119.894531 137.636719 119.9375 140.6875 118.078125 142.59375 L 102.363281 158.835938 C 100.503906 160.738281 97.453125 160.785156 95.546875 158.925781 L 90.921875 154.433594 C 89.015625 152.589844 88.964844 149.542969 90.808594 147.632812 C 92.652344 145.726562 95.695312 145.675781 97.609375 147.519531 L 98.785156 148.660156 L 111.164062 135.859375 C 113.027344 133.964844 116.078125 133.917969 117.988281 135.777344 Z M 77.410156 169.550781 L 77.410156 125.152344 C 77.410156 122.484375 79.578125 120.316406 82.246094 120.316406 L 126.640625 120.316406 C 129.3125 120.316406 131.476562 122.484375 131.476562 125.152344 L 131.476562 169.558594 C 131.476562 172.226562 129.3125 174.394531 126.640625 174.394531 L 82.246094 174.394531 C 79.578125 174.386719 77.410156 172.226562 77.410156 169.550781 Z M 87.082031 164.714844 L 121.804688 164.714844 L 121.804688 129.980469 L 87.082031 129.980469 Z M 146.667969 129.988281 L 252.976562 129.988281 C 255.648438 129.988281 257.8125 127.824219 257.8125 125.152344 C 257.8125 122.484375 255.648438 120.316406 252.976562 120.316406 L 146.667969 120.316406 C 144 120.316406 141.832031 122.484375 141.832031 125.152344 C 141.832031 127.824219 144 129.988281 146.667969 129.988281 Z M 146.667969 152.191406 L 229.402344 152.191406 C 232.074219 152.191406 234.238281 150.023438 234.238281 147.355469 C 234.238281 144.6875 232.074219 142.519531 229.402344 142.519531 L 146.667969 142.519531 C 144 142.519531 141.832031 144.6875 141.832031 147.355469 C 141.832031 150.023438 144 152.191406 146.667969 152.191406 Z M 203.933594 242.011719 L 203.933594 257.261719 C 203.933594 259.765625 201.992188 261.890625 199.457031 262.078125 L 184.78125 263.195312 C 184.355469 264.601562 183.859375 265.96875 183.3125 267.289062 C 182.757812 268.628906 182.136719 269.941406 181.445312 271.238281 L 190.8125 282.148438 C 192.683594 284.039062 192.683594 287.089844 190.796875 288.972656 L 180.011719 299.753906 C 178.242188 301.507812 175.386719 301.644531 173.460938 300 L 162.289062 290.402344 C 161.011719 291.078125 159.695312 291.703125 158.335938 292.265625 L 158.3125 292.265625 C 156.988281 292.8125 155.628906 293.296875 154.234375 293.726562 L 153.140625 308.175781 C 153.074219 310.785156 150.9375 312.882812 148.304688 312.882812 L 133.054688 312.882812 C 130.546875 312.882812 128.425781 310.949219 128.238281 308.40625 L 127.121094 293.726562 C 125.710938 293.296875 124.347656 292.804688 123.027344 292.257812 C 121.664062 291.6875 120.34375 291.0625 119.078125 290.390625 L 108.175781 299.753906 C 106.285156 301.628906 103.234375 301.628906 101.351562 299.738281 L 90.5625 288.957031 C 88.804688 287.1875 88.671875 284.332031 90.3125 282.402344 L 99.910156 271.222656 C 99.222656 269.933594 98.589844 268.613281 98.042969 267.273438 C 97.496094 265.953125 97 264.582031 96.574219 263.179688 L 82.125 262.082031 C 79.515625 262.015625 77.417969 259.878906 77.417969 257.246094 L 77.417969 241.996094 C 77.417969 239.492188 79.359375 237.371094 81.894531 237.183594 L 96.574219 236.066406 C 96.980469 234.761719 97.429688 233.476562 97.9375 232.234375 L 98.042969 231.972656 C 98.597656 230.628906 99.222656 229.316406 99.910156 228.019531 L 90.546875 217.109375 C 88.671875 215.21875 88.671875 212.167969 90.5625 210.285156 L 101.34375 199.503906 C 103.113281 197.75 105.96875 197.613281 107.898438 199.257812 L 119.078125 208.855469 C 120.269531 208.226562 121.5 207.640625 122.78125 207.101562 L 123.035156 206.988281 C 124.355469 206.441406 125.726562 205.945312 127.128906 205.519531 L 128.222656 191.070312 C 128.292969 188.460938 130.429688 186.359375 133.058594 186.359375 L 148.3125 186.359375 C 150.816406 186.359375 152.9375 188.300781 153.125 190.835938 L 154.242188 205.519531 C 155.652344 205.945312 157.015625 206.441406 158.335938 206.988281 C 159.679688 207.550781 161 208.171875 162.28125 208.855469 L 173.191406 199.480469 C 175.078125 197.609375 178.132812 197.609375 180.011719 199.496094 L 190.796875 210.28125 C 192.550781 212.050781 192.683594 214.90625 191.042969 216.832031 L 181.4375 228.011719 C 182.074219 229.21875 182.667969 230.449219 183.191406 231.707031 L 183.304688 231.964844 C 183.851562 233.285156 184.347656 234.65625 184.773438 236.058594 L 199.214844 237.152344 C 201.839844 237.242188 203.933594 239.378906 203.933594 242.011719 Z M 194.261719 246.488281 L 180.644531 245.453125 C 178.347656 245.28125 176.550781 243.535156 176.226562 241.351562 C 175.777344 239.433594 175.164062 237.535156 174.398438 235.683594 L 174.308594 235.441406 C 173.511719 233.5625 172.566406 231.769531 171.496094 230.074219 C 170.332031 228.246094 170.558594 225.921875 171.902344 224.351562 L 180.808594 213.96875 L 176.339844 209.5 L 165.960938 218.414062 C 164.246094 219.882812 161.792969 219.9375 160.03125 218.675781 C 158.335938 217.613281 156.535156 216.683594 154.648438 215.902344 L 154.632812 215.894531 C 152.675781 215.09375 150.671875 214.457031 148.640625 214 C 146.511719 213.527344 145.027344 211.71875 144.878906 209.648438 L 143.828125 196.023438 L 137.527344 196.023438 L 136.496094 209.648438 C 136.320312 211.945312 134.574219 213.742188 132.394531 214.066406 C 130.472656 214.515625 128.578125 215.128906 126.730469 215.894531 L 126.492188 215.984375 C 124.664062 216.757812 122.871094 217.710938 121.125 218.820312 C 119.1875 220.042969 116.714844 219.726562 115.148438 218.191406 L 105.015625 209.492188 L 100.546875 213.960938 L 109.464844 224.339844 C 110.933594 226.054688 110.984375 228.507812 109.726562 230.269531 C 108.675781 231.941406 107.746094 233.75 106.953125 235.667969 L 106.855469 235.894531 C 106.097656 237.753906 105.488281 239.6875 105.054688 241.660156 C 104.582031 243.789062 102.777344 245.273438 100.707031 245.421875 L 87.089844 246.472656 L 87.089844 252.769531 L 100.707031 253.804688 C 103 253.976562 104.800781 255.726562 105.121094 257.90625 C 105.574219 259.828125 106.1875 261.722656 106.953125 263.570312 C 107.785156 265.5625 108.757812 267.445312 109.859375 269.175781 C 111.03125 271.007812 110.796875 273.332031 109.457031 274.898438 L 100.546875 285.28125 L 105.015625 289.75 L 115.394531 280.835938 C 117.042969 279.425781 119.367188 279.320312 121.117188 280.433594 C 122.929688 281.570312 124.804688 282.5625 126.710938 283.347656 L 126.722656 283.355469 C 128.679688 284.160156 130.683594 284.796875 132.714844 285.253906 C 134.84375 285.726562 136.328125 287.53125 136.480469 289.601562 L 137.527344 303.226562 L 143.828125 303.226562 L 144.863281 289.601562 C 145.035156 287.308594 146.78125 285.507812 148.964844 285.183594 C 150.90625 284.734375 152.804688 284.121094 154.632812 283.363281 C 156.566406 282.554688 158.441406 281.570312 160.234375 280.433594 C 162.167969 279.210938 164.640625 279.523438 166.210938 281.0625 L 176.339844 289.757812 L 180.808594 285.289062 L 171.894531 274.914062 C 170.421875 273.195312 170.371094 270.742188 171.628906 268.980469 C 172.679688 267.308594 173.609375 265.503906 174.40625 263.582031 C 175.214844 261.632812 175.851562 259.625 176.308594 257.59375 C 176.78125 255.464844 178.589844 253.976562 180.660156 253.828125 L 194.273438 252.777344 L 194.273438 246.488281 Z M 159.632812 230.675781 C 164.484375 235.527344 167.492188 242.230469 167.492188 249.636719 C 167.492188 257.015625 164.492188 263.703125 159.640625 268.570312 L 159.617188 268.59375 C 154.761719 273.445312 148.058594 276.449219 140.679688 276.449219 C 133.277344 276.449219 126.574219 273.449219 121.714844 268.59375 C 116.863281 263.742188 113.859375 257.039062 113.859375 249.628906 C 113.859375 242.234375 116.863281 235.539062 121.714844 230.6875 L 121.738281 230.667969 C 126.589844 225.816406 133.292969 222.808594 140.679688 222.808594 C 148.078125 222.824219 154.78125 225.824219 159.632812 230.675781 Z M 157.8125 249.636719 C 157.8125 244.90625 155.890625 240.617188 152.789062 237.511719 C 149.691406 234.414062 145.402344 232.488281 140.664062 232.488281 C 135.917969 232.488281 131.628906 234.410156 128.53125 237.496094 C 125.441406 240.601562 123.523438 244.890625 123.523438 249.628906 C 123.523438 254.359375 125.441406 258.648438 128.546875 261.753906 C 131.652344 264.859375 135.933594 266.777344 140.671875 266.777344 C 145.417969 266.777344 149.707031 264.867188 152.796875 261.777344 L 152.816406 261.753906 C 155.898438 258.671875 157.8125 254.382812 157.8125 249.636719 Z M 292.65625 253.183594 L 253.046875 294.128906 L 243.808594 285.191406 C 241.902344 283.347656 238.851562 283.402344 237.007812 285.304688 C 235.164062 287.210938 235.214844 290.261719 237.121094 292.105469 L 249.8125 304.386719 C 251.71875 306.234375 254.769531 306.179688 256.613281 304.277344 L 299.570312 259.871094 C 301.414062 257.96875 301.363281 254.914062 299.457031 253.070312 C 297.546875 251.226562 294.503906 251.277344 292.65625 253.183594 Z M 319.6875 238.398438 L 319.6875 289.878906 L 319.671875 289.878906 L 319.671875 289.992188 C 318.757812 324.128906 296.25 330.085938 274.390625 335.867188 L 270.695312 336.855469 C 270.515625 336.914062 270.34375 336.960938 270.15625 336.996094 L 269.257812 337.238281 C 268.429688 337.46875 267.539062 337.492188 266.65625 337.246094 L 266.078125 337.085938 L 60.179688 337.085938 C 57.507812 337.085938 55.34375 334.921875 55.34375 332.25 L 55.363281 331.808594 L 55.71875 76.023438 C 55.71875 73.363281 57.875 71.210938 60.53125 71.210938 L 60.53125 71.1875 L 104.566406 71.1875 L 104.566406 63.070312 C 104.566406 60.398438 106.734375 58.230469 109.402344 58.230469 L 138.871094 58.230469 C 141.164062 52.660156 144.929688 47.832031 149.675781 44.242188 C 155.269531 40.011719 162.214844 37.5 169.710938 37.5 C 177.210938 37.5 184.160156 40.011719 189.753906 44.242188 C 194.5 47.824219 198.265625 52.652344 200.558594 58.226562 L 230.027344 58.226562 C 232.695312 58.226562 234.863281 60.390625 234.863281 63.0625 L 234.863281 71.179688 L 278.898438 71.179688 C 281.566406 71.179688 283.734375 73.347656 283.734375 76.019531 L 283.734375 223.714844 C 285.332031 224.511719 287.003906 225.277344 288.738281 226.019531 C 297.792969 229.886719 307.960938 232.75 315.046875 233.5625 C 317.625 233.664062 319.6875 235.796875 319.6875 238.398438 Z M 149.707031 58.230469 L 189.722656 58.230469 C 188.1875 55.808594 186.222656 53.671875 183.933594 51.949219 C 179.976562 48.957031 175.042969 47.171875 169.71875 47.171875 C 164.386719 47.171875 159.453125 48.957031 155.496094 51.949219 C 153.207031 53.671875 151.242188 55.804688 149.707031 58.230469 Z M 114.238281 67.90625 L 114.238281 84.144531 L 225.191406 84.144531 L 225.191406 76.023438 C 225.191406 76.019531 225.191406 76.019531 225.191406 76.011719 L 225.191406 67.90625 Z M 65 327.421875 L 237.066406 327.421875 C 225.519531 321.273438 216.90625 311.054688 216.222656 290.480469 L 216.183594 289.871094 L 216.183594 238.390625 C 216.191406 235.953125 218.027344 233.851562 220.511719 233.589844 C 227.613281 232.832031 237.945312 229.9375 247.136719 226.019531 C 254.636719 222.816406 261.179688 219.035156 264.136719 215.386719 L 264.421875 215.046875 L 264.628906 214.839844 C 265.019531 214.472656 265.460938 214.179688 265.925781 213.96875 L 266.0625 213.910156 C 266.667969 213.652344 267.300781 213.535156 267.929688 213.535156 C 268.558594 213.535156 269.1875 213.652344 269.789062 213.902344 L 269.9375 213.96875 C 270.410156 214.1875 270.847656 214.472656 271.234375 214.839844 C 271.421875 215.011719 271.566406 215.191406 271.738281 215.386719 C 272.359375 216.148438 273.148438 216.929688 274.0625 217.703125 L 274.0625 80.863281 L 234.863281 80.863281 L 234.863281 88.980469 C 234.863281 91.652344 232.695312 93.820312 230.027344 93.820312 L 109.402344 93.820312 C 108.570312 93.820312 107.785156 93.609375 107.101562 93.234375 C 105.59375 92.417969 104.566406 90.820312 104.566406 88.980469 L 104.566406 80.863281 L 65.34375 80.863281 Z M 310.03125 289.878906 L 310.015625 242.566406 C 302.546875 241.238281 293.273438 238.449219 284.964844 234.902344 C 282.21875 233.734375 279.566406 232.457031 277.085938 231.125 C 276.738281 230.980469 276.417969 230.808594 276.125 230.597656 C 273.027344 228.875 270.230469 227.039062 267.9375 225.132812 C 263.601562 228.730469 257.507812 232.089844 250.910156 234.902344 C 242.601562 238.449219 233.324219 241.238281 225.855469 242.566406 L 225.851562 290.121094 C 226.726562 316.691406 245.605469 321.6875 263.933594 326.539062 L 267.246094 327.421875 L 268.617188 327.421875 L 271.933594 326.539062 C 290.324219 321.671875 309.257812 316.664062 310.03125 289.878906 Z M 310.03125 289.878906 " fill-opacity="1" fill-rule="nonzero"/></g></svg>