<svg xmlns="http://www.w3.org/2000/svg" xmlns:xlink="http://www.w3.org/1999/xlink" width="500" zoomAndPan="magnify" viewBox="0 0 375 374.999991" height="500" preserveAspectRatio="xMidYMid meet" version="1.0"><defs><clipPath id="f519d35e97"><path d="M 0 0 L 375 0 L 375 375 L 0 375 Z M 0 0 " clip-rule="nonzero"/></clipPath><clipPath id="18589687f4"><rect x="0" width="375" y="0" height="375"/></clipPath><clipPath id="ccf21abab4"><path d="M 37.5 298 L 337.5 298 L 337.5 337.5 L 37.5 337.5 Z M 37.5 298 " clip-rule="nonzero"/></clipPath><clipPath id="07426822a8"><path d="M 234 92 L 337.5 92 L 337.5 154 L 234 154 Z M 234 92 " clip-rule="nonzero"/></clipPath><clipPath id="6c28b30bd7"><path d="M 37.5 92 L 141 92 L 141 154 L 37.5 154 Z M 37.5 92 " clip-rule="nonzero"/></clipPath><clipPath id="7866a9c7f6"><path d="M 128 37.5 L 247 37.5 L 247 156 L 128 156 Z M 128 37.5 " clip-rule="nonzero"/></clipPath></defs><rect x="-37.5" width="450" fill="#ffffff" y="-37.499999" height="449.999989" fill-opacity="1"/><rect x="-37.5" width="450" fill="#ffffff" y="-37.499999" height="449.999989" fill-opacity="1"/><g transform="matrix(1, 0, 0, 1, 0, 0)"><g clip-path="url(#18589687f4)"><g clip-path="url(#f519d35e97)"><rect x="-82.5" width="540" fill="#ffffff" height="539.999987" y="-82.499998" fill-opacity="1"/></g></g></g><g clip-path="url(#ccf21abab4)"><path fill="#ff6600" d="M 317.945312 298.394531 L 57.054688 298.394531 C 46.285156 298.394531 37.5 307.179688 37.5 317.945312 C 37.5 328.714844 46.285156 337.5 57.054688 337.5 L 317.945312 337.5 C 328.714844 337.5 337.5 328.714844 337.5 317.945312 C 337.5 307.179688 328.714844 298.394531 317.945312 298.394531 Z M 317.945312 298.394531 " fill-opacity="1" fill-rule="nonzero"/></g><path fill="#ff6600" d="M 309.910156 309.105469 C 306.964844 309.105469 304.554688 306.695312 304.554688 303.75 L 304.554688 147.964844 C 304.554688 145.019531 306.964844 142.605469 309.910156 142.605469 C 312.855469 142.605469 315.269531 145.019531 315.269531 147.964844 L 315.269531 303.75 C 315.269531 306.695312 312.855469 309.105469 309.910156 309.105469 Z M 309.910156 309.105469 " fill-opacity="1" fill-rule="nonzero"/><path fill="#ff6600" d="M 65.089844 309.105469 C 62.144531 309.105469 59.730469 306.695312 59.730469 303.75 L 59.730469 147.964844 C 59.730469 145.019531 62.144531 142.605469 65.089844 142.605469 C 68.035156 142.605469 70.445312 145.019531 70.445312 147.964844 L 70.445312 303.75 C 70.445312 306.695312 68.035156 309.105469 65.089844 309.105469 Z M 65.089844 309.105469 " fill-opacity="1" fill-rule="nonzero"/><path fill="#ff6600" d="M 230.945312 309.105469 C 228 309.105469 225.589844 306.695312 225.589844 303.75 L 225.589844 191.730469 C 225.589844 187.230469 221.894531 183.535156 217.394531 183.535156 L 157.660156 183.535156 C 153.105469 183.535156 149.464844 187.230469 149.464844 191.730469 L 149.464844 303.75 C 149.464844 306.695312 147.054688 309.105469 144.105469 309.105469 C 141.160156 309.105469 138.75 306.695312 138.75 303.75 L 138.75 191.730469 C 138.75 181.285156 147.214844 172.820312 157.660156 172.820312 L 217.394531 172.820312 C 227.839844 172.820312 236.304688 181.285156 236.304688 191.730469 L 236.304688 303.75 C 236.304688 306.695312 233.894531 309.105469 230.945312 309.105469 Z M 230.945312 309.105469 " fill-opacity="1" fill-rule="nonzero"/><path fill="#ff6600" d="M 208.980469 242.035156 L 166.019531 242.035156 C 163.070312 242.035156 160.660156 239.625 160.660156 236.679688 L 160.660156 216.804688 C 160.660156 213.855469 163.070312 211.445312 166.019531 211.445312 L 208.980469 211.445312 C 211.929688 211.445312 214.339844 213.855469 214.339844 216.804688 L 214.339844 236.679688 C 214.339844 239.625 211.929688 242.035156 208.980469 242.035156 Z M 171.375 231.320312 L 203.625 231.320312 L 203.625 222.160156 L 171.375 222.160156 Z M 171.375 231.320312 " fill-opacity="1" fill-rule="nonzero"/><path fill="#ff6600" d="M 208.980469 222.160156 C 207.695312 222.160156 206.355469 221.679688 205.339844 220.714844 L 187.5 204.214844 L 169.660156 220.714844 C 167.464844 222.695312 164.089844 222.589844 162.105469 220.394531 C 160.070312 218.195312 160.230469 214.820312 162.375 212.839844 L 183.855469 192.964844 C 185.894531 191.089844 189.054688 191.089844 191.144531 192.964844 L 212.625 212.839844 C 214.820312 214.875 214.929688 218.25 212.894531 220.394531 C 211.820312 221.519531 210.375 222.105469 208.980469 222.105469 Z M 208.980469 222.160156 " fill-opacity="1" fill-rule="nonzero"/><path fill="#ff6600" d="M 208.980469 272.679688 C 206.035156 272.679688 203.625 270.269531 203.625 267.320312 L 203.625 254.25 C 203.625 251.304688 206.035156 248.894531 208.980469 248.894531 C 211.929688 248.894531 214.339844 251.304688 214.339844 254.25 L 214.339844 267.320312 C 214.339844 270.269531 211.929688 272.679688 208.980469 272.679688 Z M 208.980469 272.679688 " fill-opacity="1" fill-rule="nonzero"/><path fill="#ff6600" d="M 309.910156 254.355469 L 273.644531 254.355469 C 264.054688 254.355469 256.285156 246.589844 256.285156 237 L 256.285156 190.179688 C 256.285156 180.589844 264.054688 172.820312 273.644531 172.820312 L 309.910156 172.820312 C 312.855469 172.820312 315.269531 175.230469 315.269531 178.179688 C 315.269531 181.125 312.855469 183.535156 309.910156 183.535156 L 273.644531 183.535156 C 270 183.535156 267 186.535156 267 190.179688 L 267 237 C 267 240.644531 270 243.644531 273.644531 243.644531 L 309.910156 243.644531 C 312.855469 243.644531 315.269531 246.054688 315.269531 249 C 315.269531 251.945312 312.855469 254.355469 309.910156 254.355469 Z M 309.910156 254.355469 " fill-opacity="1" fill-rule="nonzero"/><path fill="#ff6600" d="M 101.355469 254.355469 L 65.089844 254.355469 C 62.144531 254.355469 59.730469 251.945312 59.730469 249 C 59.730469 246.054688 62.144531 243.644531 65.089844 243.644531 L 101.355469 243.644531 C 105 243.644531 108 240.644531 108 237 L 108 190.179688 C 108 186.535156 105 183.535156 101.355469 183.535156 L 65.089844 183.535156 C 62.144531 183.535156 59.730469 181.125 59.730469 178.179688 C 59.730469 175.230469 62.144531 172.820312 65.089844 172.820312 L 101.355469 172.820312 C 110.945312 172.820312 118.714844 180.589844 118.714844 190.179688 L 118.714844 237 C 118.714844 246.589844 110.945312 254.355469 101.355469 254.355469 Z M 101.355469 254.355469 " fill-opacity="1" fill-rule="nonzero"/><g clip-path="url(#07426822a8)"><path fill="#ff6600" d="M 313.875 153.375 L 240.320312 153.375 C 237.375 153.375 234.964844 150.964844 234.964844 148.019531 C 234.964844 145.070312 237.375 142.660156 240.320312 142.660156 L 313.875 142.660156 C 321 142.660156 326.785156 136.875 326.785156 129.695312 L 326.785156 115.820312 C 326.785156 108.695312 321 102.855469 313.875 102.855469 L 261.214844 102.855469 C 258.269531 102.855469 255.855469 100.445312 255.855469 97.5 C 255.855469 94.554688 258.269531 92.144531 261.214844 92.144531 L 313.875 92.144531 C 326.894531 92.144531 337.5 102.75 337.5 115.820312 L 337.5 129.695312 C 337.5 142.714844 326.894531 153.375 313.875 153.375 Z M 313.875 153.375 " fill-opacity="1" fill-rule="nonzero"/></g><g clip-path="url(#6c28b30bd7)"><path fill="#ff6600" d="M 134.730469 153.375 L 61.125 153.375 C 48.105469 153.375 37.5 142.769531 37.5 129.695312 L 37.5 115.820312 C 37.5 102.804688 48.105469 92.144531 61.125 92.144531 L 113.785156 92.144531 C 116.730469 92.144531 119.144531 94.554688 119.144531 97.5 C 119.144531 100.445312 116.730469 102.855469 113.785156 102.855469 L 61.125 102.855469 C 54 102.855469 48.214844 108.644531 48.214844 115.820312 L 48.214844 129.695312 C 48.214844 136.820312 54 142.660156 61.125 142.660156 L 134.730469 142.660156 C 137.679688 142.660156 140.089844 145.070312 140.089844 148.019531 C 140.089844 150.964844 137.679688 153.375 134.730469 153.375 Z M 134.730469 153.375 " fill-opacity="1" fill-rule="nonzero"/></g><path fill="#ff6600" d="M 201.804688 98.089844 C 202.285156 98.089844 202.714844 97.714844 202.769531 97.230469 L 205.179688 85.019531 L 179.519531 85.019531 L 181.980469 98.035156 L 201.855469 98.035156 Z M 201.804688 98.089844 " fill-opacity="1" fill-rule="nonzero"/><g clip-path="url(#7866a9c7f6)"><path fill="#ff6600" d="M 187.5 37.5 C 154.875 37.5 128.355469 64.019531 128.355469 96.589844 C 128.355469 129.160156 154.875 155.679688 187.5 155.679688 C 220.125 155.679688 246.644531 129.160156 246.644531 96.589844 C 246.644531 64.019531 220.125 37.5 187.5 37.5 Z M 187.125 132.269531 C 186.855469 132.910156 186.480469 133.5 185.945312 133.980469 C 185.464844 134.464844 184.875 134.894531 184.230469 135.160156 C 183.589844 135.429688 182.894531 135.535156 182.195312 135.535156 C 181.5 135.535156 180.804688 135.429688 180.160156 135.160156 C 179.464844 134.894531 178.929688 134.464844 178.394531 133.980469 C 177.375 132.964844 176.839844 131.625 176.839844 130.179688 C 176.839844 128.730469 177.375 127.394531 178.394531 126.429688 C 178.875 125.894531 179.464844 125.519531 180.160156 125.25 C 181.445312 124.714844 182.894531 124.714844 184.230469 125.25 C 184.875 125.519531 185.464844 125.894531 185.945312 126.429688 C 186.964844 127.394531 187.554688 128.785156 187.554688 130.179688 C 187.554688 130.929688 187.394531 131.570312 187.125 132.269531 Z M 207.105469 133.980469 C 206.625 134.464844 206.035156 134.894531 205.394531 135.160156 C 204.75 135.429688 204.054688 135.535156 203.355469 135.535156 C 202.605469 135.535156 201.910156 135.429688 201.269531 135.160156 C 200.625 134.894531 200.035156 134.464844 199.554688 133.980469 C 199.070312 133.5 198.644531 132.910156 198.375 132.269531 C 198.105469 131.570312 198 130.929688 198 130.179688 C 198 128.785156 198.535156 127.394531 199.554688 126.429688 C 200.035156 125.894531 200.625 125.519531 201.269531 125.25 C 202.605469 124.714844 204.054688 124.714844 205.394531 125.25 C 206.035156 125.519531 206.625 125.894531 207.105469 126.429688 C 208.125 127.394531 208.714844 128.785156 208.714844 130.179688 C 208.714844 131.570312 208.125 132.964844 207.105469 133.980469 Z M 179.035156 112.5 L 210.589844 112.5 C 213.535156 112.5 215.945312 114.910156 215.945312 117.855469 C 215.945312 120.804688 213.535156 123.214844 210.589844 123.214844 L 179.035156 123.214844 C 174.910156 123.214844 171.105469 120.964844 169.179688 117.375 C 167.195312 113.785156 167.355469 109.394531 169.605469 105.910156 L 171.855469 102.375 L 167.785156 80.730469 C 167.785156 80.730469 167.785156 80.730469 167.785156 80.679688 C 167.785156 80.679688 167.785156 80.625 167.785156 80.570312 L 166.929688 75.160156 C 166.820312 74.570312 166.339844 74.144531 165.75 74.144531 L 163.339844 74.144531 C 160.394531 74.144531 157.980469 71.730469 157.980469 68.785156 C 157.980469 65.839844 160.394531 63.429688 163.339844 63.429688 L 165.75 63.429688 C 171.644531 63.429688 176.625 67.660156 177.480469 73.5 L 177.644531 74.355469 L 211.660156 74.355469 C 213.269531 74.355469 214.769531 75.054688 215.785156 76.285156 C 216.804688 77.519531 217.230469 79.125 216.910156 80.730469 L 213.320312 99.105469 C 212.464844 104.625 207.589844 108.804688 201.804688 108.804688 L 180.429688 108.804688 L 178.605469 111.644531 C 178.714844 112.445312 178.929688 112.445312 179.035156 112.445312 Z M 179.035156 112.5 " fill-opacity="1" fill-rule="nonzero"/></g></svg>