<svg xmlns="http://www.w3.org/2000/svg" xmlns:xlink="http://www.w3.org/1999/xlink" width="500" zoomAndPan="magnify" viewBox="0 0 375 374.999991" height="500" preserveAspectRatio="xMidYMid meet" version="1.0"><defs><clipPath id="a53dc7b386"><path d="M 0 0 L 375 0 L 375 375 L 0 375 Z M 0 0 " clip-rule="nonzero"/></clipPath><clipPath id="945aadd2e4"><rect x="0" width="375" y="0" height="375"/></clipPath><clipPath id="6745204ce7"><path d="M 171 319 L 314 319 L 314 331.6875 L 171 331.6875 Z M 171 319 " clip-rule="nonzero"/></clipPath><clipPath id="37a25178c0"><path d="M 128 319 L 165 319 L 165 331.6875 L 128 331.6875 Z M 128 319 " clip-rule="nonzero"/></clipPath><clipPath id="a8c2c11dda"><path d="M 37.5 208 L 212 208 L 212 296 L 37.5 296 Z M 37.5 208 " clip-rule="nonzero"/></clipPath><clipPath id="72f4fa1c77"><path d="M 88 43.6875 L 205 43.6875 L 205 116 L 88 116 Z M 88 43.6875 " clip-rule="nonzero"/></clipPath><clipPath id="810bde3b6c"><path d="M 231 76 L 337.5 76 L 337.5 144 L 231 144 Z M 231 76 " clip-rule="nonzero"/></clipPath><clipPath id="89fba506c7"><path d="M 231 51 L 337.5 51 L 337.5 68 L 231 68 Z M 231 51 " clip-rule="nonzero"/></clipPath></defs><rect x="-37.5" width="450" fill="#ffffff" y="-37.499999" height="449.999989" fill-opacity="1"/><rect x="-37.5" width="450" fill="#ffffff" y="-37.499999" height="449.999989" fill-opacity="1"/><g transform="matrix(1, 0, 0, 1, 0, 0)"><g clip-path="url(#945aadd2e4)"><g clip-path="url(#a53dc7b386)"><rect x="-82.5" width="540" fill="#ffffff" height="539.999987" y="-82.499998" fill-opacity="1"/></g></g></g><g clip-path="url(#6745204ce7)"><path fill="#ff6600" d="M 171.625 330.8125 C 175.0625 330.875 177.1875 331 178.5 331.25 L 304.4375 331.25 C 308.5625 331.25 312.125 328.3125 312.875 324.25 L 313.6875 319.6875 L 173.6875 319.6875 Z M 171.625 330.8125 " fill-opacity="1" fill-rule="nonzero"/></g><path fill="#ff6600" d="M 319.375 228.5625 L 197.75 228.5625 C 193.375 228.5625 189.625 231.6875 188.875 236 L 177.0625 300.9375 L 177.0625 301.125 C 177.0625 301.125 177.0625 301.1875 177.0625 301.1875 L 175.375 310.375 L 315.375 310.375 L 328.3125 239.1875 C 328.8125 236.5625 328.0625 233.8125 326.375 231.75 C 324.625 229.75 322.0625 228.5625 319.375 228.5625 Z M 251.6875 292.75 C 242.125 292.75 234.3125 284.9375 234.3125 275.375 C 234.3125 265.8125 242.125 258 251.6875 258 C 261.25 258 269.0625 265.8125 269.0625 275.375 C 269 285 261.25 292.75 251.6875 292.75 Z M 251.6875 292.75 " fill-opacity="1" fill-rule="nonzero"/><path fill="#ff6600" d="M 259.6875 274.382812 C 259.753906 274.90625 259.765625 275.433594 259.726562 275.960938 C 259.6875 276.488281 259.597656 277.007812 259.457031 277.519531 C 259.3125 278.027344 259.125 278.519531 258.886719 278.992188 C 258.648438 279.464844 258.367188 279.910156 258.039062 280.328125 C 257.714844 280.746094 257.351562 281.128906 256.949219 281.472656 C 256.550781 281.820312 256.117188 282.121094 255.65625 282.382812 C 255.199219 282.644531 254.714844 282.855469 254.214844 283.023438 C 253.710938 283.1875 253.195312 283.304688 252.671875 283.367188 C 252.144531 283.433594 251.617188 283.445312 251.089844 283.40625 C 250.5625 283.367188 250.042969 283.277344 249.535156 283.136719 C 249.023438 282.996094 248.53125 282.804688 248.058594 282.566406 C 247.585938 282.328125 247.140625 282.046875 246.722656 281.722656 C 246.308594 281.394531 245.925781 281.03125 245.578125 280.632812 C 245.234375 280.230469 244.929688 279.800781 244.667969 279.339844 C 244.410156 278.878906 244.195312 278.398438 244.03125 277.894531 C 243.863281 277.390625 243.75 276.878906 243.683594 276.351562 C 243.617188 275.828125 243.605469 275.300781 243.644531 274.773438 C 243.683594 274.242188 243.773438 273.726562 243.914062 273.214844 C 244.058594 272.703125 244.246094 272.214844 244.484375 271.742188 C 244.722656 271.265625 245.003906 270.824219 245.332031 270.40625 C 245.65625 269.988281 246.019531 269.605469 246.421875 269.261719 C 246.820312 268.914062 247.253906 268.613281 247.714844 268.351562 C 248.175781 268.089844 248.65625 267.875 249.160156 267.710938 C 249.660156 267.542969 250.175781 267.429688 250.699219 267.363281 C 251.226562 267.300781 251.753906 267.289062 252.28125 267.328125 C 252.808594 267.367188 253.328125 267.457031 253.835938 267.597656 C 254.347656 267.738281 254.839844 267.929688 255.3125 268.164062 C 255.785156 268.402344 256.230469 268.6875 256.648438 269.011719 C 257.066406 269.335938 257.445312 269.699219 257.792969 270.101562 C 258.136719 270.503906 258.441406 270.933594 258.703125 271.394531 C 258.960938 271.855469 259.175781 272.335938 259.339844 272.839844 C 259.507812 273.34375 259.625 273.855469 259.6875 274.382812 Z M 259.6875 274.382812 " fill-opacity="1" fill-rule="nonzero"/><g clip-path="url(#37a25178c0)"><path fill="#ff6600" d="M 133.1875 327 C 134.75 329.5625 137.5 331.125 140.5 331.0625 C 149.75 330.875 156.8125 330.8125 162.1875 330.75 L 164.1875 319.625 L 128.75 319.625 Z M 133.1875 327 " fill-opacity="1" fill-rule="nonzero"/></g><g clip-path="url(#a8c2c11dda)"><path fill="#ff6600" d="M 197.75 219.3125 L 211.75 219.3125 L 180.5 208.25 C 172.375 222.6875 149.75 237.1875 147 238.9375 C 146.625 239.1875 146.1875 239.375 145.8125 239.5 C 145.6875 239.5 145.625 239.5625 145.5 239.5625 C 145.375 239.5625 145.3125 239.625 145.1875 239.625 C 145 239.625 144.75 239.6875 144.5625 239.6875 C 144.3125 239.6875 144.125 239.6875 143.875 239.625 C 143.8125 239.625 143.6875 239.625 143.625 239.5625 C 143.5 239.5625 143.4375 239.5 143.3125 239.5 C 142.875 239.375 142.5 239.1875 142.0625 238.9375 C 139.25 237.1875 116.625 222.6875 108.5625 208.25 L 64.4375 223.875 C 53.5625 227.75 45.625 237.1875 43.8125 248.625 L 37.5625 287.875 C 37.25 289.8125 37.8125 291.75 39.0625 293.25 C 40.3125 294.75 42.1875 295.5625 44.125 295.5625 L 73.375 295.5625 L 73.375 269.8125 C 73.375 267.25 75.4375 265.1875 78 265.1875 C 80.5625 265.1875 82.625 267.25 82.625 269.8125 L 82.625 295.5625 L 168.5625 295.5625 L 179.6875 234.375 C 181.3125 225.625 188.875 219.3125 197.75 219.3125 Z M 197.75 219.3125 " fill-opacity="1" fill-rule="nonzero"/></g><path fill="#ff6600" d="M 131.3125 122.125 L 110.8125 122.125 C 109.3125 122.125 108.125 123.375 108.125 124.8125 L 108.125 131.0625 C 108.125 135.125 111.4375 138.4375 115.5 138.4375 L 126.625 138.4375 C 130.6875 138.4375 134 135.125 134 131.0625 L 134 124.8125 C 134 124.4375 133.9375 124.0625 133.75 123.6875 C 133.6875 123.625 133.6875 123.5625 133.625 123.4375 C 133.1875 122.6875 132.3125 122.125 131.3125 122.125 Z M 131.3125 122.125 " fill-opacity="1" fill-rule="nonzero"/><path fill="#ff6600" d="M 115.625 193.375 L 115.625 201.625 C 119.4375 211.1875 135.9375 223.6875 144.5625 229.4375 C 153.1875 223.6875 169.625 211.1875 173.5 201.625 L 173.5 193.375 C 165.25 198.1875 155.5 200.625 144.5625 200.625 C 133.625 200.625 123.875 198.125 115.625 193.375 Z M 115.625 193.375 " fill-opacity="1" fill-rule="nonzero"/><path fill="#ff6600" d="M 157.75 122.125 C 156.75 122.125 155.8125 122.6875 155.375 123.5625 C 155.375 123.625 155.3125 123.6875 155.3125 123.6875 C 155.1875 124.0625 155.0625 124.4375 155.0625 124.8125 L 155.0625 131.0625 C 155.0625 135.125 158.375 138.4375 162.4375 138.4375 L 173.5625 138.4375 C 177.625 138.4375 180.9375 135.125 180.9375 131.0625 L 180.9375 124.8125 C 180.9375 123.3125 179.75 122.125 178.25 122.125 Z M 157.75 122.125 " fill-opacity="1" fill-rule="nonzero"/><path fill="#ff6600" d="M 95.375 145.6875 C 96.6875 146.4375 97.5625 147.75 97.75 149.3125 C 97.8125 149.75 102.4375 191.4375 144.5 191.4375 C 186.5625 191.4375 191.25 149.75 191.25 149.3125 C 191.375 147.8125 192.3125 146.4375 193.625 145.6875 C 202.125 140.9375 202.8125 135 202.8125 127.1875 C 202.8125 125.375 201.8125 124.875 201.5 124.6875 C 199.75 123.75 195.75 124.0625 190.1875 127.6875 L 190.1875 131.125 C 190.1875 140.3125 182.6875 147.8125 173.5 147.8125 L 162.375 147.8125 C 153.1875 147.8125 145.6875 140.3125 145.6875 131.125 L 145.6875 126.1875 L 143.1875 126.1875 L 143.1875 131.125 C 143.1875 140.3125 135.6875 147.8125 126.5 147.8125 L 115.375 147.8125 C 106.1875 147.8125 98.6875 140.3125 98.6875 131.125 L 98.6875 127.6875 C 93.125 124.0625 89.125 123.75 87.375 124.6875 C 87.0625 124.875 86.0625 125.375 86.0625 127.1875 C 86.1875 135 86.875 140.9375 95.375 145.6875 Z M 95.375 145.6875 " fill-opacity="1" fill-rule="nonzero"/><g clip-path="url(#72f4fa1c77)"><path fill="#ff6600" d="M 94.25 115.5625 C 94.75 114.375 95.4375 112.625 96.0625 110.5625 C 97.375 106.3125 98.75 100.5 98.8125 94.125 C 98.8125 92.6875 99.5 91.3125 100.6875 90.4375 C 101.875 89.5625 103.375 89.3125 104.75 89.6875 C 129.25 97 163.6875 89.8125 173.6875 79.0625 C 174.875 77.8125 176.625 77.3125 178.25 77.75 C 179.875 78.1875 181.1875 79.4375 181.5625 81.125 C 182.3125 84 184.4375 86.5625 187.125 89.8125 C 191.75 95.375 197.4375 102.1875 199.8125 114.6875 C 205.5 99.75 206.0625 86.6875 201.375 77.8125 C 198.25 71.875 192.9375 68 185.625 66.3125 C 184.125 65.9375 182.8125 64.875 182.3125 63.375 C 174.9375 43.25 144.75 39.625 121.0625 47.8125 C 103.5625 53.875 93.125 67.0625 90.9375 76.75 C 86.5 96.125 89.3125 109.5625 90.9375 114.9375 C 92.0625 115.0625 93.1875 115.25 94.25 115.5625 Z M 94.25 115.5625 " fill-opacity="1" fill-rule="nonzero"/></g><path fill="#ff6600" d="M 188.1875 118.125 C 189.125 117.625 190 117.1875 190.9375 116.8125 C 189.0625 106.4375 184.3125 100.75 180.1875 95.75 C 178.5 93.75 176.875 91.8125 175.5625 89.6875 C 168.75 94.375 158.6875 98.125 147 100.25 C 133.4375 102.6875 119.8125 102.5625 107.875 100 C 107.25 105.75 105.9375 110.8125 104.625 114.625 C 106.4375 113.5 108.625 112.875 110.875 112.875 L 131.375 112.875 C 134.9375 112.875 138.125 114.4375 140.3125 116.875 L 148.9375 116.875 C 151.125 114.4375 154.3125 112.875 157.875 112.875 L 178.375 112.875 C 182.375 112.8125 186 114.9375 188.1875 118.125 Z M 188.1875 118.125 " fill-opacity="1" fill-rule="nonzero"/><g clip-path="url(#810bde3b6c)"><path fill="#ff6600" d="M 231.375 134.5625 C 231.375 139.4375 235.3125 143.375 240.1875 143.375 L 328.6875 143.375 C 333.5625 143.375 337.5 139.4375 337.5 134.5625 L 337.5 76.6875 L 231.375 76.6875 Z M 298.75 120.4375 L 311.875 109 L 301.3125 98.4375 C 299.5 96.625 299.5 93.6875 301.3125 91.875 C 303.125 90.0625 306.0625 90.0625 307.875 91.875 L 321.9375 105.9375 C 322.875 106.875 323.3125 108.125 323.3125 109.375 C 323.25 110.6875 322.6875 111.875 321.75 112.6875 L 304.875 127.375 C 304 128.125 302.9375 128.5 301.8125 128.5 C 300.5 128.5 299.25 127.9375 298.3125 126.9375 C 296.625 125.0625 296.8125 122.125 298.75 120.4375 Z M 276.0625 125.9375 L 285.4375 87.8125 C 286.0625 85.3125 288.5625 83.8125 291.0625 84.4375 C 293.5625 85.0625 295.0625 87.5625 294.4375 90.0625 L 285.0625 128.1875 C 284.5625 130.3125 282.625 131.75 280.5625 131.75 C 280.1875 131.75 279.8125 131.6875 279.4375 131.625 C 276.9375 130.9375 275.4375 128.4375 276.0625 125.9375 Z M 246.9375 105.9375 L 261 91.875 C 262.8125 90.0625 265.75 90.0625 267.5625 91.875 C 269.375 93.6875 269.375 96.625 267.5625 98.4375 L 257 109 L 270.125 120.4375 C 272.0625 122.125 272.25 125.0625 270.5625 127 C 269.625 128.0625 268.375 128.5625 267.0625 128.5625 C 266 128.5625 264.875 128.1875 264 127.4375 L 247.125 112.75 C 246.125 111.9375 245.5625 110.6875 245.5625 109.4375 C 245.5 108.125 246 106.875 246.9375 105.9375 Z M 246.9375 105.9375 " fill-opacity="1" fill-rule="nonzero"/></g><g clip-path="url(#89fba506c7)"><path fill="#ff6600" d="M 328.6875 51.9375 L 240.1875 51.9375 C 235.3125 51.9375 231.375 55.875 231.375 60.75 L 231.375 67.375 L 337.5 67.375 L 337.5 60.75 C 337.5 55.9375 333.5625 51.9375 328.6875 51.9375 Z M 328.6875 51.9375 " fill-opacity="1" fill-rule="nonzero"/></g></svg>