<svg xmlns="http://www.w3.org/2000/svg" xmlns:xlink="http://www.w3.org/1999/xlink" width="500" zoomAndPan="magnify" viewBox="0 0 375 374.999991" height="500" preserveAspectRatio="xMidYMid meet" version="1.0"><defs><clipPath id="a9d4e63964"><path d="M 0 0 L 375 0 L 375 375 L 0 375 Z M 0 0 " clip-rule="nonzero"/></clipPath><clipPath id="02e484557a"><rect x="0" width="375" y="0" height="375"/></clipPath><clipPath id="589eec8e9a"><path d="M 149 37.5 L 240 37.5 L 240 118 L 149 118 Z M 149 37.5 " clip-rule="nonzero"/></clipPath><clipPath id="3885026ea9"><path d="M 258 181 L 337.5 181 L 337.5 229 L 258 229 Z M 258 181 " clip-rule="nonzero"/></clipPath><clipPath id="3d342c00ca"><path d="M 143 260 L 277 260 L 277 337.5 L 143 337.5 Z M 143 260 " clip-rule="nonzero"/></clipPath><clipPath id="cfe29f1646"><path d="M 37.5 144 L 130 144 L 130 234 L 37.5 234 Z M 37.5 144 " clip-rule="nonzero"/></clipPath></defs><rect x="-37.5" width="450" fill="#ffffff" y="-37.499999" height="449.999989" fill-opacity="1"/><rect x="-37.5" width="450" fill="#ffffff" y="-37.499999" height="449.999989" fill-opacity="1"/><g transform="matrix(1, 0, 0, 1, 0, 0)"><g clip-path="url(#02e484557a)"><g clip-path="url(#a9d4e63964)"><rect x="-82.5" width="540" fill="#ffffff" height="539.999987" y="-82.499998" fill-opacity="1"/></g></g></g><path fill="#ff6600" d="M 138.898438 87.097656 C 138.644531 85.730469 137.621094 84.671875 136.289062 84.296875 C 136.289062 84.296875 122.015625 81.109375 122.015625 81.109375 C 117.632812 80.207031 116.164062 86.707031 120.527344 87.761719 C 120.527344 87.761719 126.832031 89.167969 126.832031 89.167969 C 114.210938 97.84375 103.199219 109 94.722656 121.847656 C 93.6875 123.417969 94.121094 125.535156 95.691406 126.570312 C 97.242188 127.597656 99.371094 127.1875 100.414062 125.601562 C 108.34375 113.578125 118.628906 103.136719 130.40625 94.988281 L 129.03125 101.152344 C 128.128906 105.523438 134.617188 107.011719 135.683594 102.636719 C 135.683594 102.636719 138.871094 88.367188 138.871094 88.367188 C 138.878906 87.941406 138.933594 87.523438 138.898438 87.097656 Z M 138.898438 87.097656 " fill-opacity="1" fill-rule="nonzero"/><path fill="#ff6600" d="M 104.894531 255.765625 L 111.597656 256.648438 C 116.035156 257.160156 116.929688 250.550781 112.484375 249.886719 C 112.484375 249.886719 97.984375 247.980469 97.984375 247.980469 C 97.144531 247.96875 96.25 248.105469 95.5625 248.609375 C 94.8125 249.152344 94.363281 250.023438 94.15625 250.917969 C 94.15625 250.917969 92.25 265.417969 92.25 265.417969 C 91.742188 269.851562 98.34375 270.757812 99.011719 266.304688 C 99.011719 266.304688 99.800781 260.324219 99.800781 260.324219 C 107.652344 270.507812 116.96875 279.308594 127.640625 286.507812 C 129.179688 287.550781 131.3125 287.160156 132.371094 285.585938 C 133.421875 284.027344 133.011719 281.90625 131.449219 280.855469 C 121.253906 273.972656 112.359375 265.539062 104.894531 255.765625 Z M 104.894531 255.765625 " fill-opacity="1" fill-rule="nonzero"/><path fill="#ff6600" d="M 298.191406 239.078125 C 296.53125 238.1875 294.464844 238.824219 293.582031 240.488281 C 288.804688 249.460938 282.828125 257.636719 275.863281 264.960938 L 275.558594 258.074219 C 275.253906 253.566406 268.632812 253.914062 268.746094 258.375 C 268.746094 258.375 269.390625 272.988281 269.390625 272.988281 C 269.519531 273.792969 269.800781 274.613281 270.367188 275.199219 C 271.0625 275.855469 271.960938 276.304688 272.945312 276.242188 L 287.558594 275.601562 C 292.046875 275.347656 291.703125 268.582031 287.257812 268.789062 C 287.257812 268.789062 281.410156 269.046875 281.410156 269.046875 C 288.546875 261.433594 294.667969 252.957031 299.601562 243.691406 C 300.484375 242.027344 299.855469 239.964844 298.191406 239.078125 Z M 298.191406 239.078125 " fill-opacity="1" fill-rule="nonzero"/><path fill="#ff6600" d="M 251.363281 90.5625 C 264.15625 98.089844 275.472656 108.273438 284.4375 120.238281 L 277.011719 119.734375 C 272.542969 119.578125 272.078125 126.132812 276.550781 126.539062 C 276.550781 126.539062 290.75 127.5 290.75 127.5 C 291.867188 127.761719 293.105469 127.347656 293.835938 126.433594 C 294.40625 125.875 294.628906 125.105469 294.777344 124.355469 C 294.777344 124.355469 295.765625 109.761719 295.765625 109.761719 C 296 105.285156 289.335938 104.855469 288.964844 109.304688 C 288.964844 109.304688 288.609375 114.519531 288.609375 114.519531 C 279.308594 102.546875 267.796875 92.316406 254.820312 84.683594 C 253.191406 83.730469 251.109375 84.269531 250.152344 85.894531 C 249.199219 87.515625 249.742188 89.609375 251.363281 90.5625 Z M 251.363281 90.5625 " fill-opacity="1" fill-rule="nonzero"/><g clip-path="url(#589eec8e9a)"><path fill="#ff6600" d="M 152.578125 117.40625 L 236.058594 117.40625 C 237.941406 117.40625 239.46875 115.882812 239.46875 113.996094 L 239.46875 40.953125 C 239.46875 39.066406 237.941406 37.542969 236.058594 37.542969 L 204.753906 37.542969 C 192.496094 37.542969 165.050781 37.542969 152.578125 37.542969 C 150.695312 37.542969 149.167969 39.066406 149.167969 40.953125 L 149.167969 113.996094 C 149.167969 115.882812 150.695312 117.40625 152.578125 117.40625 Z M 201.34375 44.359375 L 201.34375 61.523438 C 200.222656 61.089844 195.507812 58.25 194.316406 58.414062 C 193.152344 58.242188 188.378906 61.105469 187.292969 61.523438 L 187.292969 44.359375 Z M 155.984375 44.359375 L 180.472656 44.359375 L 180.472656 67.039062 C 180.402344 69.496094 183.246094 71.253906 185.40625 70.089844 C 185.40625 70.089844 194.316406 65.632812 194.316406 65.632812 L 203.230469 70.089844 C 205.390625 71.253906 208.238281 69.496094 208.164062 67.039062 C 208.164062 67.039062 208.164062 44.359375 208.164062 44.359375 L 232.652344 44.359375 L 232.652344 110.589844 L 155.984375 110.589844 Z M 155.984375 44.359375 " fill-opacity="1" fill-rule="nonzero"/></g><path fill="#ff6600" d="M 276.359375 156.859375 C 276.359375 168.832031 286.101562 178.574219 298.074219 178.574219 C 326.839844 177.480469 326.832031 136.234375 298.070312 135.148438 C 286.101562 135.148438 276.359375 144.890625 276.359375 156.859375 Z M 298.074219 141.964844 C 317.757812 142.59375 317.753906 171.132812 298.070312 171.757812 C 278.386719 171.128906 278.394531 142.589844 298.074219 141.964844 Z M 298.074219 141.964844 " fill-opacity="1" fill-rule="nonzero"/><g clip-path="url(#3885026ea9)"><path fill="#ff6600" d="M 322.085938 181.613281 L 274.0625 181.613281 C 265.5625 181.613281 258.644531 188.527344 258.644531 197.027344 L 258.644531 225.042969 C 258.644531 226.925781 260.171875 228.453125 262.054688 228.453125 L 334.089844 228.453125 C 335.972656 228.453125 337.5 226.925781 337.5 225.042969 L 337.5 197.027344 C 337.5 188.527344 330.585938 181.613281 322.085938 181.613281 Z M 330.683594 221.632812 L 265.464844 221.632812 L 265.464844 197.027344 C 265.464844 192.289062 269.320312 188.433594 274.0625 188.433594 L 322.085938 188.433594 C 326.824219 188.433594 330.683594 192.285156 330.683594 197.027344 Z M 330.683594 221.632812 " fill-opacity="1" fill-rule="nonzero"/></g><path fill="#ff6600" d="M 154.984375 202.898438 C 156.550781 206.910156 158.660156 210.570312 161.355469 213.929688 L 155.636719 223.832031 C 154.691406 225.398438 155.28125 227.601562 156.886719 228.488281 C 156.886719 228.488281 177.574219 240.433594 177.574219 240.433594 C 179.148438 241.367188 181.347656 240.792969 182.234375 239.183594 C 182.234375 239.183594 187.964844 229.25 187.964844 229.25 C 192.222656 229.90625 196.480469 229.917969 200.6875 229.28125 L 206.402344 239.183594 C 207.289062 240.789062 209.488281 241.378906 211.0625 240.433594 C 211.0625 240.433594 231.75 228.488281 231.75 228.488281 C 233.378906 227.546875 233.9375 225.460938 233 223.832031 L 227.28125 213.925781 C 229.9375 210.609375 232.054688 206.914062 233.613281 202.898438 L 245.082031 202.898438 C 246.964844 202.898438 248.492188 201.371094 248.492188 199.488281 L 248.492188 175.597656 C 248.492188 173.714844 246.964844 172.1875 245.082031 172.1875 L 233.652344 172.1875 C 232.085938 168.175781 229.972656 164.515625 227.28125 161.15625 L 233 151.253906 C 233.945312 149.683594 233.355469 147.484375 231.75 146.597656 C 231.75 146.597656 211.0625 134.652344 211.0625 134.652344 C 209.484375 133.707031 207.289062 134.296875 206.402344 135.902344 C 206.402344 135.902344 200.671875 145.835938 200.671875 145.835938 C 196.414062 145.179688 192.152344 145.167969 187.949219 145.804688 L 182.234375 135.902344 C 181.347656 134.296875 179.148438 133.707031 177.574219 134.652344 C 177.574219 134.652344 156.886719 146.597656 156.886719 146.597656 C 155.257812 147.539062 154.699219 149.625 155.636719 151.253906 L 161.355469 161.160156 C 158.699219 164.476562 156.578125 168.171875 155.023438 172.1875 L 143.554688 172.1875 C 141.671875 172.1875 140.144531 173.714844 140.144531 175.597656 L 140.144531 199.488281 C 140.144531 201.371094 141.671875 202.898438 143.554688 202.898438 Z M 146.960938 179.007812 L 157.425781 179.007812 C 158.90625 179.007812 160.214844 178.054688 160.671875 176.648438 C 162.234375 171.824219 164.710938 167.503906 168.039062 163.820312 C 169.03125 162.722656 169.199219 161.113281 168.460938 159.832031 L 163.246094 150.796875 L 178.03125 142.261719 L 183.246094 151.292969 C 183.984375 152.578125 185.46875 153.253906 186.914062 152.921875 C 191.769531 151.886719 196.746094 151.898438 201.707031 152.957031 C 203.164062 153.285156 204.636719 152.605469 205.371094 151.328125 L 210.605469 142.261719 L 225.386719 150.796875 L 220.175781 159.828125 C 218.214844 163.445312 223.808594 166.550781 224.984375 169.839844 C 227.222656 172.5 227.191406 178.945312 231.25 179.007812 C 231.25 179.007812 241.675781 179.007812 241.675781 179.007812 L 241.675781 196.078125 L 231.210938 196.078125 C 229.730469 196.078125 228.421875 197.03125 227.964844 198.4375 C 226.402344 203.261719 223.925781 207.582031 220.597656 211.265625 C 219.605469 212.363281 219.4375 213.972656 220.175781 215.253906 L 225.390625 224.289062 L 210.605469 232.824219 L 205.390625 223.792969 C 204.773438 222.722656 203.636719 222.085938 202.4375 222.085938 C 197.324219 223.054688 192.148438 223.316406 186.929688 222.128906 C 185.480469 221.8125 184.003906 222.480469 183.261719 223.757812 L 178.03125 232.824219 L 163.25 224.289062 L 168.460938 215.257812 C 170.421875 211.640625 164.828125 208.535156 163.652344 205.246094 C 161.414062 202.585938 161.445312 196.140625 157.386719 196.078125 C 157.386719 196.078125 146.960938 196.078125 146.960938 196.078125 Z M 146.960938 179.007812 " fill-opacity="1" fill-rule="nonzero"/><path fill="#ff6600" d="M 183.605469 207.695312 C 199.363281 216.570312 219.859375 202.46875 216.921875 184.390625 C 216.226562 179.949219 209.628906 180.890625 210.171875 185.335938 C 212.265625 197.859375 197.878906 207.964844 186.804688 201.675781 C 171.855469 193.636719 178.207031 170.878906 194.96875 171.609375 L 192.742188 172.976562 C 189.816406 174.640625 191.234375 179.417969 194.535156 179.289062 C 195.664062 179.730469 204.058594 173.824219 205.21875 173.304688 C 206.796875 172.171875 207.222656 170.34375 206.335938 168.613281 C 206.335938 168.613281 200.855469 159.714844 200.855469 159.714844 C 198.445312 155.941406 192.761719 159.429688 195.050781 163.289062 C 195.050781 163.289062 195.976562 164.792969 195.976562 164.792969 C 171.648438 163.183594 161.933594 195.855469 183.605469 207.695312 Z M 183.605469 207.695312 " fill-opacity="1" fill-rule="nonzero"/><g clip-path="url(#3d342c00ca)"><path fill="#ff6600" d="M 258.167969 275.882812 C 257.527344 274.996094 256.5 274.476562 255.410156 274.476562 L 228.410156 274.476562 L 228.410156 264.246094 C 228.410156 262.363281 226.882812 260.839844 225 260.839844 L 146.589844 260.839844 C 144.707031 260.839844 143.183594 262.363281 143.183594 264.246094 L 143.183594 325.609375 C 143.183594 327.496094 144.707031 329.019531 146.589844 329.019531 L 160.785156 329.019531 C 164.089844 340.273438 180.230469 340.265625 183.535156 329.019531 L 239.191406 329.019531 C 242.5 340.273438 258.640625 340.265625 261.945312 329.019531 L 272.726562 329.019531 C 274.609375 329.019531 276.136719 327.496094 276.136719 325.609375 L 276.136719 301.746094 C 276.136719 301.027344 275.910156 300.324219 275.488281 299.746094 Z M 150 267.65625 L 221.589844 267.65625 L 221.589844 322.203125 L 183.535156 322.203125 C 180.226562 310.949219 164.085938 310.957031 160.785156 322.203125 L 150 322.203125 Z M 172.160156 330.726562 C 165.4375 330.605469 165.441406 320.617188 172.160156 320.496094 C 178.878906 320.617188 178.878906 330.605469 172.160156 330.726562 Z M 250.566406 330.726562 C 243.847656 330.605469 243.847656 320.617188 250.570312 320.496094 C 257.289062 320.617188 257.289062 330.605469 250.566406 330.726562 Z M 269.316406 322.203125 L 261.945312 322.203125 C 258.636719 310.949219 242.496094 310.957031 239.191406 322.203125 L 228.410156 322.203125 L 228.410156 281.292969 L 253.671875 281.292969 L 269.316406 302.851562 Z M 269.316406 322.203125 " fill-opacity="1" fill-rule="nonzero"/></g><g clip-path="url(#cfe29f1646)"><path fill="#ff6600" d="M 126.136719 233.71875 C 128.019531 233.71875 129.546875 232.195312 129.546875 230.308594 L 129.546875 172.066406 C 129.546875 170.832031 128.878906 169.695312 127.800781 169.09375 L 85.1875 145.210938 C 84.179688 144.644531 82.953125 144.625 81.933594 145.167969 L 39.320312 167.625 C 38.199219 168.214844 37.5 169.375 37.5 170.640625 L 37.5 230.308594 C 37.5 232.195312 39.027344 233.71875 40.910156 233.71875 L 59.171875 233.71875 C 72.125 233.714844 113.886719 233.71875 126.136719 233.71875 Z M 104.464844 197.253906 L 62.582031 197.253906 L 62.582031 188.851562 L 104.464844 188.851562 Z M 44.316406 172.699219 L 83.472656 152.0625 L 122.726562 174.0625 L 122.726562 226.902344 L 111.28125 226.902344 L 111.28125 185.441406 C 111.28125 183.558594 109.757812 182.03125 107.875 182.03125 L 59.171875 182.03125 C 57.289062 182.03125 55.761719 183.558594 55.761719 185.441406 L 55.761719 226.902344 L 44.316406 226.902344 Z M 62.582031 226.902344 L 62.582031 204.074219 L 104.464844 204.074219 L 104.464844 226.902344 Z M 62.582031 226.902344 " fill-opacity="1" fill-rule="nonzero"/></g><path fill="#ff6600" d="M 78.410156 174.789062 L 88.636719 174.789062 C 93.113281 174.714844 93.121094 168.046875 88.636719 167.972656 C 88.636719 167.972656 78.410156 167.972656 78.410156 167.972656 C 73.929688 168.042969 73.925781 174.714844 78.410156 174.789062 Z M 78.410156 174.789062 " fill-opacity="1" fill-rule="nonzero"/></svg>