<svg xmlns="http://www.w3.org/2000/svg" xmlns:xlink="http://www.w3.org/1999/xlink" width="500" zoomAndPan="magnify" viewBox="0 0 375 374.999991" height="500" preserveAspectRatio="xMidYMid meet" version="1.0"><defs><clipPath id="8d7569c10c"><path d="M 0 0 L 375 0 L 375 375 L 0 375 Z M 0 0 " clip-rule="nonzero"/></clipPath><clipPath id="57fcbfdd27"><rect x="0" width="375" y="0" height="375"/></clipPath><clipPath id="90d1a1a307"><path d="M 89 270 L 117 270 L 117 297.382812 L 89 297.382812 Z M 89 270 " clip-rule="nonzero"/></clipPath><clipPath id="1fe1ec013d"><path d="M 57 270 L 85 270 L 85 297.382812 L 57 297.382812 Z M 57 270 " clip-rule="nonzero"/></clipPath><clipPath id="f1dbda072e"><path d="M 37.5 203 L 137 203 L 137 297.382812 L 37.5 297.382812 Z M 37.5 203 " clip-rule="nonzero"/></clipPath><clipPath id="bfb7f413eb"><path d="M 219 215 L 337.5 215 L 337.5 291 L 219 291 Z M 219 215 " clip-rule="nonzero"/></clipPath></defs><rect x="-37.5" width="450" fill="#ffffff" y="-37.499999" height="449.999989" fill-opacity="1"/><rect x="-37.5" width="450" fill="#ffffff" y="-37.499999" height="449.999989" fill-opacity="1"/><g transform="matrix(1, 0, 0, 1, 0, 0)"><g clip-path="url(#57fcbfdd27)"><g clip-path="url(#8d7569c10c)"><rect x="-82.5" width="540" fill="#ffffff" height="539.999987" y="-82.499998" fill-opacity="1"/></g></g></g><g clip-path="url(#90d1a1a307)"><path fill="#ff6600" d="M 114.566406 270.382812 L 91.261719 270.382812 C 90.09375 270.382812 89.148438 271.363281 89.148438 272.574219 L 89.148438 295.167969 C 89.148438 296.375 90.09375 297.355469 91.261719 297.355469 L 114.566406 297.355469 C 115.734375 297.355469 116.679688 296.375 116.679688 295.167969 L 116.679688 272.574219 C 116.679688 271.363281 115.734375 270.382812 114.566406 270.382812 Z M 101.011719 274.765625 L 104.816406 274.765625 L 104.816406 279.691406 L 101.011719 279.691406 Z M 112.457031 292.976562 L 93.375 292.976562 L 93.375 274.765625 L 96.789062 274.765625 L 96.789062 281.878906 C 96.789062 283.089844 97.734375 284.070312 98.902344 284.070312 L 106.925781 284.070312 C 108.09375 284.070312 109.039062 283.089844 109.039062 281.878906 L 109.039062 274.765625 L 112.457031 274.765625 Z M 112.457031 292.976562 " fill-opacity="1" fill-rule="nonzero"/></g><g clip-path="url(#1fe1ec013d)"><path fill="#ff6600" d="M 82.84375 270.382812 L 59.535156 270.382812 C 58.371094 270.382812 57.425781 271.363281 57.425781 272.574219 L 57.425781 295.167969 C 57.425781 296.375 58.371094 297.355469 59.535156 297.355469 L 82.84375 297.355469 C 84.007812 297.355469 84.953125 296.375 84.953125 295.167969 L 84.953125 272.574219 C 84.953125 271.363281 84.007812 270.382812 82.84375 270.382812 Z M 69.285156 274.765625 L 73.089844 274.765625 L 73.089844 279.691406 L 69.285156 279.691406 Z M 80.730469 292.976562 L 61.648438 292.976562 L 61.648438 274.765625 L 65.066406 274.765625 L 65.066406 281.878906 C 65.066406 283.089844 66.007812 284.070312 67.175781 284.070312 L 75.203125 284.070312 C 76.367188 284.070312 77.3125 283.089844 77.3125 281.878906 L 77.3125 274.765625 L 80.730469 274.765625 Z M 80.730469 292.976562 " fill-opacity="1" fill-rule="nonzero"/></g><path fill="#ff6600" d="M 98.703125 267.320312 C 99.871094 267.320312 100.816406 266.339844 100.816406 265.128906 L 100.816406 242.535156 C 100.816406 241.328125 99.871094 240.347656 98.703125 240.347656 L 75.398438 240.347656 C 74.234375 240.347656 73.289062 241.328125 73.289062 242.535156 L 73.289062 265.128906 C 73.289062 266.339844 74.234375 267.320312 75.398438 267.320312 Z M 85.148438 244.726562 L 88.953125 244.726562 L 88.953125 249.652344 L 85.148438 249.652344 Z M 77.511719 244.726562 L 80.925781 244.726562 L 80.925781 251.84375 C 80.925781 253.054688 81.871094 254.03125 83.039062 254.03125 L 91.066406 254.03125 C 92.230469 254.03125 93.175781 253.054688 93.175781 251.84375 L 93.175781 244.726562 L 96.59375 244.726562 L 96.59375 262.941406 L 77.511719 262.941406 Z M 77.511719 244.726562 " fill-opacity="1" fill-rule="nonzero"/><path fill="#ff6600" d="M 80.316406 220.210938 C 80.316406 224.132812 83.390625 227.320312 87.171875 227.320312 C 90.953125 227.320312 94.027344 224.132812 94.027344 220.210938 C 94.027344 216.292969 90.953125 213.101562 87.171875 213.101562 C 83.390625 213.101562 80.316406 216.289062 80.316406 220.210938 Z M 89.804688 220.210938 C 89.804688 221.71875 88.625 222.941406 87.171875 222.941406 C 85.71875 222.941406 84.539062 221.71875 84.539062 220.210938 C 84.539062 218.707031 85.71875 217.480469 87.171875 217.480469 C 88.625 217.480469 89.804688 218.707031 89.804688 220.210938 Z M 89.804688 220.210938 " fill-opacity="1" fill-rule="nonzero"/><g clip-path="url(#f1dbda072e)"><path fill="#ff6600" d="M 134.695312 285.667969 C 133.527344 285.667969 132.582031 286.648438 132.582031 287.859375 L 132.582031 292.976562 L 125.527344 292.976562 L 125.527344 233.835938 C 125.527344 232.625 124.582031 231.644531 123.414062 231.644531 L 50.6875 231.644531 C 49.523438 231.644531 48.578125 232.625 48.578125 233.835938 L 48.578125 292.976562 L 41.761719 292.976562 L 41.761719 221.109375 L 87.171875 207.511719 L 132.582031 221.109375 L 132.582031 256.863281 C 132.582031 258.074219 133.527344 259.054688 134.691406 259.054688 C 135.859375 259.054688 136.804688 258.074219 136.804688 256.863281 L 136.804688 219.460938 C 136.804688 218.488281 136.183594 217.628906 135.277344 217.359375 L 87.757812 203.128906 C 87.375 203.011719 86.96875 203.011719 86.585938 203.128906 L 39.0625 217.359375 C 38.160156 217.628906 37.535156 218.488281 37.535156 219.460938 L 37.535156 295.167969 C 37.535156 296.375 38.480469 297.355469 39.648438 297.355469 L 50.6875 297.355469 C 51.855469 297.355469 52.796875 296.375 52.796875 295.167969 L 52.796875 236.023438 L 121.300781 236.023438 L 121.300781 295.167969 C 121.300781 296.375 122.246094 297.355469 123.414062 297.355469 L 134.691406 297.355469 C 135.859375 297.355469 136.804688 296.375 136.804688 295.167969 L 136.804688 287.859375 C 136.804688 286.648438 135.859375 285.667969 134.695312 285.667969 Z M 134.695312 285.667969 " fill-opacity="1" fill-rule="nonzero"/></g><path fill="#ff6600" d="M 152.191406 268.953125 C 152.105469 268.527344 151.773438 268.203125 151.359375 268.144531 L 148.832031 267.777344 L 148.179688 266.777344 L 148.789062 264.210938 C 148.890625 263.789062 148.722656 263.347656 148.375 263.105469 L 146.207031 261.625 C 145.859375 261.386719 145.402344 261.402344 145.066406 261.664062 L 143.03125 263.253906 L 141.890625 263.027344 L 140.570312 260.765625 C 140.351562 260.394531 139.933594 260.203125 139.523438 260.289062 L 136.980469 260.832031 C 136.980469 260.832031 136.976562 260.832031 136.972656 260.832031 C 136.566406 260.921875 136.257812 261.265625 136.199219 261.695312 L 135.847656 264.3125 L 134.882812 264.992188 L 132.40625 264.359375 C 132 264.253906 131.574219 264.425781 131.34375 264.789062 L 129.914062 267.035156 C 129.683594 267.398438 129.699219 267.871094 129.953125 268.21875 L 131.488281 270.332031 L 131.265625 271.515625 L 129.085938 272.882812 C 128.726562 273.109375 128.542969 273.542969 128.628906 273.96875 L 129.152344 276.605469 C 129.234375 277.03125 129.566406 277.355469 129.984375 277.414062 L 132.507812 277.78125 L 133.160156 278.78125 L 132.550781 281.351562 C 132.449219 281.773438 132.617188 282.214844 132.964844 282.453125 L 135.132812 283.933594 C 135.484375 284.171875 135.941406 284.15625 136.273438 283.894531 L 138.308594 282.304688 L 139.453125 282.53125 L 140.773438 284.792969 C 140.988281 285.167969 141.40625 285.355469 141.816406 285.269531 L 144.359375 284.726562 C 144.363281 284.726562 144.363281 284.726562 144.367188 284.726562 C 144.773438 284.636719 145.082031 284.292969 145.140625 283.863281 L 145.496094 281.246094 L 146.457031 280.570312 L 148.933594 281.199219 C 149.339844 281.304688 149.765625 281.132812 149.996094 280.769531 L 151.425781 278.523438 C 151.65625 278.160156 151.640625 277.6875 151.390625 277.339844 L 149.855469 275.226562 L 150.074219 274.042969 L 152.253906 272.675781 C 152.613281 272.449219 152.796875 272.015625 152.710938 271.589844 Z M 141.667969 277.664062 C 139.089844 278.230469 136.558594 276.523438 136.011719 273.847656 C 135.460938 271.175781 137.109375 268.546875 139.6875 267.980469 C 142.265625 267.414062 144.800781 269.121094 145.347656 271.796875 C 145.894531 274.46875 144.246094 277.097656 141.667969 277.664062 Z M 141.667969 277.664062 " fill-opacity="1" fill-rule="nonzero"/><path fill="#ff6600" d="M 310.089844 274.222656 C 307.96875 274.222656 306.242188 275.949219 306.242188 278.070312 C 306.242188 280.191406 307.96875 281.917969 310.089844 281.917969 C 312.210938 281.917969 313.9375 280.191406 313.9375 278.070312 C 313.9375 275.949219 312.210938 274.222656 310.089844 274.222656 Z M 310.089844 274.222656 " fill-opacity="1" fill-rule="nonzero"/><path fill="#ff6600" d="M 249.691406 275.371094 C 250.050781 275.734375 250.332031 276.148438 250.527344 276.621094 C 250.722656 277.09375 250.820312 277.582031 250.820312 278.09375 C 250.820312 278.601562 250.722656 279.09375 250.527344 279.566406 C 250.332031 280.035156 250.050781 280.453125 249.691406 280.8125 C 249.332031 281.175781 248.914062 281.453125 248.445312 281.648438 C 247.972656 281.84375 247.480469 281.941406 246.972656 281.941406 C 246.460938 281.941406 245.96875 281.84375 245.5 281.648438 C 245.027344 281.453125 244.613281 281.175781 244.25 280.8125 C 243.890625 280.453125 243.613281 280.035156 243.417969 279.566406 C 243.222656 279.09375 243.125 278.601562 243.125 278.09375 C 243.125 277.582031 243.222656 277.09375 243.417969 276.621094 C 243.613281 276.148438 243.890625 275.734375 244.25 275.371094 C 244.613281 275.011719 245.027344 274.734375 245.5 274.539062 C 245.96875 274.34375 246.460938 274.246094 246.972656 274.246094 C 247.480469 274.246094 247.972656 274.34375 248.441406 274.539062 C 248.914062 274.734375 249.332031 275.011719 249.691406 275.371094 Z M 249.691406 275.371094 " fill-opacity="1" fill-rule="nonzero"/><g clip-path="url(#bfb7f413eb)"><path fill="#ff6600" d="M 334.070312 253.292969 C 332.230469 251.453125 329.925781 250.316406 327.375 249.992188 L 321.632812 238 C 320.394531 235.417969 318.460938 233.246094 316.039062 231.71875 C 313.617188 230.191406 310.820312 229.386719 307.957031 229.386719 L 295.585938 229.386719 L 295.585938 218.210938 C 295.585938 216.929688 294.542969 215.886719 293.261719 215.886719 L 227.730469 215.886719 C 226.449219 215.886719 225.40625 216.929688 225.40625 218.210938 C 225.40625 219.492188 226.449219 220.535156 227.730469 220.535156 L 290.9375 220.535156 L 290.9375 251.886719 L 254.453125 251.886719 C 253.167969 251.886719 252.128906 252.929688 252.128906 254.210938 C 252.128906 255.492188 253.167969 256.535156 254.453125 256.535156 L 290.941406 256.535156 L 290.941406 262.929688 C 290.941406 264.210938 291.980469 265.253906 293.265625 265.253906 C 294.546875 265.253906 295.585938 264.210938 295.585938 262.929688 L 295.585938 234.035156 L 307.960938 234.035156 C 311.980469 234.035156 315.703125 236.378906 317.441406 240.007812 L 323.769531 253.222656 C 324.152344 254.023438 324.976562 254.542969 325.867188 254.542969 C 329.703125 254.542969 332.824219 257.664062 332.824219 261.5 L 332.824219 272.058594 C 332.824219 273.335938 331.785156 274.371094 330.507812 274.371094 L 322.296875 274.371094 C 321.691406 272.390625 320.601562 270.574219 319.117188 269.089844 C 316.714844 266.6875 313.515625 265.363281 310.117188 265.363281 C 306.714844 265.363281 303.519531 266.6875 301.113281 269.089844 C 299.273438 270.929688 298.066406 273.222656 297.601562 275.746094 L 259.472656 275.789062 C 259.007812 273.253906 257.800781 270.957031 255.953125 269.113281 C 253.550781 266.710938 250.351562 265.386719 246.953125 265.386719 C 243.550781 265.386719 240.355469 266.710938 237.949219 269.113281 C 236.105469 270.957031 234.898438 273.253906 234.433594 275.785156 L 226.59375 275.757812 C 225.246094 275.753906 224.152344 274.65625 224.152344 273.308594 L 224.152344 262.929688 C 224.152344 261.648438 223.109375 260.605469 221.828125 260.605469 C 220.546875 260.605469 219.503906 261.648438 219.503906 262.929688 L 219.503906 273.3125 C 219.503906 275.203125 220.238281 276.984375 221.574219 278.324219 C 222.910156 279.664062 224.6875 280.402344 226.578125 280.410156 L 234.429688 280.433594 C 234.894531 282.96875 236.101562 285.269531 237.949219 287.117188 C 240.355469 289.523438 243.550781 290.847656 246.953125 290.847656 C 250.351562 290.847656 253.550781 289.523438 255.953125 287.117188 C 257.800781 285.273438 259.007812 282.972656 259.472656 280.4375 L 297.59375 280.398438 C 298.054688 282.9375 299.261719 285.242188 301.113281 287.09375 C 303.519531 289.5 306.714844 290.824219 310.117188 290.824219 C 313.515625 290.824219 316.714844 289.5 319.117188 287.09375 C 321.296875 284.917969 322.59375 282.070312 322.8125 279.019531 L 330.507812 279.019531 C 334.347656 279.019531 337.472656 275.898438 337.472656 272.058594 L 337.472656 261.5 C 337.46875 258.398438 336.261719 255.484375 334.070312 253.292969 Z M 246.949219 286.199219 C 242.496094 286.199219 238.867188 282.574219 238.867188 278.117188 C 238.867188 273.660156 242.496094 270.035156 246.949219 270.035156 C 251.40625 270.035156 255.03125 273.660156 255.03125 278.117188 C 255.03125 282.574219 251.40625 286.199219 246.949219 286.199219 Z M 310.113281 286.175781 C 305.65625 286.175781 302.03125 282.550781 302.03125 278.09375 C 302.03125 273.636719 305.65625 270.011719 310.113281 270.011719 C 314.570312 270.011719 318.195312 273.636719 318.195312 278.09375 C 318.195312 282.550781 314.570312 286.175781 310.113281 286.175781 Z M 310.113281 286.175781 " fill-opacity="1" fill-rule="nonzero"/></g><path fill="#ff6600" d="M 243.859375 251.886719 L 239.265625 251.886719 C 237.984375 251.886719 236.941406 252.929688 236.941406 254.210938 C 236.941406 255.492188 237.984375 256.535156 239.265625 256.535156 L 243.859375 256.535156 C 245.140625 256.535156 246.183594 255.492188 246.183594 254.210938 C 246.183594 252.929688 245.136719 251.886719 243.859375 251.886719 Z M 243.859375 251.886719 " fill-opacity="1" fill-rule="nonzero"/><path fill="#ff6600" d="M 231.511719 254.210938 C 231.511719 252.929688 230.46875 251.886719 229.1875 251.886719 L 207.484375 251.886719 C 206.199219 251.886719 205.160156 252.929688 205.160156 254.210938 C 205.160156 255.492188 206.199219 256.535156 207.484375 256.535156 L 229.1875 256.535156 C 230.464844 256.535156 231.511719 255.492188 231.511719 254.210938 Z M 231.511719 254.210938 " fill-opacity="1" fill-rule="nonzero"/><path fill="#ff6600" d="M 216.761719 245.285156 L 233.359375 245.285156 C 234.640625 245.285156 235.679688 244.242188 235.679688 242.960938 C 235.679688 241.679688 234.640625 240.636719 233.359375 240.636719 L 216.761719 240.636719 C 215.480469 240.636719 214.441406 241.679688 214.441406 242.960938 C 214.441406 244.242188 215.480469 245.285156 216.761719 245.285156 Z M 216.761719 245.285156 " fill-opacity="1" fill-rule="nonzero"/><path fill="#ff6600" d="M 210.933594 242.960938 C 210.933594 241.679688 209.890625 240.636719 208.609375 240.636719 L 204.109375 240.636719 C 202.828125 240.636719 201.785156 241.679688 201.785156 242.960938 C 201.785156 244.242188 202.828125 245.285156 204.109375 245.285156 L 208.609375 245.285156 C 209.886719 245.285156 210.933594 244.242188 210.933594 242.960938 Z M 210.933594 242.960938 " fill-opacity="1" fill-rule="nonzero"/><path fill="#ff6600" d="M 198.839844 242.960938 C 198.839844 241.679688 197.796875 240.636719 196.515625 240.636719 L 190.890625 240.636719 C 189.605469 240.636719 188.566406 241.679688 188.566406 242.960938 C 188.566406 244.242188 189.605469 245.285156 190.890625 245.285156 L 196.515625 245.285156 C 197.796875 245.285156 198.839844 244.242188 198.839844 242.960938 Z M 198.839844 242.960938 " fill-opacity="1" fill-rule="nonzero"/><path fill="#ff6600" d="M 201.578125 251.886719 L 196.515625 251.886719 C 195.230469 251.886719 194.191406 252.929688 194.191406 254.210938 C 194.191406 255.492188 195.230469 256.535156 196.515625 256.535156 L 201.578125 256.535156 C 202.859375 256.535156 203.902344 255.492188 203.902344 254.210938 C 203.902344 252.929688 202.859375 251.886719 201.578125 251.886719 Z M 201.578125 251.886719 " fill-opacity="1" fill-rule="nonzero"/><path fill="#ff6600" d="M 243.859375 227.417969 L 225.0625 227.417969 C 223.78125 227.417969 222.738281 228.460938 222.738281 229.742188 C 222.738281 231.023438 223.78125 232.066406 225.0625 232.066406 L 243.859375 232.066406 C 245.140625 232.066406 246.183594 231.023438 246.183594 229.742188 C 246.179688 228.460938 245.136719 227.417969 243.859375 227.417969 Z M 243.859375 227.417969 " fill-opacity="1" fill-rule="nonzero"/><path fill="#ff6600" d="M 212.546875 232.066406 L 218.308594 232.066406 C 219.59375 232.066406 220.632812 231.023438 220.632812 229.742188 C 220.632812 228.460938 219.59375 227.417969 218.308594 227.417969 L 212.546875 227.417969 C 211.261719 227.417969 210.222656 228.460938 210.222656 229.742188 C 210.222656 231.023438 211.261719 232.066406 212.546875 232.066406 Z M 212.546875 232.066406 " fill-opacity="1" fill-rule="nonzero"/><path fill="#ff6600" d="M 212.546875 220.535156 L 216.765625 220.535156 C 218.046875 220.535156 219.089844 219.492188 219.089844 218.210938 C 219.089844 216.929688 218.046875 215.886719 216.765625 215.886719 L 212.546875 215.886719 C 211.261719 215.886719 210.222656 216.929688 210.222656 218.210938 C 210.222656 219.492188 211.261719 220.535156 212.546875 220.535156 Z M 212.546875 220.535156 " fill-opacity="1" fill-rule="nonzero"/><path fill="#ff6600" d="M 300.46875 238.914062 C 299.445312 238.914062 298.609375 239.746094 298.609375 240.769531 L 298.609375 251.714844 C 298.609375 252.738281 299.445312 253.570312 300.46875 253.570312 L 317.070312 253.570312 C 318.09375 253.570312 318.929688 252.738281 318.929688 251.714844 C 318.929688 250.6875 318.09375 249.855469 317.070312 249.855469 L 302.328125 249.855469 L 302.328125 240.769531 C 302.328125 239.746094 301.492188 238.914062 300.46875 238.914062 Z M 300.46875 238.914062 " fill-opacity="1" fill-rule="nonzero"/><path fill="#ff6600" d="M 190.738281 190.449219 C 191.226562 190.578125 191.730469 190.667969 192.253906 190.714844 C 192.527344 190.738281 192.796875 190.753906 193.070312 190.753906 C 195.125 190.753906 197.164062 190.070312 198.882812 188.792969 C 200.277344 187.761719 201.359375 186.417969 202.035156 184.898438 C 202.570312 185.050781 203.125 185.152344 203.699219 185.203125 C 203.96875 185.226562 204.242188 185.238281 204.515625 185.238281 C 206.570312 185.238281 208.605469 184.558594 210.328125 183.28125 C 213.746094 180.746094 215.0625 176.480469 213.816406 172.910156 C 214.894531 172.589844 215.941406 172.078125 216.910156 171.363281 C 221.046875 168.292969 222.101562 162.683594 219.261719 158.851562 L 214.097656 151.890625 L 225.515625 143.425781 C 227.753906 141.769531 229.410156 139.535156 230.339844 136.976562 L 232.65625 140.105469 C 233.277344 140.9375 234.226562 141.378906 235.191406 141.378906 C 235.84375 141.378906 236.5 141.179688 237.066406 140.757812 L 251.78125 129.847656 C 252.453125 129.351562 252.898438 128.609375 253.023438 127.78125 C 253.144531 126.953125 252.933594 126.113281 252.4375 125.441406 L 218.246094 79.324219 C 217.210938 77.925781 215.238281 77.632812 213.839844 78.667969 L 199.121094 89.578125 C 198.453125 90.078125 198.007812 90.820312 197.882812 91.648438 C 197.761719 92.472656 197.972656 93.316406 198.46875 93.988281 L 200.832031 97.175781 C 197.117188 97.023438 193.335938 98.089844 190.125 100.46875 L 181.015625 107.222656 L 180.957031 107.265625 C 180.882812 107.125 180.796875 106.992188 180.703125 106.859375 L 179.902344 105.785156 C 178.785156 104.277344 177.351562 103.085938 175.714844 102.28125 L 176.773438 101.496094 C 178.171875 100.460938 178.464844 98.488281 177.425781 97.089844 L 166.515625 82.375 C 166.019531 81.703125 165.273438 81.257812 164.449219 81.132812 C 163.621094 81.011719 162.78125 81.222656 162.109375 81.71875 L 115.992188 115.910156 C 115.320312 116.40625 114.875 117.148438 114.75 117.976562 C 114.628906 118.800781 114.839844 119.644531 115.335938 120.316406 L 126.246094 135.03125 C 126.867188 135.867188 127.816406 136.308594 128.78125 136.308594 C 129.433594 136.308594 130.089844 136.105469 130.652344 135.6875 L 132.839844 134.066406 C 133.132812 135.867188 133.855469 137.582031 134.972656 139.089844 L 135.914062 140.359375 C 135.960938 140.425781 136.015625 140.488281 136.070312 140.550781 C 132.296875 143.578125 131.5625 149.089844 134.46875 153.011719 L 134.773438 153.421875 C 135.753906 154.75 137.050781 155.757812 138.535156 156.378906 C 138.421875 156.765625 138.335938 157.164062 138.277344 157.566406 C 137.921875 159.960938 138.519531 162.351562 139.960938 164.296875 L 140.265625 164.710938 C 141.464844 166.328125 143.132812 167.476562 145.039062 168.023438 C 144.722656 170.375 145.320312 172.71875 146.738281 174.628906 L 147.046875 175.042969 C 148.820312 177.4375 151.5625 178.703125 154.335938 178.703125 C 154.488281 178.703125 154.640625 178.699219 154.792969 178.691406 C 155.015625 180.125 155.582031 181.492188 156.46875 182.691406 L 156.777344 183.101562 C 158.550781 185.496094 161.292969 186.765625 164.066406 186.765625 C 165.832031 186.765625 167.605469 186.253906 169.160156 185.195312 L 174.933594 192.96875 C 176.558594 195.160156 179.113281 196.300781 181.777344 196.300781 C 183.765625 196.300781 185.816406 195.664062 187.585938 194.351562 C 189.015625 193.296875 190.074219 191.9375 190.738281 190.449219 Z M 215.0625 85.605469 L 245.5 126.664062 L 235.84375 133.824219 L 214.628906 105.207031 L 213.714844 103.972656 L 205.40625 92.765625 Z M 184.769531 112.28125 L 193.878906 105.53125 C 198.554688 102.0625 205.183594 103.042969 208.652344 107.722656 L 213.886719 114.78125 L 223.367188 127.574219 C 224.597656 129.226562 225.105469 131.261719 224.800781 133.300781 C 224.5 135.339844 223.417969 137.136719 221.765625 138.363281 L 210.34375 146.832031 L 192.558594 122.859375 L 192.59375 122.835938 C 193.992188 121.796875 194.28125 119.824219 193.246094 118.425781 C 192.210938 117.03125 190.238281 116.738281 188.839844 117.773438 L 174.402344 128.480469 C 173.667969 129.023438 172.765625 129.246094 171.863281 129.113281 C 170.960938 128.980469 170.164062 128.503906 169.617188 127.769531 C 169.074219 127.035156 168.847656 126.132812 168.984375 125.230469 C 169.117188 124.328125 169.59375 123.53125 170.328125 122.988281 Z M 129.433594 128.75 L 122.273438 119.09375 L 163.332031 88.65625 L 170.492188 98.3125 Z M 141.648438 150.757812 C 140.917969 150.648438 140.273438 150.261719 139.832031 149.671875 L 139.527344 149.257812 C 138.621094 148.035156 138.878906 146.300781 140.101562 145.394531 L 150.949219 137.351562 C 151.445312 136.984375 152.019531 136.808594 152.589844 136.808594 C 153.4375 136.808594 154.273438 137.195312 154.816406 137.925781 L 155.121094 138.335938 C 155.558594 138.929688 155.742188 139.660156 155.632812 140.390625 C 155.527344 141.117188 155.140625 141.761719 154.546875 142.203125 L 152.695312 143.574219 C 152.691406 143.578125 152.691406 143.578125 152.691406 143.578125 L 143.699219 150.246094 C 143.105469 150.683594 142.378906 150.867188 141.648438 150.757812 Z M 147.140625 162.042969 C 146.410156 161.9375 145.765625 161.550781 145.328125 160.957031 L 145.023438 160.546875 C 144.582031 159.953125 144.402344 159.222656 144.507812 158.492188 C 144.617188 157.765625 145.003906 157.121094 145.597656 156.679688 L 152.144531 151.824219 L 156.445312 148.636719 C 156.9375 148.269531 157.515625 148.09375 158.085938 148.09375 C 158.933594 148.09375 159.769531 148.480469 160.308594 149.210938 L 160.613281 149.621094 C 161.054688 150.214844 161.234375 150.945312 161.128906 151.675781 C 161.019531 152.402344 160.632812 153.046875 160.039062 153.488281 L 154.023438 157.949219 L 149.191406 161.53125 C 148.601562 161.972656 147.871094 162.152344 147.140625 162.042969 Z M 157.492188 170.738281 L 155.972656 171.863281 C 154.75 172.773438 153.015625 172.515625 152.109375 171.289062 L 151.804688 170.878906 C 151.363281 170.285156 151.179688 169.558594 151.289062 168.828125 C 151.398438 168.097656 151.785156 167.453125 152.378906 167.011719 L 163.222656 158.972656 C 164.449219 158.0625 166.183594 158.320312 167.089844 159.546875 L 167.394531 159.957031 C 168.175781 161.011719 168.09375 162.449219 167.269531 163.40625 L 158.355469 170.011719 C 158.050781 170.238281 157.761719 170.480469 157.492188 170.738281 Z M 167.941406 178.265625 L 165.703125 179.925781 C 164.480469 180.832031 162.746094 180.574219 161.839844 179.351562 L 161.53125 178.941406 C 161.09375 178.347656 160.910156 177.617188 161.019531 176.886719 C 161.097656 176.363281 161.320312 175.886719 161.65625 175.492188 L 170.574219 168.882812 C 170.875 168.660156 171.160156 168.417969 171.425781 168.167969 L 172.953125 167.035156 C 173.4375 166.675781 174.007812 166.488281 174.59375 166.488281 C 174.730469 166.488281 174.867188 166.5 175.007812 166.519531 C 175.734375 166.628906 176.378906 167.015625 176.820312 167.609375 L 177.125 168.019531 C 178.03125 169.242188 177.773438 170.976562 176.550781 171.882812 Z M 183.835938 189.292969 C 182.511719 190.273438 180.753906 190.242188 179.992188 189.21875 L 174.226562 181.449219 L 179.109375 177.828125 L 184.917969 185.644531 C 185.625 186.671875 185.140625 188.328125 183.835938 189.292969 Z M 183.34375 172.960938 C 184.4375 170.152344 184.109375 166.859375 182.183594 164.265625 L 181.878906 163.855469 C 180.4375 161.910156 178.324219 160.644531 175.929688 160.289062 C 175.328125 160.199219 174.722656 160.167969 174.125 160.199219 C 173.910156 158.796875 173.359375 157.425781 172.457031 156.207031 L 172.148438 155.792969 C 170.917969 154.132812 169.222656 153.015625 167.375 152.488281 C 167.695312 150.128906 167.09375 147.785156 165.675781 145.875 L 165.371094 145.460938 C 164.367188 144.109375 163.054688 143.117188 161.605469 142.507812 C 161.71875 142.121094 161.804688 141.722656 161.867188 141.316406 C 162.222656 138.921875 161.625 136.53125 160.183594 134.585938 L 159.875 134.175781 C 156.902344 130.160156 151.214844 129.316406 147.199219 132.292969 L 141.109375 136.804688 C 141.066406 136.738281 141.023438 136.671875 140.976562 136.609375 L 140.035156 135.339844 C 139.191406 134.203125 138.839844 132.804688 139.050781 131.398438 C 139.257812 130 140 128.761719 141.140625 127.917969 L 167.421875 108.433594 C 168.558594 107.589844 169.957031 107.238281 171.363281 107.445312 C 172.761719 107.65625 174 108.398438 174.84375 109.535156 L 175.644531 110.613281 C 175.738281 110.742188 175.84375 110.863281 175.957031 110.972656 L 166.578125 117.925781 C 164.492188 119.472656 163.132812 121.738281 162.753906 124.304688 C 162.371094 126.875 163.011719 129.4375 164.558594 131.519531 C 166.460938 134.089844 169.402344 135.449219 172.375 135.449219 C 174.386719 135.449219 176.417969 134.828125 178.152344 133.539062 L 187.5 126.609375 L 214.203125 162.601562 C 214.960938 163.625 214.480469 165.320312 213.15625 166.300781 C 211.832031 167.28125 210.074219 167.25 209.316406 166.226562 L 198.386719 151.484375 C 198.253906 151.308594 198.113281 151.152344 197.957031 151.011719 C 197.175781 150.3125 196.105469 150.058594 195.113281 150.296875 C 194.714844 150.394531 194.328125 150.570312 193.980469 150.828125 C 193.710938 151.027344 193.480469 151.265625 193.296875 151.523438 C 192.640625 152.4375 192.515625 153.652344 193 154.6875 C 193.085938 154.878906 193.195312 155.0625 193.324219 155.234375 L 204.253906 169.976562 C 204.253906 169.980469 204.257812 169.980469 204.257812 169.980469 L 207.625 174.523438 C 208.382812 175.546875 207.902344 177.238281 206.578125 178.222656 C 205.878906 178.738281 205.03125 178.996094 204.253906 178.925781 C 203.878906 178.894531 203.179688 178.75 202.734375 178.144531 C 202.730469 178.136719 202.722656 178.128906 202.714844 178.121094 L 197.539062 171.292969 L 189.707031 160.730469 C 188.671875 159.332031 186.699219 159.039062 185.304688 160.074219 C 185.285156 160.089844 185.265625 160.105469 185.25 160.117188 C 185.21875 160.140625 185.191406 160.160156 185.160156 160.179688 C 183.777344 161.230469 183.503906 163.207031 184.554688 164.59375 L 192.5 175.074219 L 196.179688 180.035156 C 196.625 180.636719 196.5625 181.347656 196.484375 181.714844 C 196.324219 182.480469 195.832031 183.214844 195.132812 183.734375 C 194.433594 184.253906 193.585938 184.511719 192.8125 184.441406 C 192.433594 184.40625 191.738281 184.261719 191.289062 183.65625 L 190.027344 181.953125 C 190 181.917969 189.972656 181.878906 189.945312 181.839844 Z M 183.34375 172.960938 " fill-opacity="1" fill-rule="nonzero"/><path fill="#ff6600" d="M 120.929688 147.636719 L 124.082031 147.636719 L 124.082031 153.941406 L 120.929688 153.941406 Z M 120.929688 147.636719 " fill-opacity="1" fill-rule="nonzero"/><path fill="#ff6600" d="M 109.996094 147.636719 L 116.050781 147.636719 L 116.050781 153.941406 L 109.996094 153.941406 Z M 109.996094 147.636719 " fill-opacity="1" fill-rule="nonzero"/><path fill="#ff6600" d="M 88.125 147.636719 L 94.179688 147.636719 L 94.179688 153.941406 L 88.125 153.941406 Z M 88.125 147.636719 " fill-opacity="1" fill-rule="nonzero"/><path fill="#ff6600" d="M 99.058594 147.636719 L 105.117188 147.636719 L 105.117188 153.941406 L 99.058594 153.941406 Z M 99.058594 147.636719 " fill-opacity="1" fill-rule="nonzero"/><path fill="#ff6600" d="M 76.941406 147.636719 L 83.246094 147.636719 L 83.246094 153.941406 L 76.941406 153.941406 Z M 76.941406 147.636719 " fill-opacity="1" fill-rule="nonzero"/><path fill="#ff6600" d="M 76.941406 158.796875 L 83.246094 158.796875 L 83.246094 164.824219 L 76.941406 164.824219 Z M 76.941406 158.796875 " fill-opacity="1" fill-rule="nonzero"/><path fill="#ff6600" d="M 76.941406 180.558594 L 83.246094 180.558594 L 83.246094 186.585938 L 76.941406 186.585938 Z M 76.941406 180.558594 " fill-opacity="1" fill-rule="nonzero"/><path fill="#ff6600" d="M 76.941406 169.675781 L 83.246094 169.675781 L 83.246094 175.703125 L 76.941406 175.703125 Z M 76.941406 169.675781 " fill-opacity="1" fill-rule="nonzero"/><path fill="#ff6600" d="M 76.941406 191.4375 L 83.246094 191.4375 L 83.246094 194.589844 L 76.941406 194.589844 Z M 76.941406 191.4375 " fill-opacity="1" fill-rule="nonzero"/><path fill="#ff6600" d="M 232.6875 147.636719 L 235.839844 147.636719 L 235.839844 153.941406 L 232.6875 153.941406 Z M 232.6875 147.636719 " fill-opacity="1" fill-rule="nonzero"/><path fill="#ff6600" d="M 262.589844 147.636719 L 268.648438 147.636719 L 268.648438 153.941406 L 262.589844 153.941406 Z M 262.589844 147.636719 " fill-opacity="1" fill-rule="nonzero"/><path fill="#ff6600" d="M 251.652344 147.636719 L 257.710938 147.636719 L 257.710938 153.941406 L 251.652344 153.941406 Z M 251.652344 147.636719 " fill-opacity="1" fill-rule="nonzero"/><path fill="#ff6600" d="M 240.71875 147.636719 L 246.777344 147.636719 L 246.777344 153.941406 L 240.71875 153.941406 Z M 240.71875 147.636719 " fill-opacity="1" fill-rule="nonzero"/><path fill="#ff6600" d="M 273.523438 147.636719 L 279.828125 147.636719 L 279.828125 153.941406 L 273.523438 153.941406 Z M 273.523438 147.636719 " fill-opacity="1" fill-rule="nonzero"/><path fill="#ff6600" d="M 273.523438 170.457031 L 279.828125 170.457031 L 279.828125 176.785156 L 273.523438 176.785156 Z M 273.523438 170.457031 " fill-opacity="1" fill-rule="nonzero"/><path fill="#ff6600" d="M 273.523438 193.304688 L 279.828125 193.304688 L 279.828125 199.628906 L 273.523438 199.628906 Z M 273.523438 193.304688 " fill-opacity="1" fill-rule="nonzero"/><path fill="#ff6600" d="M 273.523438 159.035156 L 279.828125 159.035156 L 279.828125 165.363281 L 273.523438 165.363281 Z M 273.523438 159.035156 " fill-opacity="1" fill-rule="nonzero"/><path fill="#ff6600" d="M 273.523438 181.878906 L 279.828125 181.878906 L 279.828125 188.207031 L 273.523438 188.207031 Z M 273.523438 181.878906 " fill-opacity="1" fill-rule="nonzero"/><path fill="#ff6600" d="M 273.523438 204.726562 L 279.828125 204.726562 L 279.828125 207.878906 L 273.523438 207.878906 Z M 273.523438 204.726562 " fill-opacity="1" fill-rule="nonzero"/></svg>