<svg xmlns="http://www.w3.org/2000/svg" xmlns:xlink="http://www.w3.org/1999/xlink" width="500" zoomAndPan="magnify" viewBox="0 0 375 374.999991" height="500" preserveAspectRatio="xMidYMid meet" version="1.0"><defs><clipPath id="53beff03f0"><path d="M 0 0 L 375 0 L 375 375 L 0 375 Z M 0 0 " clip-rule="nonzero"/></clipPath><clipPath id="00739395ce"><rect x="0" width="375" y="0" height="375"/></clipPath><clipPath id="06000ae7a8"><path d="M 37.5 94 L 168 94 L 168 320 L 37.5 320 Z M 37.5 94 " clip-rule="nonzero"/></clipPath><clipPath id="2bb2f2243c"><path d="M 113 170 L 337.5 170 L 337.5 337.125 L 113 337.125 Z M 113 170 " clip-rule="nonzero"/></clipPath><clipPath id="a1792b7bec"><path d="M 183 37.875 L 332 37.875 L 332 219 L 183 219 Z M 183 37.875 " clip-rule="nonzero"/></clipPath></defs><rect x="-37.5" width="450" fill="#ffffff" y="-37.499999" height="449.999989" fill-opacity="1"/><rect x="-37.5" width="450" fill="#ffffff" y="-37.499999" height="449.999989" fill-opacity="1"/><g transform="matrix(1, 0, 0, 1, 0, 0)"><g clip-path="url(#00739395ce)"><g clip-path="url(#53beff03f0)"><rect x="-82.5" width="540" fill="#ffffff" height="539.999987" y="-82.499998" fill-opacity="1"/></g></g></g><g clip-path="url(#06000ae7a8)"><path fill="#ff6600" d="M 90.761719 172.550781 C 92.363281 171.007812 94.914062 171.058594 96.457031 172.664062 C 98 174.265625 97.949219 176.816406 96.347656 178.359375 L 88.925781 185.460938 L 88.925781 228.109375 C 88.925781 230.347656 89.386719 232.398438 90.277344 234.199219 C 91.144531 235.960938 92.433594 237.527344 94.117188 238.851562 C 94.183594 238.898438 94.246094 238.945312 94.308594 238.992188 L 127.75 264.960938 C 128.765625 265.695312 129.425781 266.890625 129.425781 268.238281 L 129.425781 289.988281 C 129.425781 292.011719 130.257812 293.859375 131.597656 295.199219 C 132.9375 296.539062 134.785156 297.371094 136.808594 297.371094 C 138.835938 297.371094 140.679688 296.539062 142.019531 295.199219 C 143.359375 293.859375 144.191406 292.011719 144.191406 289.988281 L 144.191406 261.917969 C 144.160156 261.792969 144.132812 261.664062 144.113281 261.535156 C 143.996094 260.808594 143.753906 260.085938 143.394531 259.394531 C 143.019531 258.664062 142.515625 257.972656 141.898438 257.332031 L 120.378906 235.5 C 119.53125 234.757812 118.996094 233.667969 118.996094 232.453125 L 118.996094 169.613281 C 118.996094 162.09375 116.894531 156.609375 113.609375 153.15625 C 112.191406 151.664062 110.539062 150.539062 108.734375 149.792969 C 106.929688 149.039062 104.945312 148.664062 102.867188 148.664062 C 97.75 148.664062 92.15625 150.96875 87.253906 155.628906 L 56.945312 184.453125 L 46.328125 215.050781 C 45.191406 218.328125 46.179688 220.980469 48.0625 222.621094 C 48.855469 223.3125 49.804688 223.847656 50.828125 224.199219 C 51.875 224.554688 52.96875 224.722656 54.035156 224.671875 C 56.632812 224.539062 59.164062 223.019531 60.332031 219.648438 L 69.269531 193.894531 C 69.457031 193.226562 69.820312 192.601562 70.355469 192.085938 L 81.886719 181.046875 C 82.019531 180.898438 82.164062 180.761719 82.320312 180.632812 Z M 121.351562 94.050781 C 127.5 94.050781 133.0625 96.539062 137.089844 100.566406 C 141.121094 104.597656 143.613281 110.160156 143.613281 116.308594 C 143.613281 122.453125 141.121094 128.019531 137.089844 132.046875 C 133.0625 136.074219 127.5 138.566406 121.351562 138.566406 C 115.207031 138.566406 109.640625 136.074219 105.613281 132.046875 C 101.585938 128.019531 99.09375 122.453125 99.09375 116.308594 C 99.09375 110.160156 101.585938 104.597656 105.613281 100.566406 C 109.640625 96.539062 115.207031 94.050781 121.351562 94.050781 Z M 131.378906 106.28125 C 128.8125 103.714844 125.269531 102.128906 121.351562 102.128906 C 117.4375 102.128906 113.890625 103.714844 111.324219 106.28125 C 108.757812 108.847656 107.171875 112.390625 107.171875 116.308594 C 107.171875 120.222656 108.761719 123.769531 111.324219 126.332031 C 113.890625 128.898438 117.4375 130.488281 121.351562 130.488281 C 125.269531 130.488281 128.8125 128.898438 131.378906 126.332031 C 133.945312 123.769531 135.53125 120.222656 135.53125 116.308594 C 135.53125 112.390625 133.945312 108.847656 131.378906 106.28125 Z M 127.074219 170.808594 L 157.402344 183.125 C 161.335938 184.722656 164.261719 187.789062 165.808594 191.445312 C 167.351562 195.09375 167.507812 199.328125 165.914062 203.257812 L 165.90625 203.273438 C 164.308594 207.203125 161.242188 210.121094 157.59375 211.664062 C 153.941406 213.207031 149.710938 213.367188 145.777344 211.769531 L 127.074219 204.175781 L 127.074219 230.816406 L 147.707031 251.75 C 148.863281 252.949219 149.824219 254.277344 150.558594 255.703125 C 151.109375 256.765625 151.53125 257.882812 151.816406 259.039062 C 152.105469 259.597656 152.269531 260.234375 152.269531 260.90625 L 152.269531 289.988281 C 152.269531 294.242188 150.53125 298.109375 147.730469 300.910156 C 144.933594 303.710938 141.066406 305.449219 136.808594 305.449219 C 132.554688 305.449219 128.6875 303.710938 125.886719 300.910156 C 123.085938 298.109375 121.347656 294.242188 121.347656 289.988281 L 121.347656 270.214844 L 107.917969 259.785156 L 93.433594 308.121094 C 92.210938 312.199219 89.4375 315.40625 85.949219 317.285156 C 82.535156 319.125 78.4375 319.695312 74.449219 318.574219 C 74.269531 318.53125 74.097656 318.480469 73.925781 318.417969 C 69.976562 317.15625 66.871094 314.425781 65.03125 311.011719 C 63.195312 307.601562 62.621094 303.503906 63.746094 299.515625 C 63.78125 299.347656 63.828125 299.1875 63.886719 299.03125 L 82.371094 237.351562 C 82.429688 237.152344 82.503906 236.960938 82.589844 236.777344 C 81.441406 234.101562 80.847656 231.191406 80.847656 228.113281 L 80.847656 193.195312 L 76.625 197.238281 L 67.9375 222.269531 C 65.511719 229.265625 60.054688 232.4375 54.410156 232.71875 C 52.296875 232.824219 50.179688 232.511719 48.207031 231.835938 C 46.214844 231.152344 44.34375 230.09375 42.757812 228.710938 C 38.574219 225.070312 36.328125 219.335938 38.722656 212.433594 L 49.667969 180.890625 C 49.882812 180.257812 50.242188 179.714844 50.695312 179.285156 L 50.691406 179.28125 L 81.699219 149.792969 C 88.179688 143.628906 95.773438 140.585938 102.867188 140.585938 C 105.980469 140.585938 109.007812 141.171875 111.828125 142.34375 C 114.648438 143.515625 117.230469 145.269531 119.445312 147.601562 C 124.097656 152.496094 127.070312 159.867188 127.070312 169.613281 L 127.070312 170.8125 Z M 127.074219 195.464844 L 127.074219 179.519531 L 154.371094 190.605469 C 156.257812 191.371094 157.65625 192.832031 158.390625 194.570312 C 159.109375 196.265625 159.195312 198.230469 158.492188 200.078125 C 158.449219 200.175781 158.410156 200.273438 158.375 200.371094 C 157.59375 202.1875 156.164062 203.53125 154.46875 204.25 C 152.773438 204.964844 150.804688 205.054688 148.960938 204.351562 C 148.851562 204.300781 148.738281 204.257812 148.625 204.214844 Z M 88.578125 244.738281 C 88.773438 244.902344 88.972656 245.0625 89.175781 245.222656 C 89.234375 245.273438 89.292969 245.320312 89.355469 245.367188 L 101.085938 254.480469 L 85.703125 305.816406 C 85.121094 307.757812 83.796875 309.285156 82.128906 310.183594 C 80.460938 311.082031 78.449219 311.351562 76.5 310.765625 C 74.558594 310.183594 73.03125 308.859375 72.136719 307.195312 C 71.234375 305.523438 70.96875 303.511719 71.550781 301.566406 Z M 88.578125 244.738281 " fill-opacity="1" fill-rule="evenodd"/></g><g clip-path="url(#2bb2f2243c)"><path fill="#005de0" d="M 235.207031 236.304688 L 273.96875 236.304688 C 276.199219 236.304688 278.007812 238.113281 278.007812 240.34375 L 278.007812 333.09375 C 278.007812 335.324219 276.199219 337.132812 273.96875 337.132812 L 235.207031 337.132812 C 232.972656 337.132812 231.164062 335.324219 231.164062 333.09375 L 231.164062 240.34375 C 231.164062 238.113281 232.972656 236.304688 235.207031 236.304688 Z M 117.242188 311.449219 L 156.007812 311.449219 C 158.238281 311.449219 160.046875 313.257812 160.046875 315.492188 L 160.046875 333.09375 C 160.046875 335.324219 158.238281 337.132812 156.007812 337.132812 L 117.242188 337.132812 C 115.011719 337.132812 113.203125 335.324219 113.203125 333.09375 L 113.203125 315.492188 C 113.203125 313.257812 115.011719 311.449219 117.242188 311.449219 Z M 151.96875 319.53125 L 121.285156 319.53125 L 121.285156 329.054688 L 151.96875 329.054688 Z M 294.519531 170.683594 L 333.28125 170.683594 C 335.511719 170.683594 337.320312 172.492188 337.320312 174.722656 L 337.320312 333.09375 C 337.320312 335.324219 335.511719 337.132812 333.28125 337.132812 L 294.519531 337.132812 C 292.289062 337.132812 290.480469 335.324219 290.480469 333.09375 L 290.480469 174.722656 C 290.480469 172.492188 292.289062 170.683594 294.519531 170.683594 Z M 329.242188 178.765625 L 298.558594 178.765625 L 298.558594 329.054688 L 329.242188 329.054688 Z M 175.890625 281.285156 L 214.65625 281.285156 C 216.886719 281.285156 218.695312 283.09375 218.695312 285.328125 L 218.695312 333.09375 C 218.695312 335.324219 216.886719 337.132812 214.65625 337.132812 L 175.890625 337.132812 C 173.660156 337.132812 171.851562 335.324219 171.851562 333.09375 L 171.851562 285.328125 C 171.851562 283.09375 173.660156 281.285156 175.890625 281.285156 Z M 210.617188 289.367188 L 179.933594 289.367188 L 179.933594 329.054688 L 210.617188 329.054688 Z M 269.929688 244.382812 L 239.246094 244.382812 L 239.246094 329.054688 L 269.929688 329.054688 Z M 269.929688 244.382812 " fill-opacity="1" fill-rule="evenodd"/></g><g clip-path="url(#a1792b7bec)"><path fill="#ff6600" d="M 268.011719 37.867188 L 285.957031 37.867188 C 287.960938 37.867188 289.78125 38.683594 291.097656 40 C 292.417969 41.316406 293.234375 43.136719 293.234375 45.144531 L 293.234375 48.960938 C 293.695312 49.132812 294.144531 49.308594 294.582031 49.492188 C 295.023438 49.671875 295.464844 49.867188 295.910156 50.066406 L 298.609375 47.371094 C 300.027344 45.949219 301.890625 45.242188 303.753906 45.242188 C 305.617188 45.242188 307.480469 45.953125 308.898438 47.371094 L 321.589844 60.058594 C 323.007812 61.476562 323.71875 63.34375 323.71875 65.207031 C 323.71875 67.066406 323.007812 68.933594 321.589844 70.351562 L 318.890625 73.050781 C 319.09375 73.492188 319.285156 73.933594 319.46875 74.375 C 319.648438 74.816406 319.828125 75.265625 320 75.726562 L 323.816406 75.726562 C 325.820312 75.726562 327.640625 76.542969 328.957031 77.859375 C 330.277344 79.175781 331.09375 81 331.09375 83.003906 L 331.09375 100.949219 C 331.09375 102.953125 330.277344 104.777344 328.957031 106.09375 C 327.640625 107.410156 325.820312 108.226562 323.816406 108.226562 L 320 108.226562 C 319.828125 108.6875 319.652344 109.136719 319.46875 109.574219 C 319.285156 110.015625 319.09375 110.457031 318.890625 110.902344 L 321.589844 113.601562 C 321.691406 113.707031 321.789062 113.8125 321.882812 113.925781 C 323.105469 115.300781 323.71875 117.027344 323.71875 118.746094 C 323.71875 120.597656 323.007812 122.457031 321.589844 123.878906 L 321.582031 123.882812 L 321.589844 123.894531 L 308.898438 136.582031 C 307.480469 138 305.613281 138.710938 303.753906 138.710938 C 301.890625 138.710938 300.027344 138 298.609375 136.582031 L 295.910156 133.882812 C 295.464844 134.085938 295.023438 134.277344 294.585938 134.460938 C 294.144531 134.644531 293.695312 134.820312 293.234375 134.992188 L 293.234375 138.808594 C 293.234375 140.816406 292.417969 142.636719 291.097656 143.953125 C 289.78125 145.269531 287.960938 146.085938 285.957031 146.085938 L 268.011719 146.085938 C 266.003906 146.085938 264.183594 145.269531 262.867188 143.953125 C 261.550781 142.632812 260.730469 140.816406 260.730469 138.808594 L 260.730469 134.992188 C 260.273438 134.820312 259.824219 134.644531 259.382812 134.460938 C 258.945312 134.28125 258.5 134.085938 258.058594 133.886719 L 255.359375 136.582031 C 253.941406 138 252.074219 138.710938 250.214844 138.710938 C 248.351562 138.710938 246.484375 138 245.066406 136.582031 L 232.378906 123.894531 C 230.960938 122.476562 230.25 120.609375 230.25 118.746094 C 230.25 116.894531 230.960938 115.035156 232.378906 113.617188 L 232.386719 113.609375 L 232.378906 113.601562 L 235.074219 110.902344 C 234.875 110.460938 234.683594 110.019531 234.5 109.578125 C 234.316406 109.136719 234.140625 108.6875 233.96875 108.226562 L 230.152344 108.226562 C 228.148438 108.226562 226.324219 107.410156 225.007812 106.09375 C 223.691406 104.777344 222.875 102.957031 222.875 100.949219 L 222.875 83.003906 C 222.875 81 223.691406 79.175781 225.007812 77.859375 C 226.328125 76.542969 228.148438 75.726562 230.152344 75.726562 L 233.96875 75.726562 C 234.140625 75.265625 234.316406 74.816406 234.5 74.375 C 234.683594 73.9375 234.875 73.496094 235.078125 73.050781 L 232.378906 70.351562 C 232.273438 70.246094 232.175781 70.136719 232.085938 70.027344 C 230.863281 68.652344 230.25 66.925781 230.25 65.207031 C 230.25 63.355469 230.960938 61.496094 232.378906 60.074219 L 232.386719 60.066406 L 232.378906 60.058594 L 245.066406 47.371094 C 246.484375 45.953125 248.351562 45.242188 250.214844 45.242188 C 252.078125 45.242188 253.941406 45.953125 255.359375 47.371094 L 258.058594 50.070312 C 258.5 49.867188 258.941406 49.675781 259.382812 49.492188 C 259.824219 49.3125 260.273438 49.132812 260.734375 48.960938 L 260.734375 45.144531 C 260.734375 43.140625 261.550781 41.320312 262.867188 40.003906 C 264.1875 38.6875 266.007812 37.867188 268.011719 37.867188 Z M 246.652344 172.117188 C 247.738281 172.289062 248.753906 172.902344 249.40625 173.894531 C 250.03125 174.855469 250.199219 175.984375 249.957031 177.019531 L 246.070312 197.058594 C 245.652344 199.246094 243.539062 200.679688 241.351562 200.261719 C 239.164062 199.84375 237.730469 197.730469 238.148438 195.542969 L 240.246094 184.726562 L 189.613281 217.960938 C 187.746094 219.179688 185.246094 218.65625 184.027344 216.792969 C 182.808594 214.929688 183.328125 212.425781 185.195312 211.207031 L 235.523438 178.171875 L 225.074219 176.144531 C 222.886719 175.726562 221.453125 173.613281 221.871094 171.425781 C 222.289062 169.238281 224.402344 167.804688 226.589844 168.222656 Z M 276.984375 68.121094 C 270.394531 68.121094 264.433594 70.789062 260.113281 75.109375 C 255.796875 79.425781 253.128906 85.390625 253.128906 91.976562 C 253.128906 98.5625 255.796875 104.527344 260.113281 108.84375 C 264.429688 113.160156 270.394531 115.832031 276.980469 115.832031 C 283.570312 115.832031 289.53125 113.160156 293.851562 108.84375 C 298.167969 104.527344 300.835938 98.5625 300.835938 91.976562 C 300.835938 85.390625 298.167969 79.425781 293.851562 75.109375 C 289.535156 70.792969 283.570312 68.121094 276.980469 68.121094 Z M 288.136719 80.820312 C 285.285156 77.964844 281.339844 76.199219 276.984375 76.199219 C 272.625 76.199219 268.683594 77.964844 265.828125 80.820312 C 262.972656 83.675781 261.207031 87.621094 261.207031 91.976562 C 261.207031 96.332031 262.972656 100.277344 265.828125 103.132812 C 268.683594 105.984375 272.625 107.75 276.984375 107.75 C 281.339844 107.75 285.285156 105.984375 288.136719 103.132812 C 290.992188 100.277344 292.757812 96.332031 292.757812 91.976562 C 292.757812 87.617188 290.992188 83.675781 288.136719 80.820312 Z M 285.15625 45.945312 L 268.8125 45.945312 L 268.8125 51.839844 L 268.796875 51.839844 C 268.796875 53.566406 267.675781 55.160156 265.9375 55.6875 C 264.816406 56.03125 263.660156 56.449219 262.472656 56.9375 C 261.394531 57.386719 260.382812 57.859375 259.433594 58.351562 C 257.867188 59.367188 255.753906 59.191406 254.382812 57.816406 L 250.210938 53.648438 L 238.65625 65.203125 L 242.824219 69.375 L 242.816406 69.382812 C 244.035156 70.601562 244.375 72.523438 243.519531 74.125 C 242.96875 75.15625 242.441406 76.273438 241.945312 77.46875 C 241.503906 78.535156 241.121094 79.582031 240.796875 80.601562 C 240.414062 82.429688 238.789062 83.804688 236.847656 83.804688 L 230.953125 83.804688 L 230.953125 100.144531 L 236.84375 100.144531 L 236.84375 100.164062 C 238.570312 100.160156 240.167969 101.28125 240.695312 103.019531 C 241.035156 104.140625 241.457031 105.300781 241.945312 106.484375 C 242.394531 107.5625 242.863281 108.578125 243.359375 109.523438 C 244.375 111.089844 244.195312 113.203125 242.824219 114.574219 L 238.65625 118.746094 L 250.210938 130.300781 L 254.382812 126.132812 L 254.390625 126.144531 C 255.609375 124.921875 257.53125 124.585938 259.132812 125.4375 C 260.164062 125.992188 261.28125 126.515625 262.476562 127.011719 C 263.542969 127.453125 264.589844 127.835938 265.609375 128.160156 C 267.4375 128.542969 268.8125 130.167969 268.8125 132.113281 L 268.8125 138.003906 L 285.15625 138.003906 L 285.15625 132.113281 L 285.171875 132.113281 C 285.167969 130.386719 286.289062 128.789062 288.027344 128.261719 C 289.148438 127.921875 290.308594 127.5 291.492188 127.011719 C 292.570312 126.5625 293.585938 126.089844 294.53125 125.597656 C 296.097656 124.582031 298.210938 124.761719 299.585938 126.132812 L 303.753906 130.300781 L 315.308594 118.746094 L 311.140625 114.574219 L 311.152344 114.566406 C 309.929688 113.347656 309.59375 111.425781 310.445312 109.824219 C 311 108.792969 311.523438 107.675781 312.019531 106.480469 C 312.464844 105.414062 312.847656 104.367188 313.167969 103.347656 C 313.554688 101.519531 315.175781 100.144531 317.121094 100.144531 L 323.015625 100.144531 L 323.015625 83.804688 L 317.121094 83.804688 L 317.121094 83.785156 C 315.394531 83.789062 313.796875 82.667969 313.269531 80.929688 C 312.929688 79.808594 312.511719 78.648438 312.019531 77.464844 C 311.570312 76.386719 311.101562 75.371094 310.605469 74.425781 C 309.589844 72.859375 309.769531 70.746094 311.140625 69.371094 L 315.308594 65.203125 L 303.753906 53.644531 L 299.582031 57.816406 L 299.574219 57.804688 C 298.355469 59.027344 296.433594 59.363281 294.832031 58.511719 C 293.800781 57.957031 292.683594 57.433594 291.488281 56.9375 C 290.421875 56.492188 289.375 56.109375 288.355469 55.789062 C 286.527344 55.402344 285.152344 53.78125 285.152344 51.835938 L 285.152344 45.941406 Z M 285.15625 45.945312 " fill-opacity="1" fill-rule="evenodd"/></g></svg>